<?xml version="1.0" encoding="utf-8"?>
<!-- Generator: Adobe Illustrator 22.0.1, SVG Export Plug-In . SVG Version: 6.00 Build 0)  -->
<svg version="1.1" id="Capa_1" xmlns="http://www.w3.org/2000/svg" xmlns:xlink="http://www.w3.org/1999/xlink" x="0px" y="0px"
	 viewBox="0 0 600 792" style="enable-background:new 0 0 600 792;" xml:space="preserve">
<style type="text/css">
	.st0{fill:#838384;}
	.st1{opacity:0.33;}
	.st2{fill:#FFFFFF;}
	.st3{opacity:0.39;}
</style>
<rect x="-13.6" y="-5.9" class="st0" width="627.1" height="804.9"/>
<g class="st1">
	<g>
		<g>
			<path class="st2" d="M222.9,163.1c-4.9,0-9,4-9,9c0,1.8,0.5,3.5,1.5,4.9l-9.7,9.7c-1.4-0.9-3.1-1.5-4.9-1.5c-1.9,0-3.6,0.6-5,1.6
				L186,177c0.9-1.4,1.5-3.1,1.5-4.9c0-4.9-4-9-9-9c-4.9,0-9,4-9,9c0,1.8,0.5,3.5,1.5,4.9l-9.7,9.7c-1.4-0.9-3.1-1.5-4.9-1.5
				c-4.9,0-9,4-9,9c0,4.9,4,9,9,9c4.9,0,9-4,9-9c0-1.8-0.5-3.5-1.5-4.9l9.7-9.7c1.4,0.9,3.1,1.5,4.9,1.5c1.8,0,3.5-0.5,4.9-1.5
				l9.8,9.8c-0.9,1.4-1.4,3-1.4,4.7c0,4.9,4,9,9,9s9-4,9-9c0-1.8-0.5-3.5-1.5-4.9l9.7-9.7c1.4,0.9,3.1,1.5,4.9,1.5c4.9,0,9-4,9-9
				C231.9,167.1,227.8,163.1,222.9,163.1z M156.4,199.4c-2.9,0-5.3-2.4-5.3-5.3c0-2.9,2.4-5.3,5.3-5.3c2.9,0,5.3,2.4,5.3,5.3
				C161.7,197.1,159.3,199.4,156.4,199.4z M178.5,177.3c-2.9,0-5.3-2.4-5.3-5.3c0-2.9,2.4-5.3,5.3-5.3s5.3,2.4,5.3,5.3
				S181.4,177.3,178.5,177.3z M200.8,199.4c-2.9,0-5.3-2.4-5.3-5.3s2.4-5.3,5.3-5.3c2.9,0,5.3,2.4,5.3,5.3
				C206.1,197.1,203.7,199.4,200.8,199.4z M222.9,177.3c-2.9,0-5.3-2.4-5.3-5.3c0-2.9,2.4-5.3,5.3-5.3c2.9,0,5.3,2.4,5.3,5.3
				S225.8,177.3,222.9,177.3z"/>
		</g>
	</g>
	<g>
		<g>
			<path class="st2" d="M176.6,185.9c-0.7-0.7-1.9-0.7-2.6,0l-3.8,3.8c-0.7,0.7-0.7,1.9,0,2.6c0.4,0.4,0.8,0.5,1.3,0.5
				s0.9-0.2,1.3-0.5l3.8-3.8C177.3,187.8,177.3,186.6,176.6,185.9z"/>
		</g>
	</g>
	<g>
		<g>
			<path class="st2" d="M209.1,174c-0.7-0.7-1.9-0.7-2.6,0l-3.8,3.8c-0.7,0.7-0.7,1.9,0,2.6c0.4,0.4,0.8,0.5,1.3,0.5
				s0.9-0.2,1.3-0.5l3.8-3.8C209.8,175.9,209.8,174.8,209.1,174z"/>
		</g>
	</g>
</g>
<g class="st1">
	<g>
		<g>
			<path class="st2" d="M479.7,153.1c-2.5,0-4.5,2-4.5,4.5c0,0.9,0.3,1.7,0.7,2.4l-4.8,4.8c-0.7-0.5-1.5-0.7-2.4-0.7
				s-1.8,0.3-2.5,0.8l-4.9-4.9c0.5-0.7,0.7-1.5,0.7-2.4c0-2.5-2-4.5-4.5-4.5s-4.5,2-4.5,4.5c0,0.9,0.3,1.7,0.7,2.4l-4.8,4.8
				c-0.7-0.5-1.5-0.7-2.4-0.7c-2.5,0-4.5,2-4.5,4.5s2,4.5,4.5,4.5s4.5-2,4.5-4.5c0-0.9-0.3-1.7-0.7-2.4l4.8-4.8
				c0.7,0.5,1.5,0.7,2.4,0.7s1.7-0.3,2.4-0.7l4.9,4.9c-0.4,0.7-0.7,1.5-0.7,2.4c0,2.5,2,4.5,4.5,4.5s4.5-2,4.5-4.5
				c0-0.9-0.3-1.7-0.7-2.4l4.8-4.8c0.7,0.5,1.5,0.7,2.4,0.7c2.5,0,4.5-2,4.5-4.5C484.2,155.1,482.2,153.1,479.7,153.1z M446.5,171.3
				c-1.4,0-2.6-1.2-2.6-2.6c0-1.4,1.2-2.6,2.6-2.6s2.6,1.2,2.6,2.6S447.9,171.3,446.5,171.3z M457.5,160.2c-1.4,0-2.6-1.2-2.6-2.6
				c0-1.4,1.2-2.6,2.6-2.6s2.6,1.2,2.6,2.6S459,160.2,457.5,160.2z M468.7,171.3c-1.4,0-2.6-1.2-2.6-2.6s1.2-2.6,2.6-2.6
				s2.6,1.2,2.6,2.6C471.3,170.1,470.1,171.3,468.7,171.3z M479.7,160.2c-1.4,0-2.6-1.2-2.6-2.6c0-1.4,1.2-2.6,2.6-2.6
				s2.6,1.2,2.6,2.6S481.2,160.2,479.7,160.2z"/>
		</g>
	</g>
	<g>
		<g>
			<path class="st2" d="M456.6,164.5c-0.4-0.4-0.9-0.4-1.3,0l-1.9,1.9c-0.4,0.4-0.4,0.9,0,1.3c0.2,0.2,0.4,0.3,0.7,0.3
				s0.5-0.1,0.7-0.3l1.9-1.9C456.9,165.4,456.9,164.9,456.6,164.5z"/>
		</g>
	</g>
	<g>
		<g>
			<path class="st2" d="M472.8,158.6c-0.4-0.4-0.9-0.4-1.3,0l-1.9,1.9c-0.4,0.4-0.4,0.9,0,1.3c0.2,0.2,0.4,0.3,0.7,0.3
				c0.2,0,0.5-0.1,0.7-0.3l1.9-1.9C473.2,159.5,473.2,158.9,472.8,158.6z"/>
		</g>
	</g>
</g>
<g class="st1">
	<g>
		<g>
			<path class="st2" d="M353.5,396.5c-3.7,0-6.7,3-6.7,6.7c0,1.4,0.4,2.6,1.1,3.7l-7.3,7.3c-1.1-0.7-2.3-1.1-3.7-1.1
				c-1.4,0-2.7,0.4-3.8,1.2l-7.3-7.3c0.7-1.1,1.1-2.3,1.1-3.7c0-3.7-3-6.7-6.7-6.7s-6.7,3-6.7,6.7c0,1.4,0.4,2.6,1.1,3.7l-7.3,7.3
				c-1.1-0.7-2.3-1.1-3.7-1.1c-3.7,0-6.7,3-6.7,6.7s3,6.7,6.7,6.7s6.7-3,6.7-6.7c0-1.4-0.4-2.6-1.1-3.7l7.3-7.3
				c1.1,0.7,2.3,1.1,3.7,1.1c1.4,0,2.6-0.4,3.7-1.1l7.4,7.4c-0.6,1-1,2.2-1,3.5c0,3.7,3,6.7,6.7,6.7s6.7-3,6.7-6.7
				c0-1.4-0.4-2.6-1.1-3.7l7.3-7.3c1.1,0.7,2.3,1.1,3.7,1.1c3.7,0,6.7-3,6.7-6.7C360.2,399.6,357.2,396.5,353.5,396.5z M303.6,423.8
				c-2.2,0-3.9-1.8-3.9-3.9c0-2.2,1.8-3.9,3.9-3.9c2.2,0,3.9,1.8,3.9,3.9C307.6,422,305.8,423.8,303.6,423.8z M320.2,407.2
				c-2.2,0-3.9-1.8-3.9-3.9c0-2.2,1.8-3.9,3.9-3.9c2.2,0,3.9,1.8,3.9,3.9C324.1,405.4,322.4,407.2,320.2,407.2z M336.9,423.8
				c-2.2,0-3.9-1.8-3.9-3.9c0-2.2,1.8-3.9,3.9-3.9c2.2,0,3.9,1.8,3.9,3.9C340.9,422,339.1,423.8,336.9,423.8z M353.5,407.2
				c-2.2,0-3.9-1.8-3.9-3.9c0-2.2,1.8-3.9,3.9-3.9c2.2,0,3.9,1.8,3.9,3.9C357.4,405.4,355.7,407.2,353.5,407.2z"/>
		</g>
	</g>
	<g>
		<g>
			<path class="st2" d="M318.8,413.6c-0.5-0.5-1.4-0.5-2,0l-2.8,2.8c-0.5,0.5-0.5,1.4,0,2c0.3,0.3,0.6,0.4,1,0.4s0.7-0.1,1-0.4
				l2.8-2.8C319.3,415,319.3,414.2,318.8,413.6z"/>
		</g>
	</g>
	<g>
		<g>
			<path class="st2" d="M343.2,404.7c-0.5-0.5-1.4-0.5-2,0l-2.8,2.8c-0.5,0.5-0.5,1.4,0,2c0.3,0.3,0.6,0.4,1,0.4s0.7-0.1,1-0.4
				l2.8-2.8C343.7,406.2,343.7,405.3,343.2,404.7z"/>
		</g>
	</g>
</g>
<g class="st1">
	<g>
		<g>
			<path class="st2" d="M367.4,61c-4.3,0-7.8,3.5-7.8,7.8c0,1.6,0.5,3,1.3,4.3l-8.5,8.5c-1.2-0.8-2.7-1.3-4.3-1.3
				c-1.6,0-3.2,0.5-4.4,1.4l-8.6-8.6c0.8-1.2,1.3-2.7,1.3-4.3c0-4.3-3.5-7.8-7.8-7.8s-7.8,3.5-7.8,7.8c0,1.6,0.5,3,1.3,4.3l-8.5,8.5
				c-1.2-0.8-2.7-1.3-4.3-1.3c-4.3,0-7.8,3.5-7.8,7.8s3.5,7.8,7.8,7.8s7.8-3.5,7.8-7.8c0-1.6-0.5-3-1.3-4.3l8.5-8.5
				c1.2,0.8,2.7,1.3,4.3,1.3c1.6,0,3-0.5,4.3-1.3l8.6,8.6c-0.8,1.2-1.2,2.6-1.2,4.1c0,4.3,3.5,7.8,7.8,7.8s7.8-3.5,7.8-7.8
				c0-1.6-0.5-3-1.3-4.3l8.5-8.5c1.2,0.8,2.7,1.3,4.3,1.3c4.3,0,7.8-3.5,7.8-7.8C375.2,64.6,371.7,61,367.4,61z M309.2,92.8
				c-2.5,0-4.6-2.1-4.6-4.6s2.1-4.6,4.6-4.6s4.6,2.1,4.6,4.6C313.8,90.7,311.7,92.8,309.2,92.8z M328.5,73.5c-2.5,0-4.6-2.1-4.6-4.6
				s2.1-4.6,4.6-4.6s4.6,2.1,4.6,4.6S331.1,73.5,328.5,73.5z M348.1,92.8c-2.5,0-4.6-2.1-4.6-4.6s2.1-4.6,4.6-4.6s4.6,2.1,4.6,4.6
				C352.7,90.7,350.6,92.8,348.1,92.8z M367.4,73.5c-2.5,0-4.6-2.1-4.6-4.6s2.1-4.6,4.6-4.6s4.6,2.1,4.6,4.6S369.9,73.5,367.4,73.5z
				"/>
		</g>
	</g>
	<g>
		<g>
			<path class="st2" d="M326.9,81c-0.6-0.6-1.7-0.6-2.3,0l-3.3,3.3c-0.6,0.6-0.6,1.7,0,2.3c0.3,0.3,0.7,0.5,1.1,0.5s0.8-0.2,1.1-0.5
				l3.3-3.3C327.5,82.6,327.5,81.6,326.9,81z"/>
		</g>
	</g>
	<g>
		<g>
			<path class="st2" d="M355.3,70.6c-0.6-0.6-1.7-0.6-2.3,0l-3.3,3.3c-0.6,0.6-0.6,1.7,0,2.3c0.3,0.3,0.7,0.5,1.1,0.5
				s0.8-0.2,1.1-0.5l3.3-3.3C355.9,72.3,355.9,71.2,355.3,70.6z"/>
		</g>
	</g>
</g>
<g class="st1">
	<g>
		<g>
			<path class="st2" d="M149.3,476.2c-4.9,0-9,4-9,9c0,1.8,0.5,3.5,1.5,4.9l-9.7,9.7c-1.4-0.9-3.1-1.5-4.9-1.5c-1.9,0-3.6,0.6-5,1.6
				l-9.8-9.8c0.9-1.4,1.5-3.1,1.5-4.9c0-4.9-4-9-9-9c-4.9,0-9,4-9,9c0,1.8,0.5,3.5,1.5,4.9l-9.7,9.7c-1.4-0.9-3.1-1.5-4.9-1.5
				c-4.9,0-9,4-9,9c0,4.9,4,9,9,9s9-4,9-9c0-1.8-0.5-3.5-1.5-4.9l9.7-9.7c1.4,0.9,3.1,1.5,4.9,1.5s3.5-0.5,4.9-1.5l9.8,9.8
				c-0.9,1.4-1.4,3-1.4,4.7c0,4.9,4,9,9,9c5,0,9-4,9-9c0-1.8-0.5-3.5-1.5-4.9l9.7-9.7c1.4,0.9,3.1,1.5,4.9,1.5c4.9,0,9-4,9-9
				C158.2,480.2,154.2,476.2,149.3,476.2z M82.8,512.4c-2.9,0-5.3-2.4-5.3-5.3s2.4-5.3,5.3-5.3s5.3,2.4,5.3,5.3
				C88,510.1,85.7,512.4,82.8,512.4z M104.8,490.4c-2.9,0-5.3-2.4-5.3-5.3s2.4-5.3,5.3-5.3s5.3,2.4,5.3,5.3S107.7,490.4,104.8,490.4
				z M127.2,512.4c-2.9,0-5.3-2.4-5.3-5.3s2.4-5.3,5.3-5.3c2.9,0,5.3,2.4,5.3,5.3C132.4,510.1,130.1,512.4,127.2,512.4z
				 M149.3,490.4c-2.9,0-5.3-2.4-5.3-5.3s2.4-5.3,5.3-5.3c2.9,0,5.3,2.4,5.3,5.3S152.1,490.4,149.3,490.4z"/>
		</g>
	</g>
	<g>
		<g>
			<path class="st2" d="M102.9,498.9c-0.7-0.7-1.9-0.7-2.6,0l-3.8,3.8c-0.7,0.7-0.7,1.9,0,2.6c0.4,0.4,0.8,0.5,1.3,0.5
				s0.9-0.2,1.3-0.5l3.8-3.8C103.7,500.8,103.7,499.6,102.9,498.9z"/>
		</g>
	</g>
	<g>
		<g>
			<path class="st2" d="M135.5,487.1c-0.7-0.7-1.9-0.7-2.6,0l-3.8,3.8c-0.7,0.7-0.7,1.9,0,2.6c0.4,0.4,0.8,0.5,1.3,0.5
				s0.9-0.2,1.3-0.5l3.8-3.8C136.2,489,136.2,487.8,135.5,487.1z"/>
		</g>
	</g>
</g>
<g class="st1">
	<g>
		<g>
			<path class="st2" d="M111.5,678.4c-2.5,0-4.5,2-4.5,4.5c0,0.9,0.3,1.7,0.7,2.4l-4.8,4.8c-0.7-0.5-1.5-0.7-2.4-0.7
				s-1.8,0.3-2.5,0.8l-4.9-4.9c0.5-0.7,0.7-1.5,0.7-2.4c0-2.5-2-4.5-4.5-4.5s-4.5,2-4.5,4.5c0,0.9,0.3,1.7,0.7,2.4l-4.8,4.8
				c-0.7-0.5-1.5-0.7-2.4-0.7c-2.5,0-4.5,2-4.5,4.5s2,4.5,4.5,4.5s4.5-2,4.5-4.5c0-0.9-0.3-1.7-0.7-2.4l4.8-4.8
				c0.7,0.5,1.5,0.7,2.4,0.7s1.7-0.3,2.4-0.7l4.9,4.9c-0.4,0.7-0.7,1.5-0.7,2.4c0,2.5,2,4.5,4.5,4.5s4.5-2,4.5-4.5
				c0-0.9-0.3-1.7-0.7-2.4l4.8-4.8c0.7,0.5,1.5,0.7,2.4,0.7c2.5,0,4.5-2,4.5-4.5C116,680.4,114,678.4,111.5,678.4z M78.3,696.6
				c-1.4,0-2.6-1.2-2.6-2.6c0-1.4,1.2-2.6,2.6-2.6s2.6,1.2,2.6,2.6C80.9,695.4,79.7,696.6,78.3,696.6z M89.3,685.5
				c-1.4,0-2.6-1.2-2.6-2.6c0-1.4,1.2-2.6,2.6-2.6s2.6,1.2,2.6,2.6C92,684.3,90.8,685.5,89.3,685.5z M100.5,696.6
				c-1.4,0-2.6-1.2-2.6-2.6c0-1.4,1.2-2.6,2.6-2.6s2.6,1.2,2.6,2.6C103.1,695.4,101.9,696.6,100.5,696.6z M111.5,685.5
				c-1.4,0-2.6-1.2-2.6-2.6c0-1.4,1.2-2.6,2.6-2.6s2.6,1.2,2.6,2.6C114.2,684.3,113,685.5,111.5,685.5z"/>
		</g>
	</g>
	<g>
		<g>
			<path class="st2" d="M88.4,689.8c-0.4-0.4-0.9-0.4-1.3,0l-1.9,1.9c-0.4,0.4-0.4,0.9,0,1.3c0.2,0.2,0.4,0.3,0.7,0.3
				s0.5-0.1,0.7-0.3l1.9-1.9C88.7,690.7,88.7,690.1,88.4,689.8z"/>
		</g>
	</g>
	<g>
		<g>
			<path class="st2" d="M104.6,683.9c-0.4-0.4-0.9-0.4-1.3,0l-1.9,1.9c-0.4,0.4-0.4,0.9,0,1.3c0.2,0.2,0.4,0.3,0.7,0.3
				c0.2,0,0.5-0.1,0.7-0.3l1.9-1.9C105,684.8,105,684.2,104.6,683.9z"/>
		</g>
	</g>
</g>
<g class="st1">
	<g>
		<g>
			<path class="st2" d="M529.3,715.6c-3.7,0-6.7,3-6.7,6.7c0,1.4,0.4,2.6,1.1,3.7l-7.3,7.3c-1.1-0.7-2.3-1.1-3.7-1.1
				c-1.4,0-2.7,0.4-3.8,1.2l-7.3-7.3c0.7-1.1,1.1-2.3,1.1-3.7c0-3.7-3-6.7-6.7-6.7s-6.7,3-6.7,6.7c0,1.4,0.4,2.6,1.1,3.7l-7.3,7.3
				c-1.1-0.7-2.3-1.1-3.7-1.1c-3.7,0-6.7,3-6.7,6.7s3,6.7,6.7,6.7s6.7-3,6.7-6.7c0-1.4-0.4-2.6-1.1-3.7l7.3-7.3
				c1.1,0.7,2.3,1.1,3.7,1.1c1.4,0,2.6-0.4,3.7-1.1l7.4,7.4c-0.6,1-1,2.2-1,3.5c0,3.7,3,6.7,6.7,6.7s6.7-3,6.7-6.7
				c0-1.4-0.4-2.6-1.1-3.7l7.3-7.3c1.1,0.7,2.3,1.1,3.7,1.1c3.7,0,6.7-3,6.7-6.7C536.1,718.6,533,715.6,529.3,715.6z M479.5,742.8
				c-2.2,0-3.9-1.8-3.9-3.9c0-2.2,1.8-3.9,3.9-3.9c2.2,0,3.9,1.8,3.9,3.9C483.4,741.1,481.6,742.8,479.5,742.8z M496,726.3
				c-2.2,0-3.9-1.8-3.9-3.9c0-2.2,1.8-3.9,3.9-3.9c2.2,0,3.9,1.8,3.9,3.9S498.2,726.3,496,726.3z M512.8,742.8
				c-2.2,0-3.9-1.8-3.9-3.9c0-2.2,1.8-3.9,3.9-3.9c2.2,0,3.9,1.8,3.9,3.9C516.7,741.1,514.9,742.8,512.8,742.8z M529.3,726.3
				c-2.2,0-3.9-1.8-3.9-3.9c0-2.2,1.8-3.9,3.9-3.9c2.2,0,3.9,1.8,3.9,3.9S531.5,726.3,529.3,726.3z"/>
		</g>
	</g>
	<g>
		<g>
			<path class="st2" d="M494.6,732.7c-0.5-0.5-1.4-0.5-2,0l-2.8,2.8c-0.5,0.5-0.5,1.4,0,2c0.3,0.3,0.6,0.4,1,0.4s0.7-0.1,1-0.4
				l2.8-2.8C495.1,734.1,495.1,733.2,494.6,732.7z"/>
		</g>
	</g>
	<g>
		<g>
			<path class="st2" d="M519,723.8c-0.5-0.5-1.4-0.5-2,0l-2.8,2.8c-0.5,0.5-0.5,1.4,0,2c0.3,0.3,0.6,0.4,1,0.4s0.7-0.1,1-0.4
				l2.8-2.8C519.5,725.2,519.5,724.4,519,723.8z"/>
		</g>
	</g>
</g>
<g class="st1">
	<g>
		<g>
			<path class="st2" d="M320.7,562c-4.3,0-7.8,3.5-7.8,7.8c0,1.6,0.5,3,1.3,4.3l-8.5,8.5c-1.2-0.8-2.7-1.3-4.3-1.3
				c-1.6,0-3.2,0.5-4.4,1.4l-8.6-8.6c0.8-1.2,1.3-2.7,1.3-4.3c0-4.3-3.5-7.8-7.8-7.8s-7.8,3.5-7.8,7.8c0,1.6,0.5,3,1.3,4.3l-8.5,8.5
				c-1.2-0.8-2.7-1.3-4.3-1.3c-4.3,0-7.8,3.5-7.8,7.8s3.5,7.8,7.8,7.8s7.8-3.5,7.8-7.8c0-1.6-0.5-3-1.3-4.3l8.5-8.5
				c1.2,0.8,2.7,1.3,4.3,1.3c1.6,0,3-0.5,4.3-1.3l8.6,8.6c-0.8,1.2-1.2,2.6-1.2,4.1c0,4.3,3.5,7.8,7.8,7.8s7.8-3.5,7.8-7.8
				c0-1.6-0.5-3-1.3-4.3l8.5-8.5c1.2,0.8,2.7,1.3,4.3,1.3c4.3,0,7.8-3.5,7.8-7.8C328.6,565.5,325.1,562,320.7,562z M262.6,593.7
				c-2.5,0-4.6-2.1-4.6-4.6s2.1-4.6,4.6-4.6s4.6,2.1,4.6,4.6C267.2,591.7,265.1,593.7,262.6,593.7z M281.9,574.4
				c-2.5,0-4.6-2.1-4.6-4.6s2.1-4.6,4.6-4.6s4.6,2.1,4.6,4.6C286.5,572.4,284.4,574.4,281.9,574.4z M301.4,593.7
				c-2.5,0-4.6-2.1-4.6-4.6s2.1-4.6,4.6-4.6s4.6,2.1,4.6,4.6C306,591.7,303.9,593.7,301.4,593.7z M320.7,574.4
				c-2.5,0-4.6-2.1-4.6-4.6s2.1-4.6,4.6-4.6s4.6,2.1,4.6,4.6C325.3,572.4,323.3,574.4,320.7,574.4z"/>
		</g>
	</g>
	<g>
		<g>
			<path class="st2" d="M280.2,581.9c-0.6-0.6-1.7-0.6-2.3,0l-3.3,3.3c-0.6,0.6-0.6,1.7,0,2.3c0.3,0.3,0.7,0.5,1.1,0.5
				s0.8-0.2,1.1-0.5l3.3-3.3C280.8,583.6,280.8,582.5,280.2,581.9z"/>
		</g>
	</g>
	<g>
		<g>
			<path class="st2" d="M308.7,571.5c-0.6-0.6-1.7-0.6-2.3,0l-3.3,3.3c-0.6,0.6-0.6,1.7,0,2.3c0.3,0.3,0.7,0.5,1.1,0.5
				s0.8-0.2,1.1-0.5l3.3-3.3C309.3,573.2,309.3,572.2,308.7,571.5z"/>
		</g>
	</g>
</g>
<g class="st3">
	<path class="st2" d="M469.2,493.7c-0.6,0.6-0.9,1.3-0.9,2.2c0,0.8,0.3,1.6,0.9,2.2l1.9,1.9c0.5,0.5,1.1,0.8,1.7,0.9
		c0.1,0.6,0.4,1.2,0.9,1.7l1.6,1.6c0.6,0.6,1.5,1,2.4,1s1.8-0.4,2.4-1l13.4-13.4c1.3-1.3,1.3-3.5,0-4.8l-1.6-1.6
		c-0.5-0.5-1.1-0.8-1.7-0.9c-0.1-0.7-0.4-1.2-0.9-1.7l-1.9-1.9c-0.6-0.6-1.4-0.9-2.2-0.9c-0.8,0-1.6,0.3-2.1,0.9l-15-15
		c0.6-0.6,0.9-1.3,0.9-2.2c0-0.8-0.3-1.6-0.9-2.2l-1.9-1.9c-0.5-0.5-1.1-0.8-1.7-0.9c-0.1-0.6-0.4-1.3-0.9-1.8l-1.6-1.6
		c-1.3-1.3-3.5-1.3-4.8,0l-13.4,13.4c-0.6,0.6-1,1.5-1,2.4s0.4,1.8,1,2.4l1.6,1.6c0.5,0.5,1.1,0.8,1.7,0.9c0.1,0.6,0.4,1.2,0.9,1.7
		l1.9,1.9c0.6,0.6,1.4,0.9,2.2,0.9l0,0c0.8,0,1.6-0.3,2.1-0.9l2.4,2.4c0.4,0.4,0.4,1.2,0,1.6l-11,11l-1.1-1.1
		c-1.8-1.8-4.7-1.8-6.4,0c-1.8,1.8-1.8,4.7,0,6.4l1.1,1.1l-13.7,13.7c-0.8,0.8-1.8,1.4-2.9,1.6l-4.4,1.1c-1.6,0.4-3.1,1.3-4.3,2.4
		l-0.5,0.5c-1.7,1.8-2.7,4.1-2.7,6.6s1,4.8,2.7,6.6l1.9,1.9c1.8,1.8,4.1,2.7,6.6,2.7s4.8-1,6.6-2.7l0.5-0.5c1.2-1.2,2-2.7,2.4-4.3
		l1.1-4.4c0.3-1.1,0.8-2.1,1.6-2.9l13.7-13.7l1.1,1.1c1.7,1.7,4.7,1.7,6.4,0c0.9-0.9,1.3-2,1.3-3.2s-0.5-2.4-1.3-3.2l-1.1-1.1l11-11
		c0.4-0.4,1.2-0.4,1.6,0L469.2,493.7z M491.5,488.4c0,0.1,0,0.2-0.1,0.3L478,502c-0.2,0.2-0.3,0.2-0.5,0l-1.6-1.6
		c-0.1-0.1-0.1-0.4,0-0.5l13.4-13.4c0.1-0.1,0.2-0.1,0.3-0.1s0.2,0,0.3,0.1l1.6,1.6C491.5,488.2,491.5,488.3,491.5,488.4z
		 M445.7,470.1c0-0.1,0-0.2,0.1-0.3l13.4-13.4c0.1-0.1,0.2-0.1,0.3-0.1s0.2,0,0.3,0.1l1.6,1.6c0.1,0.1,0.1,0.4,0,0.5L447.9,472
		c-0.1,0.1-0.4,0.1-0.5,0l-1.6-1.6C445.7,470.3,445.7,470.2,445.7,470.1z M463,489.2l-13.1,13.1l3.2,3.2c0.3,0.3,0.4,0.7,0.4,1.1
		s-0.2,0.8-0.4,1.1c-0.6,0.6-1.6,0.6-2.1,0l-3.2-3.2l-15.9,15.9c-1.2,1.2-2,2.7-2.4,4.3l-1.1,4.4c-0.3,1.1-0.8,2.1-1.6,2.9l-0.5,0.5
		c-1.2,1.2-2.8,1.8-4.4,1.8s-3.3-0.7-4.4-1.8l-1.9-1.9c-1.2-1.2-1.8-2.8-1.8-4.4s0.7-3.2,1.8-4.4l0.5-0.5c0.8-0.8,1.8-1.4,2.9-1.6
		l4.4-1.1c1.6-0.4,3.1-1.3,4.3-2.4l15.9-15.9l-3.2-3.2c-0.6-0.6-0.6-1.6,0-2.1c0.3-0.3,0.7-0.4,1.1-0.4s0.8,0.1,1.1,0.4l3.2,3.2
		l13.1-13.1c1.6-1.6,1.6-4.3,0-5.9l-2.4-2.4c-0.6-0.6-1.3-0.9-2.1-0.9l0,0c-0.8,0-1.6,0.3-2.1,0.9l-1.9-1.9
		c-0.1-0.1-0.1-0.2-0.1-0.3s0-0.2,0.1-0.3l13.4-13.4c0.2-0.2,0.3-0.2,0.5,0l1.9,1.9c-0.6,0.6-0.9,1.3-0.9,2.1c0,0.8,0.3,1.6,0.9,2.2
		l15,15c0.6,0.6,1.3,0.9,2.1,0.9l0,0c0.8,0,1.6-0.3,2.1-0.9l1.9,1.9c0.1,0.1,0.1,0.2,0.1,0.3c0,0.1,0,0.2-0.1,0.3L473.9,498l0,0
		c-0.1,0.1-0.4,0.1-0.5,0l-1.9-1.9c0.6-0.6,0.9-1.3,0.9-2.1c0-0.8-0.3-1.6-0.9-2.2l-2.4-2.4C467.2,487.5,464.6,487.5,463,489.2z"/>
	<path class="st2" d="M490.9,531.2h-13.6c-5.9,0-10.6,4.8-10.6,10.6v1.5h34.9v-1.5C501.5,536,496.7,531.2,490.9,531.2z M469.8,540.3
		c0.7-3.5,3.8-6.1,7.4-6.1h13.6c3.7,0,6.7,2.6,7.4,6.1H469.8z"/>
	<path class="st2" d="M474.2,526.7c-0.8,0-1.5,0.7-1.5,1.5s0.7,1.5,1.5,1.5h19.7c0.8,0,1.5-0.7,1.5-1.5s-0.7-1.5-1.5-1.5H474.2z"/>
</g>
<g class="st3">
	<path class="st2" d="M98.9,310.8c-0.5,0.4-0.7,1-0.7,1.7c0,0.6,0.2,1.2,0.7,1.7l1.5,1.5c0.4,0.4,0.9,0.6,1.3,0.7
		c0.1,0.5,0.3,1,0.7,1.3l1.3,1.3c0.5,0.5,1.2,0.8,1.9,0.8c0.7,0,1.4-0.3,1.9-0.8l10.4-10.4c1-1,1-2.7,0-3.7l-1.3-1.3
		c-0.4-0.4-0.8-0.6-1.3-0.7c-0.1-0.5-0.3-1-0.7-1.3l-1.5-1.5c-0.4-0.4-1.1-0.7-1.7-0.7s-1.2,0.2-1.6,0.7L98,288.3
		c0.5-0.4,0.7-1,0.7-1.7c0-0.6-0.2-1.2-0.7-1.7l-1.5-1.5c-0.4-0.4-0.8-0.6-1.3-0.7c-0.1-0.5-0.3-1-0.7-1.4l-1.3-1.3
		c-1-1-2.7-1-3.7,0L79,290.6c-0.5,0.5-0.8,1.2-0.8,1.9c0,0.7,0.3,1.4,0.8,1.9l1.3,1.3c0.4,0.4,0.8,0.6,1.3,0.7
		c0.1,0.5,0.3,1,0.7,1.3l1.5,1.5c0.4,0.4,1.1,0.7,1.7,0.7l0,0c0.6,0,1.2-0.3,1.6-0.7l1.9,1.9c0.3,0.3,0.3,0.9,0,1.2l-8.6,8.6
		l-0.8-0.8c-1.4-1.4-3.6-1.4-5,0s-1.4,3.6,0,5l0.8,0.8l-10.7,10.7c-0.6,0.6-1.4,1.1-2.3,1.3l-3.4,0.9c-1.3,0.3-2.4,1-3.4,1.9
		l-0.4,0.4c-1.4,1.4-2.1,3.2-2.1,5.1s0.8,3.7,2.1,5.1l1.5,1.5c1.4,1.4,3.2,2.1,5.1,2.1c1.9,0,3.7-0.8,5.1-2.1l0.4-0.4
		c0.9-0.9,1.6-2.1,1.9-3.4l0.9-3.4c0.2-0.9,0.7-1.6,1.3-2.3l10.7-10.7l0.8,0.8c1.3,1.3,3.7,1.3,5,0c0.7-0.7,1-1.6,1-2.5
		s-0.4-1.8-1-2.5l-0.8-0.8l8.6-8.6c0.3-0.3,0.9-0.3,1.2,0L98.9,310.8z M116.2,306.6c0,0.1,0,0.1-0.1,0.2l-10.4,10.4
		c-0.1,0.1-0.3,0.1-0.4,0L104,316c-0.1-0.1-0.1-0.3,0-0.4l10.4-10.4c0.1-0.1,0.1-0.1,0.2-0.1s0.1,0,0.2,0.1l1.3,1.3
		C116.2,306.5,116.2,306.6,116.2,306.6z M80.6,292.4c0-0.1,0-0.1,0.1-0.2l10.4-10.4c0.1-0.1,0.1-0.1,0.2-0.1s0.1,0,0.2,0.1l1.3,1.3
		c0.1,0.1,0.1,0.3,0,0.4l-10.4,10.4c-0.1,0.1-0.3,0.1-0.4,0l-1.3-1.3C80.6,292.6,80.6,292.5,80.6,292.4z M94.1,307.2l-10.2,10.2
		l2.5,2.5c0.2,0.2,0.3,0.5,0.3,0.8s-0.1,0.6-0.3,0.8c-0.4,0.4-1.2,0.4-1.7,0l-2.5-2.5l-12.4,12.4c-0.9,0.9-1.6,2.1-1.9,3.4l-0.9,3.4
		c-0.2,0.9-0.7,1.6-1.3,2.3l-0.4,0.4c-0.9,0.9-2.1,1.4-3.4,1.4c-1.3,0-2.5-0.5-3.4-1.4l-1.5-1.5c-0.9-0.9-1.4-2.1-1.4-3.4
		s0.5-2.5,1.4-3.4l0.4-0.4c0.6-0.6,1.4-1.1,2.3-1.3l3.4-0.9c1.3-0.3,2.4-1,3.4-1.9l12.4-12.4l-2.5-2.5c-0.5-0.5-0.5-1.2,0-1.7
		c0.2-0.2,0.5-0.3,0.8-0.3s0.6,0.1,0.8,0.3l2.5,2.5l10.2-10.2c1.3-1.3,1.3-3.3,0-4.6l-1.9-1.9c-0.4-0.4-1-0.7-1.7-0.7l0,0
		c-0.6,0-1.2,0.3-1.7,0.7L84,296c-0.1-0.1-0.1-0.1-0.1-0.2s0-0.1,0.1-0.2l10.4-10.4c0.1-0.1,0.3-0.1,0.4,0l1.5,1.5
		c-0.4,0.4-0.7,1-0.7,1.6s0.2,1.2,0.7,1.7l11.7,11.7c0.4,0.4,1,0.7,1.7,0.7l0,0c0.6,0,1.2-0.3,1.7-0.7l1.5,1.5
		c0.1,0.1,0.1,0.1,0.1,0.2s0,0.1-0.1,0.2L102.5,314l0,0c-0.1,0.1-0.3,0.1-0.4,0l-1.5-1.5c0.4-0.4,0.7-1,0.7-1.6s-0.2-1.2-0.7-1.7
		l-1.9-1.9C97.4,306,95.3,306,94.1,307.2z"/>
	<path class="st2" d="M115.8,340h-10.6c-4.6,0-8.3,3.7-8.3,8.3v1.2H124v-1.2C124,343.7,120.3,340,115.8,340z M99.4,347
		c0.5-2.7,2.9-4.7,5.8-4.7h10.6c2.8,0,5.2,2,5.8,4.7H99.4z"/>
	<path class="st2" d="M102.8,336.4c-0.7,0-1.2,0.5-1.2,1.2s0.5,1.2,1.2,1.2h15.3c0.7,0,1.2-0.5,1.2-1.2s-0.5-1.2-1.2-1.2H102.8z"/>
</g>
<g class="st3">
	<path class="st2" d="M371.9,256.6c-0.5,0.5-0.8,1.2-0.8,1.9c0,0.7,0.3,1.4,0.8,1.9l1.7,1.7c0.4,0.4,1,0.7,1.5,0.8
		c0.1,0.6,0.4,1.1,0.8,1.5l1.5,1.5c0.6,0.6,1.3,0.9,2.1,0.9s1.6-0.3,2.1-0.9l11.9-11.9c1.2-1.2,1.2-3.1,0-4.3l-1.5-1.5
		c-0.4-0.4-1-0.7-1.5-0.8c-0.1-0.6-0.4-1.1-0.8-1.5l-1.7-1.7c-0.5-0.5-1.2-0.8-1.9-0.8c-0.7,0-1.4,0.3-1.9,0.8l-13.4-13.3
		c0.5-0.5,0.8-1.2,0.8-1.9s-0.3-1.4-0.8-1.9l-1.7-1.7c-0.4-0.4-1-0.7-1.5-0.8c-0.1-0.6-0.4-1.1-0.8-1.6l-1.5-1.5
		c-1.1-1.1-3.1-1.1-4.3,0l-11.9,11.9c-0.6,0.6-0.9,1.3-0.9,2.1s0.3,1.6,0.9,2.1l1.5,1.5c0.4,0.4,1,0.7,1.5,0.8
		c0.1,0.6,0.4,1.1,0.8,1.5l1.7,1.7c0.5,0.5,1.2,0.8,1.9,0.8l0,0c0.7,0,1.4-0.3,1.9-0.8l2.2,2.2c0.4,0.4,0.4,1,0,1.4l-9.8,9.8l-1-1
		c-1.6-1.6-4.1-1.6-5.7,0s-1.6,4.1,0,5.7l1,1L333,274.5c-0.7,0.7-1.6,1.2-2.6,1.5l-3.9,1c-1.4,0.4-2.8,1.1-3.8,2.2l-0.4,0.4
		c-1.6,1.6-2.4,3.6-2.4,5.8s0.9,4.3,2.4,5.8l1.7,1.7c1.6,1.6,3.6,2.4,5.8,2.4c2.2,0,4.3-0.9,5.8-2.4l0.4-0.4
		c1.1-1.1,1.8-2.4,2.2-3.8l1-3.9c0.2-1,0.7-1.9,1.5-2.6l12.2-12.2l1,1c1.5,1.5,4.2,1.5,5.7,0c0.8-0.8,1.2-1.8,1.2-2.9
		s-0.4-2.1-1.2-2.9l-1-1l9.8-9.8c0.4-0.4,1-0.4,1.4,0L371.9,256.6z M391.7,251.8c0,0.1,0,0.1-0.1,0.2l-11.9,12
		c-0.2,0.2-0.3,0.2-0.5,0l-1.5-1.5c-0.1-0.1-0.1-0.3,0-0.5l11.9-11.9c0.1-0.1,0.1-0.1,0.2-0.1s0.2,0,0.2,0.1l1.5,1.5
		C391.7,251.7,391.7,251.8,391.7,251.8z M351,235.6c0-0.1,0-0.1,0.1-0.2l11.9-11.9c0.1-0.1,0.2-0.1,0.2-0.1c0.1,0,0.1,0,0.2,0.1
		l1.5,1.5c0.1,0.1,0.1,0.3,0,0.5L353,237.3c-0.1,0.1-0.3,0.1-0.5,0l-1.5-1.5C351.1,235.8,351,235.7,351,235.6z M366.4,252.5
		l-11.7,11.7l2.9,2.9c0.3,0.3,0.4,0.6,0.4,1s-0.1,0.7-0.4,1c-0.5,0.5-1.4,0.5-1.9,0l-2.9-2.9l-14.1,14.1c-1.1,1.1-1.8,2.4-2.2,3.8
		l-1,3.9c-0.2,1-0.7,1.9-1.5,2.6l-0.4,0.4c-1,1-2.4,1.6-3.9,1.6s-2.9-0.6-3.9-1.6l-1.7-1.7c-1-1.1-1.6-2.4-1.6-3.9s0.6-2.9,1.6-3.9
		l0.4-0.4c0.7-0.7,1.6-1.2,2.6-1.5l3.9-1c1.5-0.4,2.8-1.1,3.8-2.2l14.1-14.1l-2.9-2.9c-0.5-0.5-0.5-1.4,0-1.9c0.3-0.3,0.6-0.4,1-0.4
		s0.7,0.1,1,0.4l2.9,2.9l11.7-11.7c1.4-1.4,1.4-3.8,0-5.2l-2.2-2.2c-0.5-0.5-1.2-0.8-1.9-0.8l0,0c-0.7,0-1.4,0.3-1.9,0.8l-1.7-1.7
		c-0.1-0.1-0.1-0.2-0.1-0.2s0-0.1,0.1-0.2l11.9-11.9c0.2-0.2,0.3-0.2,0.5,0l1.7,1.7c-0.5,0.5-0.8,1.2-0.8,1.9s0.3,1.4,0.8,1.9
		l13.3,13.3c0.5,0.5,1.2,0.8,1.9,0.8l0,0c0.7,0,1.4-0.3,1.9-0.8l1.7,1.7c0.1,0.1,0.1,0.2,0.1,0.2c0,0.1,0,0.1-0.1,0.2l-11.9,11.9
		l0,0c-0.1,0.1-0.3,0.1-0.5,0l-1.7-1.7c0.5-0.5,0.8-1.2,0.8-1.9c0-0.7-0.3-1.4-0.8-1.9l-2.2-2.2
		C370.2,251.1,367.8,251.1,366.4,252.5z"/>
	<path class="st2" d="M391.2,290h-12.1c-5.2,0-9.4,4.2-9.4,9.4v1.3h31v-1.3C400.6,294.2,396.4,290,391.2,290z M372.5,298
		c0.6-3.1,3.3-5.4,6.6-5.4h12.1c3.3,0,6,2.3,6.6,5.4H372.5z"/>
	<path class="st2" d="M376.4,285.9c-0.7,0-1.3,0.6-1.3,1.3c0,0.7,0.6,1.3,1.3,1.3h17.5c0.7,0,1.3-0.6,1.3-1.3c0-0.7-0.6-1.3-1.3-1.3
		H376.4z"/>
</g>
<g class="st3">
	<path class="st2" d="M284,711.5c-0.5,0.5-0.8,1.2-0.8,1.9s0.3,1.4,0.8,1.9l1.7,1.7c0.4,0.4,1,0.7,1.5,0.8c0.1,0.6,0.4,1.1,0.8,1.5
		l1.5,1.5c0.6,0.6,1.3,0.9,2.1,0.9s1.6-0.3,2.1-0.9l11.9-11.9c1.2-1.2,1.2-3.1,0-4.3l-1.5-1.5c-0.4-0.4-1-0.7-1.5-0.8
		c-0.1-0.6-0.4-1.1-0.8-1.5l-1.7-1.7c-0.5-0.5-1.2-0.8-1.9-0.8c-0.7,0-1.4,0.3-1.9,0.8L283,685.8c0.5-0.5,0.8-1.2,0.8-1.9
		s-0.3-1.4-0.8-1.9l-1.7-1.7c-0.4-0.4-1-0.7-1.5-0.8c-0.1-0.6-0.4-1.1-0.8-1.6l-1.5-1.5c-1.1-1.1-3.1-1.1-4.3,0l-11.9,11.9
		c-0.6,0.6-0.9,1.3-0.9,2.1s0.3,1.6,0.9,2.1l1.5,1.5c0.4,0.4,1,0.7,1.5,0.8c0.1,0.6,0.4,1.1,0.8,1.5l1.7,1.7
		c0.5,0.5,1.2,0.8,1.9,0.8l0,0c0.7,0,1.4-0.3,1.9-0.8l2.2,2.2c0.4,0.4,0.4,1,0,1.4l-9.8,9.8l-1-1c-1.6-1.6-4.1-1.6-5.7,0
		s-1.6,4.1,0,5.7l1,1L245,729.4c-0.7,0.7-1.6,1.2-2.6,1.5l-3.9,1c-1.4,0.4-2.8,1.1-3.8,2.2l-0.4,0.4c-1.6,1.6-2.4,3.6-2.4,5.8
		s0.9,4.3,2.4,5.8l1.7,1.7c1.6,1.6,3.6,2.4,5.8,2.4s4.3-0.9,5.8-2.4l0.4-0.4c1.1-1.1,1.8-2.4,2.2-3.8l1-3.9c0.2-1,0.7-1.9,1.5-2.6
		l12.2-12.2l1,1c1.5,1.5,4.2,1.5,5.7,0c0.8-0.8,1.2-1.8,1.2-2.9c0-1.1-0.4-2.1-1.2-2.9l-1-1l9.8-9.8c0.4-0.4,1-0.4,1.4,0L284,711.5z
		 M303.8,706.7c0,0.1,0,0.1-0.1,0.2l-11.9,11.9c-0.2,0.2-0.3,0.2-0.5,0l-1.5-1.5c-0.1-0.1-0.1-0.3,0-0.5l11.9-11.9
		c0.1-0.1,0.1-0.1,0.2-0.1s0.2,0,0.2,0.1l1.5,1.5C303.8,706.6,303.8,706.7,303.8,706.7z M263.1,690.5c0-0.1,0-0.1,0.1-0.2l11.9-11.9
		c0.1-0.1,0.2-0.1,0.2-0.1c0.1,0,0.1,0,0.2,0.1l1.5,1.5c0.1,0.1,0.1,0.3,0,0.5l-11.9,11.9c-0.1,0.1-0.3,0.1-0.5,0l-1.5-1.5
		C263.1,690.7,263.1,690.6,263.1,690.5z M278.5,707.4l-11.7,11.7l2.9,2.9c0.3,0.3,0.4,0.6,0.4,1s-0.1,0.7-0.4,1
		c-0.5,0.5-1.4,0.5-1.9,0l-2.9-2.9l-14.1,14.1c-1.1,1.1-1.8,2.4-2.2,3.8l-1,3.9c-0.2,1-0.7,1.9-1.5,2.6l-0.4,0.4
		c-1,1-2.4,1.6-3.9,1.6s-2.9-0.6-3.9-1.6l-1.7-1.7c-1-1.1-1.6-2.4-1.6-3.9s0.6-2.9,1.6-3.9l0.4-0.4c0.7-0.7,1.6-1.2,2.6-1.5l3.9-1
		c1.5-0.4,2.8-1.1,3.8-2.2l14.1-14.1l-2.9-2.9c-0.5-0.5-0.5-1.4,0-1.9c0.3-0.3,0.6-0.4,1-0.4s0.7,0.1,1,0.4l2.9,2.9l11.7-11.7
		c1.4-1.4,1.4-3.8,0-5.2l-2.2-2.2c-0.5-0.5-1.2-0.8-1.9-0.8l0,0c-0.7,0-1.4,0.3-1.9,0.8l-1.7-1.7c-0.1-0.1-0.1-0.2-0.1-0.2
		s0-0.1,0.1-0.2l11.9-11.9c0.2-0.2,0.3-0.2,0.5,0l1.7,1.7c-0.5,0.5-0.8,1.2-0.8,1.9s0.3,1.4,0.8,1.9l13.3,13.3
		c0.5,0.5,1.2,0.8,1.9,0.8l0,0c0.7,0,1.4-0.3,1.9-0.8l1.7,1.7c0.1,0.1,0.1,0.2,0.1,0.2c0,0.1,0,0.1-0.1,0.2l-11.9,12l0,0
		c-0.1,0.1-0.3,0.1-0.5,0l-1.7-1.7c0.5-0.5,0.8-1.2,0.8-1.9s-0.3-1.4-0.8-1.9l-2.2-2.2C282.2,706,279.9,706,278.5,707.4z"/>
	<path class="st2" d="M303.3,744.8h-12.1c-5.2,0-9.4,4.2-9.4,9.4v1.3h31v-1.3C312.7,749.1,308.5,744.8,303.3,744.8z M284.5,752.9
		c0.6-3.1,3.3-5.4,6.6-5.4h12.1c3.3,0,6,2.3,6.6,5.4H284.5z"/>
	<path class="st2" d="M288.4,740.8c-0.7,0-1.3,0.6-1.3,1.3s0.6,1.3,1.3,1.3H306c0.7,0,1.3-0.6,1.3-1.3s-0.6-1.3-1.3-1.3H288.4z"/>
</g>
<g class="st3">
	<path class="st2" d="M84,57.4c-0.5,0.4-0.7,1-0.7,1.7c0,0.6,0.2,1.2,0.7,1.7l1.5,1.5c0.4,0.4,0.9,0.6,1.3,0.7
		c0.1,0.5,0.3,1,0.7,1.3l1.3,1.3c0.5,0.5,1.2,0.8,1.9,0.8c0.7,0,1.4-0.3,1.9-0.8L103,55.1c1-1,1-2.7,0-3.7l-1.3-1.3
		c-0.4-0.4-0.8-0.6-1.3-0.7c-0.1-0.5-0.3-1-0.7-1.3l-1.5-1.5c-0.4-0.4-1.1-0.7-1.7-0.7s-1.2,0.2-1.6,0.7L83.1,35
		c0.5-0.4,0.7-1,0.7-1.7c0-0.6-0.2-1.2-0.7-1.7l-1.5-1.5c-0.4-0.4-0.8-0.6-1.3-0.7c-0.1-0.5-0.3-1-0.7-1.4l-1.3-1.3
		c-1-1-2.7-1-3.7,0L64.2,37.2c-0.5,0.5-0.8,1.2-0.8,1.9s0.3,1.4,0.8,1.9l1.3,1.3c0.4,0.4,0.8,0.6,1.3,0.7c0.1,0.5,0.3,1,0.7,1.3
		l1.5,1.5c0.4,0.4,1.1,0.7,1.7,0.7l0,0c0.6,0,1.2-0.3,1.6-0.7l1.9,1.9c0.3,0.3,0.3,0.9,0,1.2l-8.6,8.6l-0.8-0.8
		c-1.4-1.4-3.6-1.4-5,0s-1.4,3.6,0,5l0.8,0.8L50,73.1c-0.6,0.6-1.4,1.1-2.3,1.3l-3.4,0.9c-1.3,0.3-2.4,1-3.4,1.9l-0.4,0.4
		c-1.4,1.4-2.1,3.2-2.1,5.1s0.8,3.7,2.1,5.1l1.5,1.5c1.4,1.4,3.2,2.1,5.1,2.1c1.9,0,3.7-0.8,5.1-2.1l0.4-0.4
		c0.9-0.9,1.6-2.1,1.9-3.4l0.9-3.4c0.2-0.9,0.7-1.6,1.3-2.3l10.7-10.7l0.8,0.8c1.3,1.3,3.7,1.3,5,0c0.7-0.7,1-1.6,1-2.5
		s-0.4-1.8-1-2.5l-0.8-0.8l8.6-8.6c0.3-0.3,0.9-0.3,1.2,0L84,57.4z M101.4,53.3c0,0.1,0,0.1-0.1,0.2L90.9,63.9
		c-0.1,0.1-0.3,0.1-0.4,0l-1.3-1.3c-0.1-0.1-0.1-0.3,0-0.4l10.4-10.4c0.1-0.1,0.1-0.1,0.2-0.1s0.1,0,0.2,0.1l1.3,1.3
		C101.4,53.1,101.4,53.2,101.4,53.3z M65.8,39.1c0-0.1,0-0.1,0.1-0.2l10.4-10.4c0.1-0.1,0.1-0.1,0.2-0.1s0.1,0,0.2,0.1l1.3,1.3
		c0.1,0.1,0.1,0.3,0,0.4L67.5,40.6c-0.1,0.1-0.3,0.1-0.4,0l-1.3-1.3C65.8,39.2,65.8,39.2,65.8,39.1z M79.2,53.9L69,64.1l2.5,2.5
		c0.2,0.2,0.3,0.5,0.3,0.8s-0.1,0.6-0.3,0.8c-0.4,0.4-1.2,0.4-1.7,0l-2.5-2.5L55,78.1c-0.9,0.9-1.6,2.1-1.9,3.4l-0.9,3.4
		c-0.2,0.9-0.7,1.6-1.3,2.3l-0.4,0.4c-0.9,0.9-2.1,1.4-3.4,1.4c-1.3,0-2.5-0.5-3.4-1.4l-1.5-1.5c-0.9-0.9-1.4-2.1-1.4-3.4
		s0.5-2.5,1.4-3.4l0.4-0.4c0.6-0.6,1.4-1.1,2.3-1.3l3.4-0.9c1.3-0.3,2.4-1,3.4-1.9L64,62.4l-2.5-2.5c-0.5-0.5-0.5-1.2,0-1.7
		c0.2-0.2,0.5-0.3,0.8-0.3s0.6,0.1,0.8,0.3l2.5,2.5l10.2-10.2c1.3-1.3,1.3-3.3,0-4.6L74,44.1c-0.4-0.4-1-0.7-1.7-0.7l0,0
		c-0.6,0-1.2,0.3-1.7,0.7l-1.5-1.5C69,42.5,69,42.5,69,42.4s0-0.1,0.1-0.2l10.4-10.4c0.1-0.1,0.3-0.1,0.4,0l1.5,1.5
		c-0.4,0.4-0.7,1-0.7,1.6s0.2,1.2,0.7,1.7l11.7,11.7c0.4,0.4,1,0.7,1.7,0.7l0,0c0.6,0,1.2-0.3,1.7-0.7l1.5,1.5
		c0.1,0.1,0.1,0.1,0.1,0.2c0,0.1,0,0.1-0.1,0.2L87.5,60.6l0,0c-0.1,0.1-0.3,0.1-0.4,0l-1.5-1.5c0.4-0.4,0.7-1,0.7-1.6
		s-0.2-1.2-0.7-1.7l-1.9-1.9C82.5,52.6,80.5,52.6,79.2,53.9z"/>
	<path class="st2" d="M100.9,86.6H90.3c-4.6,0-8.3,3.7-8.3,8.3V96h27.1v-1.2C109.2,90.3,105.5,86.6,100.9,86.6z M84.5,93.7
		C85,91,87.4,89,90.3,89h10.6c2.8,0,5.2,2,5.8,4.7H84.5z"/>
	<path class="st2" d="M88,83.1c-0.7,0-1.2,0.5-1.2,1.2s0.5,1.2,1.2,1.2h15.3c0.7,0,1.2-0.5,1.2-1.2s-0.5-1.2-1.2-1.2H88z"/>
</g>
<g class="st3">
	<path class="st2" d="M547.7,307.9c-0.5,0.5-0.8,1.2-0.8,1.9c0,0.7,0.3,1.4,0.8,1.9l1.7,1.7c0.4,0.4,1,0.7,1.5,0.8
		c0.1,0.6,0.4,1.1,0.8,1.5l1.5,1.5c0.6,0.6,1.3,0.9,2.1,0.9s1.6-0.3,2.1-0.9l11.9-11.9c1.2-1.2,1.2-3.1,0-4.3l-1.5-1.5
		c-0.4-0.4-1-0.7-1.5-0.8c-0.1-0.6-0.4-1.1-0.8-1.5l-1.7-1.7c-0.5-0.5-1.2-0.8-1.9-0.8s-1.4,0.3-1.9,0.8l-13.4-13.3
		c0.5-0.5,0.8-1.2,0.8-1.9s-0.3-1.4-0.8-1.9l-1.7-1.7c-0.4-0.4-1-0.7-1.5-0.8c-0.1-0.6-0.4-1.1-0.8-1.6l-1.5-1.5
		c-1.1-1.1-3.1-1.1-4.3,0l-11.9,11.9c-0.6,0.6-0.9,1.3-0.9,2.1c0,0.8,0.3,1.6,0.9,2.1l1.5,1.5c0.4,0.4,1,0.7,1.5,0.8
		c0.1,0.6,0.4,1.1,0.8,1.5l1.7,1.7c0.5,0.5,1.2,0.8,1.9,0.8l0,0c0.7,0,1.4-0.3,1.9-0.8l2.2,2.2c0.4,0.4,0.4,1,0,1.4l-9.8,9.8l-1-1
		c-1.6-1.6-4.1-1.6-5.7,0s-1.6,4.1,0,5.7l1,1l-12.2,12.2c-0.7,0.7-1.6,1.2-2.6,1.5l-3.9,1c-1.4,0.4-2.8,1.1-3.8,2.2l-0.4,0.4
		c-1.6,1.6-2.4,3.6-2.4,5.8s0.9,4.3,2.4,5.8l1.7,1.7c1.6,1.6,3.6,2.4,5.8,2.4c2.2,0,4.3-0.9,5.8-2.4l0.4-0.4
		c1.1-1.1,1.8-2.4,2.2-3.8l1-3.9c0.2-1,0.7-1.9,1.5-2.6l12.2-12.2l1,1c1.5,1.5,4.2,1.5,5.7,0c0.8-0.8,1.2-1.8,1.2-2.9
		s-0.4-2.1-1.2-2.9l-1-1l9.8-9.8c0.4-0.4,1-0.4,1.4,0L547.7,307.9z M567.6,303.1c0,0.1,0,0.1-0.1,0.2l-11.9,11.9
		c-0.2,0.2-0.3,0.2-0.5,0l-1.5-1.5c-0.1-0.1-0.1-0.3,0-0.5l11.9-11.9c0.1-0.1,0.1-0.1,0.2-0.1c0.1,0,0.2,0,0.2,0.1l1.5,1.5
		C567.6,303,567.6,303.1,567.6,303.1z M526.9,286.9c0-0.1,0-0.1,0.1-0.2l11.9-11.9c0.1-0.1,0.2-0.1,0.2-0.1c0.1,0,0.1,0,0.2,0.1
		l1.5,1.5c0.1,0.1,0.1,0.3,0,0.5l-11.9,11.9c-0.1,0.1-0.3,0.1-0.5,0l-1.5-1.5C526.9,287.1,526.9,287,526.9,286.9z M542.2,303.9
		l-11.7,11.7l2.9,2.9c0.3,0.3,0.4,0.6,0.4,1s-0.1,0.7-0.4,1c-0.5,0.5-1.4,0.5-1.9,0l-2.9-2.9l-14.1,14.1c-1.1,1.1-1.8,2.4-2.2,3.8
		l-1,3.9c-0.2,1-0.7,1.9-1.5,2.6l-0.4,0.4c-1,1-2.4,1.6-3.9,1.6s-2.9-0.6-3.9-1.6l-1.7-1.7c-1-1.1-1.6-2.4-1.6-3.9s0.6-2.9,1.6-3.9
		l0.4-0.4c0.7-0.7,1.6-1.2,2.6-1.5l3.9-1c1.5-0.4,2.8-1.1,3.8-2.2l14.1-14.1l-2.9-2.9c-0.5-0.5-0.5-1.4,0-1.9c0.3-0.3,0.6-0.4,1-0.4
		s0.7,0.1,1,0.4l2.9,2.9l11.7-11.7c1.4-1.4,1.4-3.8,0-5.2l-2.2-2.2c-0.5-0.5-1.2-0.8-1.9-0.8l0,0c-0.7,0-1.4,0.3-1.9,0.8l-1.7-1.7
		c-0.1-0.1-0.1-0.2-0.1-0.2c0-0.1,0-0.1,0.1-0.2l11.9-11.9c0.2-0.2,0.3-0.2,0.5,0l1.7,1.7c-0.5,0.5-0.8,1.2-0.8,1.9
		c0,0.7,0.3,1.4,0.8,1.9l13.3,13.3c0.5,0.5,1.2,0.8,1.9,0.8l0,0c0.7,0,1.4-0.3,1.9-0.8l1.7,1.7c0.1,0.1,0.1,0.2,0.1,0.2
		c0,0.1,0,0.1-0.1,0.2l-11.9,11.9l0,0c-0.1,0.1-0.3,0.1-0.5,0l-1.7-1.7c0.5-0.5,0.8-1.2,0.8-1.9c0-0.7-0.3-1.4-0.8-1.9l-2.2-2.2
		C546,302.4,543.7,302.4,542.2,303.9z"/>
	<path class="st2" d="M567,341.3h-12.1c-5.2,0-9.4,4.2-9.4,9.4v1.3h31v-1.3C576.5,345.5,572.2,341.3,567,341.3z M548.3,349.3
		c0.6-3.1,3.3-5.4,6.6-5.4H567c3.3,0,6,2.3,6.6,5.4H548.3z"/>
	<path class="st2" d="M552.2,337.2c-0.7,0-1.3,0.6-1.3,1.3c0,0.7,0.6,1.3,1.3,1.3h17.5c0.7,0,1.3-0.6,1.3-1.3c0-0.7-0.6-1.3-1.3-1.3
		H552.2z"/>
</g>
<g>
	<rect x="-152.7" y="307" class="st0" width="90" height="90"/>
	<g>
		<path class="st2" d="M-68.2,333.9v23.9c0,0-5.1,1-6.2,1.1c-1.1,0.1-4.3,1.2-6.7-1.1c-3.7-3.5-16.8-16.6-16.8-16.6
			s-2.3-2.2-5.9-0.3c-3.3,1.8-8.3,4.3-10.3,5.3c-3.9,2.1-7.1-1.2-7.1-3.7c0-1.9,1.2-3.3,2.9-4.2c4.7-2.9,14.6-8.4,18.7-10.6
			c2.5-1.3,4.3-1.4,7.8,1.4c4.2,3.6,8,6.8,8,6.8s1.2,1,3.2,0.6C-75.8,335.6-68.2,333.9-68.2,333.9z M-120.3,374.4
			c0.6-1.6,0.4-3.5-0.8-4.7c-1.1-1.1-2.7-1.4-4.2-1.1c0.4-1.5,0.2-3.1-0.9-4.3c-1.1-1.1-2.7-1.4-4.2-1.1c0.4-1.5,0.2-3.1-0.9-4.3
			c-1.7-1.8-4.7-1.7-6.7,0.2c-1.9,1.9-3.2,5.3-1.4,7.2c1.7,2,3.7,0.8,5.2,0.4c-0.4,1.5-1.7,2.9-0.1,4.9c1.6,2,3.7,0.8,5.3,0.4
			c-0.4,1.5-1.6,3-0.1,4.9c1.5,1.8,4,0.9,5.6,0.4c-0.6,1.6-2,3.4-0.2,5.3c1.7,2,5.7,1.1,7.7-0.8c2-1.9,2.1-4.8,0.4-6.6
			C-117,374.2-118.7,373.9-120.3,374.4z M-84.6,361.9c-14.2-14.2-7.5-7.5-15.1-15.1c0,0-2.3-2.3-5.3-1c-2.1,0.9-4.8,2.2-6.9,3.2
			c-2.3,1.2-3.9,1.5-4.6,1.5c-4.4,0-7.9-3.5-7.9-7.9c0-2.8,1.5-5.3,3.7-6.7c3.2-2.2,10.4-6,10.4-6s-2.2-2.8-7-2.8
			s-14.9,6.6-14.9,6.6s-2.9,1.8-6.9,0.2l-7.9-2.7v27.3c0,0,2.2,0.7,4.3,1.5c0.5-1.3,1.2-2.5,2.2-3.5c3.3-3.2,8.9-3.2,11.9-0.1
			c0.9,1,1.6,2.1,1.9,3.3c1.2,0.4,2.3,1.1,3.2,2c0.9,0.9,1.6,2.1,1.9,3.3c1.2,0.4,2.3,1.1,3.2,2c1,1,1.7,2.3,2,3.7
			c1.3,0.4,2.4,1.1,3.4,2c1.8,1.9,2.5,4.4,2.1,6.9h0c0,0,1.1,1.3,1.8,2c1.4,1.4,3.6,1.4,4.9,0c1.3-1.4,1.4-3.6,0-4.9
			c0,0-4.9-5.1-4.5-5.5c0.4-0.4,6.5,6,6.6,6.1c1.4,1.4,3.6,1.4,4.9,0c1.4-1.4,1.4-3.6,0-4.9c-0.1-0.1-0.4-0.3-0.4-0.4
			c0,0-6.1-5.4-5.6-5.9c0.5-0.5,8,6.6,8,6.6c1.4,1.2,3.5,1.2,4.8-0.1c1.3-1.3,1.3-3.3,0.2-4.6c0-0.1-5.8-6.1-5.3-6.5
			c0.5-0.5,6.1,5.4,6.1,5.4c1.3,1.4,3.6,1.4,4.9,0S-83.2,363.3-84.6,361.9C-84.6,362-84.6,362-84.6,361.9z"/>
	</g>
</g>
</svg>
