<?xml version="1.0" encoding="utf-8"?>
<!-- Generator: Adobe Illustrator 21.1.0, SVG Export Plug-In . SVG Version: 6.00 Build 0)  -->
<svg version="1.1" id="Capa_1" xmlns="http://www.w3.org/2000/svg" xmlns:xlink="http://www.w3.org/1999/xlink" x="0px" y="0px"
	 viewBox="0 0 600 792" style="enable-background:new 0 0 600 792;" xml:space="preserve">
<style type="text/css">
	.st0{fill:#312783;}
	.st1{opacity:0.33;}
	.st2{fill:#FFFFFF;}
	.st3{opacity:0.29;}
</style>
<rect x="-13.6" y="-12.9" class="st0" width="627.1" height="804.9"/>
<g class="st1">
	<g>
		<g>
			<path class="st2" d="M222.9,156.1c-4.9,0-9,4-9,9c0,1.8,0.5,3.5,1.5,4.9l-9.7,9.7c-1.4-0.9-3.1-1.5-4.9-1.5c-1.9,0-3.6,0.6-5,1.6
				L186,170c0.9-1.4,1.5-3.1,1.5-4.9c0-4.9-4-9-9-9c-4.9,0-9,4-9,9c0,1.8,0.5,3.5,1.5,4.9l-9.7,9.7c-1.4-0.9-3.1-1.5-4.9-1.5
				c-4.9,0-9,4-9,9c0,4.9,4,9,9,9c4.9,0,9-4,9-9c0-1.8-0.5-3.5-1.5-4.9l9.7-9.7c1.4,0.9,3.1,1.5,4.9,1.5c1.8,0,3.5-0.5,4.9-1.5
				l9.8,9.8c-0.9,1.4-1.4,3-1.4,4.7c0,4.9,4,9,9,9s9-4,9-9c0-1.8-0.5-3.5-1.5-4.9l9.7-9.7c1.4,0.9,3.1,1.5,4.9,1.5c4.9,0,9-4,9-9
				C231.9,160.1,227.8,156.1,222.9,156.1z M156.4,192.4c-2.9,0-5.3-2.4-5.3-5.3c0-2.9,2.4-5.3,5.3-5.3c2.9,0,5.3,2.4,5.3,5.3
				C161.7,190.1,159.3,192.4,156.4,192.4z M178.5,170.3c-2.9,0-5.3-2.4-5.3-5.3c0-2.9,2.4-5.3,5.3-5.3s5.3,2.4,5.3,5.3
				S181.4,170.3,178.5,170.3z M200.8,192.4c-2.9,0-5.3-2.4-5.3-5.3s2.4-5.3,5.3-5.3c2.9,0,5.3,2.4,5.3,5.3
				C206.1,190.1,203.7,192.4,200.8,192.4z M222.9,170.3c-2.9,0-5.3-2.4-5.3-5.3c0-2.9,2.4-5.3,5.3-5.3c2.9,0,5.3,2.4,5.3,5.3
				S225.8,170.3,222.9,170.3z"/>
		</g>
	</g>
	<g>
		<g>
			<path class="st2" d="M176.6,178.9c-0.7-0.7-1.9-0.7-2.6,0l-3.8,3.8c-0.7,0.7-0.7,1.9,0,2.6c0.4,0.4,0.8,0.5,1.3,0.5
				s0.9-0.2,1.3-0.5l3.8-3.8C177.3,180.8,177.3,179.6,176.6,178.9z"/>
		</g>
	</g>
	<g>
		<g>
			<path class="st2" d="M209.1,167c-0.7-0.7-1.9-0.7-2.6,0l-3.8,3.8c-0.7,0.7-0.7,1.9,0,2.6c0.4,0.4,0.8,0.5,1.3,0.5
				c0.5,0,0.9-0.2,1.3-0.5l3.8-3.8C209.8,168.9,209.8,167.8,209.1,167z"/>
		</g>
	</g>
</g>
<g class="st1">
	<g>
		<g>
			<path class="st2" d="M462.6,166.1c-2.5,0-4.5,2-4.5,4.5c0,0.9,0.3,1.7,0.7,2.4l-4.8,4.8c-0.7-0.5-1.5-0.7-2.4-0.7
				c-0.9,0-1.8,0.3-2.5,0.8l-4.9-4.9c0.5-0.7,0.7-1.5,0.7-2.4c0-2.5-2-4.5-4.5-4.5c-2.5,0-4.5,2-4.5,4.5c0,0.9,0.3,1.7,0.7,2.4
				l-4.8,4.8c-0.7-0.5-1.5-0.7-2.4-0.7c-2.5,0-4.5,2-4.5,4.5s2,4.5,4.5,4.5s4.5-2,4.5-4.5c0-0.9-0.3-1.7-0.7-2.4l4.8-4.8
				c0.7,0.5,1.5,0.7,2.4,0.7c0.9,0,1.7-0.3,2.4-0.7l4.9,4.9c-0.4,0.7-0.7,1.5-0.7,2.4c0,2.5,2,4.5,4.5,4.5s4.5-2,4.5-4.5
				c0-0.9-0.3-1.7-0.7-2.4l4.8-4.8c0.7,0.5,1.5,0.7,2.4,0.7c2.5,0,4.5-2,4.5-4.5C467.1,168.1,465.1,166.1,462.6,166.1z M429.4,184.3
				c-1.4,0-2.6-1.2-2.6-2.6c0-1.4,1.2-2.6,2.6-2.6c1.4,0,2.6,1.2,2.6,2.6C432,183.1,430.9,184.3,429.4,184.3z M440.4,173.2
				c-1.4,0-2.6-1.2-2.6-2.6c0-1.4,1.2-2.6,2.6-2.6s2.6,1.2,2.6,2.6S441.9,173.2,440.4,173.2z M451.6,184.3c-1.4,0-2.6-1.2-2.6-2.6
				s1.2-2.6,2.6-2.6c1.4,0,2.6,1.2,2.6,2.6C454.2,183.1,453.1,184.3,451.6,184.3z M462.6,173.2c-1.4,0-2.6-1.2-2.6-2.6
				c0-1.4,1.2-2.6,2.6-2.6c1.4,0,2.6,1.2,2.6,2.6S464.1,173.2,462.6,173.2z"/>
		</g>
	</g>
	<g>
		<g>
			<path class="st2" d="M439.5,177.5c-0.4-0.4-0.9-0.4-1.3,0l-1.9,1.9c-0.4,0.4-0.4,0.9,0,1.3c0.2,0.2,0.4,0.3,0.7,0.3
				s0.5-0.1,0.7-0.3l1.9-1.9C439.9,178.4,439.9,177.9,439.5,177.5z"/>
		</g>
	</g>
	<g>
		<g>
			<path class="st2" d="M455.7,171.6c-0.4-0.4-0.9-0.4-1.3,0l-1.9,1.9c-0.4,0.4-0.4,0.9,0,1.3c0.2,0.2,0.4,0.3,0.7,0.3
				c0.2,0,0.5-0.1,0.7-0.3l1.9-1.9C456.1,172.5,456.1,171.9,455.7,171.6z"/>
		</g>
	</g>
</g>
<g class="st1">
	<g>
		<g>
			<path class="st2" d="M348.2,329c-3.7,0-6.7,3-6.7,6.7c0,1.4,0.4,2.6,1.1,3.7l-7.3,7.3c-1.1-0.7-2.3-1.1-3.7-1.1
				c-1.4,0-2.7,0.4-3.8,1.2l-7.3-7.3c0.7-1.1,1.1-2.3,1.1-3.7c0-3.7-3-6.7-6.7-6.7s-6.7,3-6.7,6.7c0,1.4,0.4,2.6,1.1,3.7l-7.3,7.3
				c-1.1-0.7-2.3-1.1-3.7-1.1c-3.7,0-6.7,3-6.7,6.7s3,6.7,6.7,6.7s6.7-3,6.7-6.7c0-1.4-0.4-2.6-1.1-3.7l7.3-7.3
				c1.1,0.7,2.3,1.1,3.7,1.1c1.4,0,2.6-0.4,3.7-1.1l7.4,7.4c-0.6,1-1,2.2-1,3.5c0,3.7,3,6.7,6.7,6.7c3.7,0,6.7-3,6.7-6.7
				c0-1.4-0.4-2.6-1.1-3.7l7.3-7.3c1.1,0.7,2.3,1.1,3.7,1.1c3.7,0,6.7-3,6.7-6.7C354.9,332,351.9,329,348.2,329z M298.4,356.2
				c-2.2,0-3.9-1.8-3.9-3.9c0-2.2,1.8-3.9,3.9-3.9c2.2,0,3.9,1.8,3.9,3.9C302.3,354.5,300.5,356.2,298.4,356.2z M314.9,339.7
				c-2.2,0-3.9-1.8-3.9-3.9c0-2.2,1.8-3.9,3.9-3.9c2.2,0,3.9,1.8,3.9,3.9C318.9,337.9,317.1,339.7,314.9,339.7z M331.7,356.2
				c-2.2,0-3.9-1.8-3.9-3.9c0-2.2,1.8-3.9,3.9-3.9c2.2,0,3.9,1.8,3.9,3.9C335.6,354.5,333.8,356.2,331.7,356.2z M348.2,339.7
				c-2.2,0-3.9-1.8-3.9-3.9c0-2.2,1.8-3.9,3.9-3.9c2.2,0,3.9,1.8,3.9,3.9C352.2,337.9,350.4,339.7,348.2,339.7z"/>
		</g>
	</g>
	<g>
		<g>
			<path class="st2" d="M313.5,346.1c-0.5-0.5-1.4-0.5-2,0l-2.8,2.8c-0.5,0.5-0.5,1.4,0,2c0.3,0.3,0.6,0.4,1,0.4s0.7-0.1,1-0.4
				l2.8-2.8C314,347.5,314,346.6,313.5,346.1z"/>
		</g>
	</g>
	<g>
		<g>
			<path class="st2" d="M337.9,337.2c-0.5-0.5-1.4-0.5-2,0l-2.8,2.8c-0.5,0.5-0.5,1.4,0,2c0.3,0.3,0.6,0.4,1,0.4
				c0.4,0,0.7-0.1,1-0.4l2.8-2.8C338.4,338.6,338.4,337.7,337.9,337.2z"/>
		</g>
	</g>
</g>
<g class="st1">
	<g>
		<g>
			<path class="st2" d="M367.4,54c-4.3,0-7.8,3.5-7.8,7.8c0,1.6,0.5,3,1.3,4.3l-8.5,8.5c-1.2-0.8-2.7-1.3-4.3-1.3
				c-1.6,0-3.2,0.5-4.4,1.4l-8.6-8.6c0.8-1.2,1.3-2.7,1.3-4.3c0-4.3-3.5-7.8-7.8-7.8s-7.8,3.5-7.8,7.8c0,1.6,0.5,3,1.3,4.3l-8.5,8.5
				c-1.2-0.8-2.7-1.3-4.3-1.3c-4.3,0-7.8,3.5-7.8,7.8c0,4.3,3.5,7.8,7.8,7.8s7.8-3.5,7.8-7.8c0-1.6-0.5-3-1.3-4.3l8.5-8.5
				c1.2,0.8,2.7,1.3,4.3,1.3c1.6,0,3-0.5,4.3-1.3l8.6,8.6c-0.8,1.2-1.2,2.6-1.2,4.1c0,4.3,3.5,7.8,7.8,7.8s7.8-3.5,7.8-7.8
				c0-1.6-0.5-3-1.3-4.3l8.5-8.5c1.2,0.8,2.7,1.3,4.3,1.3c4.3,0,7.8-3.5,7.8-7.8C375.2,57.6,371.7,54,367.4,54z M309.2,85.8
				c-2.5,0-4.6-2.1-4.6-4.6c0-2.5,2.1-4.6,4.6-4.6c2.5,0,4.6,2.1,4.6,4.6C313.8,83.7,311.7,85.8,309.2,85.8z M328.5,66.5
				c-2.5,0-4.6-2.1-4.6-4.6c0-2.5,2.1-4.6,4.6-4.6s4.6,2.1,4.6,4.6S331.1,66.5,328.5,66.5z M348.1,85.8c-2.5,0-4.6-2.1-4.6-4.6
				s2.1-4.6,4.6-4.6c2.5,0,4.6,2.1,4.6,4.6C352.7,83.7,350.6,85.8,348.1,85.8z M367.4,66.5c-2.5,0-4.6-2.1-4.6-4.6
				c0-2.5,2.1-4.6,4.6-4.6c2.5,0,4.6,2.1,4.6,4.6S369.9,66.5,367.4,66.5z"/>
		</g>
	</g>
	<g>
		<g>
			<path class="st2" d="M326.9,74c-0.6-0.6-1.7-0.6-2.3,0l-3.3,3.3c-0.6,0.6-0.6,1.7,0,2.3c0.3,0.3,0.7,0.5,1.1,0.5
				c0.4,0,0.8-0.2,1.1-0.5l3.3-3.3C327.5,75.6,327.5,74.6,326.9,74z"/>
		</g>
	</g>
	<g>
		<g>
			<path class="st2" d="M355.3,63.6c-0.6-0.6-1.7-0.6-2.3,0l-3.3,3.3c-0.6,0.6-0.6,1.7,0,2.3c0.3,0.3,0.7,0.5,1.1,0.5
				c0.4,0,0.8-0.2,1.1-0.5l3.3-3.3C355.9,65.3,355.9,64.2,355.3,63.6z"/>
		</g>
	</g>
</g>
<g class="st1">
	<g>
		<g>
			<path class="st2" d="M149.3,469.2c-4.9,0-9,4-9,9c0,1.8,0.5,3.5,1.5,4.9l-9.7,9.7c-1.4-0.9-3.1-1.5-4.9-1.5c-1.9,0-3.6,0.6-5,1.6
				l-9.8-9.8c0.9-1.4,1.5-3.1,1.5-4.9c0-4.9-4-9-9-9c-4.9,0-9,4-9,9c0,1.8,0.5,3.5,1.5,4.9l-9.7,9.7c-1.4-0.9-3.1-1.5-4.9-1.5
				c-4.9,0-9,4-9,9c0,4.9,4,9,9,9s9-4,9-9c0-1.8-0.5-3.5-1.5-4.9l9.7-9.7c1.4,0.9,3.1,1.5,4.9,1.5c1.8,0,3.5-0.5,4.9-1.5l9.8,9.8
				c-0.9,1.4-1.4,3-1.4,4.7c0,4.9,4,9,9,9s9-4,9-9c0-1.8-0.5-3.5-1.5-4.9l9.7-9.7c1.4,0.9,3.1,1.5,4.9,1.5c4.9,0,9-4,9-9
				C158.2,473.2,154.2,469.2,149.3,469.2z M82.8,505.4c-2.9,0-5.3-2.4-5.3-5.3c0-2.9,2.4-5.3,5.3-5.3c2.9,0,5.3,2.4,5.3,5.3
				C88,503.1,85.7,505.4,82.8,505.4z M104.8,483.4c-2.9,0-5.3-2.4-5.3-5.3c0-2.9,2.4-5.3,5.3-5.3s5.3,2.4,5.3,5.3
				S107.7,483.4,104.8,483.4z M127.2,505.4c-2.9,0-5.3-2.4-5.3-5.3s2.4-5.3,5.3-5.3c2.9,0,5.3,2.4,5.3,5.3
				C132.4,503.1,130.1,505.4,127.2,505.4z M149.3,483.4c-2.9,0-5.3-2.4-5.3-5.3c0-2.9,2.4-5.3,5.3-5.3c2.9,0,5.3,2.4,5.3,5.3
				S152.1,483.4,149.3,483.4z"/>
		</g>
	</g>
	<g>
		<g>
			<path class="st2" d="M102.9,491.9c-0.7-0.7-1.9-0.7-2.6,0l-3.8,3.8c-0.7,0.7-0.7,1.9,0,2.6c0.4,0.4,0.8,0.5,1.3,0.5
				s0.9-0.2,1.3-0.5l3.8-3.8C103.7,493.8,103.7,492.6,102.9,491.9z"/>
		</g>
	</g>
	<g>
		<g>
			<path class="st2" d="M135.5,480.1c-0.7-0.7-1.9-0.7-2.6,0l-3.8,3.8c-0.7,0.7-0.7,1.9,0,2.6c0.4,0.4,0.8,0.5,1.3,0.5
				c0.5,0,0.9-0.2,1.3-0.5l3.8-3.8C136.2,482,136.2,480.8,135.5,480.1z"/>
		</g>
	</g>
</g>
<g class="st1">
	<g>
		<g>
			<path class="st2" d="M111.5,671.4c-2.5,0-4.5,2-4.5,4.5c0,0.9,0.3,1.7,0.7,2.4l-4.8,4.8c-0.7-0.5-1.5-0.7-2.4-0.7
				c-0.9,0-1.8,0.3-2.5,0.8l-4.9-4.9c0.5-0.7,0.7-1.5,0.7-2.4c0-2.5-2-4.5-4.5-4.5c-2.5,0-4.5,2-4.5,4.5c0,0.9,0.3,1.7,0.7,2.4
				l-4.8,4.8c-0.7-0.5-1.5-0.7-2.4-0.7c-2.5,0-4.5,2-4.5,4.5s2,4.5,4.5,4.5c2.5,0,4.5-2,4.5-4.5c0-0.9-0.3-1.7-0.7-2.4l4.8-4.8
				c0.7,0.5,1.5,0.7,2.4,0.7c0.9,0,1.7-0.3,2.4-0.7l4.9,4.9c-0.4,0.7-0.7,1.5-0.7,2.4c0,2.5,2,4.5,4.5,4.5c2.5,0,4.5-2,4.5-4.5
				c0-0.9-0.3-1.7-0.7-2.4l4.8-4.8c0.7,0.5,1.5,0.7,2.4,0.7c2.5,0,4.5-2,4.5-4.5C116,673.4,114,671.4,111.5,671.4z M78.3,689.6
				c-1.4,0-2.6-1.2-2.6-2.6c0-1.4,1.2-2.6,2.6-2.6c1.4,0,2.6,1.2,2.6,2.6C80.9,688.4,79.7,689.6,78.3,689.6z M89.3,678.5
				c-1.4,0-2.6-1.2-2.6-2.6c0-1.4,1.2-2.6,2.6-2.6s2.6,1.2,2.6,2.6C92,677.3,90.8,678.5,89.3,678.5z M100.5,689.6
				c-1.4,0-2.6-1.2-2.6-2.6c0-1.4,1.2-2.6,2.6-2.6c1.4,0,2.6,1.2,2.6,2.6C103.1,688.4,101.9,689.6,100.5,689.6z M111.5,678.5
				c-1.4,0-2.6-1.2-2.6-2.6c0-1.4,1.2-2.6,2.6-2.6c1.4,0,2.6,1.2,2.6,2.6C114.2,677.3,113,678.5,111.5,678.5z"/>
		</g>
	</g>
	<g>
		<g>
			<path class="st2" d="M88.4,682.8c-0.4-0.4-0.9-0.4-1.3,0l-1.9,1.9c-0.4,0.4-0.4,0.9,0,1.3c0.2,0.2,0.4,0.3,0.7,0.3
				s0.5-0.1,0.7-0.3l1.9-1.9C88.7,683.7,88.7,683.1,88.4,682.8z"/>
		</g>
	</g>
	<g>
		<g>
			<path class="st2" d="M104.6,676.9c-0.4-0.4-0.9-0.4-1.3,0l-1.9,1.9c-0.4,0.4-0.4,0.9,0,1.3c0.2,0.2,0.4,0.3,0.7,0.3
				c0.2,0,0.5-0.1,0.7-0.3l1.9-1.9C105,677.8,105,677.2,104.6,676.9z"/>
		</g>
	</g>
</g>
<g class="st1">
	<g>
		<g>
			<path class="st2" d="M529.3,708.6c-3.7,0-6.7,3-6.7,6.7c0,1.4,0.4,2.6,1.1,3.7l-7.3,7.3c-1.1-0.7-2.3-1.1-3.7-1.1
				c-1.4,0-2.7,0.4-3.8,1.2l-7.3-7.3c0.7-1.1,1.1-2.3,1.1-3.7c0-3.7-3-6.7-6.7-6.7c-3.7,0-6.7,3-6.7,6.7c0,1.4,0.4,2.6,1.1,3.7
				l-7.3,7.3c-1.1-0.7-2.3-1.1-3.7-1.1c-3.7,0-6.7,3-6.7,6.7s3,6.7,6.7,6.7s6.7-3,6.7-6.7c0-1.4-0.4-2.6-1.1-3.7l7.3-7.3
				c1.1,0.7,2.3,1.1,3.7,1.1c1.4,0,2.6-0.4,3.7-1.1l7.4,7.4c-0.6,1-1,2.2-1,3.5c0,3.7,3,6.7,6.7,6.7s6.7-3,6.7-6.7
				c0-1.4-0.4-2.6-1.1-3.7l7.3-7.3c1.1,0.7,2.3,1.1,3.7,1.1c3.7,0,6.7-3,6.7-6.7C536.1,711.6,533,708.6,529.3,708.6z M479.5,735.8
				c-2.2,0-3.9-1.8-3.9-3.9c0-2.2,1.8-3.9,3.9-3.9c2.2,0,3.9,1.8,3.9,3.9C483.4,734.1,481.6,735.8,479.5,735.8z M496,719.3
				c-2.2,0-3.9-1.8-3.9-3.9c0-2.2,1.8-3.9,3.9-3.9c2.2,0,3.9,1.8,3.9,3.9S498.2,719.3,496,719.3z M512.8,735.8
				c-2.2,0-3.9-1.8-3.9-3.9c0-2.2,1.8-3.9,3.9-3.9c2.2,0,3.9,1.8,3.9,3.9C516.7,734.1,514.9,735.8,512.8,735.8z M529.3,719.3
				c-2.2,0-3.9-1.8-3.9-3.9c0-2.2,1.8-3.9,3.9-3.9c2.2,0,3.9,1.8,3.9,3.9S531.5,719.3,529.3,719.3z"/>
		</g>
	</g>
	<g>
		<g>
			<path class="st2" d="M494.6,725.7c-0.5-0.5-1.4-0.5-2,0l-2.8,2.8c-0.5,0.5-0.5,1.4,0,2c0.3,0.3,0.6,0.4,1,0.4s0.7-0.1,1-0.4
				l2.8-2.8C495.1,727.1,495.1,726.2,494.6,725.7z"/>
		</g>
	</g>
	<g>
		<g>
			<path class="st2" d="M519,716.8c-0.5-0.5-1.4-0.5-2,0l-2.8,2.8c-0.5,0.5-0.5,1.4,0,2c0.3,0.3,0.6,0.4,1,0.4c0.4,0,0.7-0.1,1-0.4
				l2.8-2.8C519.5,718.2,519.5,717.4,519,716.8z"/>
		</g>
	</g>
</g>
<g class="st1">
	<g>
		<g>
			<path class="st2" d="M368,590c-4.3,0-7.8,3.5-7.8,7.8c0,1.6,0.5,3,1.3,4.3l-8.5,8.5c-1.2-0.8-2.7-1.3-4.3-1.3
				c-1.6,0-3.2,0.5-4.4,1.4l-8.6-8.6c0.8-1.2,1.3-2.7,1.3-4.3c0-4.3-3.5-7.8-7.8-7.8s-7.8,3.5-7.8,7.8c0,1.6,0.5,3,1.3,4.3l-8.5,8.5
				c-1.2-0.8-2.7-1.3-4.3-1.3c-4.3,0-7.8,3.5-7.8,7.8c0,4.3,3.5,7.8,7.8,7.8s7.8-3.5,7.8-7.8c0-1.6-0.5-3-1.3-4.3l8.5-8.5
				c1.2,0.8,2.7,1.3,4.3,1.3c1.6,0,3-0.5,4.3-1.3l8.6,8.6c-0.8,1.2-1.2,2.6-1.2,4.1c0,4.3,3.5,7.8,7.8,7.8s7.8-3.5,7.8-7.8
				c0-1.6-0.5-3-1.3-4.3l8.5-8.5c1.2,0.8,2.7,1.3,4.3,1.3c4.3,0,7.8-3.5,7.8-7.8C375.9,593.5,372.3,590,368,590z M309.8,621.7
				c-2.5,0-4.6-2.1-4.6-4.6c0-2.5,2.1-4.6,4.6-4.6c2.5,0,4.6,2.1,4.6,4.6C314.4,619.7,312.4,621.7,309.8,621.7z M329.2,602.4
				c-2.5,0-4.6-2.1-4.6-4.6c0-2.5,2.1-4.6,4.6-4.6s4.6,2.1,4.6,4.6C333.8,600.4,331.7,602.4,329.2,602.4z M348.7,621.7
				c-2.5,0-4.6-2.1-4.6-4.6s2.1-4.6,4.6-4.6c2.5,0,4.6,2.1,4.6,4.6C353.3,619.7,351.2,621.7,348.7,621.7z M368,602.4
				c-2.5,0-4.6-2.1-4.6-4.6c0-2.5,2.1-4.6,4.6-4.6c2.5,0,4.6,2.1,4.6,4.6C372.6,600.4,370.6,602.4,368,602.4z"/>
		</g>
	</g>
	<g>
		<g>
			<path class="st2" d="M327.5,609.9c-0.6-0.6-1.7-0.6-2.3,0l-3.3,3.3c-0.6,0.6-0.6,1.7,0,2.3c0.3,0.3,0.7,0.5,1.1,0.5
				s0.8-0.2,1.1-0.5l3.3-3.3C328.1,611.6,328.1,610.5,327.5,609.9z"/>
		</g>
	</g>
	<g>
		<g>
			<path class="st2" d="M355.9,599.5c-0.6-0.6-1.7-0.6-2.3,0l-3.3,3.3c-0.6,0.6-0.6,1.7,0,2.3c0.3,0.3,0.7,0.5,1.1,0.5
				c0.4,0,0.8-0.2,1.1-0.5l3.3-3.3C356.6,601.2,356.6,600.2,355.9,599.5z"/>
		</g>
	</g>
</g>
<g class="st3">
	<g>
		<g>
			<path class="st2" d="M521.8,518.2c0-0.6-0.4-1-1-1s-1,0.4-1,1v2c0,0.6,0.4,1,1,1s1-0.4,1-1V518.2z"/>
			<path class="st2" d="M520.8,529.2c-0.6,0-1,0.4-1,1v4c0,0.6,0.4,1,1,1s1-0.4,1-1v-4C521.8,529.6,521.3,529.2,520.8,529.2z"/>
			<path class="st2" d="M525.8,506.2c0-0.6-0.4-1-1-1s-1,0.4-1,1v2c0,0.6,0.4,1,1,1s1-0.4,1-1V506.2z"/>
			<path class="st2" d="M521.8,512.2c0-0.6-0.4-1-1-1s-1,0.4-1,1v2c0,0.6,0.4,1,1,1s1-0.4,1-1V512.2z"/>
			<path class="st2" d="M521.8,524.2c0-0.6-0.4-1-1-1s-1,0.4-1,1v2c0,0.6,0.4,1,1,1s1-0.4,1-1L521.8,524.2L521.8,524.2z"/>
			<path class="st2" d="M525.8,512.2c0-0.6-0.4-1-1-1s-1,0.4-1,1v2c0,0.6,0.4,1,1,1s1-0.4,1-1V512.2z"/>
			<path class="st2" d="M517.8,506.2c0-0.6-0.4-1-1-1c-0.6,0-1,0.4-1,1v2c0,0.6,0.4,1,1,1c0.6,0,1-0.4,1-1V506.2z"/>
			<path class="st2" d="M521.8,506.2c0-0.6-0.4-1-1-1s-1,0.4-1,1v2c0,0.6,0.4,1,1,1s1-0.4,1-1V506.2z"/>
			<path class="st2" d="M525.8,496.2v-2c0-0.6-0.4-1-1-1s-1,0.4-1,1v2c0,0.6,0.4,1,1,1S525.8,496.7,525.8,496.2z"/>
			<path class="st2" d="M517.8,512.2c0-0.6-0.4-1-1-1c-0.6,0-1,0.4-1,1v2c0,0.6,0.4,1,1,1c0.6,0,1-0.4,1-1V512.2z"/>
			<path class="st2" d="M529.8,494.2c0-0.6-0.4-1-1-1c-0.6,0-1,0.4-1,1v2c0,0.6,0.4,1,1,1c0.6,0,1-0.4,1-1V494.2z"/>
			<path class="st2" d="M516.8,517.2c-0.6,0-1,0.4-1,1v2c0,0.6,0.4,1,1,1c0.6,0,1-0.4,1-1v-2C517.8,517.6,517.3,517.2,516.8,517.2z"
				/>
			<path class="st2" d="M533.8,524.2c0-0.6-0.4-1-1-1s-1,0.4-1,1v2c0,0.6,0.4,1,1,1s1-0.4,1-1L533.8,524.2L533.8,524.2z"/>
			<path class="st2" d="M532.8,529.2c-0.6,0-1,0.4-1,1v4c0,0.6,0.4,1,1,1s1-0.4,1-1v-4C533.8,529.6,533.3,529.2,532.8,529.2z"/>
			<path class="st2" d="M536.8,517.2c-0.6,0-1,0.4-1,1v2c0,0.6,0.4,1,1,1s1-0.4,1-1v-2C537.8,517.6,537.3,517.2,536.8,517.2z"/>
			<path class="st2" d="M520.8,497.2c0.6,0,1-0.4,1-1v-4.2l10-2.5v16.7c0,0.4,0.3,0.8,0.6,0.9l7.4,2.8v10.3c0,0.6,0.4,1,1,1
				c0.6,0,1-0.4,1-1v-11c0-0.4-0.3-0.8-0.6-0.9l-7.4-2.8v-19.3c0-0.6-0.4-1-1-1s-1,0.4-1,1v1.2l-11.2,2.8c-0.4,0.1-0.8,0.5-0.8,1v5
				C519.8,496.7,520.2,497.2,520.8,497.2z"/>
			<path class="st2" d="M537.8,512.2c0-0.6-0.4-1-1-1s-1,0.4-1,1v2c0,0.6,0.4,1,1,1s1-0.4,1-1V512.2z"/>
			<path class="st2" d="M533.8,512.2c0-0.6-0.4-1-1-1s-1,0.4-1,1v2c0,0.6,0.4,1,1,1s1-0.4,1-1V512.2z"/>
			<path class="st2" d="M525.8,524.2c0-0.6-0.4-1-1-1s-1,0.4-1,1v2c0,0.6,0.4,1,1,1s1-0.4,1-1V524.2z"/>
			<path class="st2" d="M533.8,518.2c0-0.6-0.4-1-1-1s-1,0.4-1,1v2c0,0.6,0.4,1,1,1s1-0.4,1-1V518.2z"/>
			<path class="st2" d="M524.8,529.2c-0.6,0-1,0.4-1,1v4c0,0.6,0.4,1,1,1s1-0.4,1-1v-4C525.8,529.6,525.3,529.2,524.8,529.2z"/>
			<path class="st2" d="M525.8,518.2c0-0.6-0.4-1-1-1s-1,0.4-1,1v2c0,0.6,0.4,1,1,1s1-0.4,1-1V518.2z"/>
			<path class="st2" d="M528.8,535.2c0.6,0,1-0.4,1-1v-32c0-0.5-0.3-0.9-0.8-1l-16-4c-0.3-0.1-0.6,0-0.9,0.2
				c-0.2,0.2-0.4,0.5-0.4,0.8v22c0,0.6,0.4,1,1,1s1-0.4,1-1v-20.7l14,3.5v31.2C527.8,534.7,528.2,535.2,528.8,535.2z"/>
			<path class="st2" d="M505.8,500.2c0-0.6-0.4-1-1-1c-0.6,0-1,0.4-1,1v2c0,0.6,0.4,1,1,1c0.6,0,1-0.4,1-1V500.2z"/>
			<path class="st2" d="M505.8,494.2c0-0.6-0.4-1-1-1c-0.6,0-1,0.4-1,1v2c0,0.6,0.4,1,1,1c0.6,0,1-0.4,1-1V494.2z"/>
			<path class="st2" d="M497.8,524.2c0-0.6-0.4-1-1-1c-0.6,0-1,0.4-1,1v2c0,0.6,0.4,1,1,1c0.6,0,1-0.4,1-1L497.8,524.2L497.8,524.2z
				"/>
			<path class="st2" d="M488.8,515.2c0.6,0,1-0.4,1-1v-5h10v25c0,0.6,0.4,1,1,1c0.6,0,1-0.4,1-1v-26c0-0.6-0.4-1-1-1h-12
				c-0.6,0-1,0.4-1,1v6C487.8,514.7,488.2,515.2,488.8,515.2z"/>
			<path class="st2" d="M499.8,500.2v2c0,0.6,0.4,1,1,1c0.6,0,1-0.4,1-1v-2c0-0.6-0.4-1-1-1C500.2,499.2,499.8,499.6,499.8,500.2z"
				/>
			<path class="st2" d="M505.8,488.2c0-0.6-0.4-1-1-1c-0.6,0-1,0.4-1,1v2c0,0.6,0.4,1,1,1c0.6,0,1-0.4,1-1V488.2z"/>
			<path class="st2" d="M496.8,529.2c-0.6,0-1,0.4-1,1v4c0,0.6,0.4,1,1,1c0.6,0,1-0.4,1-1v-4C497.8,529.6,497.3,529.2,496.8,529.2z"
				/>
			<path class="st2" d="M542.8,537.2h-2V531c1.7-0.4,3-2,3-3.9c0-2.2-1.8-4-4-4s-4,1.8-4,4c0,1.9,1.3,3.4,3,3.9v6.1h-25v-4.1
				c2.3-0.5,4-2.5,4-4.9c0-2.8-2.2-5-5-5c-2.8,0-5,2.2-5,5c0,2.4,1.7,4.4,4,4.9v4.1h-22v-10.1c2.3-0.5,4-2.5,4-4.9c0-2.8-2.2-5-5-5
				c-2.8,0-5,2.2-5,5c0,2.4,1.7,4.4,4,4.9v10.1h-3c-0.6,0-1,0.4-1,1s0.4,1,1,1h58c0.6,0,1-0.4,1-1S543.3,537.2,542.8,537.2z
				 M485.8,522.2c0-1.7,1.3-3,3-3c1.7,0,3,1.3,3,3s-1.3,3-3,3C487.1,525.2,485.8,523.8,485.8,522.2z M509.8,528.2c0-1.7,1.3-3,3-3
				c1.7,0,3,1.3,3,3s-1.3,3-3,3C511.1,531.2,509.8,529.8,509.8,528.2z M537.8,527.2c0-1.1,0.9-2,2-2s2,0.9,2,2c0,1.1-0.9,2-2,2
				S537.8,528.3,537.8,527.2z"/>
			<path class="st2" d="M491.8,530.2v4c0,0.6,0.4,1,1,1c0.6,0,1-0.4,1-1v-4c0-0.6-0.4-1-1-1C492.2,529.2,491.8,529.6,491.8,530.2z"
				/>
			<path class="st2" d="M497.8,512.2c0-0.6-0.4-1-1-1c-0.6,0-1,0.4-1,1v2c0,0.6,0.4,1,1,1c0.6,0,1-0.4,1-1V512.2z"/>
			<path class="st2" d="M497.8,518.2c0-0.6-0.4-1-1-1c-0.6,0-1,0.4-1,1v2c0,0.6,0.4,1,1,1c0.6,0,1-0.4,1-1V518.2z"/>
			<path class="st2" d="M491.8,512.2v2c0,0.6,0.4,1,1,1c0.6,0,1-0.4,1-1v-2c0-0.6-0.4-1-1-1C492.2,511.2,491.8,511.6,491.8,512.2z"
				/>
			<path class="st2" d="M505.8,518.2c0-0.6-0.4-1-1-1c-0.6,0-1,0.4-1,1v2c0,0.6,0.4,1,1,1c0.6,0,1-0.4,1-1V518.2z"/>
			<path class="st2" d="M509.8,506.2c0-0.6-0.4-1-1-1c-0.6,0-1,0.4-1,1v2c0,0.6,0.4,1,1,1c0.6,0,1-0.4,1-1V506.2z"/>
			<path class="st2" d="M509.8,500.2c0-0.6-0.4-1-1-1c-0.6,0-1,0.4-1,1v2c0,0.6,0.4,1,1,1c0.6,0,1-0.4,1-1V500.2z"/>
			<path class="st2" d="M509.8,512.2c0-0.6-0.4-1-1-1c-0.6,0-1,0.4-1,1v2c0,0.6,0.4,1,1,1c0.6,0,1-0.4,1-1V512.2z"/>
			<path class="st2" d="M508.8,517.2c-0.6,0-1,0.4-1,1v2c0,0.6,0.4,1,1,1c0.6,0,1-0.4,1-1v-2C509.8,517.6,509.3,517.2,508.8,517.2z"
				/>
			<path class="st2" d="M509.8,494.2c0-0.6-0.4-1-1-1c-0.6,0-1,0.4-1,1v2c0,0.6,0.4,1,1,1c0.6,0,1-0.4,1-1V494.2z"/>
			<path class="st2" d="M505.8,524.2c0-0.6-0.4-1-1-1c-0.6,0-1,0.4-1,1v2c0,0.6,0.4,1,1,1c0.6,0,1-0.4,1-1V524.2z"/>
			<path class="st2" d="M496.8,505.2c0.6,0,1-0.4,1-1v-7.4l3.4-1.7c0.3-0.2,0.6-0.5,0.6-0.9v-8.4l5-2.5l5,2.5v8.4c0,0.6,0.4,1,1,1
				s1-0.4,1-1v-9c0-0.4-0.2-0.7-0.6-0.9l-5.4-2.7v-1.4c0-0.6-0.4-1-1-1c-0.6,0-1,0.4-1,1v1.4l-5.4,2.7c-0.3,0.2-0.6,0.5-0.6,0.9v8.4
				l-3.4,1.7c-0.3,0.2-0.6,0.5-0.6,0.9v8C495.8,504.7,496.2,505.2,496.8,505.2z"/>
			<path class="st2" d="M505.8,512.2c0-0.6-0.4-1-1-1c-0.6,0-1,0.4-1,1v2c0,0.6,0.4,1,1,1c0.6,0,1-0.4,1-1V512.2z"/>
			<path class="st2" d="M504.8,529.2c-0.6,0-1,0.4-1,1v4c0,0.6,0.4,1,1,1c0.6,0,1-0.4,1-1v-4C505.8,529.6,505.3,529.2,504.8,529.2z"
				/>
			<path class="st2" d="M509.8,488.2c0-0.6-0.4-1-1-1c-0.6,0-1,0.4-1,1v2c0,0.6,0.4,1,1,1c0.6,0,1-0.4,1-1V488.2z"/>
			<path class="st2" d="M505.8,506.2c0-0.6-0.4-1-1-1c-0.6,0-1,0.4-1,1v2c0,0.6,0.4,1,1,1c0.6,0,1-0.4,1-1V506.2z"/>
		</g>
	</g>
</g>
<g class="st3">
	<g>
		<g>
			<path class="st2" d="M252.8,731.2c0-0.7-0.6-1.3-1.3-1.3c-0.7,0-1.3,0.6-1.3,1.3v2.7c0,0.7,0.6,1.3,1.3,1.3
				c0.7,0,1.3-0.6,1.3-1.3V731.2z"/>
			<path class="st2" d="M251.5,745.9c-0.7,0-1.3,0.6-1.3,1.3v5.3c0,0.7,0.6,1.3,1.3,1.3c0.7,0,1.3-0.6,1.3-1.3v-5.3
				C252.8,746.5,252.2,745.9,251.5,745.9z"/>
			<path class="st2" d="M258.2,715.2c0-0.7-0.6-1.3-1.3-1.3s-1.3,0.6-1.3,1.3v2.7c0,0.7,0.6,1.3,1.3,1.3s1.3-0.6,1.3-1.3V715.2z"/>
			<path class="st2" d="M252.8,723.2c0-0.7-0.6-1.3-1.3-1.3c-0.7,0-1.3,0.6-1.3,1.3v2.7c0,0.7,0.6,1.3,1.3,1.3
				c0.7,0,1.3-0.6,1.3-1.3V723.2z"/>
			<path class="st2" d="M252.8,739.2c0-0.7-0.6-1.3-1.3-1.3c-0.7,0-1.3,0.6-1.3,1.3v2.7c0,0.7,0.6,1.3,1.3,1.3
				c0.7,0,1.3-0.6,1.3-1.3L252.8,739.2L252.8,739.2z"/>
			<path class="st2" d="M258.2,723.2c0-0.7-0.6-1.3-1.3-1.3s-1.3,0.6-1.3,1.3v2.7c0,0.7,0.6,1.3,1.3,1.3s1.3-0.6,1.3-1.3V723.2z"/>
			<path class="st2" d="M247.5,715.2c0-0.7-0.6-1.3-1.3-1.3c-0.7,0-1.3,0.6-1.3,1.3v2.7c0,0.7,0.6,1.3,1.3,1.3
				c0.7,0,1.3-0.6,1.3-1.3V715.2z"/>
			<path class="st2" d="M252.8,715.2c0-0.7-0.6-1.3-1.3-1.3c-0.7,0-1.3,0.6-1.3,1.3v2.7c0,0.7,0.6,1.3,1.3,1.3
				c0.7,0,1.3-0.6,1.3-1.3V715.2z"/>
			<path class="st2" d="M258.2,701.9v-2.7c0-0.7-0.6-1.3-1.3-1.3s-1.3,0.6-1.3,1.3v2.7c0,0.7,0.6,1.3,1.3,1.3
				S258.2,702.6,258.2,701.9z"/>
			<path class="st2" d="M247.5,723.2c0-0.7-0.6-1.3-1.3-1.3c-0.7,0-1.3,0.6-1.3,1.3v2.7c0,0.7,0.6,1.3,1.3,1.3
				c0.7,0,1.3-0.6,1.3-1.3V723.2z"/>
			<path class="st2" d="M263.5,699.2c0-0.7-0.6-1.3-1.3-1.3c-0.7,0-1.3,0.6-1.3,1.3v2.7c0,0.7,0.6,1.3,1.3,1.3
				c0.7,0,1.3-0.6,1.3-1.3V699.2z"/>
			<path class="st2" d="M246.2,729.9c-0.7,0-1.3,0.6-1.3,1.3v2.7c0,0.7,0.6,1.3,1.3,1.3c0.7,0,1.3-0.6,1.3-1.3v-2.7
				C247.5,730.5,246.9,729.9,246.2,729.9z"/>
			<path class="st2" d="M268.8,739.2c0-0.7-0.6-1.3-1.3-1.3s-1.3,0.6-1.3,1.3v2.7c0,0.7,0.6,1.3,1.3,1.3c0.7,0,1.3-0.6,1.3-1.3
				L268.8,739.2L268.8,739.2z"/>
			<path class="st2" d="M267.5,745.9c-0.7,0-1.3,0.6-1.3,1.3v5.3c0,0.7,0.6,1.3,1.3,1.3c0.7,0,1.3-0.6,1.3-1.3v-5.3
				C268.8,746.5,268.2,745.9,267.5,745.9z"/>
			<path class="st2" d="M272.8,729.9c-0.7,0-1.3,0.6-1.3,1.3v2.7c0,0.7,0.6,1.3,1.3,1.3s1.3-0.6,1.3-1.3v-2.7
				C274.2,730.5,273.6,729.9,272.8,729.9z"/>
			<path class="st2" d="M251.5,703.2c0.7,0,1.3-0.6,1.3-1.3v-5.6l13.3-3.3v22.3c0,0.6,0.3,1.1,0.9,1.2l9.8,3.7v13.7
				c0,0.7,0.6,1.3,1.3,1.3c0.7,0,1.3-0.6,1.3-1.3v-14.7c0-0.6-0.3-1.1-0.9-1.2l-9.8-3.7v-25.7c0-0.7-0.6-1.3-1.3-1.3
				c-0.7,0-1.3,0.6-1.3,1.3v1.6l-15,3.7c-0.6,0.1-1,0.7-1,1.3v6.7C250.2,702.6,250.8,703.2,251.5,703.2z"/>
			<path class="st2" d="M274.2,723.2c0-0.7-0.6-1.3-1.3-1.3s-1.3,0.6-1.3,1.3v2.7c0,0.7,0.6,1.3,1.3,1.3s1.3-0.6,1.3-1.3V723.2z"/>
			<path class="st2" d="M268.8,723.2c0-0.7-0.6-1.3-1.3-1.3s-1.3,0.6-1.3,1.3v2.7c0,0.7,0.6,1.3,1.3,1.3s1.3-0.6,1.3-1.3V723.2z"/>
			<path class="st2" d="M258.2,739.2c0-0.7-0.6-1.3-1.3-1.3s-1.3,0.6-1.3,1.3v2.7c0,0.7,0.6,1.3,1.3,1.3s1.3-0.6,1.3-1.3V739.2z"/>
			<path class="st2" d="M268.8,731.2c0-0.7-0.6-1.3-1.3-1.3s-1.3,0.6-1.3,1.3v2.7c0,0.7,0.6,1.3,1.3,1.3s1.3-0.6,1.3-1.3V731.2z"/>
			<path class="st2" d="M256.8,745.9c-0.7,0-1.3,0.6-1.3,1.3v5.3c0,0.7,0.6,1.3,1.3,1.3s1.3-0.6,1.3-1.3v-5.3
				C258.2,746.5,257.6,745.9,256.8,745.9z"/>
			<path class="st2" d="M258.2,731.2c0-0.7-0.6-1.3-1.3-1.3s-1.3,0.6-1.3,1.3v2.7c0,0.7,0.6,1.3,1.3,1.3s1.3-0.6,1.3-1.3V731.2z"/>
			<path class="st2" d="M262.2,753.9c0.7,0,1.3-0.6,1.3-1.3v-42.7c0-0.6-0.4-1.1-1-1.3l-21.3-5.3c-0.4-0.1-0.8,0-1.1,0.2
				c-0.3,0.3-0.5,0.6-0.5,1.1v29.3c0,0.7,0.6,1.3,1.3,1.3s1.3-0.6,1.3-1.3v-27.6l18.7,4.7v41.6C260.8,753.3,261.4,753.9,262.2,753.9
				z"/>
			<path class="st2" d="M231.5,707.2c0-0.7-0.6-1.3-1.3-1.3c-0.7,0-1.3,0.6-1.3,1.3v2.7c0,0.7,0.6,1.3,1.3,1.3
				c0.7,0,1.3-0.6,1.3-1.3V707.2z"/>
			<path class="st2" d="M231.5,699.2c0-0.7-0.6-1.3-1.3-1.3c-0.7,0-1.3,0.6-1.3,1.3v2.7c0,0.7,0.6,1.3,1.3,1.3
				c0.7,0,1.3-0.6,1.3-1.3V699.2z"/>
			<path class="st2" d="M220.8,739.2c0-0.7-0.6-1.3-1.3-1.3c-0.7,0-1.3,0.6-1.3,1.3v2.7c0,0.7,0.6,1.3,1.3,1.3
				c0.7,0,1.3-0.6,1.3-1.3L220.8,739.2L220.8,739.2z"/>
			<path class="st2" d="M208.8,727.2c0.7,0,1.3-0.6,1.3-1.3v-6.7h13.3v33.3c0,0.7,0.6,1.3,1.3,1.3c0.7,0,1.3-0.6,1.3-1.3v-34.7
				c0-0.7-0.6-1.3-1.3-1.3h-16c-0.7,0-1.3,0.6-1.3,1.3v8C207.5,726.6,208.1,727.2,208.8,727.2z"/>
			<path class="st2" d="M223.5,707.2v2.7c0,0.7,0.6,1.3,1.3,1.3c0.7,0,1.3-0.6,1.3-1.3v-2.7c0-0.7-0.6-1.3-1.3-1.3
				C224.1,705.9,223.5,706.5,223.5,707.2z"/>
			<path class="st2" d="M231.5,691.2c0-0.7-0.6-1.3-1.3-1.3c-0.7,0-1.3,0.6-1.3,1.3v2.7c0,0.7,0.6,1.3,1.3,1.3
				c0.7,0,1.3-0.6,1.3-1.3V691.2z"/>
			<path class="st2" d="M219.5,745.9c-0.7,0-1.3,0.6-1.3,1.3v5.3c0,0.7,0.6,1.3,1.3,1.3c0.7,0,1.3-0.6,1.3-1.3v-5.3
				C220.8,746.5,220.2,745.9,219.5,745.9z"/>
			<path class="st2" d="M280.8,756.5h-2.7v-8.2c2.3-0.6,4-2.7,4-5.1c0-2.9-2.4-5.3-5.3-5.3s-5.3,2.4-5.3,5.3c0,2.5,1.7,4.5,4,5.1
				v8.2h-33.3v-5.5c3-0.6,5.3-3.3,5.3-6.5c0-3.7-3-6.7-6.7-6.7c-3.7,0-6.7,3-6.7,6.7c0,3.2,2.3,5.9,5.3,6.5v5.5h-29.3v-13.5
				c3-0.6,5.3-3.3,5.3-6.5c0-3.7-3-6.7-6.7-6.7c-3.7,0-6.7,3-6.7,6.7c0,3.2,2.3,5.9,5.3,6.5v13.5h-4c-0.7,0-1.3,0.6-1.3,1.3
				c0,0.7,0.6,1.3,1.3,1.3h77.3c0.7,0,1.3-0.6,1.3-1.3C282.2,757.1,281.6,756.5,280.8,756.5z M204.8,736.5c0-2.2,1.8-4,4-4
				c2.2,0,4,1.8,4,4s-1.8,4-4,4C206.6,740.5,204.8,738.7,204.8,736.5z M236.8,744.5c0-2.2,1.8-4,4-4c2.2,0,4,1.8,4,4s-1.8,4-4,4
				C238.6,748.5,236.8,746.7,236.8,744.5z M274.2,743.2c0-1.5,1.2-2.7,2.7-2.7c1.5,0,2.7,1.2,2.7,2.7c0,1.5-1.2,2.7-2.7,2.7
				C275.4,745.9,274.2,744.7,274.2,743.2z"/>
			<path class="st2" d="M212.8,747.2v5.3c0,0.7,0.6,1.3,1.3,1.3c0.7,0,1.3-0.6,1.3-1.3v-5.3c0-0.7-0.6-1.3-1.3-1.3
				C213.4,745.9,212.8,746.5,212.8,747.2z"/>
			<path class="st2" d="M220.8,723.2c0-0.7-0.6-1.3-1.3-1.3c-0.7,0-1.3,0.6-1.3,1.3v2.7c0,0.7,0.6,1.3,1.3,1.3
				c0.7,0,1.3-0.6,1.3-1.3V723.2z"/>
			<path class="st2" d="M220.8,731.2c0-0.7-0.6-1.3-1.3-1.3c-0.7,0-1.3,0.6-1.3,1.3v2.7c0,0.7,0.6,1.3,1.3,1.3
				c0.7,0,1.3-0.6,1.3-1.3V731.2z"/>
			<path class="st2" d="M212.8,723.2v2.7c0,0.7,0.6,1.3,1.3,1.3c0.7,0,1.3-0.6,1.3-1.3v-2.7c0-0.7-0.6-1.3-1.3-1.3
				C213.4,721.9,212.8,722.5,212.8,723.2z"/>
			<path class="st2" d="M231.5,731.2c0-0.7-0.6-1.3-1.3-1.3c-0.7,0-1.3,0.6-1.3,1.3v2.7c0,0.7,0.6,1.3,1.3,1.3
				c0.7,0,1.3-0.6,1.3-1.3V731.2z"/>
			<path class="st2" d="M236.8,715.2c0-0.7-0.6-1.3-1.3-1.3c-0.7,0-1.3,0.6-1.3,1.3v2.7c0,0.7,0.6,1.3,1.3,1.3
				c0.7,0,1.3-0.6,1.3-1.3V715.2z"/>
			<path class="st2" d="M236.8,707.2c0-0.7-0.6-1.3-1.3-1.3c-0.7,0-1.3,0.6-1.3,1.3v2.7c0,0.7,0.6,1.3,1.3,1.3
				c0.7,0,1.3-0.6,1.3-1.3V707.2z"/>
			<path class="st2" d="M236.8,723.2c0-0.7-0.6-1.3-1.3-1.3c-0.7,0-1.3,0.6-1.3,1.3v2.7c0,0.7,0.6,1.3,1.3,1.3
				c0.7,0,1.3-0.6,1.3-1.3V723.2z"/>
			<path class="st2" d="M235.5,729.9c-0.7,0-1.3,0.6-1.3,1.3v2.7c0,0.7,0.6,1.3,1.3,1.3c0.7,0,1.3-0.6,1.3-1.3v-2.7
				C236.8,730.5,236.2,729.9,235.5,729.9z"/>
			<path class="st2" d="M236.8,699.2c0-0.7-0.6-1.3-1.3-1.3c-0.7,0-1.3,0.6-1.3,1.3v2.7c0,0.7,0.6,1.3,1.3,1.3
				c0.7,0,1.3-0.6,1.3-1.3V699.2z"/>
			<path class="st2" d="M231.5,739.2c0-0.7-0.6-1.3-1.3-1.3c-0.7,0-1.3,0.6-1.3,1.3v2.7c0,0.7,0.6,1.3,1.3,1.3
				c0.7,0,1.3-0.6,1.3-1.3V739.2z"/>
			<path class="st2" d="M219.5,713.9c0.7,0,1.3-0.6,1.3-1.3v-9.8l4.6-2.3c0.5-0.2,0.7-0.7,0.7-1.2V688l6.7-3.3l6.7,3.3v11.2
				c0,0.7,0.6,1.3,1.3,1.3s1.3-0.6,1.3-1.3v-12c0-0.5-0.3-1-0.7-1.2l-7.3-3.6v-1.8c0-0.7-0.6-1.3-1.3-1.3c-0.7,0-1.3,0.6-1.3,1.3
				v1.8l-7.3,3.6c-0.5,0.2-0.7,0.7-0.7,1.2v11.2l-4.6,2.3c-0.5,0.2-0.7,0.7-0.7,1.2v10.7C218.2,713.3,218.8,713.9,219.5,713.9z"/>
			<path class="st2" d="M231.5,723.2c0-0.7-0.6-1.3-1.3-1.3c-0.7,0-1.3,0.6-1.3,1.3v2.7c0,0.7,0.6,1.3,1.3,1.3
				c0.7,0,1.3-0.6,1.3-1.3V723.2z"/>
			<path class="st2" d="M230.2,745.9c-0.7,0-1.3,0.6-1.3,1.3v5.3c0,0.7,0.6,1.3,1.3,1.3c0.7,0,1.3-0.6,1.3-1.3v-5.3
				C231.5,746.5,230.9,745.9,230.2,745.9z"/>
			<path class="st2" d="M236.8,691.2c0-0.7-0.6-1.3-1.3-1.3c-0.7,0-1.3,0.6-1.3,1.3v2.7c0,0.7,0.6,1.3,1.3,1.3
				c0.7,0,1.3-0.6,1.3-1.3V691.2z"/>
			<path class="st2" d="M231.5,715.2c0-0.7-0.6-1.3-1.3-1.3c-0.7,0-1.3,0.6-1.3,1.3v2.7c0,0.7,0.6,1.3,1.3,1.3
				c0.7,0,1.3-0.6,1.3-1.3V715.2z"/>
		</g>
	</g>
</g>
<g class="st3">
	<g>
		<g>
			<path class="st2" d="M77.8,128c0-0.6-0.4-1-1-1c-0.6,0-1,0.4-1,1v2c0,0.6,0.4,1,1,1c0.6,0,1-0.4,1-1V128z"/>
			<path class="st2" d="M76.8,139c-0.6,0-1,0.4-1,1v4c0,0.6,0.4,1,1,1c0.6,0,1-0.4,1-1v-4C77.8,139.5,77.3,139,76.8,139z"/>
			<path class="st2" d="M81.8,116c0-0.6-0.4-1-1-1c-0.6,0-1,0.4-1,1v2c0,0.6,0.4,1,1,1c0.6,0,1-0.4,1-1V116z"/>
			<path class="st2" d="M77.8,122c0-0.6-0.4-1-1-1c-0.6,0-1,0.4-1,1v2c0,0.6,0.4,1,1,1c0.6,0,1-0.4,1-1V122z"/>
			<path class="st2" d="M77.8,134c0-0.6-0.4-1-1-1c-0.6,0-1,0.4-1,1v2c0,0.6,0.4,1,1,1c0.6,0,1-0.4,1-1L77.8,134L77.8,134z"/>
			<path class="st2" d="M81.8,122c0-0.6-0.4-1-1-1c-0.6,0-1,0.4-1,1v2c0,0.6,0.4,1,1,1c0.6,0,1-0.4,1-1V122z"/>
			<path class="st2" d="M73.8,116c0-0.6-0.4-1-1-1c-0.6,0-1,0.4-1,1v2c0,0.6,0.4,1,1,1c0.6,0,1-0.4,1-1V116z"/>
			<path class="st2" d="M77.8,116c0-0.6-0.4-1-1-1c-0.6,0-1,0.4-1,1v2c0,0.6,0.4,1,1,1c0.6,0,1-0.4,1-1V116z"/>
			<path class="st2" d="M81.8,106v-2c0-0.6-0.4-1-1-1c-0.6,0-1,0.4-1,1v2c0,0.6,0.4,1,1,1C81.3,107,81.8,106.6,81.8,106z"/>
			<path class="st2" d="M73.8,122c0-0.6-0.4-1-1-1c-0.6,0-1,0.4-1,1v2c0,0.6,0.4,1,1,1c0.6,0,1-0.4,1-1V122z"/>
			<path class="st2" d="M85.8,104c0-0.6-0.4-1-1-1c-0.6,0-1,0.4-1,1v2c0,0.6,0.4,1,1,1c0.6,0,1-0.4,1-1V104z"/>
			<path class="st2" d="M72.8,127c-0.6,0-1,0.4-1,1v2c0,0.6,0.4,1,1,1c0.6,0,1-0.4,1-1v-2C73.8,127.5,73.3,127,72.8,127z"/>
			<path class="st2" d="M89.8,134c0-0.6-0.4-1-1-1c-0.6,0-1,0.4-1,1v2c0,0.6,0.4,1,1,1s1-0.4,1-1L89.8,134L89.8,134z"/>
			<path class="st2" d="M88.8,139c-0.6,0-1,0.4-1,1v4c0,0.6,0.4,1,1,1s1-0.4,1-1v-4C89.8,139.5,89.3,139,88.8,139z"/>
			<path class="st2" d="M92.8,127c-0.6,0-1,0.4-1,1v2c0,0.6,0.4,1,1,1c0.6,0,1-0.4,1-1v-2C93.8,127.5,93.3,127,92.8,127z"/>
			<path class="st2" d="M76.8,107c0.6,0,1-0.4,1-1v-4.2l10-2.5V116c0,0.4,0.3,0.8,0.6,0.9l7.4,2.8V130c0,0.6,0.4,1,1,1
				c0.6,0,1-0.4,1-1v-11c0-0.4-0.3-0.8-0.6-0.9l-7.4-2.8V96c0-0.6-0.4-1-1-1s-1,0.4-1,1v1.2l-11.2,2.8c-0.4,0.1-0.8,0.5-0.8,1v5
				C75.8,106.6,76.2,107,76.8,107z"/>
			<path class="st2" d="M93.8,122c0-0.6-0.4-1-1-1c-0.6,0-1,0.4-1,1v2c0,0.6,0.4,1,1,1c0.6,0,1-0.4,1-1V122z"/>
			<path class="st2" d="M89.8,122c0-0.6-0.4-1-1-1c-0.6,0-1,0.4-1,1v2c0,0.6,0.4,1,1,1c0.6,0,1-0.4,1-1V122z"/>
			<path class="st2" d="M81.8,134c0-0.6-0.4-1-1-1c-0.6,0-1,0.4-1,1v2c0,0.6,0.4,1,1,1c0.6,0,1-0.4,1-1V134z"/>
			<path class="st2" d="M89.8,128c0-0.6-0.4-1-1-1c-0.6,0-1,0.4-1,1v2c0,0.6,0.4,1,1,1c0.6,0,1-0.4,1-1V128z"/>
			<path class="st2" d="M80.8,139c-0.6,0-1,0.4-1,1v4c0,0.6,0.4,1,1,1c0.6,0,1-0.4,1-1v-4C81.8,139.5,81.3,139,80.8,139z"/>
			<path class="st2" d="M81.8,128c0-0.6-0.4-1-1-1c-0.6,0-1,0.4-1,1v2c0,0.6,0.4,1,1,1c0.6,0,1-0.4,1-1V128z"/>
			<path class="st2" d="M84.8,145c0.6,0,1-0.4,1-1v-32c0-0.5-0.3-0.9-0.8-1l-16-4c-0.3-0.1-0.6,0-0.9,0.2c-0.2,0.2-0.4,0.5-0.4,0.8
				v22c0,0.6,0.4,1,1,1c0.6,0,1-0.4,1-1v-20.7l14,3.5V144C83.8,144.6,84.2,145,84.8,145z"/>
			<path class="st2" d="M61.8,110c0-0.6-0.4-1-1-1c-0.6,0-1,0.4-1,1v2c0,0.6,0.4,1,1,1c0.6,0,1-0.4,1-1V110z"/>
			<path class="st2" d="M61.8,104c0-0.6-0.4-1-1-1c-0.6,0-1,0.4-1,1v2c0,0.6,0.4,1,1,1c0.6,0,1-0.4,1-1V104z"/>
			<path class="st2" d="M53.8,134c0-0.6-0.4-1-1-1s-1,0.4-1,1v2c0,0.6,0.4,1,1,1s1-0.4,1-1L53.8,134L53.8,134z"/>
			<path class="st2" d="M44.8,125c0.6,0,1-0.4,1-1v-5h10v25c0,0.6,0.4,1,1,1c0.6,0,1-0.4,1-1v-26c0-0.6-0.4-1-1-1h-12
				c-0.6,0-1,0.4-1,1v6C43.8,124.6,44.2,125,44.8,125z"/>
			<path class="st2" d="M55.8,110v2c0,0.6,0.4,1,1,1c0.6,0,1-0.4,1-1v-2c0-0.6-0.4-1-1-1C56.2,109,55.8,109.5,55.8,110z"/>
			<path class="st2" d="M61.8,98c0-0.6-0.4-1-1-1c-0.6,0-1,0.4-1,1v2c0,0.6,0.4,1,1,1c0.6,0,1-0.4,1-1V98z"/>
			<path class="st2" d="M52.8,139c-0.6,0-1,0.4-1,1v4c0,0.6,0.4,1,1,1s1-0.4,1-1v-4C53.8,139.5,53.3,139,52.8,139z"/>
			<path class="st2" d="M98.8,147h-2v-6.1c1.7-0.4,3-2,3-3.9c0-2.2-1.8-4-4-4c-2.2,0-4,1.8-4,4c0,1.9,1.3,3.4,3,3.9v6.1h-25v-4.1
				c2.3-0.5,4-2.5,4-4.9c0-2.8-2.2-5-5-5c-2.8,0-5,2.2-5,5c0,2.4,1.7,4.4,4,4.9v4.1h-22v-10.1c2.3-0.5,4-2.5,4-4.9c0-2.8-2.2-5-5-5
				c-2.8,0-5,2.2-5,5c0,2.4,1.7,4.4,4,4.9V147h-3c-0.6,0-1,0.4-1,1c0,0.6,0.4,1,1,1h58c0.6,0,1-0.4,1-1S99.3,147,98.8,147z
				 M41.8,132c0-1.7,1.3-3,3-3s3,1.3,3,3s-1.3,3-3,3S41.8,133.7,41.8,132z M65.8,138c0-1.7,1.3-3,3-3c1.7,0,3,1.3,3,3s-1.3,3-3,3
				C67.1,141,65.8,139.7,65.8,138z M93.8,137c0-1.1,0.9-2,2-2s2,0.9,2,2c0,1.1-0.9,2-2,2S93.8,138.1,93.8,137z"/>
			<path class="st2" d="M47.8,140v4c0,0.6,0.4,1,1,1s1-0.4,1-1v-4c0-0.6-0.4-1-1-1S47.8,139.5,47.8,140z"/>
			<path class="st2" d="M53.8,122c0-0.6-0.4-1-1-1s-1,0.4-1,1v2c0,0.6,0.4,1,1,1s1-0.4,1-1V122z"/>
			<path class="st2" d="M53.8,128c0-0.6-0.4-1-1-1s-1,0.4-1,1v2c0,0.6,0.4,1,1,1s1-0.4,1-1V128z"/>
			<path class="st2" d="M47.8,122v2c0,0.6,0.4,1,1,1s1-0.4,1-1v-2c0-0.6-0.4-1-1-1S47.8,121.5,47.8,122z"/>
			<path class="st2" d="M61.8,128c0-0.6-0.4-1-1-1c-0.6,0-1,0.4-1,1v2c0,0.6,0.4,1,1,1c0.6,0,1-0.4,1-1V128z"/>
			<path class="st2" d="M65.8,116c0-0.6-0.4-1-1-1c-0.6,0-1,0.4-1,1v2c0,0.6,0.4,1,1,1c0.6,0,1-0.4,1-1V116z"/>
			<path class="st2" d="M65.8,110c0-0.6-0.4-1-1-1c-0.6,0-1,0.4-1,1v2c0,0.6,0.4,1,1,1c0.6,0,1-0.4,1-1V110z"/>
			<path class="st2" d="M65.8,122c0-0.6-0.4-1-1-1c-0.6,0-1,0.4-1,1v2c0,0.6,0.4,1,1,1c0.6,0,1-0.4,1-1V122z"/>
			<path class="st2" d="M64.8,127c-0.6,0-1,0.4-1,1v2c0,0.6,0.4,1,1,1s1-0.4,1-1v-2C65.8,127.5,65.3,127,64.8,127z"/>
			<path class="st2" d="M65.8,104c0-0.6-0.4-1-1-1c-0.6,0-1,0.4-1,1v2c0,0.6,0.4,1,1,1c0.6,0,1-0.4,1-1V104z"/>
			<path class="st2" d="M61.8,134c0-0.6-0.4-1-1-1c-0.6,0-1,0.4-1,1v2c0,0.6,0.4,1,1,1c0.6,0,1-0.4,1-1V134z"/>
			<path class="st2" d="M52.8,115c0.6,0,1-0.4,1-1v-7.4l3.4-1.7c0.3-0.2,0.6-0.5,0.6-0.9v-8.4l5-2.5l5,2.5v8.4c0,0.6,0.4,1,1,1
				c0.6,0,1-0.4,1-1v-9c0-0.4-0.2-0.7-0.6-0.9l-5.4-2.7V90c0-0.6-0.4-1-1-1c-0.6,0-1,0.4-1,1v1.4l-5.4,2.7c-0.3,0.2-0.6,0.5-0.6,0.9
				v8.4l-3.4,1.7c-0.3,0.2-0.6,0.5-0.6,0.9v8C51.8,114.6,52.2,115,52.8,115z"/>
			<path class="st2" d="M61.8,122c0-0.6-0.4-1-1-1c-0.6,0-1,0.4-1,1v2c0,0.6,0.4,1,1,1c0.6,0,1-0.4,1-1V122z"/>
			<path class="st2" d="M60.8,139c-0.6,0-1,0.4-1,1v4c0,0.6,0.4,1,1,1c0.6,0,1-0.4,1-1v-4C61.8,139.5,61.3,139,60.8,139z"/>
			<path class="st2" d="M65.8,98c0-0.6-0.4-1-1-1c-0.6,0-1,0.4-1,1v2c0,0.6,0.4,1,1,1c0.6,0,1-0.4,1-1V98z"/>
			<path class="st2" d="M61.8,116c0-0.6-0.4-1-1-1c-0.6,0-1,0.4-1,1v2c0,0.6,0.4,1,1,1c0.6,0,1-0.4,1-1V116z"/>
		</g>
	</g>
</g>
<g class="st3">
	<g>
		<g>
			<path class="st2" d="M536.8,79.9c0-0.8-0.7-1.5-1.5-1.5s-1.5,0.7-1.5,1.5v3c0,0.8,0.7,1.5,1.5,1.5s1.5-0.7,1.5-1.5V79.9z"/>
			<path class="st2" d="M535.3,96.4c-0.8,0-1.5,0.7-1.5,1.5v6c0,0.8,0.7,1.5,1.5,1.5s1.5-0.7,1.5-1.5v-6
				C536.8,97.1,536.1,96.4,535.3,96.4z"/>
			<path class="st2" d="M542.8,61.9c0-0.8-0.7-1.5-1.5-1.5s-1.5,0.7-1.5,1.5v3c0,0.8,0.7,1.5,1.5,1.5s1.5-0.7,1.5-1.5V61.9z"/>
			<path class="st2" d="M536.8,70.9c0-0.8-0.7-1.5-1.5-1.5s-1.5,0.7-1.5,1.5v3c0,0.8,0.7,1.5,1.5,1.5s1.5-0.7,1.5-1.5V70.9z"/>
			<path class="st2" d="M536.8,88.9c0-0.8-0.7-1.5-1.5-1.5s-1.5,0.7-1.5,1.5v3c0,0.8,0.7,1.5,1.5,1.5s1.5-0.7,1.5-1.5L536.8,88.9
				L536.8,88.9z"/>
			<path class="st2" d="M542.8,70.9c0-0.8-0.7-1.5-1.5-1.5s-1.5,0.7-1.5,1.5v3c0,0.8,0.7,1.5,1.5,1.5s1.5-0.7,1.5-1.5V70.9z"/>
			<path class="st2" d="M530.8,61.9c0-0.8-0.7-1.5-1.5-1.5s-1.5,0.7-1.5,1.5v3c0,0.8,0.7,1.5,1.5,1.5s1.5-0.7,1.5-1.5V61.9z"/>
			<path class="st2" d="M536.8,61.9c0-0.8-0.7-1.5-1.5-1.5s-1.5,0.7-1.5,1.5v3c0,0.8,0.7,1.5,1.5,1.5s1.5-0.7,1.5-1.5V61.9z"/>
			<path class="st2" d="M542.8,46.9v-3c0-0.8-0.7-1.5-1.5-1.5s-1.5,0.7-1.5,1.5v3c0,0.8,0.7,1.5,1.5,1.5S542.8,47.7,542.8,46.9z"/>
			<path class="st2" d="M530.8,70.9c0-0.8-0.7-1.5-1.5-1.5s-1.5,0.7-1.5,1.5v3c0,0.8,0.7,1.5,1.5,1.5s1.5-0.7,1.5-1.5V70.9z"/>
			<path class="st2" d="M548.8,43.9c0-0.8-0.7-1.5-1.5-1.5s-1.5,0.7-1.5,1.5v3c0,0.8,0.7,1.5,1.5,1.5s1.5-0.7,1.5-1.5V43.9z"/>
			<path class="st2" d="M529.3,78.4c-0.8,0-1.5,0.7-1.5,1.5v3c0,0.8,0.7,1.5,1.5,1.5s1.5-0.7,1.5-1.5v-3
				C530.8,79.1,530.1,78.4,529.3,78.4z"/>
			<path class="st2" d="M554.8,88.9c0-0.8-0.7-1.5-1.5-1.5s-1.5,0.7-1.5,1.5v3c0,0.8,0.7,1.5,1.5,1.5s1.5-0.7,1.5-1.5L554.8,88.9
				L554.8,88.9z"/>
			<path class="st2" d="M553.3,96.4c-0.8,0-1.5,0.7-1.5,1.5v6c0,0.8,0.7,1.5,1.5,1.5s1.5-0.7,1.5-1.5v-6
				C554.8,97.1,554.1,96.4,553.3,96.4z"/>
			<path class="st2" d="M559.3,78.4c-0.8,0-1.5,0.7-1.5,1.5v3c0,0.8,0.7,1.5,1.5,1.5s1.5-0.7,1.5-1.5v-3
				C560.8,79.1,560.1,78.4,559.3,78.4z"/>
			<path class="st2" d="M535.3,48.4c0.8,0,1.5-0.7,1.5-1.5v-6.3l15-3.8v25.1c0,0.6,0.4,1.2,1,1.4l11,4.1v15.5c0,0.8,0.7,1.5,1.5,1.5
				s1.5-0.7,1.5-1.5V66.4c0-0.6-0.4-1.2-1-1.4l-11-4.1v-29c0-0.8-0.7-1.5-1.5-1.5s-1.5,0.7-1.5,1.5v1.8l-16.9,4.2
				c-0.7,0.2-1.1,0.8-1.1,1.5v7.5C533.8,47.7,534.5,48.4,535.3,48.4z"/>
			<path class="st2" d="M560.8,70.9c0-0.8-0.7-1.5-1.5-1.5s-1.5,0.7-1.5,1.5v3c0,0.8,0.7,1.5,1.5,1.5s1.5-0.7,1.5-1.5V70.9z"/>
			<path class="st2" d="M554.8,70.9c0-0.8-0.7-1.5-1.5-1.5s-1.5,0.7-1.5,1.5v3c0,0.8,0.7,1.5,1.5,1.5s1.5-0.7,1.5-1.5V70.9z"/>
			<path class="st2" d="M542.8,88.9c0-0.8-0.7-1.5-1.5-1.5s-1.5,0.7-1.5,1.5v3c0,0.8,0.7,1.5,1.5,1.5s1.5-0.7,1.5-1.5V88.9z"/>
			<path class="st2" d="M554.8,79.9c0-0.8-0.7-1.5-1.5-1.5s-1.5,0.7-1.5,1.5v3c0,0.8,0.7,1.5,1.5,1.5s1.5-0.7,1.5-1.5V79.9z"/>
			<path class="st2" d="M541.3,96.4c-0.8,0-1.5,0.7-1.5,1.5v6c0,0.8,0.7,1.5,1.5,1.5s1.5-0.7,1.5-1.5v-6
				C542.8,97.1,542.1,96.4,541.3,96.4z"/>
			<path class="st2" d="M542.8,79.9c0-0.8-0.7-1.5-1.5-1.5s-1.5,0.7-1.5,1.5v3c0,0.8,0.7,1.5,1.5,1.5s1.5-0.7,1.5-1.5V79.9z"/>
			<path class="st2" d="M547.3,105.4c0.8,0,1.5-0.7,1.5-1.5v-48c0-0.7-0.5-1.3-1.1-1.5l-24-6c-0.4-0.1-0.9,0-1.3,0.3
				c-0.4,0.3-0.6,0.7-0.6,1.2v33c0,0.8,0.7,1.5,1.5,1.5s1.5-0.7,1.5-1.5V51.8l21,5.3v46.8C545.8,104.7,546.5,105.4,547.3,105.4z"/>
			<path class="st2" d="M512.8,52.9c0-0.8-0.7-1.5-1.5-1.5c-0.8,0-1.5,0.7-1.5,1.5v3c0,0.8,0.7,1.5,1.5,1.5c0.8,0,1.5-0.7,1.5-1.5
				V52.9z"/>
			<path class="st2" d="M512.8,43.9c0-0.8-0.7-1.5-1.5-1.5c-0.8,0-1.5,0.7-1.5,1.5v3c0,0.8,0.7,1.5,1.5,1.5c0.8,0,1.5-0.7,1.5-1.5
				V43.9z"/>
			<path class="st2" d="M500.8,88.9c0-0.8-0.7-1.5-1.5-1.5c-0.8,0-1.5,0.7-1.5,1.5v3c0,0.8,0.7,1.5,1.5,1.5c0.8,0,1.5-0.7,1.5-1.5
				L500.8,88.9L500.8,88.9z"/>
			<path class="st2" d="M487.3,75.4c0.8,0,1.5-0.7,1.5-1.5v-7.5h15v37.5c0,0.8,0.7,1.5,1.5,1.5c0.8,0,1.5-0.7,1.5-1.5v-39
				c0-0.8-0.7-1.5-1.5-1.5h-18c-0.8,0-1.5,0.7-1.5,1.5v9C485.8,74.7,486.5,75.4,487.3,75.4z"/>
			<path class="st2" d="M503.8,52.9v3c0,0.8,0.7,1.5,1.5,1.5c0.8,0,1.5-0.7,1.5-1.5v-3c0-0.8-0.7-1.5-1.5-1.5
				C504.5,51.4,503.8,52.1,503.8,52.9z"/>
			<path class="st2" d="M512.8,34.9c0-0.8-0.7-1.5-1.5-1.5c-0.8,0-1.5,0.7-1.5,1.5v3c0,0.8,0.7,1.5,1.5,1.5c0.8,0,1.5-0.7,1.5-1.5
				V34.9z"/>
			<path class="st2" d="M499.3,96.4c-0.8,0-1.5,0.7-1.5,1.5v6c0,0.8,0.7,1.5,1.5,1.5c0.8,0,1.5-0.7,1.5-1.5v-6
				C500.8,97.1,500.1,96.4,499.3,96.4z"/>
			<path class="st2" d="M568.3,108.4h-3v-9.2c2.6-0.7,4.5-3,4.5-5.8c0-3.3-2.7-6-6-6s-6,2.7-6,6c0,2.8,1.9,5.1,4.5,5.8v9.2h-37.5
				v-6.2c3.4-0.7,6-3.7,6-7.3c0-4.1-3.4-7.5-7.5-7.5c-4.1,0-7.5,3.4-7.5,7.5c0,3.6,2.6,6.7,6,7.3v6.2h-33V93.2c3.4-0.7,6-3.7,6-7.3
				c0-4.1-3.4-7.5-7.5-7.5c-4.1,0-7.5,3.4-7.5,7.5c0,3.6,2.6,6.7,6,7.3v15.2h-4.5c-0.8,0-1.5,0.7-1.5,1.5c0,0.8,0.7,1.5,1.5,1.5h87
				c0.8,0,1.5-0.7,1.5-1.5C569.8,109.1,569.1,108.4,568.3,108.4z M482.8,85.9c0-2.5,2-4.5,4.5-4.5c2.5,0,4.5,2,4.5,4.5
				s-2,4.5-4.5,4.5C484.8,90.4,482.8,88.4,482.8,85.9z M518.8,94.9c0-2.5,2-4.5,4.5-4.5c2.5,0,4.5,2,4.5,4.5s-2,4.5-4.5,4.5
				C520.8,99.4,518.8,97.4,518.8,94.9z M560.8,93.4c0-1.7,1.3-3,3-3c1.7,0,3,1.3,3,3c0,1.7-1.3,3-3,3
				C562.1,96.4,560.8,95.1,560.8,93.4z"/>
			<path class="st2" d="M491.8,97.9v6c0,0.8,0.7,1.5,1.5,1.5c0.8,0,1.5-0.7,1.5-1.5v-6c0-0.8-0.7-1.5-1.5-1.5
				C492.5,96.4,491.8,97.1,491.8,97.9z"/>
			<path class="st2" d="M500.8,70.9c0-0.8-0.7-1.5-1.5-1.5c-0.8,0-1.5,0.7-1.5,1.5v3c0,0.8,0.7,1.5,1.5,1.5c0.8,0,1.5-0.7,1.5-1.5
				V70.9z"/>
			<path class="st2" d="M500.8,79.9c0-0.8-0.7-1.5-1.5-1.5c-0.8,0-1.5,0.7-1.5,1.5v3c0,0.8,0.7,1.5,1.5,1.5c0.8,0,1.5-0.7,1.5-1.5
				V79.9z"/>
			<path class="st2" d="M491.8,70.9v3c0,0.8,0.7,1.5,1.5,1.5c0.8,0,1.5-0.7,1.5-1.5v-3c0-0.8-0.7-1.5-1.5-1.5
				C492.5,69.4,491.8,70.1,491.8,70.9z"/>
			<path class="st2" d="M512.8,79.9c0-0.8-0.7-1.5-1.5-1.5c-0.8,0-1.5,0.7-1.5,1.5v3c0,0.8,0.7,1.5,1.5,1.5c0.8,0,1.5-0.7,1.5-1.5
				V79.9z"/>
			<path class="st2" d="M518.8,61.9c0-0.8-0.7-1.5-1.5-1.5s-1.5,0.7-1.5,1.5v3c0,0.8,0.7,1.5,1.5,1.5s1.5-0.7,1.5-1.5V61.9z"/>
			<path class="st2" d="M518.8,52.9c0-0.8-0.7-1.5-1.5-1.5s-1.5,0.7-1.5,1.5v3c0,0.8,0.7,1.5,1.5,1.5s1.5-0.7,1.5-1.5V52.9z"/>
			<path class="st2" d="M518.8,70.9c0-0.8-0.7-1.5-1.5-1.5s-1.5,0.7-1.5,1.5v3c0,0.8,0.7,1.5,1.5,1.5s1.5-0.7,1.5-1.5V70.9z"/>
			<path class="st2" d="M517.3,78.4c-0.8,0-1.5,0.7-1.5,1.5v3c0,0.8,0.7,1.5,1.5,1.5s1.5-0.7,1.5-1.5v-3
				C518.8,79.1,518.1,78.4,517.3,78.4z"/>
			<path class="st2" d="M518.8,43.9c0-0.8-0.7-1.5-1.5-1.5s-1.5,0.7-1.5,1.5v3c0,0.8,0.7,1.5,1.5,1.5s1.5-0.7,1.5-1.5V43.9z"/>
			<path class="st2" d="M512.8,88.9c0-0.8-0.7-1.5-1.5-1.5c-0.8,0-1.5,0.7-1.5,1.5v3c0,0.8,0.7,1.5,1.5,1.5c0.8,0,1.5-0.7,1.5-1.5
				V88.9z"/>
			<path class="st2" d="M499.3,60.4c0.8,0,1.5-0.7,1.5-1.5V47.8l5.2-2.6c0.5-0.3,0.8-0.8,0.8-1.3V31.3l7.5-3.7l7.5,3.7v12.6
				c0,0.8,0.7,1.5,1.5,1.5s1.5-0.7,1.5-1.5V30.4c0-0.6-0.3-1.1-0.8-1.3l-8.2-4.1v-2.1c0-0.8-0.7-1.5-1.5-1.5s-1.5,0.7-1.5,1.5V25
				l-8.2,4.1c-0.5,0.3-0.8,0.8-0.8,1.3V43l-5.2,2.6c-0.5,0.3-0.8,0.8-0.8,1.3v12C497.8,59.7,498.5,60.4,499.3,60.4z"/>
			<path class="st2" d="M512.8,70.9c0-0.8-0.7-1.5-1.5-1.5c-0.8,0-1.5,0.7-1.5,1.5v3c0,0.8,0.7,1.5,1.5,1.5c0.8,0,1.5-0.7,1.5-1.5
				V70.9z"/>
			<path class="st2" d="M511.3,96.4c-0.8,0-1.5,0.7-1.5,1.5v6c0,0.8,0.7,1.5,1.5,1.5c0.8,0,1.5-0.7,1.5-1.5v-6
				C512.8,97.1,512.1,96.4,511.3,96.4z"/>
			<path class="st2" d="M518.8,34.9c0-0.8-0.7-1.5-1.5-1.5s-1.5,0.7-1.5,1.5v3c0,0.8,0.7,1.5,1.5,1.5s1.5-0.7,1.5-1.5V34.9z"/>
			<path class="st2" d="M512.8,61.9c0-0.8-0.7-1.5-1.5-1.5c-0.8,0-1.5,0.7-1.5,1.5v3c0,0.8,0.7,1.5,1.5,1.5c0.8,0,1.5-0.7,1.5-1.5
				V61.9z"/>
		</g>
	</g>
</g>
<g class="st3">
	<g>
		<g>
			<path class="st2" d="M338,234.7c0-0.4-0.3-0.7-0.7-0.7c-0.4,0-0.7,0.3-0.7,0.7v1.3c0,0.4,0.3,0.7,0.7,0.7c0.4,0,0.7-0.3,0.7-0.7
				V234.7z"/>
			<path class="st2" d="M337.4,242c-0.4,0-0.7,0.3-0.7,0.7v2.7c0,0.4,0.3,0.7,0.7,0.7s0.7-0.3,0.7-0.7v-2.7
				C338,242.3,337.7,242,337.4,242z"/>
			<path class="st2" d="M340.7,226.7c0-0.4-0.3-0.7-0.7-0.7c-0.4,0-0.7,0.3-0.7,0.7v1.3c0,0.4,0.3,0.7,0.7,0.7
				c0.4,0,0.7-0.3,0.7-0.7V226.7z"/>
			<path class="st2" d="M338,230.7c0-0.4-0.3-0.7-0.7-0.7c-0.4,0-0.7,0.3-0.7,0.7v1.3c0,0.4,0.3,0.7,0.7,0.7c0.4,0,0.7-0.3,0.7-0.7
				V230.7z"/>
			<path class="st2" d="M338,238.7c0-0.4-0.3-0.7-0.7-0.7c-0.4,0-0.7,0.3-0.7,0.7v1.3c0,0.4,0.3,0.7,0.7,0.7s0.7-0.3,0.7-0.7
				L338,238.7L338,238.7z"/>
			<path class="st2" d="M340.7,230.7c0-0.4-0.3-0.7-0.7-0.7c-0.4,0-0.7,0.3-0.7,0.7v1.3c0,0.4,0.3,0.7,0.7,0.7
				c0.4,0,0.7-0.3,0.7-0.7V230.7z"/>
			<path class="st2" d="M335.4,226.7c0-0.4-0.3-0.7-0.7-0.7c-0.4,0-0.7,0.3-0.7,0.7v1.3c0,0.4,0.3,0.7,0.7,0.7
				c0.4,0,0.7-0.3,0.7-0.7V226.7z"/>
			<path class="st2" d="M338,226.7c0-0.4-0.3-0.7-0.7-0.7c-0.4,0-0.7,0.3-0.7,0.7v1.3c0,0.4,0.3,0.7,0.7,0.7c0.4,0,0.7-0.3,0.7-0.7
				V226.7z"/>
			<path class="st2" d="M340.7,220v-1.3c0-0.4-0.3-0.7-0.7-0.7c-0.4,0-0.7,0.3-0.7,0.7v1.3c0,0.4,0.3,0.7,0.7,0.7
				C340.4,220.7,340.7,220.4,340.7,220z"/>
			<path class="st2" d="M335.4,230.7c0-0.4-0.3-0.7-0.7-0.7c-0.4,0-0.7,0.3-0.7,0.7v1.3c0,0.4,0.3,0.7,0.7,0.7
				c0.4,0,0.7-0.3,0.7-0.7V230.7z"/>
			<path class="st2" d="M343.4,218.7c0-0.4-0.3-0.7-0.7-0.7c-0.4,0-0.7,0.3-0.7,0.7v1.3c0,0.4,0.3,0.7,0.7,0.7
				c0.4,0,0.7-0.3,0.7-0.7V218.7z"/>
			<path class="st2" d="M334.7,234c-0.4,0-0.7,0.3-0.7,0.7v1.3c0,0.4,0.3,0.7,0.7,0.7c0.4,0,0.7-0.3,0.7-0.7v-1.3
				C335.4,234.3,335.1,234,334.7,234z"/>
			<path class="st2" d="M346,238.7c0-0.4-0.3-0.7-0.7-0.7c-0.4,0-0.7,0.3-0.7,0.7v1.3c0,0.4,0.3,0.7,0.7,0.7s0.7-0.3,0.7-0.7
				L346,238.7L346,238.7z"/>
			<path class="st2" d="M345.4,242c-0.4,0-0.7,0.3-0.7,0.7v2.7c0,0.4,0.3,0.7,0.7,0.7s0.7-0.3,0.7-0.7v-2.7
				C346,242.3,345.7,242,345.4,242z"/>
			<path class="st2" d="M348,234c-0.4,0-0.7,0.3-0.7,0.7v1.3c0,0.4,0.3,0.7,0.7,0.7c0.4,0,0.7-0.3,0.7-0.7v-1.3
				C348.7,234.3,348.4,234,348,234z"/>
			<path class="st2" d="M337.4,220.7c0.4,0,0.7-0.3,0.7-0.7v-2.8l6.7-1.7v11.1c0,0.3,0.2,0.5,0.4,0.6l4.9,1.8v6.9
				c0,0.4,0.3,0.7,0.7,0.7c0.4,0,0.7-0.3,0.7-0.7v-7.3c0-0.3-0.2-0.5-0.4-0.6l-4.9-1.8v-12.9c0-0.4-0.3-0.7-0.7-0.7
				s-0.7,0.3-0.7,0.7v0.8l-7.5,1.9c-0.3,0.1-0.5,0.3-0.5,0.6v3.3C336.7,220.4,337,220.7,337.4,220.7z"/>
			<path class="st2" d="M348.7,230.7c0-0.4-0.3-0.7-0.7-0.7c-0.4,0-0.7,0.3-0.7,0.7v1.3c0,0.4,0.3,0.7,0.7,0.7
				c0.4,0,0.7-0.3,0.7-0.7V230.7z"/>
			<path class="st2" d="M346,230.7c0-0.4-0.3-0.7-0.7-0.7c-0.4,0-0.7,0.3-0.7,0.7v1.3c0,0.4,0.3,0.7,0.7,0.7c0.4,0,0.7-0.3,0.7-0.7
				V230.7z"/>
			<path class="st2" d="M340.7,238.7c0-0.4-0.3-0.7-0.7-0.7c-0.4,0-0.7,0.3-0.7,0.7v1.3c0,0.4,0.3,0.7,0.7,0.7
				c0.4,0,0.7-0.3,0.7-0.7V238.7z"/>
			<path class="st2" d="M346,234.7c0-0.4-0.3-0.7-0.7-0.7c-0.4,0-0.7,0.3-0.7,0.7v1.3c0,0.4,0.3,0.7,0.7,0.7c0.4,0,0.7-0.3,0.7-0.7
				V234.7z"/>
			<path class="st2" d="M340,242c-0.4,0-0.7,0.3-0.7,0.7v2.7c0,0.4,0.3,0.7,0.7,0.7c0.4,0,0.7-0.3,0.7-0.7v-2.7
				C340.7,242.3,340.4,242,340,242z"/>
			<path class="st2" d="M340.7,234.7c0-0.4-0.3-0.7-0.7-0.7c-0.4,0-0.7,0.3-0.7,0.7v1.3c0,0.4,0.3,0.7,0.7,0.7
				c0.4,0,0.7-0.3,0.7-0.7V234.7z"/>
			<path class="st2" d="M342.7,246c0.4,0,0.7-0.3,0.7-0.7V224c0-0.3-0.2-0.6-0.5-0.6l-10.7-2.7c-0.2-0.1-0.4,0-0.6,0.1
				c-0.2,0.1-0.3,0.3-0.3,0.5V236c0,0.4,0.3,0.7,0.7,0.7c0.4,0,0.7-0.3,0.7-0.7v-13.8l9.3,2.3v20.8C342,245.7,342.3,246,342.7,246z"
				/>
			<path class="st2" d="M327.4,222.7c0-0.4-0.3-0.7-0.7-0.7c-0.4,0-0.7,0.3-0.7,0.7v1.3c0,0.4,0.3,0.7,0.7,0.7
				c0.4,0,0.7-0.3,0.7-0.7V222.7z"/>
			<path class="st2" d="M327.4,218.7c0-0.4-0.3-0.7-0.7-0.7c-0.4,0-0.7,0.3-0.7,0.7v1.3c0,0.4,0.3,0.7,0.7,0.7
				c0.4,0,0.7-0.3,0.7-0.7V218.7z"/>
			<path class="st2" d="M322,238.7c0-0.4-0.3-0.7-0.7-0.7c-0.4,0-0.7,0.3-0.7,0.7v1.3c0,0.4,0.3,0.7,0.7,0.7s0.7-0.3,0.7-0.7
				L322,238.7L322,238.7z"/>
			<path class="st2" d="M316,232.7c0.4,0,0.7-0.3,0.7-0.7v-3.3h6.7v16.7c0,0.4,0.3,0.7,0.7,0.7c0.4,0,0.7-0.3,0.7-0.7V228
				c0-0.4-0.3-0.7-0.7-0.7h-8c-0.4,0-0.7,0.3-0.7,0.7v4C315.4,232.4,315.6,232.7,316,232.7z"/>
			<path class="st2" d="M323.4,222.7v1.3c0,0.4,0.3,0.7,0.7,0.7c0.4,0,0.7-0.3,0.7-0.7v-1.3c0-0.4-0.3-0.7-0.7-0.7
				C323.6,222,323.4,222.3,323.4,222.7z"/>
			<path class="st2" d="M327.4,214.7c0-0.4-0.3-0.7-0.7-0.7c-0.4,0-0.7,0.3-0.7,0.7v1.3c0,0.4,0.3,0.7,0.7,0.7
				c0.4,0,0.7-0.3,0.7-0.7V214.7z"/>
			<path class="st2" d="M321.4,242c-0.4,0-0.7,0.3-0.7,0.7v2.7c0,0.4,0.3,0.7,0.7,0.7s0.7-0.3,0.7-0.7v-2.7
				C322,242.3,321.7,242,321.4,242z"/>
			<path class="st2" d="M352,247.3h-1.3v-4.1c1.1-0.3,2-1.3,2-2.6c0-1.5-1.2-2.7-2.7-2.7c-1.5,0-2.7,1.2-2.7,2.7
				c0,1.2,0.9,2.3,2,2.6v4.1h-16.7v-2.7c1.5-0.3,2.7-1.7,2.7-3.3c0-1.8-1.5-3.3-3.3-3.3c-1.8,0-3.3,1.5-3.3,3.3c0,1.6,1.1,3,2.7,3.3
				v2.7h-14.7v-6.7c1.5-0.3,2.7-1.7,2.7-3.3c0-1.8-1.5-3.3-3.3-3.3c-1.8,0-3.3,1.5-3.3,3.3c0,1.6,1.1,3,2.7,3.3v6.7h-2
				c-0.4,0-0.7,0.3-0.7,0.7s0.3,0.7,0.7,0.7H352c0.4,0,0.7-0.3,0.7-0.7S352.4,247.3,352,247.3z M314,237.3c0-1.1,0.9-2,2-2
				s2,0.9,2,2s-0.9,2-2,2S314,238.4,314,237.3z M330,241.3c0-1.1,0.9-2,2-2s2,0.9,2,2s-0.9,2-2,2S330,242.4,330,241.3z M348.7,240.7
				c0-0.7,0.6-1.3,1.3-1.3s1.3,0.6,1.3,1.3c0,0.7-0.6,1.3-1.3,1.3S348.7,241.4,348.7,240.7z"/>
			<path class="st2" d="M318,242.7v2.7c0,0.4,0.3,0.7,0.7,0.7c0.4,0,0.7-0.3,0.7-0.7v-2.7c0-0.4-0.3-0.7-0.7-0.7
				C318.3,242,318,242.3,318,242.7z"/>
			<path class="st2" d="M322,230.7c0-0.4-0.3-0.7-0.7-0.7c-0.4,0-0.7,0.3-0.7,0.7v1.3c0,0.4,0.3,0.7,0.7,0.7c0.4,0,0.7-0.3,0.7-0.7
				V230.7z"/>
			<path class="st2" d="M322,234.7c0-0.4-0.3-0.7-0.7-0.7c-0.4,0-0.7,0.3-0.7,0.7v1.3c0,0.4,0.3,0.7,0.7,0.7c0.4,0,0.7-0.3,0.7-0.7
				V234.7z"/>
			<path class="st2" d="M318,230.7v1.3c0,0.4,0.3,0.7,0.7,0.7c0.4,0,0.7-0.3,0.7-0.7v-1.3c0-0.4-0.3-0.7-0.7-0.7
				C318.3,230,318,230.3,318,230.7z"/>
			<path class="st2" d="M327.4,234.7c0-0.4-0.3-0.7-0.7-0.7c-0.4,0-0.7,0.3-0.7,0.7v1.3c0,0.4,0.3,0.7,0.7,0.7
				c0.4,0,0.7-0.3,0.7-0.7V234.7z"/>
			<path class="st2" d="M330,226.7c0-0.4-0.3-0.7-0.7-0.7c-0.4,0-0.7,0.3-0.7,0.7v1.3c0,0.4,0.3,0.7,0.7,0.7c0.4,0,0.7-0.3,0.7-0.7
				V226.7z"/>
			<path class="st2" d="M330,222.7c0-0.4-0.3-0.7-0.7-0.7c-0.4,0-0.7,0.3-0.7,0.7v1.3c0,0.4,0.3,0.7,0.7,0.7c0.4,0,0.7-0.3,0.7-0.7
				V222.7z"/>
			<path class="st2" d="M330,230.7c0-0.4-0.3-0.7-0.7-0.7c-0.4,0-0.7,0.3-0.7,0.7v1.3c0,0.4,0.3,0.7,0.7,0.7c0.4,0,0.7-0.3,0.7-0.7
				V230.7z"/>
			<path class="st2" d="M329.4,234c-0.4,0-0.7,0.3-0.7,0.7v1.3c0,0.4,0.3,0.7,0.7,0.7s0.7-0.3,0.7-0.7v-1.3
				C330,234.3,329.7,234,329.4,234z"/>
			<path class="st2" d="M330,218.7c0-0.4-0.3-0.7-0.7-0.7c-0.4,0-0.7,0.3-0.7,0.7v1.3c0,0.4,0.3,0.7,0.7,0.7c0.4,0,0.7-0.3,0.7-0.7
				V218.7z"/>
			<path class="st2" d="M327.4,238.7c0-0.4-0.3-0.7-0.7-0.7c-0.4,0-0.7,0.3-0.7,0.7v1.3c0,0.4,0.3,0.7,0.7,0.7
				c0.4,0,0.7-0.3,0.7-0.7V238.7z"/>
			<path class="st2" d="M321.4,226c0.4,0,0.7-0.3,0.7-0.7v-4.9l2.3-1.1c0.2-0.1,0.4-0.3,0.4-0.6v-5.6l3.3-1.7l3.3,1.7v5.6
				c0,0.4,0.3,0.7,0.7,0.7c0.4,0,0.7-0.3,0.7-0.7v-6c0-0.3-0.1-0.5-0.4-0.6l-3.6-1.8v-0.9c0-0.4-0.3-0.7-0.7-0.7s-0.7,0.3-0.7,0.7
				v0.9l-3.6,1.8c-0.2,0.1-0.4,0.3-0.4,0.6v5.6l-2.3,1.1c-0.2,0.1-0.4,0.3-0.4,0.6v5.3C320.7,225.7,321,226,321.4,226z"/>
			<path class="st2" d="M327.4,230.7c0-0.4-0.3-0.7-0.7-0.7c-0.4,0-0.7,0.3-0.7,0.7v1.3c0,0.4,0.3,0.7,0.7,0.7
				c0.4,0,0.7-0.3,0.7-0.7V230.7z"/>
			<path class="st2" d="M326.7,242c-0.4,0-0.7,0.3-0.7,0.7v2.7c0,0.4,0.3,0.7,0.7,0.7c0.4,0,0.7-0.3,0.7-0.7v-2.7
				C327.4,242.3,327.1,242,326.7,242z"/>
			<path class="st2" d="M330,214.7c0-0.4-0.3-0.7-0.7-0.7c-0.4,0-0.7,0.3-0.7,0.7v1.3c0,0.4,0.3,0.7,0.7,0.7c0.4,0,0.7-0.3,0.7-0.7
				V214.7z"/>
			<path class="st2" d="M327.4,226.7c0-0.4-0.3-0.7-0.7-0.7c-0.4,0-0.7,0.3-0.7,0.7v1.3c0,0.4,0.3,0.7,0.7,0.7
				c0.4,0,0.7-0.3,0.7-0.7V226.7z"/>
		</g>
	</g>
</g>
<g class="st3">
	<g>
		<g>
			<path class="st2" d="M166.2,375.8c0-0.6-0.4-1-1-1s-1,0.4-1,1v2c0,0.6,0.4,1,1,1s1-0.4,1-1V375.8z"/>
			<path class="st2" d="M165.2,386.8c-0.6,0-1,0.4-1,1v4c0,0.6,0.4,1,1,1s1-0.4,1-1v-4C166.2,387.2,165.8,386.8,165.2,386.8z"/>
			<path class="st2" d="M170.2,363.8c0-0.6-0.4-1-1-1c-0.6,0-1,0.4-1,1v2c0,0.6,0.4,1,1,1c0.6,0,1-0.4,1-1V363.8z"/>
			<path class="st2" d="M166.2,369.8c0-0.6-0.4-1-1-1s-1,0.4-1,1v2c0,0.6,0.4,1,1,1s1-0.4,1-1V369.8z"/>
			<path class="st2" d="M166.2,381.8c0-0.6-0.4-1-1-1s-1,0.4-1,1v2c0,0.6,0.4,1,1,1s1-0.4,1-1L166.2,381.8L166.2,381.8z"/>
			<path class="st2" d="M170.2,369.8c0-0.6-0.4-1-1-1c-0.6,0-1,0.4-1,1v2c0,0.6,0.4,1,1,1c0.6,0,1-0.4,1-1V369.8z"/>
			<path class="st2" d="M162.2,363.8c0-0.6-0.4-1-1-1s-1,0.4-1,1v2c0,0.6,0.4,1,1,1s1-0.4,1-1V363.8z"/>
			<path class="st2" d="M166.2,363.8c0-0.6-0.4-1-1-1s-1,0.4-1,1v2c0,0.6,0.4,1,1,1s1-0.4,1-1V363.8z"/>
			<path class="st2" d="M170.2,353.8v-2c0-0.6-0.4-1-1-1c-0.6,0-1,0.4-1,1v2c0,0.6,0.4,1,1,1C169.8,354.8,170.2,354.3,170.2,353.8z"
				/>
			<path class="st2" d="M162.2,369.8c0-0.6-0.4-1-1-1s-1,0.4-1,1v2c0,0.6,0.4,1,1,1s1-0.4,1-1V369.8z"/>
			<path class="st2" d="M174.2,351.8c0-0.6-0.4-1-1-1c-0.6,0-1,0.4-1,1v2c0,0.6,0.4,1,1,1c0.6,0,1-0.4,1-1V351.8z"/>
			<path class="st2" d="M161.2,374.8c-0.6,0-1,0.4-1,1v2c0,0.6,0.4,1,1,1s1-0.4,1-1v-2C162.2,375.2,161.8,374.8,161.2,374.8z"/>
			<path class="st2" d="M178.2,381.8c0-0.6-0.4-1-1-1s-1,0.4-1,1v2c0,0.6,0.4,1,1,1s1-0.4,1-1L178.2,381.8L178.2,381.8z"/>
			<path class="st2" d="M177.2,386.8c-0.6,0-1,0.4-1,1v4c0,0.6,0.4,1,1,1s1-0.4,1-1v-4C178.2,387.2,177.8,386.8,177.2,386.8z"/>
			<path class="st2" d="M181.2,374.8c-0.6,0-1,0.4-1,1v2c0,0.6,0.4,1,1,1c0.6,0,1-0.4,1-1v-2C182.2,375.2,181.8,374.8,181.2,374.8z"
				/>
			<path class="st2" d="M165.2,354.8c0.6,0,1-0.4,1-1v-4.2l10-2.5v16.7c0,0.4,0.3,0.8,0.6,0.9l7.4,2.8v10.3c0,0.6,0.4,1,1,1
				c0.6,0,1-0.4,1-1v-11c0-0.4-0.3-0.8-0.6-0.9l-7.4-2.8v-19.3c0-0.6-0.4-1-1-1s-1,0.4-1,1v1.2l-11.2,2.8c-0.4,0.1-0.8,0.5-0.8,1v5
				C164.2,354.3,164.7,354.8,165.2,354.8z"/>
			<path class="st2" d="M182.2,369.8c0-0.6-0.4-1-1-1c-0.6,0-1,0.4-1,1v2c0,0.6,0.4,1,1,1c0.6,0,1-0.4,1-1V369.8z"/>
			<path class="st2" d="M178.2,369.8c0-0.6-0.4-1-1-1s-1,0.4-1,1v2c0,0.6,0.4,1,1,1s1-0.4,1-1V369.8z"/>
			<path class="st2" d="M170.2,381.8c0-0.6-0.4-1-1-1c-0.6,0-1,0.4-1,1v2c0,0.6,0.4,1,1,1c0.6,0,1-0.4,1-1V381.8z"/>
			<path class="st2" d="M178.2,375.8c0-0.6-0.4-1-1-1s-1,0.4-1,1v2c0,0.6,0.4,1,1,1s1-0.4,1-1V375.8z"/>
			<path class="st2" d="M169.2,386.8c-0.6,0-1,0.4-1,1v4c0,0.6,0.4,1,1,1c0.6,0,1-0.4,1-1v-4C170.2,387.2,169.8,386.8,169.2,386.8z"
				/>
			<path class="st2" d="M170.2,375.8c0-0.6-0.4-1-1-1c-0.6,0-1,0.4-1,1v2c0,0.6,0.4,1,1,1c0.6,0,1-0.4,1-1V375.8z"/>
			<path class="st2" d="M173.2,392.8c0.6,0,1-0.4,1-1v-32c0-0.5-0.3-0.9-0.8-1l-16-4c-0.3-0.1-0.6,0-0.9,0.2
				c-0.2,0.2-0.4,0.5-0.4,0.8v22c0,0.6,0.4,1,1,1c0.6,0,1-0.4,1-1v-20.7l14,3.5v31.2C172.2,392.3,172.7,392.8,173.2,392.8z"/>
			<path class="st2" d="M150.2,357.8c0-0.6-0.4-1-1-1s-1,0.4-1,1v2c0,0.6,0.4,1,1,1s1-0.4,1-1V357.8z"/>
			<path class="st2" d="M150.2,351.8c0-0.6-0.4-1-1-1s-1,0.4-1,1v2c0,0.6,0.4,1,1,1s1-0.4,1-1V351.8z"/>
			<path class="st2" d="M142.2,381.8c0-0.6-0.4-1-1-1s-1,0.4-1,1v2c0,0.6,0.4,1,1,1s1-0.4,1-1L142.2,381.8L142.2,381.8z"/>
			<path class="st2" d="M133.2,372.8c0.6,0,1-0.4,1-1v-5h10v25c0,0.6,0.4,1,1,1s1-0.4,1-1v-26c0-0.6-0.4-1-1-1h-12c-0.6,0-1,0.4-1,1
				v6C132.2,372.3,132.7,372.8,133.2,372.8z"/>
			<path class="st2" d="M144.2,357.8v2c0,0.6,0.4,1,1,1s1-0.4,1-1v-2c0-0.6-0.4-1-1-1S144.2,357.2,144.2,357.8z"/>
			<path class="st2" d="M150.2,345.8c0-0.6-0.4-1-1-1s-1,0.4-1,1v2c0,0.6,0.4,1,1,1s1-0.4,1-1V345.8z"/>
			<path class="st2" d="M141.2,386.8c-0.6,0-1,0.4-1,1v4c0,0.6,0.4,1,1,1s1-0.4,1-1v-4C142.2,387.2,141.8,386.8,141.2,386.8z"/>
			<path class="st2" d="M187.2,394.8h-2v-6.1c1.7-0.4,3-2,3-3.9c0-2.2-1.8-4-4-4c-2.2,0-4,1.8-4,4c0,1.9,1.3,3.4,3,3.9v6.1h-25v-4.1
				c2.3-0.5,4-2.5,4-4.9c0-2.8-2.2-5-5-5c-2.8,0-5,2.2-5,5c0,2.4,1.7,4.4,4,4.9v4.1h-22v-10.1c2.3-0.5,4-2.5,4-4.9c0-2.8-2.2-5-5-5
				c-2.8,0-5,2.2-5,5c0,2.4,1.7,4.4,4,4.9v10.1h-3c-0.6,0-1,0.4-1,1c0,0.6,0.4,1,1,1h58c0.6,0,1-0.4,1-1S187.8,394.8,187.2,394.8z
				 M130.2,379.8c0-1.7,1.3-3,3-3c1.7,0,3,1.3,3,3c0,1.7-1.3,3-3,3C131.6,382.8,130.2,381.4,130.2,379.8z M154.2,385.8
				c0-1.7,1.3-3,3-3c1.7,0,3,1.3,3,3c0,1.7-1.3,3-3,3C155.6,388.8,154.2,387.4,154.2,385.8z M182.2,384.8c0-1.1,0.9-2,2-2s2,0.9,2,2
				c0,1.1-0.9,2-2,2S182.2,385.9,182.2,384.8z"/>
			<path class="st2" d="M136.2,387.8v4c0,0.6,0.4,1,1,1s1-0.4,1-1v-4c0-0.6-0.4-1-1-1S136.2,387.2,136.2,387.8z"/>
			<path class="st2" d="M142.2,369.8c0-0.6-0.4-1-1-1s-1,0.4-1,1v2c0,0.6,0.4,1,1,1s1-0.4,1-1V369.8z"/>
			<path class="st2" d="M142.2,375.8c0-0.6-0.4-1-1-1s-1,0.4-1,1v2c0,0.6,0.4,1,1,1s1-0.4,1-1V375.8z"/>
			<path class="st2" d="M136.2,369.8v2c0,0.6,0.4,1,1,1s1-0.4,1-1v-2c0-0.6-0.4-1-1-1S136.2,369.2,136.2,369.8z"/>
			<path class="st2" d="M150.2,375.8c0-0.6-0.4-1-1-1s-1,0.4-1,1v2c0,0.6,0.4,1,1,1s1-0.4,1-1V375.8z"/>
			<path class="st2" d="M154.2,363.8c0-0.6-0.4-1-1-1s-1,0.4-1,1v2c0,0.6,0.4,1,1,1s1-0.4,1-1V363.8z"/>
			<path class="st2" d="M154.2,357.8c0-0.6-0.4-1-1-1s-1,0.4-1,1v2c0,0.6,0.4,1,1,1s1-0.4,1-1V357.8z"/>
			<path class="st2" d="M154.2,369.8c0-0.6-0.4-1-1-1s-1,0.4-1,1v2c0,0.6,0.4,1,1,1s1-0.4,1-1V369.8z"/>
			<path class="st2" d="M153.2,374.8c-0.6,0-1,0.4-1,1v2c0,0.6,0.4,1,1,1s1-0.4,1-1v-2C154.2,375.2,153.8,374.8,153.2,374.8z"/>
			<path class="st2" d="M154.2,351.8c0-0.6-0.4-1-1-1s-1,0.4-1,1v2c0,0.6,0.4,1,1,1s1-0.4,1-1V351.8z"/>
			<path class="st2" d="M150.2,381.8c0-0.6-0.4-1-1-1s-1,0.4-1,1v2c0,0.6,0.4,1,1,1s1-0.4,1-1V381.8z"/>
			<path class="st2" d="M141.2,362.8c0.6,0,1-0.4,1-1v-7.4l3.4-1.7c0.3-0.2,0.6-0.5,0.6-0.9v-8.4l5-2.5l5,2.5v8.4c0,0.6,0.4,1,1,1
				c0.6,0,1-0.4,1-1v-9c0-0.4-0.2-0.7-0.6-0.9l-5.4-2.7v-1.4c0-0.6-0.4-1-1-1s-1,0.4-1,1v1.4l-5.4,2.7c-0.3,0.2-0.6,0.5-0.6,0.9v8.4
				l-3.4,1.7c-0.3,0.2-0.6,0.5-0.6,0.9v8C140.2,362.3,140.7,362.8,141.2,362.8z"/>
			<path class="st2" d="M150.2,369.8c0-0.6-0.4-1-1-1s-1,0.4-1,1v2c0,0.6,0.4,1,1,1s1-0.4,1-1V369.8z"/>
			<path class="st2" d="M149.2,386.8c-0.6,0-1,0.4-1,1v4c0,0.6,0.4,1,1,1s1-0.4,1-1v-4C150.2,387.2,149.8,386.8,149.2,386.8z"/>
			<path class="st2" d="M154.2,345.8c0-0.6-0.4-1-1-1s-1,0.4-1,1v2c0,0.6,0.4,1,1,1s1-0.4,1-1V345.8z"/>
			<path class="st2" d="M150.2,363.8c0-0.6-0.4-1-1-1s-1,0.4-1,1v2c0,0.6,0.4,1,1,1s1-0.4,1-1V363.8z"/>
		</g>
	</g>
</g>
<g class="st3">
	<g>
		<g>
			<path class="st2" d="M354.6,507.2c0-0.4-0.3-0.7-0.7-0.7c-0.4,0-0.7,0.3-0.7,0.7v1.3c0,0.4,0.3,0.7,0.7,0.7
				c0.4,0,0.7-0.3,0.7-0.7V507.2z"/>
			<path class="st2" d="M353.9,514.5c-0.4,0-0.7,0.3-0.7,0.7v2.7c0,0.4,0.3,0.7,0.7,0.7c0.4,0,0.7-0.3,0.7-0.7v-2.7
				C354.6,514.8,354.3,514.5,353.9,514.5z"/>
			<path class="st2" d="M357.2,499.2c0-0.4-0.3-0.7-0.7-0.7c-0.4,0-0.7,0.3-0.7,0.7v1.3c0,0.4,0.3,0.7,0.7,0.7
				c0.4,0,0.7-0.3,0.7-0.7V499.2z"/>
			<path class="st2" d="M354.6,503.2c0-0.4-0.3-0.7-0.7-0.7c-0.4,0-0.7,0.3-0.7,0.7v1.3c0,0.4,0.3,0.7,0.7,0.7
				c0.4,0,0.7-0.3,0.7-0.7V503.2z"/>
			<path class="st2" d="M354.6,511.2c0-0.4-0.3-0.7-0.7-0.7c-0.4,0-0.7,0.3-0.7,0.7v1.3c0,0.4,0.3,0.7,0.7,0.7
				c0.4,0,0.7-0.3,0.7-0.7L354.6,511.2L354.6,511.2z"/>
			<path class="st2" d="M357.2,503.2c0-0.4-0.3-0.7-0.7-0.7c-0.4,0-0.7,0.3-0.7,0.7v1.3c0,0.4,0.3,0.7,0.7,0.7
				c0.4,0,0.7-0.3,0.7-0.7V503.2z"/>
			<path class="st2" d="M351.9,499.2c0-0.4-0.3-0.7-0.7-0.7c-0.4,0-0.7,0.3-0.7,0.7v1.3c0,0.4,0.3,0.7,0.7,0.7
				c0.4,0,0.7-0.3,0.7-0.7V499.2z"/>
			<path class="st2" d="M354.6,499.2c0-0.4-0.3-0.7-0.7-0.7c-0.4,0-0.7,0.3-0.7,0.7v1.3c0,0.4,0.3,0.7,0.7,0.7
				c0.4,0,0.7-0.3,0.7-0.7V499.2z"/>
			<path class="st2" d="M357.2,492.5v-1.3c0-0.4-0.3-0.7-0.7-0.7c-0.4,0-0.7,0.3-0.7,0.7v1.3c0,0.4,0.3,0.7,0.7,0.7
				C356.9,493.2,357.2,492.9,357.2,492.5z"/>
			<path class="st2" d="M351.9,503.2c0-0.4-0.3-0.7-0.7-0.7c-0.4,0-0.7,0.3-0.7,0.7v1.3c0,0.4,0.3,0.7,0.7,0.7
				c0.4,0,0.7-0.3,0.7-0.7V503.2z"/>
			<path class="st2" d="M359.9,491.2c0-0.4-0.3-0.7-0.7-0.7c-0.4,0-0.7,0.3-0.7,0.7v1.3c0,0.4,0.3,0.7,0.7,0.7
				c0.4,0,0.7-0.3,0.7-0.7V491.2z"/>
			<path class="st2" d="M351.2,506.5c-0.4,0-0.7,0.3-0.7,0.7v1.3c0,0.4,0.3,0.7,0.7,0.7c0.4,0,0.7-0.3,0.7-0.7v-1.3
				C351.9,506.8,351.6,506.5,351.2,506.5z"/>
			<path class="st2" d="M362.6,511.2c0-0.4-0.3-0.7-0.7-0.7c-0.4,0-0.7,0.3-0.7,0.7v1.3c0,0.4,0.3,0.7,0.7,0.7
				c0.4,0,0.7-0.3,0.7-0.7L362.6,511.2L362.6,511.2z"/>
			<path class="st2" d="M361.9,514.5c-0.4,0-0.7,0.3-0.7,0.7v2.7c0,0.4,0.3,0.7,0.7,0.7c0.4,0,0.7-0.3,0.7-0.7v-2.7
				C362.6,514.8,362.3,514.5,361.9,514.5z"/>
			<path class="st2" d="M364.6,506.5c-0.4,0-0.7,0.3-0.7,0.7v1.3c0,0.4,0.3,0.7,0.7,0.7c0.4,0,0.7-0.3,0.7-0.7v-1.3
				C365.2,506.8,364.9,506.5,364.6,506.5z"/>
			<path class="st2" d="M353.9,493.2c0.4,0,0.7-0.3,0.7-0.7v-2.8l6.7-1.7v11.1c0,0.3,0.2,0.5,0.4,0.6l4.9,1.8v6.9
				c0,0.4,0.3,0.7,0.7,0.7c0.4,0,0.7-0.3,0.7-0.7v-7.3c0-0.3-0.2-0.5-0.4-0.6l-4.9-1.8v-12.9c0-0.4-0.3-0.7-0.7-0.7
				c-0.4,0-0.7,0.3-0.7,0.7v0.8l-7.5,1.9c-0.3,0.1-0.5,0.3-0.5,0.6v3.3C353.2,492.9,353.5,493.2,353.9,493.2z"/>
			<path class="st2" d="M365.2,503.2c0-0.4-0.3-0.7-0.7-0.7c-0.4,0-0.7,0.3-0.7,0.7v1.3c0,0.4,0.3,0.7,0.7,0.7
				c0.4,0,0.7-0.3,0.7-0.7V503.2z"/>
			<path class="st2" d="M362.6,503.2c0-0.4-0.3-0.7-0.7-0.7c-0.4,0-0.7,0.3-0.7,0.7v1.3c0,0.4,0.3,0.7,0.7,0.7
				c0.4,0,0.7-0.3,0.7-0.7V503.2z"/>
			<path class="st2" d="M357.2,511.2c0-0.4-0.3-0.7-0.7-0.7c-0.4,0-0.7,0.3-0.7,0.7v1.3c0,0.4,0.3,0.7,0.7,0.7
				c0.4,0,0.7-0.3,0.7-0.7V511.2z"/>
			<path class="st2" d="M362.6,507.2c0-0.4-0.3-0.7-0.7-0.7c-0.4,0-0.7,0.3-0.7,0.7v1.3c0,0.4,0.3,0.7,0.7,0.7
				c0.4,0,0.7-0.3,0.7-0.7V507.2z"/>
			<path class="st2" d="M356.6,514.5c-0.4,0-0.7,0.3-0.7,0.7v2.7c0,0.4,0.3,0.7,0.7,0.7c0.4,0,0.7-0.3,0.7-0.7v-2.7
				C357.2,514.8,356.9,514.5,356.6,514.5z"/>
			<path class="st2" d="M357.2,507.2c0-0.4-0.3-0.7-0.7-0.7c-0.4,0-0.7,0.3-0.7,0.7v1.3c0,0.4,0.3,0.7,0.7,0.7
				c0.4,0,0.7-0.3,0.7-0.7V507.2z"/>
			<path class="st2" d="M359.2,518.5c0.4,0,0.7-0.3,0.7-0.7v-21.3c0-0.3-0.2-0.6-0.5-0.6l-10.7-2.7c-0.2-0.1-0.4,0-0.6,0.1
				c-0.2,0.1-0.3,0.3-0.3,0.5v14.7c0,0.4,0.3,0.7,0.7,0.7c0.4,0,0.7-0.3,0.7-0.7v-13.8l9.3,2.3v20.8
				C358.6,518.2,358.9,518.5,359.2,518.5z"/>
			<path class="st2" d="M343.9,495.2c0-0.4-0.3-0.7-0.7-0.7c-0.4,0-0.7,0.3-0.7,0.7v1.3c0,0.4,0.3,0.7,0.7,0.7
				c0.4,0,0.7-0.3,0.7-0.7V495.2z"/>
			<path class="st2" d="M343.9,491.2c0-0.4-0.3-0.7-0.7-0.7c-0.4,0-0.7,0.3-0.7,0.7v1.3c0,0.4,0.3,0.7,0.7,0.7
				c0.4,0,0.7-0.3,0.7-0.7V491.2z"/>
			<path class="st2" d="M338.6,511.2c0-0.4-0.3-0.7-0.7-0.7c-0.4,0-0.7,0.3-0.7,0.7v1.3c0,0.4,0.3,0.7,0.7,0.7
				c0.4,0,0.7-0.3,0.7-0.7L338.6,511.2L338.6,511.2z"/>
			<path class="st2" d="M332.6,505.2c0.4,0,0.7-0.3,0.7-0.7v-3.3h6.7v16.7c0,0.4,0.3,0.7,0.7,0.7c0.4,0,0.7-0.3,0.7-0.7v-17.3
				c0-0.4-0.3-0.7-0.7-0.7h-8c-0.4,0-0.7,0.3-0.7,0.7v4C331.9,504.9,332.2,505.2,332.6,505.2z"/>
			<path class="st2" d="M339.9,495.2v1.3c0,0.4,0.3,0.7,0.7,0.7c0.4,0,0.7-0.3,0.7-0.7v-1.3c0-0.4-0.3-0.7-0.7-0.7
				C340.2,494.5,339.9,494.8,339.9,495.2z"/>
			<path class="st2" d="M343.9,487.2c0-0.4-0.3-0.7-0.7-0.7c-0.4,0-0.7,0.3-0.7,0.7v1.3c0,0.4,0.3,0.7,0.7,0.7
				c0.4,0,0.7-0.3,0.7-0.7V487.2z"/>
			<path class="st2" d="M337.9,514.5c-0.4,0-0.7,0.3-0.7,0.7v2.7c0,0.4,0.3,0.7,0.7,0.7c0.4,0,0.7-0.3,0.7-0.7v-2.7
				C338.6,514.8,338.3,514.5,337.9,514.5z"/>
			<path class="st2" d="M368.6,519.8h-1.3v-4.1c1.1-0.3,2-1.3,2-2.6c0-1.5-1.2-2.7-2.7-2.7c-1.5,0-2.7,1.2-2.7,2.7
				c0,1.2,0.9,2.3,2,2.6v4.1h-16.7v-2.7c1.5-0.3,2.7-1.7,2.7-3.3c0-1.8-1.5-3.3-3.3-3.3c-1.8,0-3.3,1.5-3.3,3.3c0,1.6,1.1,3,2.7,3.3
				v2.7h-14.7v-6.7c1.5-0.3,2.7-1.7,2.7-3.3c0-1.8-1.5-3.3-3.3-3.3c-1.8,0-3.3,1.5-3.3,3.3c0,1.6,1.1,3,2.7,3.3v6.7h-2
				c-0.4,0-0.7,0.3-0.7,0.7s0.3,0.7,0.7,0.7h38.7c0.4,0,0.7-0.3,0.7-0.7C369.2,520.1,368.9,519.8,368.6,519.8z M330.6,509.8
				c0-1.1,0.9-2,2-2s2,0.9,2,2s-0.9,2-2,2S330.6,510.9,330.6,509.8z M346.6,513.8c0-1.1,0.9-2,2-2s2,0.9,2,2s-0.9,2-2,2
				S346.6,514.9,346.6,513.8z M365.2,513.2c0-0.7,0.6-1.3,1.3-1.3s1.3,0.6,1.3,1.3c0,0.7-0.6,1.3-1.3,1.3S365.2,513.9,365.2,513.2z"
				/>
			<path class="st2" d="M334.6,515.2v2.7c0,0.4,0.3,0.7,0.7,0.7c0.4,0,0.7-0.3,0.7-0.7v-2.7c0-0.4-0.3-0.7-0.7-0.7
				C334.9,514.5,334.6,514.8,334.6,515.2z"/>
			<path class="st2" d="M338.6,503.2c0-0.4-0.3-0.7-0.7-0.7c-0.4,0-0.7,0.3-0.7,0.7v1.3c0,0.4,0.3,0.7,0.7,0.7
				c0.4,0,0.7-0.3,0.7-0.7V503.2z"/>
			<path class="st2" d="M338.6,507.2c0-0.4-0.3-0.7-0.7-0.7c-0.4,0-0.7,0.3-0.7,0.7v1.3c0,0.4,0.3,0.7,0.7,0.7
				c0.4,0,0.7-0.3,0.7-0.7V507.2z"/>
			<path class="st2" d="M334.6,503.2v1.3c0,0.4,0.3,0.7,0.7,0.7c0.4,0,0.7-0.3,0.7-0.7v-1.3c0-0.4-0.3-0.7-0.7-0.7
				C334.9,502.5,334.6,502.8,334.6,503.2z"/>
			<path class="st2" d="M343.9,507.2c0-0.4-0.3-0.7-0.7-0.7c-0.4,0-0.7,0.3-0.7,0.7v1.3c0,0.4,0.3,0.7,0.7,0.7
				c0.4,0,0.7-0.3,0.7-0.7V507.2z"/>
			<path class="st2" d="M346.6,499.2c0-0.4-0.3-0.7-0.7-0.7c-0.4,0-0.7,0.3-0.7,0.7v1.3c0,0.4,0.3,0.7,0.7,0.7
				c0.4,0,0.7-0.3,0.7-0.7V499.2z"/>
			<path class="st2" d="M346.6,495.2c0-0.4-0.3-0.7-0.7-0.7c-0.4,0-0.7,0.3-0.7,0.7v1.3c0,0.4,0.3,0.7,0.7,0.7
				c0.4,0,0.7-0.3,0.7-0.7V495.2z"/>
			<path class="st2" d="M346.6,503.2c0-0.4-0.3-0.7-0.7-0.7c-0.4,0-0.7,0.3-0.7,0.7v1.3c0,0.4,0.3,0.7,0.7,0.7
				c0.4,0,0.7-0.3,0.7-0.7V503.2z"/>
			<path class="st2" d="M345.9,506.5c-0.4,0-0.7,0.3-0.7,0.7v1.3c0,0.4,0.3,0.7,0.7,0.7c0.4,0,0.7-0.3,0.7-0.7v-1.3
				C346.6,506.8,346.3,506.5,345.9,506.5z"/>
			<path class="st2" d="M346.6,491.2c0-0.4-0.3-0.7-0.7-0.7c-0.4,0-0.7,0.3-0.7,0.7v1.3c0,0.4,0.3,0.7,0.7,0.7
				c0.4,0,0.7-0.3,0.7-0.7V491.2z"/>
			<path class="st2" d="M343.9,511.2c0-0.4-0.3-0.7-0.7-0.7c-0.4,0-0.7,0.3-0.7,0.7v1.3c0,0.4,0.3,0.7,0.7,0.7
				c0.4,0,0.7-0.3,0.7-0.7V511.2z"/>
			<path class="st2" d="M337.9,498.5c0.4,0,0.7-0.3,0.7-0.7v-4.9l2.3-1.1c0.2-0.1,0.4-0.3,0.4-0.6v-5.6l3.3-1.7l3.3,1.7v5.6
				c0,0.4,0.3,0.7,0.7,0.7c0.4,0,0.7-0.3,0.7-0.7v-6c0-0.3-0.1-0.5-0.4-0.6l-3.6-1.8v-0.9c0-0.4-0.3-0.7-0.7-0.7
				c-0.4,0-0.7,0.3-0.7,0.7v0.9l-3.6,1.8c-0.2,0.1-0.4,0.3-0.4,0.6v5.6l-2.3,1.1c-0.2,0.1-0.4,0.3-0.4,0.6v5.3
				C337.2,498.2,337.5,498.5,337.9,498.5z"/>
			<path class="st2" d="M343.9,503.2c0-0.4-0.3-0.7-0.7-0.7c-0.4,0-0.7,0.3-0.7,0.7v1.3c0,0.4,0.3,0.7,0.7,0.7
				c0.4,0,0.7-0.3,0.7-0.7V503.2z"/>
			<path class="st2" d="M343.2,514.5c-0.4,0-0.7,0.3-0.7,0.7v2.7c0,0.4,0.3,0.7,0.7,0.7c0.4,0,0.7-0.3,0.7-0.7v-2.7
				C343.9,514.8,343.6,514.5,343.2,514.5z"/>
			<path class="st2" d="M346.6,487.2c0-0.4-0.3-0.7-0.7-0.7c-0.4,0-0.7,0.3-0.7,0.7v1.3c0,0.4,0.3,0.7,0.7,0.7
				c0.4,0,0.7-0.3,0.7-0.7V487.2z"/>
			<path class="st2" d="M343.9,499.2c0-0.4-0.3-0.7-0.7-0.7c-0.4,0-0.7,0.3-0.7,0.7v1.3c0,0.4,0.3,0.7,0.7,0.7
				c0.4,0,0.7-0.3,0.7-0.7V499.2z"/>
		</g>
	</g>
</g>
</svg>
