<?xml version="1.0" encoding="utf-8"?>
<!-- Generator: Adobe Illustrator 21.1.0, SVG Export Plug-In . SVG Version: 6.00 Build 0)  -->
<svg version="1.1" id="Capa_1" xmlns="http://www.w3.org/2000/svg" xmlns:xlink="http://www.w3.org/1999/xlink" x="0px" y="0px"
	 viewBox="0 0 600 792" style="enable-background:new 0 0 600 792;" xml:space="preserve">
<style type="text/css">
	.st0{fill:#00A9E8;}
	.st1{opacity:0.46;}
	.st2{fill:#FFFFFF;}
	.st3{opacity:0.33;}
	.st4{fill:none;}
</style>
<rect x="-15.1" y="0" class="st0" width="627.1" height="804.9"/>
<g class="st1">
	<g class="st1">
		<g>
			<path class="st2" d="M184.8,354.1l-4.7-2.1c-0.3-0.1-0.5-0.5-0.5-0.8v-1.3c1.6-1.2,2.6-3.2,2.6-5.3v-1.8c0.5-0.3,0.9-0.8,0.9-1.5
				v-0.2c0-3.7-3-6.8-6.8-6.8h-1.7c-3.7,0-6.8,3-6.8,6.8v1.6c0,0.5,0.2,1,0.6,1.3c0.1,0.1,0.1,0.1,0.2,0.1v0.4c0,2.2,1,4.1,2.6,5.3
				v1.3c0,0.4-0.2,0.7-0.5,0.8l-4.7,2.1c-1.5,0.7-2.5,2.2-2.5,3.9v10.6c0,0.4,0.4,0.8,0.8,0.8s0.8-0.4,0.8-0.8v-10.6
				c0-0.1,0-0.2,0-0.3l2.1,2.1c0.3,0.3,0.5,0.8,0.5,1.3v7.5c0,0.4,0.4,0.8,0.8,0.8c0.4,0,0.8-0.4,0.8-0.8v-7.5c0-0.9-0.4-1.7-1-2.4
				l-2.6-2.6c0.2-0.2,0.5-0.4,0.8-0.6l4.6-2l3.4,3.4v11.7c0,0.4,0.4,0.8,0.8,0.8c0.4,0,0.8-0.4,0.8-0.8v-11.7l3.4-3.4l4.6,2
				c0.3,0.1,0.6,0.3,0.8,0.6l-2.6,2.6c-0.6,0.6-1,1.5-1,2.4v7.5c0,0.4,0.4,0.8,0.8,0.8s0.8-0.4,0.8-0.8v-7.5c0-0.5,0.2-0.9,0.5-1.3
				l2.1-2.1c0,0.1,0,0.2,0,0.3v10.6c0,0.4,0.4,0.8,0.8,0.8s0.8-0.4,0.8-0.8v-10.6C187.3,356.3,186.3,354.8,184.8,354.1z
				 M175.4,355.4l-3-3c0.2-0.4,0.4-0.8,0.4-1.3v-0.3c0.8,0.3,1.7,0.5,2.6,0.5s1.8-0.2,2.6-0.5v0.3c0,0.5,0.1,0.9,0.4,1.3
				L175.4,355.4z M175.4,349.8c-2.9,0-5.2-2.3-5.2-5.2v-0.4c0.5-0.2,1-0.5,1.5-0.9c0.3-0.3,0.3-0.8,0-1.1c-0.3-0.3-0.8-0.3-1.1,0
				c-0.4,0.4-0.8,0.6-1.2,0.7c0,0,0,0,0,0c0,0,0,0,0-0.1v-1.6c0-2.9,2.3-5.2,5.2-5.2h1.7c2.9,0,5.2,2.3,5.2,5.2v0.2c0,0,0,0,0,0.1
				c-4.8,0.9-7.2-0.8-8-1.7c-0.3-0.3-0.8-0.3-1.1,0c-0.3,0.3-0.3,0.8,0,1.1c2.5,2.5,6.1,2.5,8.3,2.3v1.4
				C180.6,347.4,178.2,349.8,175.4,349.8z"/>
		</g>
	</g>
	<g class="st1">
		<g>
			<path class="st2" d="M162.5,349.7V348c0-2.1-1.1-3.9-2.7-5c0.1-0.3,0.2-0.7,0.2-1c0-1.9-1.5-3.4-3.4-3.4c-1.9,0-3.4,1.5-3.4,3.4
				c0,0.3,0.1,0.7,0.2,1c-1.6,1.1-2.7,2.9-2.7,5v1.7c0,2,1,3.8,2.6,4.9v1.8c0,0.3-0.2,0.7-0.5,0.8l-2.8,1.4c-1.1,0.6-1.9,1.7-1.9,3
				v7c0,0.4,0.4,0.8,0.8,0.8s0.8-0.4,0.8-0.8v-6.6l1.3,1.3c0.3,0.3,0.5,0.8,0.5,1.3v4.1c0,0.4,0.4,0.8,0.8,0.8
				c0.4,0,0.8-0.4,0.8-0.8v-4.1c0-0.9-0.4-1.7-1-2.4l-1.8-1.8c0,0,0,0,0,0c0.1-0.1,0.2-0.2,0.4-0.3l2.8-1.4c0.1-0.1,0.3-0.2,0.4-0.2
				l2,2v8.2c0,0.4,0.4,0.8,0.8,0.8c0.4,0,0.8-0.4,0.8-0.8v-8.2l2-2c0.1,0.1,0.3,0.2,0.4,0.2l0.8,0.4c0.1,0.1,0.2,0.1,0.4,0.1
				c0.3,0,0.6-0.2,0.7-0.4c0.2-0.4,0-0.9-0.4-1.1l-0.8-0.4c-0.3-0.2-0.5-0.5-0.5-0.8v-1.8C161.4,353.5,162.5,351.7,162.5,349.7z
				 M156.5,340.2c1,0,1.8,0.8,1.8,1.8c0,0.1,0,0.2,0,0.3c-0.6-0.2-1.1-0.3-1.7-0.3c-0.6,0-1.2,0.1-1.7,0.3c0-0.1,0-0.2,0-0.3
				C154.7,341,155.5,340.2,156.5,340.2z M156.5,343.7c2.4,0,4.3,1.9,4.3,4.3v0.3c-3.3,1-5.3-1.5-5.4-1.6c-0.1-0.2-0.4-0.3-0.6-0.3
				c-0.2,0-0.5,0.1-0.6,0.2c-0.8,0.8-1.5,1.1-2.1,1.3C152.2,345.6,154.2,343.7,156.5,343.7z M156.5,358.9l-1.9-1.9
				c0.1-0.2,0.1-0.4,0.1-0.6v-1c0.6,0.2,1.2,0.3,1.8,0.3s1.2-0.1,1.8-0.3v1c0,0.2,0,0.4,0.1,0.6L156.5,358.9z M156.5,354.1
				c-2.4,0-4.3-1.9-4.3-4.3v-0.2c0.6-0.1,1.6-0.5,2.6-1.3c0.3,0.3,0.8,0.7,1.5,1.1c0.8,0.4,1.8,0.8,3.1,0.8c0.5,0,1-0.1,1.5-0.2
				C160.7,352.2,158.8,354.1,156.5,354.1z"/>
		</g>
	</g>
	<g class="st1">
		<g>
			<path class="st2" d="M200.8,356.9l-4.5-2.2c-0.3-0.2-0.5-0.5-0.5-0.8v-1.1c1-0.9,1.7-2.3,1.7-3.8v-0.9c0,0,0,0,0.1,0
				c0.4,0,0.8-0.4,0.8-0.8v-1.7c0-2.8-2.3-5.1-5.1-5.1h-1.7c-2.8,0-5.1,2.3-5.1,5.1v1.7c0,0.4,0.4,0.8,0.8,0.8c0,0,0,0,0.1,0v0.9
				c0,1.5,0.7,2.9,1.7,3.8v1.1c0,0.3-0.2,0.7-0.5,0.8c-0.4,0.2-0.6,0.7-0.4,1.1c0.1,0.3,0.4,0.4,0.7,0.4c0.1,0,0.2,0,0.4-0.1
				c0.1-0.1,0.3-0.2,0.4-0.2l2,2v10.8c0,0.4,0.4,0.8,0.8,0.8c0.4,0,0.8-0.4,0.8-0.8v-10.8l2-2c0.1,0.1,0.3,0.2,0.4,0.2l4.3,2.2
				l-1.3,1.3c-0.6,0.6-1,1.5-1,2.4v6.6c0,0.4,0.4,0.8,0.8,0.8c0.4,0,0.8-0.4,0.8-0.8v-6.6c0-0.5,0.2-0.9,0.5-1.3l1.2-1.2
				c0,0.1,0.1,0.3,0.1,0.5v8.7c0,0.4,0.4,0.8,0.8,0.8s0.8-0.4,0.8-0.8v-8.7C202.7,358.6,202,357.4,200.8,356.9z M188.1,346.2v-0.7h0
				c0-1.9,1.6-3.5,3.5-3.5h1.7c1.9,0,3.5,1.6,3.5,3.5v0.9c-3.5-0.2-5.6-1.5-5.6-1.6c-0.1-0.1-0.3-0.1-0.4-0.1
				c-0.2,0-0.4,0.1-0.6,0.2C189.4,345.6,188.7,346,188.1,346.2z M192.5,356.3l-1.9-1.9c0.1-0.2,0.1-0.4,0.1-0.6v-0.2
				c0.6,0.2,1.1,0.3,1.8,0.3c0.6,0,1.2-0.1,1.8-0.3v0.2c0,0.2,0,0.4,0.1,0.6L192.5,356.3z M192.5,352.3c-1.9,0-3.5-1.6-3.5-3.5v-1.3
				l0,0c0.6-0.2,1.2-0.6,1.9-1.1c0.8,0.4,2.6,1.2,5.1,1.4v1C196,350.8,194.4,352.3,192.5,352.3z"/>
		</g>
	</g>
</g>
<g class="st1">
	<g class="st1">
		<g>
			<path class="st2" d="M510.4,52.9l-8-3.5c-0.6-0.3-0.9-0.8-0.9-1.4v-2.2c2.7-2.1,4.4-5.4,4.4-9.1v-3.1c0.9-0.5,1.5-1.4,1.5-2.5
				v-0.3c0-6.4-5.2-11.6-11.6-11.6h-2.9c-6.4,0-11.6,5.2-11.6,11.6v2.7c0,0.9,0.4,1.8,1.1,2.3c0.1,0.1,0.2,0.2,0.4,0.2v0.6
				c0,3.7,1.7,7,4.4,9.1V48c0,0.6-0.4,1.2-0.9,1.4l-8,3.5c-2.6,1.2-4.3,3.8-4.3,6.6v18.2c0,0.8,0.6,1.4,1.4,1.4s1.4-0.6,1.4-1.4
				V59.6c0-0.2,0-0.3,0-0.5l3.7,3.7c0.6,0.6,0.9,1.3,0.9,2.1v12.9c0,0.8,0.6,1.4,1.4,1.4c0.8,0,1.4-0.6,1.4-1.4V64.9
				c0-1.5-0.6-3-1.7-4.1l-4.4-4.4c0.4-0.4,0.9-0.7,1.4-1l7.8-3.5l5.8,5.8v20c0,0.8,0.6,1.4,1.4,1.4s1.4-0.6,1.4-1.4v-20l5.8-5.8
				l7.8,3.5c0.5,0.2,1,0.6,1.4,1l-4.4,4.4c-1.1,1.1-1.7,2.5-1.7,4.1v12.9c0,0.8,0.6,1.4,1.4,1.4c0.8,0,1.4-0.6,1.4-1.4V64.9
				c0-0.8,0.3-1.6,0.9-2.1l3.7-3.7c0,0.2,0,0.3,0,0.5v18.2c0,0.8,0.6,1.4,1.4,1.4s1.4-0.6,1.4-1.4V59.6
				C514.7,56.7,513,54.1,510.4,52.9z M494.3,55.3l-5.1-5.1c0.4-0.7,0.6-1.4,0.6-2.2v-0.6c1.4,0.6,2.9,0.9,4.5,0.9
				c1.6,0,3.1-0.3,4.5-0.9V48c0,0.8,0.2,1.5,0.6,2.2L494.3,55.3z M494.3,45.6c-4.9,0-8.9-4-8.9-8.9V36c0.9-0.3,1.7-0.9,2.5-1.6
				c0.6-0.5,0.6-1.4,0.1-1.9c-0.5-0.6-1.4-0.6-1.9-0.1c-0.7,0.6-1.4,1-2,1.2c0,0,0,0,0,0c0,0,0-0.1,0-0.1v-2.7c0-4.9,4-8.9,8.9-8.9
				h2.9c4.9,0,8.9,4,8.9,8.9v0.3c0,0,0,0.1-0.1,0.1c-8.2,1.6-12.3-1.4-13.7-2.8c-0.5-0.5-1.4-0.5-1.9,0c-0.5,0.5-0.5,1.4,0,1.9
				c4.3,4.3,10.5,4.3,14.3,3.9v2.5C503.2,41.6,499.2,45.6,494.3,45.6z"/>
		</g>
	</g>
	<g class="st1">
		<g>
			<path class="st2" d="M472.1,45.5v-2.9c0-3.6-1.9-6.7-4.7-8.6c0.2-0.6,0.3-1.1,0.3-1.7c0-3.2-2.6-5.8-5.8-5.8
				c-3.2,0-5.8,2.6-5.8,5.8c0,0.6,0.1,1.2,0.3,1.7c-2.8,1.8-4.7,5-4.7,8.6v2.9c0,3.5,1.7,6.5,4.4,8.4v3c0,0.6-0.3,1.1-0.9,1.4
				l-4.8,2.4c-2,1-3.2,3-3.2,5.2v12c0,0.8,0.6,1.4,1.4,1.4c0.8,0,1.4-0.6,1.4-1.4V66.4l2.2,2.2c0.6,0.6,0.9,1.3,0.9,2.1v7
				c0,0.8,0.6,1.4,1.4,1.4s1.4-0.6,1.4-1.4v-7c0-1.5-0.6-3-1.7-4.1l-3.1-3.1c0,0,0,0,0,0c0.2-0.2,0.4-0.3,0.7-0.4l4.8-2.4
				c0.2-0.1,0.5-0.3,0.7-0.4l3.4,3.4v14.1c0,0.8,0.6,1.4,1.4,1.4s1.4-0.6,1.4-1.4V63.7l3.4-3.4c0.2,0.2,0.4,0.3,0.7,0.4l1.3,0.7
				c0.2,0.1,0.4,0.1,0.6,0.1c0.5,0,1-0.3,1.2-0.8c0.3-0.7,0.1-1.5-0.6-1.8l-1.3-0.7c-0.5-0.3-0.9-0.8-0.9-1.4v-3
				C470.4,52,472.1,48.9,472.1,45.5z M462,29.2c1.7,0,3,1.4,3,3c0,0.2,0,0.4,0,0.5c-0.9-0.3-1.9-0.4-3-0.4c-1,0-2,0.2-3,0.4
				c0-0.2-0.1-0.4-0.1-0.5C458.9,30.6,460.3,29.2,462,29.2z M462,35.1c4.1,0,7.4,3.3,7.4,7.4V43c-5.7,1.8-9.1-2.6-9.3-2.8
				c-0.2-0.3-0.6-0.5-1-0.5c-0.4,0-0.8,0.1-1.1,0.4c-1.3,1.3-2.6,1.9-3.5,2.2C454.6,38.3,457.9,35.1,462,35.1z M462,61.1l-3.2-3.2
				c0.1-0.4,0.1-0.7,0.1-1.1v-1.7c1,0.3,2,0.5,3,0.5s2.1-0.2,3-0.5v1.7c0,0.4,0.1,0.7,0.1,1.1L462,61.1z M462,52.9
				c-4.1,0-7.4-3.3-7.4-7.4v-0.3c1.1-0.3,2.7-0.8,4.4-2.2c0.6,0.6,1.5,1.3,2.5,1.9c1.3,0.7,3.1,1.4,5.2,1.4c0.8,0,1.7-0.1,2.6-0.3
				C469.2,49.8,465.9,52.9,462,52.9z"/>
		</g>
	</g>
	<g class="st1">
		<g>
			<path class="st2" d="M537.9,57.7l-7.7-3.8c-0.5-0.3-0.9-0.8-0.9-1.4v-1.9c1.8-1.6,2.9-3.9,2.9-6.5v-1.6c0,0,0.1,0,0.1,0
				c0.8,0,1.4-0.6,1.4-1.4v-2.9c0-4.8-3.9-8.7-8.7-8.7h-2.9c-4.8,0-8.7,3.9-8.7,8.7v2.9c0,0.8,0.6,1.4,1.4,1.4c0,0,0,0,0.1,0V44
				c0,2.6,1.1,4.9,2.9,6.5v1.9c0,0.6-0.3,1.1-0.9,1.4c-0.7,0.3-1,1.2-0.6,1.8c0.2,0.5,0.7,0.8,1.2,0.8c0.2,0,0.4,0,0.6-0.1
				c0.2-0.1,0.5-0.3,0.7-0.4l3.4,3.4v18.5c0,0.8,0.6,1.4,1.4,1.4s1.4-0.6,1.4-1.4V59.3l3.4-3.4c0.2,0.2,0.4,0.3,0.7,0.4l7.4,3.7
				l-2.3,2.3c-1.1,1.1-1.7,2.5-1.7,4.1v11.4c0,0.8,0.6,1.4,1.4,1.4s1.4-0.6,1.4-1.4V66.4c0-0.8,0.3-1.6,0.9-2.1l2.1-2.1
				c0.1,0.2,0.1,0.5,0.1,0.8v14.9c0,0.8,0.6,1.4,1.4,1.4c0.8,0,1.4-0.6,1.4-1.4V62.9C541.1,60.7,539.9,58.7,537.9,57.7z M516.2,39.4
				v-1.3h0c0-3.3,2.7-6,6-6h2.9c3.3,0,6,2.7,6,6v1.5c-6-0.3-9.6-2.6-9.6-2.7c-0.2-0.2-0.5-0.2-0.8-0.2c-0.4,0-0.7,0.1-1,0.4
				C518.4,38.5,517.1,39.1,516.2,39.4z M523.6,56.7l-3.2-3.2c0.1-0.4,0.1-0.7,0.1-1.1v-0.3c0.9,0.4,2,0.5,3,0.5s2.1-0.2,3-0.5v0.3
				c0,0.4,0.1,0.7,0.1,1.1L523.6,56.7z M523.6,50c-3.3,0-6-2.7-6-6v-2.2l0,0c1-0.4,2.1-1,3.2-2c1.4,0.8,4.5,2,8.7,2.5V44
				C529.6,47.3,526.9,50,523.6,50z"/>
		</g>
	</g>
</g>
<g class="st1">
	<g class="st1">
		<g>
			<path class="st2" d="M486.6,310.4l-5.3-2.4c-0.4-0.2-0.6-0.5-0.6-1v-1.5c1.8-1.4,2.9-3.6,2.9-6.1v-2.1c0.6-0.3,1-1,1-1.7v-0.2
				c0-4.3-3.5-7.8-7.8-7.8h-2c-4.3,0-7.8,3.5-7.8,7.8v1.8c0,0.6,0.3,1.2,0.7,1.5c0.1,0.1,0.2,0.1,0.2,0.2v0.4c0,2.5,1.1,4.7,2.9,6.1
				v1.5c0,0.4-0.2,0.8-0.6,1l-5.3,2.4c-1.7,0.8-2.9,2.5-2.9,4.4v12.1c0,0.5,0.4,0.9,0.9,0.9c0.5,0,0.9-0.4,0.9-0.9v-12.1
				c0-0.1,0-0.2,0-0.3l2.5,2.5c0.4,0.4,0.6,0.9,0.6,1.4v8.6c0,0.5,0.4,0.9,0.9,0.9c0.5,0,0.9-0.4,0.9-0.9v-8.6c0-1-0.4-2-1.1-2.7
				l-2.9-2.9c0.3-0.3,0.6-0.5,0.9-0.7l5.2-2.3l3.9,3.9v13.3c0,0.5,0.4,0.9,0.9,0.9c0.5,0,0.9-0.4,0.9-0.9v-13.3l3.9-3.9l5.2,2.3
				c0.4,0.2,0.7,0.4,0.9,0.7l-2.9,2.9c-0.7,0.7-1.1,1.7-1.1,2.7v8.6c0,0.5,0.4,0.9,0.9,0.9c0.5,0,0.9-0.4,0.9-0.9v-8.6
				c0-0.5,0.2-1,0.6-1.4l2.5-2.5c0,0.1,0,0.2,0,0.3v12.1c0,0.5,0.4,0.9,0.9,0.9c0.5,0,0.9-0.4,0.9-0.9v-12.1
				C489.5,312.9,488.3,311.2,486.6,310.4z M475.8,311.9l-3.4-3.4c0.3-0.4,0.4-0.9,0.4-1.5v-0.4c0.9,0.4,1.9,0.6,3,0.6
				c1.1,0,2.1-0.2,3-0.6v0.4c0,0.5,0.1,1,0.4,1.5L475.8,311.9z M475.8,305.5c-3.3,0-5.9-2.7-5.9-5.9v-0.4c0.6-0.2,1.1-0.6,1.7-1.1
				c0.4-0.3,0.4-0.9,0.1-1.3c-0.3-0.4-0.9-0.4-1.3-0.1c-0.5,0.4-0.9,0.7-1.4,0.8c0,0,0,0,0,0c0,0,0,0,0-0.1v-1.8
				c0-3.3,2.7-5.9,5.9-5.9h2c3.3,0,5.9,2.7,5.9,5.9v0.2c0,0,0,0.1,0,0.1c-5.5,1.1-8.2-1-9.2-1.9c-0.4-0.4-0.9-0.4-1.3,0
				c-0.4,0.4-0.4,0.9,0,1.3c2.8,2.8,7,2.9,9.5,2.6v1.7C481.8,302.8,479.1,305.5,475.8,305.5z"/>
		</g>
	</g>
	<g class="st1">
		<g>
			<path class="st2" d="M461.1,305.4v-2c0-2.4-1.2-4.5-3.1-5.7c0.1-0.4,0.2-0.8,0.2-1.1c0-2.1-1.7-3.9-3.9-3.9
				c-2.1,0-3.9,1.7-3.9,3.9c0,0.4,0.1,0.8,0.2,1.1c-1.9,1.2-3.1,3.3-3.1,5.7v2c0,2.3,1.2,4.4,2.9,5.6v2c0,0.4-0.2,0.8-0.6,0.9
				l-3.2,1.6c-1.3,0.7-2.1,2-2.1,3.4v8c0,0.5,0.4,0.9,0.9,0.9s0.9-0.4,0.9-0.9v-7.6l1.5,1.5c0.4,0.4,0.6,0.9,0.6,1.4v4.7
				c0,0.5,0.4,0.9,0.9,0.9c0.5,0,0.9-0.4,0.9-0.9v-4.7c0-1-0.4-2-1.1-2.7l-2.1-2.1c0,0,0,0,0,0c0.1-0.1,0.3-0.2,0.4-0.3l3.2-1.6
				c0.2-0.1,0.3-0.2,0.5-0.3l2.2,2.2v9.4c0,0.5,0.4,0.9,0.9,0.9c0.5,0,0.9-0.4,0.9-0.9v-9.4l2.2-2.2c0.1,0.1,0.3,0.2,0.5,0.3
				l0.9,0.4c0.1,0.1,0.3,0.1,0.4,0.1c0.3,0,0.7-0.2,0.8-0.5c0.2-0.5,0-1-0.4-1.2l-0.9-0.4c-0.4-0.2-0.6-0.5-0.6-0.9v-2
				C459.9,309.8,461.1,307.7,461.1,305.4z M454.3,294.6c1.1,0,2,0.9,2,2c0,0.1,0,0.2,0,0.4c-0.6-0.2-1.3-0.3-2-0.3
				c-0.7,0-1.4,0.1-2,0.3c0-0.1,0-0.2,0-0.4C452.3,295.5,453.2,294.6,454.3,294.6z M454.3,298.5c2.7,0,5,2.2,5,5v0.3
				c-3.8,1.2-6.1-1.7-6.2-1.9c-0.2-0.2-0.4-0.3-0.7-0.4c-0.3,0-0.5,0.1-0.7,0.3c-0.9,0.9-1.7,1.3-2.3,1.5
				C449.4,300.7,451.6,298.5,454.3,298.5z M454.3,315.9l-2.1-2.1c0.1-0.2,0.1-0.5,0.1-0.7v-1.1c0.6,0.2,1.3,0.3,2,0.3
				c0.7,0,1.4-0.1,2-0.3v1.1c0,0.3,0,0.5,0.1,0.7L454.3,315.9z M454.3,310.4c-2.7,0-5-2.2-5-5v-0.2c0.7-0.2,1.8-0.6,2.9-1.5
				c0.4,0.4,1,0.8,1.7,1.2c0.9,0.5,2,0.9,3.5,0.9c0.6,0,1.1-0.1,1.8-0.2C459.1,308.3,456.9,310.4,454.3,310.4z"/>
		</g>
	</g>
	<g class="st1">
		<g>
			<path class="st2" d="M505,313.6l-5.1-2.6c-0.4-0.2-0.6-0.5-0.6-0.9v-1.3c1.2-1.1,2-2.6,2-4.3v-1c0,0,0,0,0.1,0
				c0.5,0,0.9-0.4,0.9-0.9v-2c0-3.2-2.6-5.8-5.8-5.8h-2c-3.2,0-5.8,2.6-5.8,5.8v2c0,0.5,0.4,0.9,0.9,0.9c0,0,0,0,0.1,0v1
				c0,1.7,0.8,3.3,2,4.3v1.3c0,0.4-0.2,0.8-0.6,0.9c-0.5,0.2-0.6,0.8-0.4,1.2c0.2,0.3,0.5,0.5,0.8,0.5c0.1,0,0.3,0,0.4-0.1
				c0.2-0.1,0.3-0.2,0.5-0.3l2.2,2.2v12.3c0,0.5,0.4,0.9,0.9,0.9c0.5,0,0.9-0.4,0.9-0.9v-12.3l2.2-2.2c0.1,0.1,0.3,0.2,0.5,0.3
				l5,2.5l-1.5,1.5c-0.7,0.7-1.1,1.7-1.1,2.7v7.6c0,0.5,0.4,0.9,0.9,0.9c0.5,0,0.9-0.4,0.9-0.9v-7.6c0-0.5,0.2-1,0.6-1.4l1.4-1.4
				c0,0.2,0.1,0.3,0.1,0.5v9.9c0,0.5,0.4,0.9,0.9,0.9c0.5,0,0.9-0.4,0.9-0.9V317C507.1,315.5,506.3,314.2,505,313.6z M490.4,301.4
				v-0.9h0c0-2.2,1.8-4,4-4h2c2.2,0,4,1.8,4,4v1c-4-0.2-6.4-1.8-6.4-1.8c-0.2-0.1-0.3-0.2-0.5-0.2c-0.2,0-0.5,0.1-0.6,0.3
				C491.9,300.7,491.1,301.2,490.4,301.4z M495.4,312.9l-2.1-2.1c0.1-0.2,0.1-0.5,0.1-0.7v-0.2c0.6,0.2,1.3,0.4,2,0.4
				c0.7,0,1.4-0.1,2-0.4v0.2c0,0.3,0,0.5,0.1,0.7L495.4,312.9z M495.4,308.4c-2.2,0-4-1.8-4-4V303l0,0c0.6-0.3,1.4-0.7,2.1-1.3
				c1,0.5,3,1.4,5.8,1.7v1.1C499.4,306.6,497.6,308.4,495.4,308.4z"/>
		</g>
	</g>
</g>
<g class="st1">
	<g class="st1">
		<g>
			<path class="st2" d="M105.3,59.6l-4-1.8c-0.3-0.1-0.5-0.4-0.5-0.7V56c1.3-1.1,2.2-2.7,2.2-4.6v-1.5c0.4-0.2,0.7-0.7,0.7-1.2v-0.1
				c0-3.2-2.6-5.8-5.8-5.8h-1.5c-3.2,0-5.8,2.6-5.8,5.8v1.4c0,0.5,0.2,0.9,0.5,1.2c0.1,0,0.1,0.1,0.2,0.1v0.3c0,1.8,0.9,3.5,2.2,4.6
				v1.1c0,0.3-0.2,0.6-0.5,0.7l-4,1.8c-1.3,0.6-2.2,1.9-2.2,3.3V72c0,0.4,0.3,0.7,0.7,0.7c0.4,0,0.7-0.3,0.7-0.7v-9.1
				c0-0.1,0-0.2,0-0.2l1.8,1.8c0.3,0.3,0.4,0.7,0.4,1.1V72c0,0.4,0.3,0.7,0.7,0.7S92,72.4,92,72v-6.4c0-0.8-0.3-1.5-0.8-2L89,61.4
				c0.2-0.2,0.4-0.4,0.7-0.5l3.9-1.7l2.9,2.9v10c0,0.4,0.3,0.7,0.7,0.7s0.7-0.3,0.7-0.7V62l2.9-2.9l3.9,1.7c0.3,0.1,0.5,0.3,0.7,0.5
				l-2.2,2.2c-0.5,0.5-0.8,1.3-0.8,2V72c0,0.4,0.3,0.7,0.7,0.7s0.7-0.3,0.7-0.7v-6.4c0-0.4,0.2-0.8,0.4-1.1l1.8-1.8
				c0,0.1,0,0.2,0,0.2V72c0,0.4,0.3,0.7,0.7,0.7c0.4,0,0.7-0.3,0.7-0.7v-9.1C107.4,61.5,106.6,60.2,105.3,59.6z M97.2,60.8l-2.6-2.6
				c0.2-0.3,0.3-0.7,0.3-1.1v-0.3c0.7,0.3,1.5,0.5,2.2,0.5c0.8,0,1.6-0.2,2.2-0.5v0.3c0,0.4,0.1,0.8,0.3,1.1L97.2,60.8z M97.2,55.9
				c-2.5,0-4.5-2-4.5-4.5v-0.3c0.4-0.2,0.8-0.4,1.2-0.8c0.3-0.3,0.3-0.7,0-1c-0.3-0.3-0.7-0.3-1,0c-0.3,0.3-0.7,0.5-1,0.6
				c0,0,0,0,0,0c0,0,0,0,0-0.1v-1.4c0-2.5,2-4.5,4.5-4.5H98c2.5,0,4.5,2,4.5,4.5v0.1c0,0,0,0,0,0c-4.1,0.8-6.2-0.7-6.9-1.4
				c-0.3-0.3-0.7-0.3-1,0c-0.3,0.3-0.3,0.7,0,1c2.1,2.1,5.2,2.2,7.1,1.9v1.2C101.7,53.9,99.7,55.9,97.2,55.9z"/>
		</g>
	</g>
	<g class="st1">
		<g>
			<path class="st2" d="M86.2,55.9v-1.5c0-1.8-0.9-3.4-2.3-4.3c0.1-0.3,0.1-0.6,0.1-0.9c0-1.6-1.3-2.9-2.9-2.9s-2.9,1.3-2.9,2.9
				c0,0.3,0,0.6,0.1,0.9C76.9,51,76,52.6,76,54.4v1.5c0,1.7,0.9,3.3,2.2,4.2v1.5c0,0.3-0.2,0.6-0.4,0.7l-2.4,1.2
				c-1,0.5-1.6,1.5-1.6,2.6v6c0,0.4,0.3,0.7,0.7,0.7c0.4,0,0.7-0.3,0.7-0.7v-5.7l1.1,1.1c0.3,0.3,0.4,0.7,0.4,1.1V72
				c0,0.4,0.3,0.7,0.7,0.7c0.4,0,0.7-0.3,0.7-0.7v-3.5c0-0.8-0.3-1.5-0.8-2l-1.6-1.6c0,0,0,0,0,0c0.1-0.1,0.2-0.2,0.3-0.2l2.4-1.2
				c0.1-0.1,0.2-0.1,0.3-0.2l1.7,1.7V72c0,0.4,0.3,0.7,0.7,0.7c0.4,0,0.7-0.3,0.7-0.7V65l1.7-1.7c0.1,0.1,0.2,0.2,0.3,0.2l0.7,0.3
				c0.1,0,0.2,0.1,0.3,0.1c0.3,0,0.5-0.1,0.6-0.4c0.2-0.3,0-0.8-0.3-0.9l-0.7-0.3c-0.3-0.1-0.4-0.4-0.4-0.7v-1.5
				C85.3,59.1,86.2,57.6,86.2,55.9z M81.1,47.8c0.8,0,1.5,0.7,1.5,1.5c0,0.1,0,0.2,0,0.3c-0.5-0.1-1-0.2-1.5-0.2
				c-0.5,0-1,0.1-1.5,0.2c0-0.1,0-0.2,0-0.3C79.6,48.4,80.2,47.8,81.1,47.8z M81.1,50.7c2,0,3.7,1.7,3.7,3.7v0.2
				c-2.9,0.9-4.6-1.3-4.6-1.4C80,53.1,79.9,53,79.7,53c-0.2,0-0.4,0.1-0.5,0.2c-0.7,0.7-1.3,1-1.8,1.1
				C77.4,52.3,79.1,50.7,81.1,50.7z M81.1,63.7l-1.6-1.6c0-0.2,0.1-0.4,0.1-0.6v-0.8c0.5,0.1,1,0.2,1.5,0.2c0.5,0,1-0.1,1.5-0.2v0.8
				c0,0.2,0,0.4,0.1,0.6L81.1,63.7z M81.1,59.6c-2,0-3.7-1.7-3.7-3.7v-0.1c0.5-0.1,1.4-0.4,2.2-1.1c0.3,0.3,0.7,0.6,1.3,0.9
				c0.6,0.4,1.5,0.7,2.6,0.7c0.4,0,0.9,0,1.3-0.2C84.7,58,83.1,59.6,81.1,59.6z"/>
		</g>
	</g>
	<g class="st1">
		<g>
			<path class="st2" d="M119.1,62l-3.8-1.9c-0.3-0.1-0.4-0.4-0.4-0.7v-1c0.9-0.8,1.5-2,1.5-3.3v-0.8c0,0,0,0,0,0
				c0.4,0,0.7-0.3,0.7-0.7v-1.5c0-2.4-2-4.4-4.4-4.4h-1.5c-2.4,0-4.4,2-4.4,4.4v1.5c0,0.4,0.3,0.7,0.7,0.7c0,0,0,0,0,0v0.8
				c0,1.3,0.6,2.5,1.5,3.3v1c0,0.3-0.2,0.6-0.4,0.7c-0.3,0.2-0.5,0.6-0.3,0.9c0.1,0.2,0.4,0.4,0.6,0.4c0.1,0,0.2,0,0.3-0.1
				c0.1-0.1,0.2-0.1,0.3-0.2l1.7,1.7V72c0,0.4,0.3,0.7,0.7,0.7c0.4,0,0.7-0.3,0.7-0.7v-9.3l1.7-1.7c0.1,0.1,0.2,0.2,0.3,0.2l3.7,1.9
				l-1.1,1.1c-0.5,0.5-0.8,1.3-0.8,2V72c0,0.4,0.3,0.7,0.7,0.7s0.7-0.3,0.7-0.7v-5.7c0-0.4,0.2-0.8,0.4-1.1l1.1-1.1
				c0,0.1,0.1,0.3,0.1,0.4V72c0,0.4,0.3,0.7,0.7,0.7c0.4,0,0.7-0.3,0.7-0.7v-7.4C120.7,63.5,120,62.5,119.1,62z M108.2,52.8v-0.6h0
				c0-1.6,1.3-3,3-3h1.5c1.6,0,3,1.3,3,3V53c-3-0.2-4.8-1.3-4.8-1.3c-0.1-0.1-0.2-0.1-0.4-0.1c-0.2,0-0.4,0.1-0.5,0.2
				C109.3,52.4,108.6,52.7,108.2,52.8z M111.9,61.5l-1.6-1.6c0-0.2,0.1-0.4,0.1-0.6v-0.1c0.5,0.2,1,0.3,1.5,0.3c0.5,0,1-0.1,1.5-0.3
				v0.1c0,0.2,0,0.4,0.1,0.6L111.9,61.5z M111.9,58.1c-1.6,0-3-1.3-3-3V54l0,0c0.5-0.2,1-0.5,1.6-1c0.7,0.4,2.2,1,4.4,1.2v0.9
				C114.9,56.8,113.5,58.1,111.9,58.1z"/>
		</g>
	</g>
</g>
<g class="st1">
	<g class="st1">
		<g>
			<path class="st2" d="M326.8,211.2l-6.7-3c-0.5-0.2-0.8-0.7-0.8-1.2v-1.8c2.2-1.8,3.7-4.5,3.7-7.6V195c0.7-0.4,1.2-1.2,1.2-2.1
				v-0.2c0-5.4-4.4-9.7-9.7-9.7h-2.4c-5.4,0-9.7,4.4-9.7,9.7v2.3c0,0.8,0.3,1.5,0.9,1.9c0.1,0.1,0.2,0.1,0.3,0.2v0.5
				c0,3.1,1.4,5.8,3.7,7.6v1.8c0,0.5-0.3,1-0.8,1.2l-6.7,3c-2.2,1-3.6,3.1-3.6,5.5v15.2c0,0.6,0.5,1.1,1.1,1.1
				c0.6,0,1.1-0.5,1.1-1.1v-15.2c0-0.1,0-0.3,0-0.4l3.1,3.1c0.5,0.5,0.7,1.1,0.7,1.8v10.7c0,0.6,0.5,1.1,1.1,1.1s1.1-0.5,1.1-1.1
				v-10.7c0-1.3-0.5-2.5-1.4-3.4l-3.7-3.7c0.3-0.3,0.7-0.6,1.2-0.8l6.5-2.9l4.8,4.8v16.7c0,0.6,0.5,1.1,1.1,1.1
				c0.6,0,1.1-0.5,1.1-1.1v-16.7l4.8-4.8l6.5,2.9c0.4,0.2,0.8,0.5,1.2,0.8l-3.7,3.7c-0.9,0.9-1.4,2.1-1.4,3.4v10.7
				c0,0.6,0.5,1.1,1.1,1.1s1.1-0.5,1.1-1.1v-10.7c0-0.7,0.3-1.3,0.7-1.8l3.1-3.1c0,0.1,0,0.3,0,0.4v15.2c0,0.6,0.5,1.1,1.1,1.1
				s1.1-0.5,1.1-1.1v-15.2C330.4,214.3,329,212.1,326.8,211.2z M313.3,213.1l-4.3-4.3c0.3-0.5,0.5-1.2,0.5-1.8v-0.5
				c1.2,0.5,2.4,0.8,3.7,0.8c1.3,0,2.6-0.3,3.7-0.8v0.5c0,0.7,0.2,1.3,0.5,1.8L313.3,213.1z M313.3,205c-4.1,0-7.4-3.3-7.4-7.4v-0.5
				c0.7-0.3,1.4-0.7,2.1-1.3c0.5-0.4,0.5-1.2,0.1-1.6c-0.4-0.5-1.2-0.5-1.6-0.1c-0.6,0.5-1.1,0.9-1.7,1c0,0,0,0,0,0c0,0,0,0,0-0.1
				v-2.3c0-4.1,3.3-7.4,7.4-7.4h2.4c4.1,0,7.4,3.3,7.4,7.4v0.2c0,0,0,0.1-0.1,0.1c-6.9,1.4-10.3-1.2-11.5-2.4
				c-0.4-0.4-1.2-0.4-1.6,0c-0.4,0.4-0.4,1.2,0,1.6c3.6,3.6,8.7,3.6,11.9,3.2v2.1C320.7,201.7,317.4,205,313.3,205z"/>
		</g>
	</g>
	<g class="st1">
		<g>
			<path class="st2" d="M294.9,204.9v-2.4c0-3-1.6-5.6-3.9-7.1c0.1-0.5,0.2-0.9,0.2-1.4c0-2.7-2.2-4.8-4.8-4.8s-4.8,2.2-4.8,4.8
				c0,0.5,0.1,1,0.2,1.4c-2.3,1.5-3.9,4.1-3.9,7.1v2.4c0,2.9,1.5,5.4,3.7,7v2.5c0,0.5-0.3,0.9-0.7,1.2l-4,2
				c-1.6,0.8-2.7,2.5-2.7,4.3v10c0,0.6,0.5,1.1,1.1,1.1s1.1-0.5,1.1-1.1v-9.5l1.9,1.9c0.5,0.5,0.7,1.1,0.7,1.8v5.8
				c0,0.6,0.5,1.1,1.1,1.1s1.1-0.5,1.1-1.1V226c0-1.3-0.5-2.5-1.4-3.4l-2.6-2.6c0,0,0,0,0,0c0.2-0.1,0.3-0.3,0.5-0.4l4-2
				c0.2-0.1,0.4-0.2,0.6-0.4l2.8,2.8v11.8c0,0.6,0.5,1.1,1.1,1.1c0.6,0,1.1-0.5,1.1-1.1v-11.8l2.8-2.8c0.2,0.1,0.4,0.3,0.6,0.4
				l1.1,0.5c0.2,0.1,0.3,0.1,0.5,0.1c0.4,0,0.8-0.2,1-0.6c0.3-0.6,0.1-1.3-0.5-1.5l-1.1-0.5c-0.4-0.2-0.7-0.7-0.7-1.2v-2.5
				C293.4,210.4,294.9,207.8,294.9,204.9z M286.4,191.4c1.4,0,2.5,1.1,2.5,2.5c0,0.2,0,0.3,0,0.5c-0.8-0.2-1.6-0.4-2.5-0.4
				c-0.9,0-1.7,0.1-2.5,0.4c0-0.1,0-0.3,0-0.4C283.9,192.5,285,191.4,286.4,191.4z M286.4,196.3c3.4,0,6.2,2.8,6.2,6.2v0.4
				c-4.8,1.5-7.6-2.2-7.7-2.3c-0.2-0.3-0.5-0.4-0.8-0.5c-0.3,0-0.7,0.1-0.9,0.3c-1.1,1.1-2.2,1.6-2.9,1.9
				C280.3,199,283,196.3,286.4,196.3z M286.4,218l-2.6-2.6c0.1-0.3,0.1-0.6,0.1-0.9V213c0.8,0.2,1.6,0.4,2.5,0.4
				c0.9,0,1.7-0.1,2.5-0.4v1.4c0,0.3,0,0.6,0.1,0.9L286.4,218z M286.4,211.1c-3.4,0-6.2-2.8-6.2-6.2v-0.2c0.9-0.2,2.3-0.7,3.7-1.8
				c0.5,0.5,1.2,1,2.1,1.5c1.1,0.6,2.6,1.1,4.4,1.1c0.7,0,1.4-0.1,2.2-0.3C292.4,208.5,289.7,211.1,286.4,211.1z"/>
		</g>
	</g>
	<g class="st1">
		<g>
			<path class="st2" d="M349.7,215.1l-6.4-3.2c-0.4-0.2-0.7-0.7-0.7-1.2v-1.6c1.5-1.3,2.4-3.3,2.4-5.4v-1.3c0,0,0.1,0,0.1,0
				c0.6,0,1.1-0.5,1.1-1.1v-2.4c0-4-3.3-7.3-7.3-7.3h-2.4c-4,0-7.3,3.3-7.3,7.3v2.4c0,0.6,0.5,1.1,1.1,1.1c0,0,0,0,0.1,0v1.3
				c0,2.2,0.9,4.1,2.4,5.4v1.6c0,0.5-0.3,0.9-0.7,1.2c-0.6,0.3-0.8,1-0.5,1.5c0.2,0.4,0.6,0.6,1,0.6c0.2,0,0.3,0,0.5-0.1
				c0.2-0.1,0.4-0.2,0.6-0.4l2.8,2.8v15.4c0,0.6,0.5,1.1,1.1,1.1s1.1-0.5,1.1-1.1v-15.4l2.8-2.8c0.2,0.1,0.4,0.3,0.6,0.4l6.2,3.1
				l-1.9,1.9c-0.9,0.9-1.4,2.1-1.4,3.4v9.5c0,0.6,0.5,1.1,1.1,1.1s1.1-0.5,1.1-1.1v-9.5c0-0.7,0.3-1.3,0.7-1.8l1.8-1.8
				c0.1,0.2,0.1,0.4,0.1,0.6v12.4c0,0.6,0.5,1.1,1.1,1.1s1.1-0.5,1.1-1.1v-12.4C352.4,217.6,351.4,216,349.7,215.1z M331.6,199.9
				v-1.1h0c0-2.7,2.2-5,5-5h2.4c2.7,0,5,2.2,5,5v1.3c-5-0.3-8-2.2-8-2.2c-0.2-0.1-0.4-0.2-0.6-0.2c-0.3,0-0.6,0.1-0.8,0.3
				C333.4,199.1,332.4,199.6,331.6,199.9z M337.8,214.3l-2.6-2.6c0.1-0.3,0.1-0.6,0.1-0.9v-0.2c0.8,0.3,1.6,0.5,2.5,0.5
				s1.7-0.2,2.5-0.5v0.2c0,0.3,0,0.6,0.1,0.9L337.8,214.3z M337.8,208.7c-2.7,0-5-2.2-5-5v-1.8l0,0c0.8-0.3,1.7-0.8,2.7-1.6
				c1.2,0.6,3.7,1.7,7.3,2.1v1.4C342.8,206.5,340.5,208.7,337.8,208.7z"/>
		</g>
	</g>
</g>
<g class="st1">
	<g class="st1">
		<g>
			<path class="st2" d="M71.6,249.4l-6.7-3c-0.5-0.2-0.8-0.7-0.8-1.2v-1.8c2.2-1.8,3.7-4.5,3.7-7.6v-2.6c0.7-0.4,1.2-1.2,1.2-2.1
				V231c0-5.4-4.4-9.7-9.7-9.7h-2.4c-5.4,0-9.7,4.4-9.7,9.7v2.3c0,0.8,0.3,1.5,0.9,1.9c0.1,0.1,0.2,0.1,0.3,0.2v0.5
				c0,3.1,1.4,5.8,3.7,7.6v1.8c0,0.5-0.3,1-0.8,1.2l-6.7,3c-2.2,1-3.6,3.1-3.6,5.5v15.2c0,0.6,0.5,1.1,1.1,1.1s1.1-0.5,1.1-1.1
				v-15.2c0-0.1,0-0.3,0-0.4l3.1,3.1c0.5,0.5,0.7,1.1,0.7,1.8v10.7c0,0.6,0.5,1.1,1.1,1.1c0.6,0,1.1-0.5,1.1-1.1v-10.7
				c0-1.3-0.5-2.5-1.4-3.4l-3.7-3.7c0.3-0.3,0.7-0.6,1.2-0.8l6.5-2.9l4.8,4.8v16.7c0,0.6,0.5,1.1,1.1,1.1c0.6,0,1.1-0.5,1.1-1.1
				v-16.7l4.8-4.8l6.5,2.9c0.4,0.2,0.8,0.5,1.2,0.8l-3.7,3.7c-0.9,0.9-1.4,2.1-1.4,3.4v10.7c0,0.6,0.5,1.1,1.1,1.1
				c0.6,0,1.1-0.5,1.1-1.1v-10.7c0-0.7,0.3-1.3,0.7-1.8l3.1-3.1c0,0.1,0,0.3,0,0.4v15.2c0,0.6,0.5,1.1,1.1,1.1
				c0.6,0,1.1-0.5,1.1-1.1v-15.2C75.2,252.6,73.8,250.4,71.6,249.4z M58.2,251.4l-4.3-4.3c0.3-0.5,0.5-1.2,0.5-1.8v-0.5
				c1.2,0.5,2.4,0.8,3.7,0.8s2.6-0.3,3.7-0.8v0.5c0,0.7,0.2,1.3,0.5,1.8L58.2,251.4z M58.2,243.3c-4.1,0-7.4-3.3-7.4-7.4v-0.5
				c0.7-0.3,1.4-0.7,2.1-1.3c0.5-0.4,0.5-1.2,0.1-1.6c-0.4-0.5-1.2-0.5-1.6-0.1c-0.6,0.5-1.1,0.9-1.7,1c0,0,0,0,0,0c0,0,0,0,0-0.1
				V231c0-4.1,3.3-7.4,7.4-7.4h2.4c4.1,0,7.4,3.3,7.4,7.4v0.2c0,0,0,0.1-0.1,0.1c-6.9,1.4-10.3-1.2-11.5-2.4c-0.4-0.4-1.2-0.4-1.6,0
				c-0.4,0.4-0.4,1.2,0,1.6c3.6,3.6,8.7,3.6,11.9,3.2v2.1C65.6,240,62.2,243.3,58.2,243.3z"/>
		</g>
	</g>
	<g class="st1">
		<g>
			<path class="st2" d="M39.7,243.2v-2.4c0-3-1.6-5.6-3.9-7.1c0.1-0.5,0.2-0.9,0.2-1.4c0-2.7-2.2-4.8-4.8-4.8s-4.8,2.2-4.8,4.8
				c0,0.5,0.1,1,0.2,1.4c-2.3,1.5-3.9,4.1-3.9,7.1v2.4c0,2.9,1.5,5.4,3.7,7v2.5c0,0.5-0.3,0.9-0.7,1.2l-4,2
				c-1.6,0.8-2.7,2.5-2.7,4.3v10c0,0.6,0.5,1.1,1.1,1.1c0.6,0,1.1-0.5,1.1-1.1v-9.5l1.9,1.9c0.5,0.5,0.7,1.1,0.7,1.8v5.8
				c0,0.6,0.5,1.1,1.1,1.1s1.1-0.5,1.1-1.1v-5.8c0-1.3-0.5-2.5-1.4-3.4l-2.6-2.6c0,0,0,0,0,0c0.2-0.1,0.3-0.3,0.5-0.4l4-2
				c0.2-0.1,0.4-0.2,0.6-0.4l2.8,2.8v11.8c0,0.6,0.5,1.1,1.1,1.1c0.6,0,1.1-0.5,1.1-1.1v-11.8l2.8-2.8c0.2,0.1,0.4,0.3,0.6,0.4
				l1.1,0.5c0.2,0.1,0.3,0.1,0.5,0.1c0.4,0,0.8-0.2,1-0.6c0.3-0.6,0.1-1.3-0.5-1.5l-1.1-0.5c-0.4-0.2-0.7-0.7-0.7-1.2v-2.5
				C38.3,248.7,39.7,246.1,39.7,243.2z M31.2,229.7c1.4,0,2.5,1.1,2.5,2.5c0,0.2,0,0.3,0,0.5c-0.8-0.2-1.6-0.4-2.5-0.4
				c-0.9,0-1.7,0.1-2.5,0.4c0-0.1,0-0.3,0-0.4C28.7,230.8,29.8,229.7,31.2,229.7z M31.2,234.6c3.4,0,6.2,2.8,6.2,6.2v0.4
				c-4.8,1.5-7.6-2.2-7.7-2.3c-0.2-0.3-0.5-0.4-0.8-0.5c-0.3,0-0.7,0.1-0.9,0.3c-1.1,1.1-2.2,1.6-2.9,1.9
				C25.1,237.3,27.9,234.6,31.2,234.6z M31.2,256.3l-2.6-2.6c0.1-0.3,0.1-0.6,0.1-0.9v-1.4c0.8,0.2,1.6,0.4,2.5,0.4
				c0.9,0,1.7-0.1,2.5-0.4v1.4c0,0.3,0,0.6,0.1,0.9L31.2,256.3z M31.2,249.4c-3.4,0-6.2-2.8-6.2-6.2V243c0.9-0.2,2.3-0.7,3.7-1.8
				c0.5,0.5,1.2,1,2.1,1.5c1.1,0.6,2.6,1.1,4.4,1.1c0.7,0,1.4-0.1,2.2-0.3C37.2,246.8,34.5,249.4,31.2,249.4z"/>
		</g>
	</g>
	<g class="st1">
		<g>
			<path class="st2" d="M94.6,253.4l-6.4-3.2c-0.4-0.2-0.7-0.7-0.7-1.2v-1.6c1.5-1.3,2.4-3.3,2.4-5.4v-1.3c0,0,0.1,0,0.1,0
				c0.6,0,1.1-0.5,1.1-1.1v-2.4c0-4-3.3-7.3-7.3-7.3h-2.4c-4,0-7.3,3.3-7.3,7.3v2.4c0,0.6,0.5,1.1,1.1,1.1c0,0,0,0,0.1,0v1.3
				c0,2.2,0.9,4.1,2.4,5.4v1.6c0,0.5-0.3,0.9-0.7,1.2c-0.6,0.3-0.8,1-0.5,1.5c0.2,0.4,0.6,0.6,1,0.6c0.2,0,0.3,0,0.5-0.1
				c0.2-0.1,0.4-0.2,0.6-0.4l2.8,2.8v15.4c0,0.6,0.5,1.1,1.1,1.1c0.6,0,1.1-0.5,1.1-1.1v-15.4l2.8-2.8c0.2,0.1,0.4,0.3,0.6,0.4
				l6.2,3.1l-1.9,1.9c-0.9,0.9-1.4,2.1-1.4,3.4v9.5c0,0.6,0.5,1.1,1.1,1.1c0.6,0,1.1-0.5,1.1-1.1v-9.5c0-0.7,0.3-1.3,0.7-1.8
				l1.8-1.8c0.1,0.2,0.1,0.4,0.1,0.6v12.4c0,0.6,0.5,1.1,1.1,1.1c0.6,0,1.1-0.5,1.1-1.1v-12.4C97.2,255.9,96.2,254.2,94.6,253.4z
				 M76.4,238.2v-1.1h0c0-2.7,2.2-5,5-5h2.4c2.7,0,5,2.2,5,5v1.3c-5-0.3-8-2.2-8-2.2c-0.2-0.1-0.4-0.2-0.6-0.2
				c-0.3,0-0.6,0.1-0.8,0.3C78.3,237.4,77.2,237.9,76.4,238.2z M82.6,252.6L80,250c0.1-0.3,0.1-0.6,0.1-0.9v-0.2
				c0.8,0.3,1.6,0.5,2.5,0.5c0.9,0,1.7-0.2,2.5-0.5v0.2c0,0.3,0,0.6,0.1,0.9L82.6,252.6z M82.6,247c-2.7,0-5-2.2-5-5v-1.8l0,0
				c0.8-0.3,1.7-0.8,2.7-1.6c1.2,0.6,3.7,1.7,7.3,2.1v1.4C87.6,244.7,85.4,247,82.6,247z"/>
		</g>
	</g>
</g>
<g class="st3">
	<g>
		<g>
			<path class="st2" d="M208.6,144.1c-4.9,0-9,4-9,9c0,1.8,0.5,3.5,1.5,4.9l-9.7,9.7c-1.4-0.9-3.1-1.5-4.9-1.5c-1.9,0-3.6,0.6-5,1.6
				l-9.8-9.8c0.9-1.4,1.5-3.1,1.5-4.9c0-4.9-4-9-9-9c-4.9,0-9,4-9,9c0,1.8,0.5,3.5,1.5,4.9l-9.7,9.7c-1.4-0.9-3.1-1.5-4.9-1.5
				c-4.9,0-9,4-9,9c0,4.9,4,9,9,9c4.9,0,9-4,9-9c0-1.8-0.5-3.5-1.5-4.9l9.7-9.7c1.4,0.9,3.1,1.5,4.9,1.5c1.8,0,3.5-0.5,4.9-1.5
				l9.8,9.8c-0.9,1.4-1.4,3-1.4,4.7c0,4.9,4,9,9,9c4.9,0,9-4,9-9c0-1.8-0.5-3.5-1.5-4.9l9.7-9.7c1.4,0.9,3.1,1.5,4.9,1.5
				c4.9,0,9-4,9-9C217.6,148.1,213.5,144.1,208.6,144.1z M142.1,180.4c-2.9,0-5.3-2.4-5.3-5.3c0-2.9,2.4-5.3,5.3-5.3
				c2.9,0,5.3,2.4,5.3,5.3C147.4,178.1,145,180.4,142.1,180.4z M164.2,158.3c-2.9,0-5.3-2.4-5.3-5.3c0-2.9,2.4-5.3,5.3-5.3
				s5.3,2.4,5.3,5.3S167.1,158.3,164.2,158.3z M186.5,180.4c-2.9,0-5.3-2.4-5.3-5.3s2.4-5.3,5.3-5.3c2.9,0,5.3,2.4,5.3,5.3
				C191.8,178.1,189.4,180.4,186.5,180.4z M208.6,158.3c-2.9,0-5.3-2.4-5.3-5.3c0-2.9,2.4-5.3,5.3-5.3c2.9,0,5.3,2.4,5.3,5.3
				S211.5,158.3,208.6,158.3z"/>
		</g>
	</g>
	<g>
		<g>
			<path class="st2" d="M162.3,166.9c-0.7-0.7-1.9-0.7-2.6,0l-3.8,3.8c-0.7,0.7-0.7,1.9,0,2.6c0.4,0.4,0.8,0.5,1.3,0.5
				s0.9-0.2,1.3-0.5l3.8-3.8C163,168.8,163,167.6,162.3,166.9z"/>
		</g>
	</g>
	<g>
		<g>
			<path class="st2" d="M194.8,155c-0.7-0.7-1.9-0.7-2.6,0l-3.8,3.8c-0.7,0.7-0.7,1.9,0,2.6c0.4,0.4,0.8,0.5,1.3,0.5
				c0.5,0,0.9-0.2,1.3-0.5l3.8-3.8C195.5,156.9,195.5,155.8,194.8,155z"/>
		</g>
	</g>
</g>
<g class="st3">
	<g>
		<g>
			<path class="st2" d="M448.3,154.1c-2.5,0-4.5,2-4.5,4.5c0,0.9,0.3,1.7,0.7,2.4l-4.8,4.8c-0.7-0.5-1.5-0.7-2.4-0.7
				c-0.9,0-1.8,0.3-2.5,0.8l-4.9-4.9c0.5-0.7,0.7-1.5,0.7-2.4c0-2.5-2-4.5-4.5-4.5s-4.5,2-4.5,4.5c0,0.9,0.3,1.7,0.7,2.4l-4.8,4.8
				c-0.7-0.5-1.5-0.7-2.4-0.7c-2.5,0-4.5,2-4.5,4.5s2,4.5,4.5,4.5s4.5-2,4.5-4.5c0-0.9-0.3-1.7-0.7-2.4l4.8-4.8
				c0.7,0.5,1.5,0.7,2.4,0.7c0.9,0,1.7-0.3,2.4-0.7l4.9,4.9c-0.4,0.7-0.7,1.5-0.7,2.4c0,2.5,2,4.5,4.5,4.5s4.5-2,4.5-4.5
				c0-0.9-0.3-1.7-0.7-2.4l4.8-4.8c0.7,0.5,1.5,0.7,2.4,0.7c2.5,0,4.5-2,4.5-4.5C452.8,156.1,450.8,154.1,448.3,154.1z M415.1,172.3
				c-1.4,0-2.6-1.2-2.6-2.6c0-1.4,1.2-2.6,2.6-2.6c1.4,0,2.6,1.2,2.6,2.6C417.7,171.1,416.6,172.3,415.1,172.3z M426.1,161.2
				c-1.4,0-2.6-1.2-2.6-2.6c0-1.4,1.2-2.6,2.6-2.6s2.6,1.2,2.6,2.6S427.6,161.2,426.1,161.2z M437.3,172.3c-1.4,0-2.6-1.2-2.6-2.6
				s1.2-2.6,2.6-2.6c1.4,0,2.6,1.2,2.6,2.6C439.9,171.1,438.8,172.3,437.3,172.3z M448.3,161.2c-1.4,0-2.6-1.2-2.6-2.6
				c0-1.4,1.2-2.6,2.6-2.6c1.4,0,2.6,1.2,2.6,2.6S449.8,161.2,448.3,161.2z"/>
		</g>
	</g>
	<g>
		<g>
			<path class="st2" d="M425.2,165.5c-0.4-0.4-0.9-0.4-1.3,0l-1.9,1.9c-0.4,0.4-0.4,0.9,0,1.3c0.2,0.2,0.4,0.3,0.7,0.3
				c0.2,0,0.5-0.1,0.7-0.3l1.9-1.9C425.6,166.4,425.6,165.9,425.2,165.5z"/>
		</g>
	</g>
	<g>
		<g>
			<path class="st2" d="M441.4,159.6c-0.4-0.4-0.9-0.4-1.3,0l-1.9,1.9c-0.4,0.4-0.4,0.9,0,1.3c0.2,0.2,0.4,0.3,0.7,0.3
				c0.2,0,0.5-0.1,0.7-0.3l1.9-1.9C441.8,160.5,441.8,159.9,441.4,159.6z"/>
		</g>
	</g>
</g>
<g class="st3">
	<g>
		<g>
			<path class="st2" d="M333.9,317c-3.7,0-6.7,3-6.7,6.7c0,1.4,0.4,2.6,1.1,3.7l-7.3,7.3c-1.1-0.7-2.3-1.1-3.7-1.1
				c-1.4,0-2.7,0.4-3.8,1.2l-7.3-7.3c0.7-1.1,1.1-2.3,1.1-3.7c0-3.7-3-6.7-6.7-6.7c-3.7,0-6.7,3-6.7,6.7c0,1.4,0.4,2.6,1.1,3.7
				l-7.3,7.3c-1.1-0.7-2.3-1.1-3.7-1.1c-3.7,0-6.7,3-6.7,6.7s3,6.7,6.7,6.7s6.7-3,6.7-6.7c0-1.4-0.4-2.6-1.1-3.7l7.3-7.3
				c1.1,0.7,2.3,1.1,3.7,1.1c1.4,0,2.6-0.4,3.7-1.1l7.4,7.4c-0.6,1-1,2.2-1,3.5c0,3.7,3,6.7,6.7,6.7s6.7-3,6.7-6.7
				c0-1.4-0.4-2.6-1.1-3.7l7.3-7.3c1.1,0.7,2.3,1.1,3.7,1.1c3.7,0,6.7-3,6.7-6.7C340.7,320,337.6,317,333.9,317z M284.1,344.2
				c-2.2,0-3.9-1.8-3.9-3.9c0-2.2,1.8-3.9,3.9-3.9c2.2,0,3.9,1.8,3.9,3.9C288,342.5,286.2,344.2,284.1,344.2z M300.6,327.7
				c-2.2,0-3.9-1.8-3.9-3.9c0-2.2,1.8-3.9,3.9-3.9c2.2,0,3.9,1.8,3.9,3.9C304.6,325.9,302.8,327.7,300.6,327.7z M317.4,344.2
				c-2.2,0-3.9-1.8-3.9-3.9c0-2.2,1.8-3.9,3.9-3.9c2.2,0,3.9,1.8,3.9,3.9C321.3,342.5,319.5,344.2,317.4,344.2z M333.9,327.7
				c-2.2,0-3.9-1.8-3.9-3.9c0-2.2,1.8-3.9,3.9-3.9c2.2,0,3.9,1.8,3.9,3.9C337.9,325.9,336.1,327.7,333.9,327.7z"/>
		</g>
	</g>
	<g>
		<g>
			<path class="st2" d="M299.2,334.1c-0.5-0.5-1.4-0.5-2,0l-2.8,2.8c-0.5,0.5-0.5,1.4,0,2c0.3,0.3,0.6,0.4,1,0.4s0.7-0.1,1-0.4
				l2.8-2.8C299.7,335.5,299.7,334.6,299.2,334.1z"/>
		</g>
	</g>
	<g>
		<g>
			<path class="st2" d="M323.6,325.2c-0.5-0.5-1.4-0.5-2,0l-2.8,2.8c-0.5,0.5-0.5,1.4,0,2c0.3,0.3,0.6,0.4,1,0.4
				c0.4,0,0.7-0.1,1-0.4l2.8-2.8C324.1,326.6,324.1,325.7,323.6,325.2z"/>
		</g>
	</g>
</g>
<g class="st3">
	<g>
		<g>
			<path class="st2" d="M353.1,42c-4.3,0-7.8,3.5-7.8,7.8c0,1.6,0.5,3,1.3,4.3l-8.5,8.5c-1.2-0.8-2.7-1.3-4.3-1.3
				c-1.6,0-3.2,0.5-4.4,1.4l-8.6-8.6c0.8-1.2,1.3-2.7,1.3-4.3c0-4.3-3.5-7.8-7.8-7.8s-7.8,3.5-7.8,7.8c0,1.6,0.5,3,1.3,4.3l-8.5,8.5
				c-1.2-0.8-2.7-1.3-4.3-1.3c-4.3,0-7.8,3.5-7.8,7.8c0,4.3,3.5,7.8,7.8,7.8c4.3,0,7.8-3.5,7.8-7.8c0-1.6-0.5-3-1.3-4.3l8.5-8.5
				c1.2,0.8,2.7,1.3,4.3,1.3c1.6,0,3-0.5,4.3-1.3l8.6,8.6c-0.8,1.2-1.2,2.6-1.2,4.1c0,4.3,3.5,7.8,7.8,7.8c4.3,0,7.8-3.5,7.8-7.8
				c0-1.6-0.5-3-1.3-4.3l8.5-8.5c1.2,0.8,2.7,1.3,4.3,1.3c4.3,0,7.8-3.5,7.8-7.8C360.9,45.6,357.4,42,353.1,42z M294.9,73.8
				c-2.5,0-4.6-2.1-4.6-4.6c0-2.5,2.1-4.6,4.6-4.6c2.5,0,4.6,2.1,4.6,4.6C299.5,71.7,297.4,73.8,294.9,73.8z M314.2,54.5
				c-2.5,0-4.6-2.1-4.6-4.6c0-2.5,2.1-4.6,4.6-4.6c2.5,0,4.6,2.1,4.6,4.6C318.8,52.4,316.8,54.5,314.2,54.5z M333.8,73.8
				c-2.5,0-4.6-2.1-4.6-4.6s2.1-4.6,4.6-4.6c2.5,0,4.6,2.1,4.6,4.6C338.4,71.7,336.3,73.8,333.8,73.8z M353.1,54.5
				c-2.5,0-4.6-2.1-4.6-4.6c0-2.5,2.1-4.6,4.6-4.6c2.5,0,4.6,2.1,4.6,4.6C357.7,52.4,355.6,54.5,353.1,54.5z"/>
		</g>
	</g>
	<g>
		<g>
			<path class="st2" d="M312.6,62c-0.6-0.6-1.7-0.6-2.3,0l-3.3,3.3c-0.6,0.6-0.6,1.7,0,2.3c0.3,0.3,0.7,0.5,1.1,0.5s0.8-0.2,1.1-0.5
				l3.3-3.3C313.2,63.6,313.2,62.6,312.6,62z"/>
		</g>
	</g>
	<g>
		<g>
			<path class="st2" d="M341,51.6c-0.6-0.6-1.7-0.6-2.3,0l-3.3,3.3c-0.6,0.6-0.6,1.7,0,2.3c0.3,0.3,0.7,0.5,1.1,0.5
				c0.4,0,0.8-0.2,1.1-0.5l3.3-3.3C341.6,53.3,341.6,52.2,341,51.6z"/>
		</g>
	</g>
</g>
<g class="st1">
	<g class="st1">
		<g>
			<path class="st2" d="M181,747.9l-4.7-2.1c-0.3-0.1-0.5-0.5-0.5-0.8v-1.3c1.6-1.2,2.6-3.2,2.6-5.3v-1.8c0.5-0.3,0.9-0.8,0.9-1.5
				V735c0-3.7-3-6.8-6.8-6.8h-1.7c-3.7,0-6.8,3-6.8,6.8v1.6c0,0.5,0.2,1,0.6,1.3c0.1,0.1,0.1,0.1,0.2,0.1v0.4c0,2.2,1,4.1,2.6,5.3
				v1.3c0,0.4-0.2,0.7-0.5,0.8l-4.7,2.1c-1.5,0.7-2.5,2.2-2.5,3.9v10.6c0,0.4,0.4,0.8,0.8,0.8c0.4,0,0.8-0.4,0.8-0.8v-10.6
				c0-0.1,0-0.2,0-0.3l2.1,2.1c0.3,0.3,0.5,0.8,0.5,1.3v7.5c0,0.4,0.4,0.8,0.8,0.8c0.4,0,0.8-0.4,0.8-0.8v-7.5c0-0.9-0.4-1.7-1-2.4
				L162,750c0.2-0.2,0.5-0.4,0.8-0.6l4.6-2l3.4,3.4v11.7c0,0.4,0.4,0.8,0.8,0.8c0.4,0,0.8-0.4,0.8-0.8v-11.7l3.4-3.4l4.6,2
				c0.3,0.1,0.6,0.3,0.8,0.6l-2.6,2.6c-0.6,0.6-1,1.5-1,2.4v7.5c0,0.4,0.4,0.8,0.8,0.8c0.4,0,0.8-0.4,0.8-0.8v-7.5
				c0-0.5,0.2-0.9,0.5-1.3l2.1-2.1c0,0.1,0,0.2,0,0.3v10.6c0,0.4,0.4,0.8,0.8,0.8c0.4,0,0.8-0.4,0.8-0.8v-10.6
				C183.5,750.1,182.5,748.6,181,747.9z M171.6,749.3l-3-3c0.2-0.4,0.4-0.8,0.4-1.3v-0.3c0.8,0.3,1.7,0.5,2.6,0.5
				c0.9,0,1.8-0.2,2.6-0.5v0.3c0,0.5,0.1,0.9,0.4,1.3L171.6,749.3z M171.6,743.6c-2.9,0-5.2-2.3-5.2-5.2v-0.4c0.5-0.2,1-0.5,1.5-0.9
				c0.3-0.3,0.3-0.8,0-1.1c-0.3-0.3-0.8-0.3-1.1,0c-0.4,0.4-0.8,0.6-1.2,0.7c0,0,0,0,0,0c0,0,0,0,0-0.1V735c0-2.9,2.3-5.2,5.2-5.2
				h1.7c2.9,0,5.2,2.3,5.2,5.2v0.2c0,0,0,0,0,0.1c-4.8,0.9-7.2-0.8-8-1.7c-0.3-0.3-0.8-0.3-1.1,0c-0.3,0.3-0.3,0.8,0,1.1
				c2.5,2.5,6.1,2.5,8.3,2.3v1.4C176.8,741.3,174.4,743.6,171.6,743.6z"/>
		</g>
	</g>
	<g class="st1">
		<g>
			<path class="st2" d="M158.7,743.6v-1.7c0-2.1-1.1-3.9-2.7-5c0.1-0.3,0.2-0.7,0.2-1c0-1.9-1.5-3.4-3.4-3.4s-3.4,1.5-3.4,3.4
				c0,0.3,0.1,0.7,0.2,1c-1.6,1.1-2.7,2.9-2.7,5v1.7c0,2,1,3.8,2.6,4.9v1.8c0,0.3-0.2,0.7-0.5,0.8l-2.8,1.4c-1.1,0.6-1.9,1.7-1.9,3
				v7c0,0.4,0.4,0.8,0.8,0.8c0.4,0,0.8-0.4,0.8-0.8v-6.6l1.3,1.3c0.3,0.3,0.5,0.8,0.5,1.3v4.1c0,0.4,0.4,0.8,0.8,0.8
				s0.8-0.4,0.8-0.8v-4.1c0-0.9-0.4-1.7-1-2.4l-1.8-1.8c0,0,0,0,0,0c0.1-0.1,0.2-0.2,0.4-0.3l2.8-1.4c0.1-0.1,0.3-0.2,0.4-0.2l2,2
				v8.2c0,0.4,0.4,0.8,0.8,0.8s0.8-0.4,0.8-0.8v-8.2l2-2c0.1,0.1,0.3,0.2,0.4,0.2l0.8,0.4c0.1,0.1,0.2,0.1,0.4,0.1
				c0.3,0,0.6-0.2,0.7-0.4c0.2-0.4,0-0.9-0.4-1.1l-0.8-0.4c-0.3-0.2-0.5-0.5-0.5-0.8v-1.8C157.7,747.4,158.7,745.6,158.7,743.6z
				 M152.7,734.1c1,0,1.8,0.8,1.8,1.8c0,0.1,0,0.2,0,0.3c-0.6-0.2-1.1-0.3-1.7-0.3c-0.6,0-1.2,0.1-1.7,0.3c0-0.1,0-0.2,0-0.3
				C151,734.9,151.8,734.1,152.7,734.1z M152.7,737.5c2.4,0,4.3,1.9,4.3,4.3v0.3c-3.3,1-5.3-1.5-5.4-1.6c-0.1-0.2-0.4-0.3-0.6-0.3
				c-0.2,0-0.5,0.1-0.6,0.2c-0.8,0.8-1.5,1.1-2.1,1.3C148.5,739.4,150.4,737.5,152.7,737.5z M152.7,752.7l-1.9-1.9
				c0.1-0.2,0.1-0.4,0.1-0.6v-1c0.6,0.2,1.2,0.3,1.8,0.3s1.2-0.1,1.8-0.3v1c0,0.2,0,0.4,0.1,0.6L152.7,752.7z M152.7,747.9
				c-2.4,0-4.3-1.9-4.3-4.3v-0.2c0.6-0.1,1.6-0.5,2.6-1.3c0.3,0.3,0.8,0.7,1.5,1.1c0.8,0.4,1.8,0.8,3.1,0.8c0.5,0,1-0.1,1.5-0.2
				C157,746.1,155.1,747.9,152.7,747.9z"/>
		</g>
	</g>
	<g class="st1">
		<g>
			<path class="st2" d="M197.1,750.7l-4.5-2.2c-0.3-0.2-0.5-0.5-0.5-0.8v-1.1c1-0.9,1.7-2.3,1.7-3.8v-0.9c0,0,0,0,0.1,0
				c0.4,0,0.8-0.4,0.8-0.8v-1.7c0-2.8-2.3-5.1-5.1-5.1h-1.7c-2.8,0-5.1,2.3-5.1,5.1v1.7c0,0.4,0.4,0.8,0.8,0.8c0,0,0,0,0.1,0v0.9
				c0,1.5,0.7,2.9,1.7,3.8v1.1c0,0.3-0.2,0.7-0.5,0.8c-0.4,0.2-0.6,0.7-0.4,1.1c0.1,0.3,0.4,0.4,0.7,0.4c0.1,0,0.2,0,0.4-0.1
				c0.1-0.1,0.3-0.2,0.4-0.2l2,2v10.8c0,0.4,0.4,0.8,0.8,0.8s0.8-0.4,0.8-0.8v-10.8l2-2c0.1,0.1,0.3,0.2,0.4,0.2l4.3,2.2l-1.3,1.3
				c-0.6,0.6-1,1.5-1,2.4v6.6c0,0.4,0.4,0.8,0.8,0.8c0.4,0,0.8-0.4,0.8-0.8v-6.6c0-0.5,0.2-0.9,0.5-1.3l1.2-1.2
				c0,0.1,0.1,0.3,0.1,0.5v8.7c0,0.4,0.4,0.8,0.8,0.8c0.4,0,0.8-0.4,0.8-0.8v-8.7C198.9,752.4,198.2,751.3,197.1,750.7z M184.4,740
				v-0.7h0c0-1.9,1.6-3.5,3.5-3.5h1.7c1.9,0,3.5,1.6,3.5,3.5v0.9c-3.5-0.2-5.6-1.5-5.6-1.6c-0.1-0.1-0.3-0.1-0.4-0.1
				c-0.2,0-0.4,0.1-0.6,0.2C185.7,739.5,184.9,739.9,184.4,740z M188.7,750.2l-1.9-1.9c0.1-0.2,0.1-0.4,0.1-0.6v-0.2
				c0.6,0.2,1.1,0.3,1.8,0.3s1.2-0.1,1.8-0.3v0.2c0,0.2,0,0.4,0.1,0.6L188.7,750.2z M188.7,746.2c-1.9,0-3.5-1.6-3.5-3.5v-1.3l0,0
				c0.6-0.2,1.2-0.6,1.9-1.1c0.8,0.4,2.6,1.2,5.1,1.4v1C192.2,744.6,190.6,746.2,188.7,746.2z"/>
		</g>
	</g>
</g>
<g class="st1">
	<g class="st1">
		<g>
			<path class="st2" d="M346.1,466.4l-8-3.5c-0.6-0.3-0.9-0.8-0.9-1.4v-2.2c2.7-2.1,4.4-5.4,4.4-9.1V447c0.9-0.5,1.5-1.4,1.5-2.5
				v-0.3c0-6.4-5.2-11.6-11.6-11.6h-2.9c-6.4,0-11.6,5.2-11.6,11.6v2.7c0,0.9,0.4,1.8,1.1,2.3c0.1,0.1,0.2,0.2,0.4,0.2v0.6
				c0,3.7,1.7,7,4.4,9.1v2.2c0,0.6-0.4,1.2-0.9,1.4l-8,3.5c-2.6,1.2-4.3,3.8-4.3,6.6v18.2c0,0.8,0.6,1.4,1.4,1.4
				c0.8,0,1.4-0.6,1.4-1.4V473c0-0.2,0-0.3,0-0.5l3.7,3.7c0.6,0.6,0.9,1.3,0.9,2.1v12.9c0,0.8,0.6,1.4,1.4,1.4
				c0.8,0,1.4-0.6,1.4-1.4v-12.9c0-1.5-0.6-3-1.7-4.1l-4.4-4.4c0.4-0.4,0.9-0.7,1.4-1l7.8-3.5l5.8,5.8v20c0,0.8,0.6,1.4,1.4,1.4
				s1.4-0.6,1.4-1.4v-20l5.8-5.8l7.8,3.5c0.5,0.2,1,0.6,1.4,1l-4.4,4.4c-1.1,1.1-1.7,2.5-1.7,4.1v12.9c0,0.8,0.6,1.4,1.4,1.4
				c0.8,0,1.4-0.6,1.4-1.4v-12.9c0-0.8,0.3-1.6,0.9-2.1l3.7-3.7c0,0.2,0,0.3,0,0.5v18.2c0,0.8,0.6,1.4,1.4,1.4
				c0.8,0,1.4-0.6,1.4-1.4V473C350.4,470.1,348.7,467.5,346.1,466.4z M329.9,468.7l-5.1-5.1c0.4-0.7,0.6-1.4,0.6-2.2v-0.6
				c1.4,0.6,2.9,0.9,4.5,0.9s3.1-0.3,4.5-0.9v0.6c0,0.8,0.2,1.5,0.6,2.2L329.9,468.7z M329.9,459c-4.9,0-8.9-4-8.9-8.9v-0.6
				c0.9-0.3,1.7-0.9,2.5-1.6c0.6-0.5,0.6-1.4,0.1-1.9c-0.5-0.6-1.4-0.6-1.9-0.1c-0.7,0.6-1.4,1-2,1.2c0,0,0,0,0,0c0,0,0-0.1,0-0.1
				v-2.7c0-4.9,4-8.9,8.9-8.9h2.9c4.9,0,8.9,4,8.9,8.9v0.3c0,0,0,0.1-0.1,0.1c-8.2,1.6-12.3-1.4-13.7-2.8c-0.5-0.5-1.4-0.5-1.9,0
				c-0.5,0.5-0.5,1.4,0,1.9c4.3,4.3,10.5,4.3,14.3,3.9v2.5C338.8,455,334.8,459,329.9,459z"/>
		</g>
	</g>
	<g class="st1">
		<g>
			<path class="st2" d="M307.8,458.9v-2.9c0-3.6-1.9-6.7-4.7-8.6c0.2-0.6,0.3-1.1,0.3-1.7c0-3.2-2.6-5.8-5.8-5.8
				c-3.2,0-5.8,2.6-5.8,5.8c0,0.6,0.1,1.2,0.3,1.7c-2.8,1.8-4.7,5-4.7,8.6v2.9c0,3.5,1.7,6.5,4.4,8.4v3c0,0.6-0.3,1.1-0.9,1.4
				l-4.8,2.4c-2,1-3.2,3-3.2,5.2v12c0,0.8,0.6,1.4,1.4,1.4s1.4-0.6,1.4-1.4v-11.4l2.2,2.2c0.6,0.6,0.9,1.3,0.9,2.1v7
				c0,0.8,0.6,1.4,1.4,1.4c0.8,0,1.4-0.6,1.4-1.4v-7c0-1.5-0.6-3-1.7-4.1l-3.1-3.1c0,0,0,0,0,0c0.2-0.2,0.4-0.3,0.7-0.4l4.8-2.4
				c0.2-0.1,0.5-0.3,0.7-0.4l3.4,3.4v14.1c0,0.8,0.6,1.4,1.4,1.4c0.8,0,1.4-0.6,1.4-1.4v-14.1l3.4-3.4c0.2,0.2,0.4,0.3,0.7,0.4
				l1.3,0.7c0.2,0.1,0.4,0.1,0.6,0.1c0.5,0,1-0.3,1.2-0.8c0.3-0.7,0.1-1.5-0.6-1.8l-1.3-0.7c-0.5-0.3-0.9-0.8-0.9-1.4v-3
				C306.1,465.4,307.8,462.3,307.8,458.9z M297.6,442.6c1.7,0,3,1.4,3,3c0,0.2,0,0.4,0,0.5c-0.9-0.3-1.9-0.4-3-0.4c-1,0-2,0.2-3,0.4
				c0-0.2-0.1-0.4-0.1-0.5C294.6,444,296,442.6,297.6,442.6z M297.6,448.5c4.1,0,7.4,3.3,7.4,7.4v0.5c-5.7,1.8-9.1-2.6-9.3-2.8
				c-0.2-0.3-0.6-0.5-1-0.5c-0.4,0-0.8,0.1-1.1,0.4c-1.3,1.3-2.6,1.9-3.5,2.2C290.3,451.7,293.6,448.5,297.6,448.5z M297.6,474.6
				l-3.2-3.2c0.1-0.4,0.1-0.7,0.1-1.1v-1.7c1,0.3,2,0.5,3,0.5c1.1,0,2.1-0.2,3-0.5v1.7c0,0.4,0.1,0.7,0.1,1.1L297.6,474.6z
				 M297.6,466.3c-4.1,0-7.4-3.3-7.4-7.4v-0.3c1.1-0.3,2.7-0.8,4.4-2.2c0.6,0.6,1.5,1.3,2.5,1.9c1.3,0.7,3.1,1.4,5.2,1.4
				c0.8,0,1.7-0.1,2.6-0.3C304.8,463.2,301.6,466.3,297.6,466.3z"/>
		</g>
	</g>
	<g class="st1">
		<g>
			<path class="st2" d="M373.6,471.1l-7.7-3.8c-0.5-0.3-0.9-0.8-0.9-1.4v-1.9c1.8-1.6,2.9-3.9,2.9-6.5v-1.6c0,0,0.1,0,0.1,0
				c0.8,0,1.4-0.6,1.4-1.4v-2.9c0-4.8-3.9-8.7-8.7-8.7h-2.9c-4.8,0-8.7,3.9-8.7,8.7v2.9c0,0.8,0.6,1.4,1.4,1.4c0,0,0,0,0.1,0v1.6
				c0,2.6,1.1,4.9,2.9,6.5v1.9c0,0.6-0.3,1.1-0.9,1.4c-0.7,0.3-1,1.2-0.6,1.8c0.2,0.5,0.7,0.8,1.2,0.8c0.2,0,0.4,0,0.6-0.1
				c0.2-0.1,0.5-0.3,0.7-0.4l3.4,3.4v18.5c0,0.8,0.6,1.4,1.4,1.4c0.8,0,1.4-0.6,1.4-1.4v-18.5l3.4-3.4c0.2,0.2,0.4,0.3,0.7,0.4
				l7.4,3.7l-2.3,2.3c-1.1,1.1-1.7,2.5-1.7,4.1v11.4c0,0.8,0.6,1.4,1.4,1.4s1.4-0.6,1.4-1.4v-11.4c0-0.8,0.3-1.6,0.9-2.1l2.1-2.1
				c0.1,0.2,0.1,0.5,0.1,0.8v14.9c0,0.8,0.6,1.4,1.4,1.4c0.8,0,1.4-0.6,1.4-1.4v-14.9C376.8,474.1,375.6,472.1,373.6,471.1z
				 M351.9,452.8v-1.3h0c0-3.3,2.7-6,6-6h2.9c3.3,0,6,2.7,6,6v1.5c-6-0.3-9.6-2.6-9.6-2.7c-0.2-0.2-0.5-0.2-0.8-0.2
				c-0.4,0-0.7,0.1-1,0.4C354.1,451.9,352.8,452.5,351.9,452.8z M359.3,470.1l-3.2-3.2c0.1-0.4,0.1-0.7,0.1-1.1v-0.3
				c0.9,0.4,2,0.5,3,0.5c1.1,0,2.1-0.2,3-0.5v0.3c0,0.4,0.1,0.7,0.1,1.1L359.3,470.1z M359.3,463.4c-3.3,0-6-2.7-6-6v-2.2l0,0
				c1-0.4,2.1-1,3.2-2c1.4,0.8,4.5,2,8.7,2.5v1.7C365.3,460.7,362.6,463.4,359.3,463.4z"/>
		</g>
	</g>
</g>
<g class="st1">
	<g class="st1">
		<g>
			<path class="st2" d="M332.6,744.3l-5.3-2.4c-0.4-0.2-0.6-0.5-0.6-1v-1.5c1.8-1.4,2.9-3.6,2.9-6.1v-2.1c0.6-0.3,1-1,1-1.7v-0.2
				c0-4.3-3.5-7.8-7.8-7.8h-2c-4.3,0-7.8,3.5-7.8,7.8v1.8c0,0.6,0.3,1.2,0.7,1.5c0.1,0.1,0.2,0.1,0.2,0.2v0.4c0,2.5,1.1,4.7,2.9,6.1
				v1.5c0,0.4-0.2,0.8-0.6,1l-5.3,2.4c-1.7,0.8-2.9,2.5-2.9,4.4v12.1c0,0.5,0.4,0.9,0.9,0.9c0.5,0,0.9-0.4,0.9-0.9v-12.1
				c0-0.1,0-0.2,0-0.3l2.5,2.5c0.4,0.4,0.6,0.9,0.6,1.4v8.6c0,0.5,0.4,0.9,0.9,0.9c0.5,0,0.9-0.4,0.9-0.9v-8.6c0-1-0.4-2-1.1-2.7
				l-2.9-2.9c0.3-0.3,0.6-0.5,0.9-0.7l5.2-2.3l3.9,3.9v13.3c0,0.5,0.4,0.9,0.9,0.9c0.5,0,0.9-0.4,0.9-0.9v-13.3l3.9-3.9l5.2,2.3
				c0.4,0.2,0.7,0.4,0.9,0.7l-2.9,2.9c-0.7,0.7-1.1,1.7-1.1,2.7v8.6c0,0.5,0.4,0.9,0.9,0.9c0.5,0,0.9-0.4,0.9-0.9v-8.6
				c0-0.5,0.2-1,0.6-1.4l2.5-2.5c0,0.1,0,0.2,0,0.3v12.1c0,0.5,0.4,0.9,0.9,0.9c0.5,0,0.9-0.4,0.9-0.9v-12.1
				C335.5,746.8,334.3,745,332.6,744.3z M321.8,745.8l-3.4-3.4c0.3-0.4,0.4-0.9,0.4-1.5v-0.4c0.9,0.4,1.9,0.6,3,0.6s2.1-0.2,3-0.6
				v0.4c0,0.5,0.1,1,0.4,1.5L321.8,745.8z M321.8,739.3c-3.3,0-5.9-2.7-5.9-5.9V733c0.6-0.2,1.1-0.6,1.7-1.1
				c0.4-0.3,0.4-0.9,0.1-1.3c-0.3-0.4-0.9-0.4-1.3-0.1c-0.5,0.4-0.9,0.7-1.4,0.8c0,0,0,0,0,0c0,0,0,0,0-0.1v-1.8
				c0-3.3,2.7-5.9,5.9-5.9h2c3.3,0,5.9,2.7,5.9,5.9v0.2c0,0,0,0.1,0,0.1c-5.5,1.1-8.2-1-9.2-1.9c-0.4-0.4-0.9-0.4-1.3,0
				c-0.4,0.4-0.4,0.9,0,1.3c2.8,2.8,7,2.9,9.5,2.6v1.7C327.8,736.7,325.1,739.3,321.8,739.3z"/>
		</g>
	</g>
	<g class="st1">
		<g>
			<path class="st2" d="M307.1,739.3v-2c0-2.4-1.2-4.5-3.1-5.7c0.1-0.4,0.2-0.8,0.2-1.1c0-2.1-1.7-3.9-3.9-3.9
				c-2.1,0-3.9,1.7-3.9,3.9c0,0.4,0.1,0.8,0.2,1.1c-1.9,1.2-3.1,3.3-3.1,5.7v2c0,2.3,1.2,4.4,2.9,5.6v2c0,0.4-0.2,0.8-0.6,0.9
				l-3.2,1.6c-1.3,0.7-2.1,2-2.1,3.4v8c0,0.5,0.4,0.9,0.9,0.9c0.5,0,0.9-0.4,0.9-0.9v-7.6l1.5,1.5c0.4,0.4,0.6,0.9,0.6,1.4v4.7
				c0,0.5,0.4,0.9,0.9,0.9c0.5,0,0.9-0.4,0.9-0.9v-4.7c0-1-0.4-2-1.1-2.7l-2.1-2.1c0,0,0,0,0,0c0.1-0.1,0.3-0.2,0.4-0.3l3.2-1.6
				c0.2-0.1,0.3-0.2,0.5-0.3l2.2,2.2v9.4c0,0.5,0.4,0.9,0.9,0.9c0.5,0,0.9-0.4,0.9-0.9v-9.4l2.2-2.2c0.1,0.1,0.3,0.2,0.5,0.3
				l0.9,0.4c0.1,0.1,0.3,0.1,0.4,0.1c0.3,0,0.7-0.2,0.8-0.5c0.2-0.5,0-1-0.4-1.2l-0.9-0.4c-0.4-0.2-0.6-0.5-0.6-0.9v-2
				C305.9,743.6,307.1,741.6,307.1,739.3z M300.3,728.4c1.1,0,2,0.9,2,2c0,0.1,0,0.2,0,0.4c-0.6-0.2-1.3-0.3-2-0.3
				c-0.7,0-1.4,0.1-2,0.3c0-0.1,0-0.2,0-0.4C298.3,729.4,299.2,728.4,300.3,728.4z M300.3,732.4c2.7,0,5,2.2,5,5v0.3
				c-3.8,1.2-6.1-1.7-6.2-1.9c-0.2-0.2-0.4-0.3-0.7-0.4c-0.3,0-0.5,0.1-0.7,0.3c-0.9,0.9-1.7,1.3-2.3,1.5
				C295.4,734.5,297.6,732.4,300.3,732.4z M300.3,749.7l-2.1-2.1c0.1-0.2,0.1-0.5,0.1-0.7v-1.1c0.6,0.2,1.3,0.3,2,0.3
				c0.7,0,1.4-0.1,2-0.3v1.1c0,0.3,0,0.5,0.1,0.7L300.3,749.7z M300.3,744.2c-2.7,0-5-2.2-5-5v-0.2c0.7-0.2,1.8-0.6,2.9-1.5
				c0.4,0.4,1,0.8,1.7,1.2c0.9,0.5,2,0.9,3.5,0.9c0.6,0,1.1-0.1,1.8-0.2C305.1,742.2,302.9,744.2,300.3,744.2z"/>
		</g>
	</g>
	<g class="st1">
		<g>
			<path class="st2" d="M351,747.4l-5.1-2.6c-0.4-0.2-0.6-0.5-0.6-0.9v-1.3c1.2-1.1,2-2.6,2-4.3v-1c0,0,0,0,0.1,0
				c0.5,0,0.9-0.4,0.9-0.9v-2c0-3.2-2.6-5.8-5.8-5.8h-2c-3.2,0-5.8,2.6-5.8,5.8v2c0,0.5,0.4,0.9,0.9,0.9c0,0,0,0,0.1,0v1
				c0,1.7,0.8,3.3,2,4.3v1.3c0,0.4-0.2,0.8-0.6,0.9c-0.5,0.2-0.6,0.8-0.4,1.2c0.2,0.3,0.5,0.5,0.8,0.5c0.1,0,0.3,0,0.4-0.1
				c0.2-0.1,0.3-0.2,0.5-0.3l2.2,2.2v12.3c0,0.5,0.4,0.9,0.9,0.9c0.5,0,0.9-0.4,0.9-0.9v-12.3l2.2-2.2c0.1,0.1,0.3,0.2,0.5,0.3
				l5,2.5l-1.5,1.5c-0.7,0.7-1.1,1.7-1.1,2.7v7.6c0,0.5,0.4,0.9,0.9,0.9c0.5,0,0.9-0.4,0.9-0.9v-7.6c0-0.5,0.2-1,0.6-1.4l1.4-1.4
				c0,0.2,0.1,0.3,0.1,0.5v9.9c0,0.5,0.4,0.9,0.9,0.9c0.5,0,0.9-0.4,0.9-0.9v-9.9C353.1,749.4,352.3,748.1,351,747.4z M336.4,735.2
				v-0.9h0c0-2.2,1.8-4,4-4h2c2.2,0,4,1.8,4,4v1c-4-0.2-6.4-1.8-6.4-1.8c-0.2-0.1-0.3-0.2-0.5-0.2c-0.2,0-0.5,0.1-0.6,0.3
				C337.9,734.6,337.1,735,336.4,735.2z M341.4,746.8l-2.1-2.1c0.1-0.2,0.1-0.5,0.1-0.7v-0.2c0.6,0.2,1.3,0.4,2,0.4
				c0.7,0,1.4-0.1,2-0.4v0.2c0,0.3,0,0.5,0.1,0.7L341.4,746.8z M341.4,742.3c-2.2,0-4-1.8-4-4v-1.5l0,0c0.6-0.3,1.4-0.7,2.1-1.3
				c1,0.5,3,1.4,5.8,1.7v1.1C345.4,740.5,343.6,742.3,341.4,742.3z"/>
		</g>
	</g>
</g>
<g class="st1">
	<g class="st1">
		<g>
			<path class="st2" d="M203.3,569.9l-4-1.8c-0.3-0.1-0.5-0.4-0.5-0.7v-1.1c1.3-1.1,2.2-2.7,2.2-4.6v-1.5c0.4-0.2,0.7-0.7,0.7-1.2
				v-0.1c0-3.2-2.6-5.8-5.8-5.8h-1.5c-3.2,0-5.8,2.6-5.8,5.8v1.4c0,0.5,0.2,0.9,0.5,1.2c0.1,0,0.1,0.1,0.2,0.1v0.3
				c0,1.8,0.9,3.5,2.2,4.6v1.1c0,0.3-0.2,0.6-0.5,0.7l-4,1.8c-1.3,0.6-2.2,1.9-2.2,3.3v9.1c0,0.4,0.3,0.7,0.7,0.7s0.7-0.3,0.7-0.7
				v-9.1c0-0.1,0-0.2,0-0.2l1.8,1.8c0.3,0.3,0.4,0.7,0.4,1.1v6.4c0,0.4,0.3,0.7,0.7,0.7s0.7-0.3,0.7-0.7v-6.4c0-0.8-0.3-1.5-0.8-2
				l-2.2-2.2c0.2-0.2,0.4-0.4,0.7-0.5l3.9-1.7l2.9,2.9v10c0,0.4,0.3,0.7,0.7,0.7c0.4,0,0.7-0.3,0.7-0.7v-10l2.9-2.9l3.9,1.7
				c0.3,0.1,0.5,0.3,0.7,0.5l-2.2,2.2c-0.5,0.5-0.8,1.3-0.8,2v6.4c0,0.4,0.3,0.7,0.7,0.7s0.7-0.3,0.7-0.7v-6.4
				c0-0.4,0.2-0.8,0.4-1.1l1.8-1.8c0,0.1,0,0.2,0,0.2v9.1c0,0.4,0.3,0.7,0.7,0.7s0.7-0.3,0.7-0.7v-9.1
				C205.5,571.8,204.7,570.5,203.3,569.9z M195.3,571.1l-2.6-2.6c0.2-0.3,0.3-0.7,0.3-1.1v-0.3c0.7,0.3,1.5,0.5,2.2,0.5
				c0.8,0,1.6-0.2,2.2-0.5v0.3c0,0.4,0.1,0.8,0.3,1.1L195.3,571.1z M195.3,566.2c-2.5,0-4.5-2-4.5-4.5v-0.3c0.4-0.2,0.8-0.4,1.2-0.8
				c0.3-0.3,0.3-0.7,0-1c-0.3-0.3-0.7-0.3-1,0c-0.3,0.3-0.7,0.5-1,0.6c0,0,0,0,0,0c0,0,0,0,0-0.1v-1.4c0-2.5,2-4.5,4.5-4.5h1.5
				c2.5,0,4.5,2,4.5,4.5v0.1c0,0,0,0,0,0c-4.1,0.8-6.2-0.7-6.9-1.4c-0.3-0.3-0.7-0.3-1,0c-0.3,0.3-0.3,0.7,0,1
				c2.1,2.1,5.2,2.2,7.1,1.9v1.2C199.7,564.2,197.7,566.2,195.3,566.2z"/>
		</g>
	</g>
	<g class="st1">
		<g>
			<path class="st2" d="M184.2,566.1v-1.5c0-1.8-0.9-3.4-2.3-4.3c0.1-0.3,0.1-0.6,0.1-0.9c0-1.6-1.3-2.9-2.9-2.9
				c-1.6,0-2.9,1.3-2.9,2.9c0,0.3,0,0.6,0.1,0.9c-1.4,0.9-2.3,2.5-2.3,4.3v1.5c0,1.7,0.9,3.3,2.2,4.2v1.5c0,0.3-0.2,0.6-0.4,0.7
				l-2.4,1.2c-1,0.5-1.6,1.5-1.6,2.6v6c0,0.4,0.3,0.7,0.7,0.7c0.4,0,0.7-0.3,0.7-0.7v-5.7l1.1,1.1c0.3,0.3,0.4,0.7,0.4,1.1v3.5
				c0,0.4,0.3,0.7,0.7,0.7c0.4,0,0.7-0.3,0.7-0.7v-3.5c0-0.8-0.3-1.5-0.8-2l-1.6-1.6c0,0,0,0,0,0c0.1-0.1,0.2-0.2,0.3-0.2l2.4-1.2
				c0.1-0.1,0.2-0.1,0.3-0.2l1.7,1.7v7.1c0,0.4,0.3,0.7,0.7,0.7c0.4,0,0.7-0.3,0.7-0.7v-7.1l1.7-1.7c0.1,0.1,0.2,0.2,0.3,0.2
				l0.7,0.3c0.1,0,0.2,0.1,0.3,0.1c0.3,0,0.5-0.1,0.6-0.4c0.2-0.3,0-0.8-0.3-0.9l-0.7-0.3c-0.3-0.1-0.4-0.4-0.4-0.7v-1.5
				C183.3,569.4,184.2,567.9,184.2,566.1z M179.1,558c0.8,0,1.5,0.7,1.5,1.5c0,0.1,0,0.2,0,0.3c-0.5-0.1-1-0.2-1.5-0.2
				c-0.5,0-1,0.1-1.5,0.2c0-0.1,0-0.2,0-0.3C177.6,558.7,178.3,558,179.1,558z M179.1,561c2,0,3.7,1.7,3.7,3.7v0.2
				c-2.9,0.9-4.6-1.3-4.6-1.4c-0.1-0.2-0.3-0.3-0.5-0.3c-0.2,0-0.4,0.1-0.5,0.2c-0.7,0.7-1.3,1-1.8,1.1
				C175.5,562.6,177.1,561,179.1,561z M179.1,574l-1.6-1.6c0-0.2,0.1-0.4,0.1-0.6V571c0.5,0.1,1,0.2,1.5,0.2s1-0.1,1.5-0.2v0.8
				c0,0.2,0,0.4,0.1,0.6L179.1,574z M179.1,569.9c-2,0-3.7-1.7-3.7-3.7V566c0.5-0.1,1.4-0.4,2.2-1.1c0.3,0.3,0.7,0.6,1.3,0.9
				c0.6,0.4,1.5,0.7,2.6,0.7c0.4,0,0.9,0,1.3-0.2C182.7,568.3,181.1,569.9,179.1,569.9z"/>
		</g>
	</g>
	<g class="st1">
		<g>
			<path class="st2" d="M217.1,572.3l-3.8-1.9c-0.3-0.1-0.4-0.4-0.4-0.7v-1c0.9-0.8,1.5-2,1.5-3.3v-0.8c0,0,0,0,0,0
				c0.4,0,0.7-0.3,0.7-0.7v-1.5c0-2.4-2-4.4-4.4-4.4h-1.5c-2.4,0-4.4,2-4.4,4.4v1.5c0,0.4,0.3,0.7,0.7,0.7c0,0,0,0,0,0v0.8
				c0,1.3,0.6,2.5,1.5,3.3v1c0,0.3-0.2,0.6-0.4,0.7c-0.3,0.2-0.5,0.6-0.3,0.9c0.1,0.2,0.4,0.4,0.6,0.4c0.1,0,0.2,0,0.3-0.1
				c0.1-0.1,0.2-0.1,0.3-0.2l1.7,1.7v9.3c0,0.4,0.3,0.7,0.7,0.7s0.7-0.3,0.7-0.7V573l1.7-1.7c0.1,0.1,0.2,0.2,0.3,0.2l3.7,1.9
				l-1.1,1.1c-0.5,0.5-0.8,1.3-0.8,2v5.7c0,0.4,0.3,0.7,0.7,0.7c0.4,0,0.7-0.3,0.7-0.7v-5.7c0-0.4,0.2-0.8,0.4-1.1l1.1-1.1
				c0,0.1,0.1,0.3,0.1,0.4v7.4c0,0.4,0.3,0.7,0.7,0.7c0.4,0,0.7-0.3,0.7-0.7v-7.4C218.7,573.7,218.1,572.8,217.1,572.3z
				 M206.2,563.1v-0.6h0c0-1.6,1.3-3,3-3h1.5c1.6,0,3,1.3,3,3v0.8c-3-0.2-4.8-1.3-4.8-1.3c-0.1-0.1-0.2-0.1-0.4-0.1
				c-0.2,0-0.4,0.1-0.5,0.2C207.3,562.7,206.7,563,206.2,563.1z M209.9,571.8l-1.6-1.6c0-0.2,0.1-0.4,0.1-0.6v-0.1
				c0.5,0.2,1,0.3,1.5,0.3s1-0.1,1.5-0.3v0.1c0,0.2,0,0.4,0.1,0.6L209.9,571.8z M209.9,568.4c-1.6,0-3-1.3-3-3v-1.1l0,0
				c0.5-0.2,1-0.5,1.6-1c0.7,0.4,2.2,1,4.4,1.2v0.9C212.9,567.1,211.6,568.4,209.9,568.4z"/>
		</g>
	</g>
</g>
<g class="st1">
	<g class="st1">
		<g>
			<path class="st2" d="M541.4,470.9l-6.7-3c-0.5-0.2-0.8-0.7-0.8-1.2v-1.8c2.2-1.8,3.7-4.5,3.7-7.6v-2.6c0.7-0.4,1.2-1.2,1.2-2.1
				v-0.2c0-5.4-4.4-9.7-9.7-9.7h-2.4c-5.4,0-9.7,4.4-9.7,9.7v2.3c0,0.8,0.3,1.5,0.9,1.9c0.1,0.1,0.2,0.1,0.3,0.2v0.5
				c0,3.1,1.4,5.8,3.7,7.6v1.8c0,0.5-0.3,1-0.8,1.2l-6.7,3c-2.2,1-3.6,3.1-3.6,5.5v15.2c0,0.6,0.5,1.1,1.1,1.1
				c0.6,0,1.1-0.5,1.1-1.1v-15.2c0-0.1,0-0.3,0-0.4l3.1,3.1c0.5,0.5,0.7,1.1,0.7,1.8v10.7c0,0.6,0.5,1.1,1.1,1.1
				c0.6,0,1.1-0.5,1.1-1.1v-10.7c0-1.3-0.5-2.5-1.4-3.4l-3.7-3.7c0.3-0.3,0.7-0.6,1.2-0.8l6.5-2.9l4.8,4.8v16.7
				c0,0.6,0.5,1.1,1.1,1.1c0.6,0,1.1-0.5,1.1-1.1v-16.7l4.8-4.8l6.5,2.9c0.4,0.2,0.8,0.5,1.2,0.8l-3.7,3.7c-0.9,0.9-1.4,2.1-1.4,3.4
				v10.7c0,0.6,0.5,1.1,1.1,1.1c0.6,0,1.1-0.5,1.1-1.1v-10.7c0-0.7,0.3-1.3,0.7-1.8l3.1-3.1c0,0.1,0,0.3,0,0.4v15.2
				c0,0.6,0.5,1.1,1.1,1.1c0.6,0,1.1-0.5,1.1-1.1v-15.2C545,474,543.6,471.8,541.4,470.9z M527.9,472.8l-4.3-4.3
				c0.3-0.5,0.5-1.2,0.5-1.8v-0.5c1.2,0.5,2.4,0.8,3.7,0.8c1.3,0,2.6-0.3,3.7-0.8v0.5c0,0.7,0.2,1.3,0.5,1.8L527.9,472.8z
				 M527.9,464.7c-4.1,0-7.4-3.3-7.4-7.4v-0.5c0.7-0.3,1.4-0.7,2.1-1.3c0.5-0.4,0.5-1.2,0.1-1.6c-0.4-0.5-1.2-0.5-1.6-0.1
				c-0.6,0.5-1.1,0.9-1.7,1c0,0,0,0,0,0c0,0,0,0,0-0.1v-2.3c0-4.1,3.3-7.4,7.4-7.4h2.4c4.1,0,7.4,3.3,7.4,7.4v0.2c0,0,0,0.1-0.1,0.1
				c-6.9,1.4-10.3-1.2-11.5-2.4c-0.4-0.4-1.2-0.4-1.6,0c-0.4,0.4-0.4,1.2,0,1.6c3.6,3.6,8.7,3.6,11.9,3.2v2.1
				C535.3,461.4,532,464.7,527.9,464.7z"/>
		</g>
	</g>
	<g class="st1">
		<g>
			<path class="st2" d="M509.5,464.6v-2.4c0-3-1.6-5.6-3.9-7.1c0.1-0.5,0.2-0.9,0.2-1.4c0-2.7-2.2-4.8-4.8-4.8s-4.8,2.2-4.8,4.8
				c0,0.5,0.1,1,0.2,1.4c-2.3,1.5-3.9,4.1-3.9,7.1v2.4c0,2.9,1.5,5.4,3.7,7v2.5c0,0.5-0.3,0.9-0.7,1.2l-4,2
				c-1.6,0.8-2.7,2.5-2.7,4.3v10c0,0.6,0.5,1.1,1.1,1.1s1.1-0.5,1.1-1.1v-9.5l1.9,1.9c0.5,0.5,0.7,1.1,0.7,1.8v5.8
				c0,0.6,0.5,1.1,1.1,1.1s1.1-0.5,1.1-1.1v-5.8c0-1.3-0.5-2.5-1.4-3.4l-2.6-2.6c0,0,0,0,0,0c0.2-0.1,0.3-0.3,0.5-0.4l4-2
				c0.2-0.1,0.4-0.2,0.6-0.4l2.8,2.8v11.8c0,0.6,0.5,1.1,1.1,1.1s1.1-0.5,1.1-1.1v-11.8l2.8-2.8c0.2,0.1,0.4,0.3,0.6,0.4l1.1,0.5
				c0.2,0.1,0.3,0.1,0.5,0.1c0.4,0,0.8-0.2,1-0.6c0.3-0.6,0.1-1.3-0.5-1.5l-1.1-0.5c-0.4-0.2-0.7-0.7-0.7-1.2v-2.5
				C508,470.1,509.5,467.5,509.5,464.6z M501,451.1c1.4,0,2.5,1.1,2.5,2.5c0,0.2,0,0.3,0,0.5c-0.8-0.2-1.6-0.4-2.5-0.4
				c-0.9,0-1.7,0.1-2.5,0.4c0-0.1,0-0.3,0-0.4C498.5,452.2,499.6,451.1,501,451.1z M501,456c3.4,0,6.2,2.8,6.2,6.2v0.4
				c-4.8,1.5-7.6-2.2-7.7-2.3c-0.2-0.3-0.5-0.4-0.8-0.5c-0.3,0-0.7,0.1-0.9,0.3c-1.1,1.1-2.2,1.6-2.9,1.9
				C494.9,458.7,497.7,456,501,456z M501,477.7l-2.6-2.6c0.1-0.3,0.1-0.6,0.1-0.9v-1.4c0.8,0.2,1.6,0.4,2.5,0.4s1.7-0.1,2.5-0.4v1.4
				c0,0.3,0,0.6,0.1,0.9L501,477.7z M501,470.8c-3.4,0-6.2-2.8-6.2-6.2v-0.2c0.9-0.2,2.3-0.7,3.7-1.8c0.5,0.5,1.2,1,2.1,1.5
				c1.1,0.6,2.6,1.1,4.4,1.1c0.7,0,1.4-0.1,2.2-0.3C507,468.2,504.3,470.8,501,470.8z"/>
		</g>
	</g>
	<g class="st1">
		<g>
			<path class="st2" d="M564.3,474.8l-6.4-3.2c-0.4-0.2-0.7-0.7-0.7-1.2v-1.6c1.5-1.3,2.4-3.3,2.4-5.4v-1.3c0,0,0.1,0,0.1,0
				c0.6,0,1.1-0.5,1.1-1.1v-2.4c0-4-3.3-7.3-7.3-7.3h-2.4c-4,0-7.3,3.3-7.3,7.3v2.4c0,0.6,0.5,1.1,1.1,1.1c0,0,0,0,0.1,0v1.3
				c0,2.2,0.9,4.1,2.4,5.4v1.6c0,0.5-0.3,0.9-0.7,1.2c-0.6,0.3-0.8,1-0.5,1.5c0.2,0.4,0.6,0.6,1,0.6c0.2,0,0.3,0,0.5-0.1
				c0.2-0.1,0.4-0.2,0.6-0.4l2.8,2.8v15.4c0,0.6,0.5,1.1,1.1,1.1c0.6,0,1.1-0.5,1.1-1.1v-15.4l2.8-2.8c0.2,0.1,0.4,0.3,0.6,0.4
				l6.2,3.1l-1.9,1.9c-0.9,0.9-1.4,2.1-1.4,3.4v9.5c0,0.6,0.5,1.1,1.1,1.1c0.6,0,1.1-0.5,1.1-1.1v-9.5c0-0.7,0.3-1.3,0.7-1.8
				l1.8-1.8c0.1,0.2,0.1,0.4,0.1,0.6v12.4c0,0.6,0.5,1.1,1.1,1.1c0.6,0,1.1-0.5,1.1-1.1v-12.4C567,477.3,566,475.6,564.3,474.8z
				 M546.2,459.6v-1.1h0c0-2.7,2.2-5,5-5h2.4c2.7,0,5,2.2,5,5v1.3c-5-0.3-8-2.2-8-2.2c-0.2-0.1-0.4-0.2-0.6-0.2
				c-0.3,0-0.6,0.1-0.8,0.3C548,458.8,547,459.3,546.2,459.6z M552.4,474l-2.6-2.6c0.1-0.3,0.1-0.6,0.1-0.9v-0.2
				c0.8,0.3,1.6,0.5,2.5,0.5c0.9,0,1.7-0.2,2.5-0.5v0.2c0,0.3,0,0.6,0.1,0.9L552.4,474z M552.4,468.4c-2.7,0-5-2.2-5-5v-1.8l0,0
				c0.8-0.3,1.7-0.8,2.7-1.6c1.2,0.6,3.7,1.7,7.3,2.1v1.4C557.4,466.1,555.1,468.4,552.4,468.4z"/>
		</g>
	</g>
</g>
<g class="st1">
	<g class="st1">
		<g>
			<path class="st2" d="M497.7,581.2l-6.7-3c-0.5-0.2-0.8-0.7-0.8-1.2v-1.8c2.2-1.8,3.7-4.5,3.7-7.6V565c0.7-0.4,1.2-1.2,1.2-2.1
				v-0.2c0-5.4-4.4-9.7-9.7-9.7h-2.4c-5.4,0-9.7,4.4-9.7,9.7v2.3c0,0.8,0.3,1.5,0.9,1.9c0.1,0.1,0.2,0.1,0.3,0.2v0.5
				c0,3.1,1.4,5.8,3.7,7.6v1.8c0,0.5-0.3,1-0.8,1.2l-6.7,3c-2.2,1-3.6,3.1-3.6,5.5v15.2c0,0.6,0.5,1.1,1.1,1.1s1.1-0.5,1.1-1.1
				v-15.2c0-0.1,0-0.3,0-0.4l3.1,3.1c0.5,0.5,0.7,1.1,0.7,1.8v10.7c0,0.6,0.5,1.1,1.1,1.1s1.1-0.5,1.1-1.1v-10.7
				c0-1.3-0.5-2.5-1.4-3.4l-3.7-3.7c0.3-0.3,0.7-0.6,1.2-0.8l6.5-2.9l4.8,4.8v16.7c0,0.6,0.5,1.1,1.1,1.1s1.1-0.5,1.1-1.1v-16.7
				l4.8-4.8l6.5,2.9c0.4,0.2,0.8,0.5,1.2,0.8l-3.7,3.7c-0.9,0.9-1.4,2.1-1.4,3.4v10.7c0,0.6,0.5,1.1,1.1,1.1s1.1-0.5,1.1-1.1v-10.7
				c0-0.7,0.3-1.3,0.7-1.8l3.1-3.1c0,0.1,0,0.3,0,0.4v15.2c0,0.6,0.5,1.1,1.1,1.1s1.1-0.5,1.1-1.1v-15.2
				C501.3,584.3,499.9,582.1,497.7,581.2z M484.3,583.1l-4.3-4.3c0.3-0.5,0.5-1.2,0.5-1.8v-0.5c1.2,0.5,2.4,0.8,3.7,0.8
				s2.6-0.3,3.7-0.8v0.5c0,0.7,0.2,1.3,0.5,1.8L484.3,583.1z M484.3,575c-4.1,0-7.4-3.3-7.4-7.4v-0.5c0.7-0.3,1.4-0.7,2.1-1.3
				c0.5-0.4,0.5-1.2,0.1-1.6c-0.4-0.5-1.2-0.5-1.6-0.1c-0.6,0.5-1.1,0.9-1.7,1c0,0,0,0,0,0c0,0,0,0,0-0.1v-2.3
				c0-4.1,3.3-7.4,7.4-7.4h2.4c4.1,0,7.4,3.3,7.4,7.4v0.2c0,0,0,0.1-0.1,0.1c-6.9,1.4-10.3-1.2-11.5-2.4c-0.4-0.4-1.2-0.4-1.6,0
				c-0.4,0.4-0.4,1.2,0,1.6c3.6,3.6,8.7,3.6,11.9,3.2v2.1C491.7,571.7,488.4,575,484.3,575z"/>
		</g>
	</g>
	<g class="st1">
		<g>
			<path class="st2" d="M465.9,574.9v-2.4c0-3-1.6-5.6-3.9-7.1c0.1-0.5,0.2-0.9,0.2-1.4c0-2.7-2.2-4.8-4.8-4.8s-4.8,2.2-4.8,4.8
				c0,0.5,0.1,1,0.2,1.4c-2.3,1.5-3.9,4.1-3.9,7.1v2.4c0,2.9,1.5,5.4,3.7,7v2.5c0,0.5-0.3,0.9-0.7,1.2l-4,2
				c-1.6,0.8-2.7,2.5-2.7,4.3v10c0,0.6,0.5,1.1,1.1,1.1s1.1-0.5,1.1-1.1v-9.5l1.9,1.9c0.5,0.5,0.7,1.1,0.7,1.8v5.8
				c0,0.6,0.5,1.1,1.1,1.1s1.1-0.5,1.1-1.1V596c0-1.3-0.5-2.5-1.4-3.4l-2.6-2.6c0,0,0,0,0,0c0.2-0.1,0.3-0.3,0.5-0.4l4-2
				c0.2-0.1,0.4-0.2,0.6-0.4l2.8,2.8v11.8c0,0.6,0.5,1.1,1.1,1.1s1.1-0.5,1.1-1.1v-11.8l2.8-2.8c0.2,0.1,0.4,0.3,0.6,0.4l1.1,0.5
				c0.2,0.1,0.3,0.1,0.5,0.1c0.4,0,0.8-0.2,1-0.6c0.3-0.6,0.1-1.3-0.5-1.5l-1.1-0.5c-0.4-0.2-0.7-0.7-0.7-1.2v-2.5
				C464.4,580.4,465.9,577.8,465.9,574.9z M457.4,561.4c1.4,0,2.5,1.1,2.5,2.5c0,0.2,0,0.3,0,0.5c-0.8-0.2-1.6-0.4-2.5-0.4
				c-0.9,0-1.7,0.1-2.5,0.4c0-0.1,0-0.3,0-0.4C454.8,562.5,456,561.4,457.4,561.4z M457.4,566.3c3.4,0,6.2,2.8,6.2,6.2v0.4
				c-4.8,1.5-7.6-2.2-7.7-2.3c-0.2-0.3-0.5-0.4-0.8-0.5c-0.3,0-0.7,0.1-0.9,0.3c-1.1,1.1-2.2,1.6-2.9,1.9
				C451.3,569,454,566.3,457.4,566.3z M457.4,588l-2.6-2.6c0.1-0.3,0.1-0.6,0.1-0.9V583c0.8,0.2,1.6,0.4,2.5,0.4s1.7-0.1,2.5-0.4
				v1.4c0,0.3,0,0.6,0.1,0.9L457.4,588z M457.4,581.1c-3.4,0-6.2-2.8-6.2-6.2v-0.2c0.9-0.2,2.3-0.7,3.7-1.8c0.5,0.5,1.2,1,2.1,1.5
				c1.1,0.6,2.6,1.1,4.4,1.1c0.7,0,1.4-0.1,2.2-0.3C463.4,578.5,460.7,581.1,457.4,581.1z"/>
		</g>
	</g>
	<g class="st1">
		<g>
			<path class="st2" d="M520.7,585.1l-6.4-3.2c-0.4-0.2-0.7-0.7-0.7-1.2v-1.6c1.5-1.3,2.4-3.3,2.4-5.4v-1.3c0,0,0.1,0,0.1,0
				c0.6,0,1.1-0.5,1.1-1.1v-2.4c0-4-3.3-7.3-7.3-7.3h-2.4c-4,0-7.3,3.3-7.3,7.3v2.4c0,0.6,0.5,1.1,1.1,1.1c0,0,0,0,0.1,0v1.3
				c0,2.2,0.9,4.1,2.4,5.4v1.6c0,0.5-0.3,0.9-0.7,1.2c-0.6,0.3-0.8,1-0.5,1.5c0.2,0.4,0.6,0.6,1,0.6c0.2,0,0.3,0,0.5-0.1
				c0.2-0.1,0.4-0.2,0.6-0.4l2.8,2.8v15.4c0,0.6,0.5,1.1,1.1,1.1s1.1-0.5,1.1-1.1v-15.4l2.8-2.8c0.2,0.1,0.4,0.3,0.6,0.4l6.2,3.1
				l-1.9,1.9c-0.9,0.9-1.4,2.1-1.4,3.4v9.5c0,0.6,0.5,1.1,1.1,1.1c0.6,0,1.1-0.5,1.1-1.1v-9.5c0-0.7,0.3-1.3,0.7-1.8l1.8-1.8
				c0.1,0.2,0.1,0.4,0.1,0.6v12.4c0,0.6,0.5,1.1,1.1,1.1c0.6,0,1.1-0.5,1.1-1.1v-12.4C523.3,587.6,522.3,585.9,520.7,585.1z
				 M502.6,569.9v-1.1h0c0-2.7,2.2-5,5-5h2.4c2.7,0,5,2.2,5,5v1.3c-5-0.3-8-2.2-8-2.2c-0.2-0.1-0.4-0.2-0.6-0.2
				c-0.3,0-0.6,0.1-0.8,0.3C504.4,569.1,503.3,569.6,502.6,569.9z M508.7,584.3l-2.6-2.6c0.1-0.3,0.1-0.6,0.1-0.9v-0.2
				c0.8,0.3,1.6,0.5,2.5,0.5c0.9,0,1.7-0.2,2.5-0.5v0.2c0,0.3,0,0.6,0.1,0.9L508.7,584.3z M508.7,578.7c-2.7,0-5-2.2-5-5v-1.8l0,0
				c0.8-0.3,1.7-0.8,2.7-1.6c1.2,0.6,3.7,1.7,7.3,2.1v1.4C513.7,576.4,511.5,578.7,508.7,578.7z"/>
		</g>
	</g>
</g>
<g class="st3">
	<g>
		<g>
			<path class="st2" d="M135,457.2c-4.9,0-9,4-9,9c0,1.8,0.5,3.5,1.5,4.9l-9.7,9.7c-1.4-0.9-3.1-1.5-4.9-1.5c-1.9,0-3.6,0.6-5,1.6
				l-9.8-9.8c0.9-1.4,1.5-3.1,1.5-4.9c0-4.9-4-9-9-9c-4.9,0-9,4-9,9c0,1.8,0.5,3.5,1.5,4.9l-9.7,9.7c-1.4-0.9-3.1-1.5-4.9-1.5
				c-4.9,0-9,4-9,9c0,4.9,4,9,9,9s9-4,9-9c0-1.8-0.5-3.5-1.5-4.9l9.7-9.7c1.4,0.9,3.1,1.5,4.9,1.5c1.8,0,3.5-0.5,4.9-1.5l9.8,9.8
				c-0.9,1.4-1.4,3-1.4,4.7c0,4.9,4,9,9,9c4.9,0,9-4,9-9c0-1.8-0.5-3.5-1.5-4.9l9.7-9.7c1.4,0.9,3.1,1.5,4.9,1.5c4.9,0,9-4,9-9
				C143.9,461.2,139.9,457.2,135,457.2z M68.5,493.4c-2.9,0-5.3-2.4-5.3-5.3c0-2.9,2.4-5.3,5.3-5.3c2.9,0,5.3,2.4,5.3,5.3
				C73.7,491.1,71.4,493.4,68.5,493.4z M90.5,471.4c-2.9,0-5.3-2.4-5.3-5.3c0-2.9,2.4-5.3,5.3-5.3s5.3,2.4,5.3,5.3
				S93.4,471.4,90.5,471.4z M112.9,493.4c-2.9,0-5.3-2.4-5.3-5.3s2.4-5.3,5.3-5.3c2.9,0,5.3,2.4,5.3,5.3
				C118.1,491.1,115.8,493.4,112.9,493.4z M135,471.4c-2.9,0-5.3-2.4-5.3-5.3c0-2.9,2.4-5.3,5.3-5.3c2.9,0,5.3,2.4,5.3,5.3
				S137.9,471.4,135,471.4z"/>
		</g>
	</g>
	<g>
		<g>
			<path class="st2" d="M88.7,479.9c-0.7-0.7-1.9-0.7-2.6,0l-3.8,3.8c-0.7,0.7-0.7,1.9,0,2.6c0.4,0.4,0.8,0.5,1.3,0.5
				s0.9-0.2,1.3-0.5l3.8-3.8C89.4,481.8,89.4,480.6,88.7,479.9z"/>
		</g>
	</g>
	<g>
		<g>
			<path class="st2" d="M121.2,468.1c-0.7-0.7-1.9-0.7-2.6,0l-3.8,3.8c-0.7,0.7-0.7,1.9,0,2.6c0.4,0.4,0.8,0.5,1.3,0.5
				c0.5,0,0.9-0.2,1.3-0.5l3.8-3.8C121.9,470,121.9,468.8,121.2,468.1z"/>
		</g>
	</g>
</g>
<g class="st3">
	<g>
		<g>
			<path class="st2" d="M97.2,659.4c-2.5,0-4.5,2-4.5,4.5c0,0.9,0.3,1.7,0.7,2.4l-4.8,4.8c-0.7-0.5-1.5-0.7-2.4-0.7
				c-0.9,0-1.8,0.3-2.5,0.8l-4.9-4.9c0.5-0.7,0.7-1.5,0.7-2.4c0-2.5-2-4.5-4.5-4.5c-2.5,0-4.5,2-4.5,4.5c0,0.9,0.3,1.7,0.7,2.4
				l-4.8,4.8c-0.7-0.5-1.5-0.7-2.4-0.7c-2.5,0-4.5,2-4.5,4.5s2,4.5,4.5,4.5s4.5-2,4.5-4.5c0-0.9-0.3-1.7-0.7-2.4l4.8-4.8
				c0.7,0.5,1.5,0.7,2.4,0.7c0.9,0,1.7-0.3,2.4-0.7l4.9,4.9c-0.4,0.7-0.7,1.5-0.7,2.4c0,2.5,2,4.5,4.5,4.5c2.5,0,4.5-2,4.5-4.5
				c0-0.9-0.3-1.7-0.7-2.4l4.8-4.8c0.7,0.5,1.5,0.7,2.4,0.7c2.5,0,4.5-2,4.5-4.5C101.7,661.4,99.7,659.4,97.2,659.4z M64,677.6
				c-1.4,0-2.6-1.2-2.6-2.6c0-1.4,1.2-2.6,2.6-2.6c1.4,0,2.6,1.2,2.6,2.6C66.6,676.4,65.4,677.6,64,677.6z M75,666.5
				c-1.4,0-2.6-1.2-2.6-2.6c0-1.4,1.2-2.6,2.6-2.6s2.6,1.2,2.6,2.6C77.7,665.3,76.5,666.5,75,666.5z M86.2,677.6
				c-1.4,0-2.6-1.2-2.6-2.6c0-1.4,1.2-2.6,2.6-2.6c1.4,0,2.6,1.2,2.6,2.6C88.8,676.4,87.6,677.6,86.2,677.6z M97.2,666.5
				c-1.4,0-2.6-1.2-2.6-2.6c0-1.4,1.2-2.6,2.6-2.6c1.4,0,2.6,1.2,2.6,2.6C99.9,665.3,98.7,666.5,97.2,666.5z"/>
		</g>
	</g>
	<g>
		<g>
			<path class="st2" d="M74.1,670.8c-0.4-0.4-0.9-0.4-1.3,0l-1.9,1.9c-0.4,0.4-0.4,0.9,0,1.3c0.2,0.2,0.4,0.3,0.7,0.3
				s0.5-0.1,0.7-0.3l1.9-1.9C74.4,671.7,74.4,671.1,74.1,670.8z"/>
		</g>
	</g>
	<g>
		<g>
			<path class="st2" d="M90.3,664.9c-0.4-0.4-0.9-0.4-1.3,0l-1.9,1.9c-0.4,0.4-0.4,0.9,0,1.3c0.2,0.2,0.4,0.3,0.7,0.3
				c0.2,0,0.5-0.1,0.7-0.3l1.9-1.9C90.7,665.8,90.7,665.2,90.3,664.9z"/>
		</g>
	</g>
</g>
<g class="st3">
	<g>
		<g>
			<path class="st2" d="M515,696.6c-3.7,0-6.7,3-6.7,6.7c0,1.4,0.4,2.6,1.1,3.7l-7.3,7.3c-1.1-0.7-2.3-1.1-3.7-1.1
				c-1.4,0-2.7,0.4-3.8,1.2l-7.3-7.3c0.7-1.1,1.1-2.3,1.1-3.7c0-3.7-3-6.7-6.7-6.7s-6.7,3-6.7,6.7c0,1.4,0.4,2.6,1.1,3.7l-7.3,7.3
				c-1.1-0.7-2.3-1.1-3.7-1.1c-3.7,0-6.7,3-6.7,6.7s3,6.7,6.7,6.7c3.7,0,6.7-3,6.7-6.7c0-1.4-0.4-2.6-1.1-3.7l7.3-7.3
				c1.1,0.7,2.3,1.1,3.7,1.1c1.4,0,2.6-0.4,3.7-1.1l7.4,7.4c-0.6,1-1,2.2-1,3.5c0,3.7,3,6.7,6.7,6.7s6.7-3,6.7-6.7
				c0-1.4-0.4-2.6-1.1-3.7l7.3-7.3c1.1,0.7,2.3,1.1,3.7,1.1c3.7,0,6.7-3,6.7-6.7C521.8,699.6,518.7,696.6,515,696.6z M465.2,723.8
				c-2.2,0-3.9-1.8-3.9-3.9c0-2.2,1.8-3.9,3.9-3.9c2.2,0,3.9,1.8,3.9,3.9C469.1,722.1,467.4,723.8,465.2,723.8z M481.7,707.3
				c-2.2,0-3.9-1.8-3.9-3.9c0-2.2,1.8-3.9,3.9-3.9c2.2,0,3.9,1.8,3.9,3.9S483.9,707.3,481.7,707.3z M498.5,723.8
				c-2.2,0-3.9-1.8-3.9-3.9c0-2.2,1.8-3.9,3.9-3.9c2.2,0,3.9,1.8,3.9,3.9C502.4,722.1,500.7,723.8,498.5,723.8z M515,707.3
				c-2.2,0-3.9-1.8-3.9-3.9c0-2.2,1.8-3.9,3.9-3.9c2.2,0,3.9,1.8,3.9,3.9S517.2,707.3,515,707.3z"/>
		</g>
	</g>
	<g>
		<g>
			<path class="st2" d="M480.3,713.7c-0.5-0.5-1.4-0.5-2,0l-2.8,2.8c-0.5,0.5-0.5,1.4,0,2c0.3,0.3,0.6,0.4,1,0.4
				c0.4,0,0.7-0.1,1-0.4l2.8-2.8C480.9,715.1,480.9,714.2,480.3,713.7z"/>
		</g>
	</g>
	<g>
		<g>
			<path class="st2" d="M504.7,704.8c-0.5-0.5-1.4-0.5-2,0l-2.8,2.8c-0.5,0.5-0.5,1.4,0,2c0.3,0.3,0.6,0.4,1,0.4
				c0.4,0,0.7-0.1,1-0.4l2.8-2.8C505.2,706.2,505.2,705.4,504.7,704.8z"/>
		</g>
	</g>
</g>
<g class="st3">
	<g>
		<g>
			<path class="st2" d="M353.7,578c-4.3,0-7.8,3.5-7.8,7.8c0,1.6,0.5,3,1.3,4.3l-8.5,8.5c-1.2-0.8-2.7-1.3-4.3-1.3
				c-1.6,0-3.2,0.5-4.4,1.4l-8.6-8.6c0.8-1.2,1.3-2.7,1.3-4.3c0-4.3-3.5-7.8-7.8-7.8s-7.8,3.5-7.8,7.8c0,1.6,0.5,3,1.3,4.3l-8.5,8.5
				c-1.2-0.8-2.7-1.3-4.3-1.3c-4.3,0-7.8,3.5-7.8,7.8c0,4.3,3.5,7.8,7.8,7.8c4.3,0,7.8-3.5,7.8-7.8c0-1.6-0.5-3-1.3-4.3l8.5-8.5
				c1.2,0.8,2.7,1.3,4.3,1.3c1.6,0,3-0.5,4.3-1.3l8.6,8.6c-0.8,1.2-1.2,2.6-1.2,4.1c0,4.3,3.5,7.8,7.8,7.8s7.8-3.5,7.8-7.8
				c0-1.6-0.5-3-1.3-4.3l8.5-8.5c1.2,0.8,2.7,1.3,4.3,1.3c4.3,0,7.8-3.5,7.8-7.8C361.6,581.5,358,578,353.7,578z M295.5,609.7
				c-2.5,0-4.6-2.1-4.6-4.6c0-2.5,2.1-4.6,4.6-4.6c2.5,0,4.6,2.1,4.6,4.6C300.1,607.7,298.1,609.7,295.5,609.7z M314.9,590.4
				c-2.5,0-4.6-2.1-4.6-4.6c0-2.5,2.1-4.6,4.6-4.6c2.5,0,4.6,2.1,4.6,4.6C319.5,588.4,317.4,590.4,314.9,590.4z M334.4,609.7
				c-2.5,0-4.6-2.1-4.6-4.6s2.1-4.6,4.6-4.6c2.5,0,4.6,2.1,4.6,4.6C339,607.7,336.9,609.7,334.4,609.7z M353.7,590.4
				c-2.5,0-4.6-2.1-4.6-4.6c0-2.5,2.1-4.6,4.6-4.6c2.5,0,4.6,2.1,4.6,4.6C358.3,588.4,356.3,590.4,353.7,590.4z"/>
		</g>
	</g>
	<g>
		<g>
			<path class="st2" d="M313.2,597.9c-0.6-0.6-1.7-0.6-2.3,0l-3.3,3.3c-0.6,0.6-0.6,1.7,0,2.3c0.3,0.3,0.7,0.5,1.1,0.5
				c0.4,0,0.8-0.2,1.1-0.5l3.3-3.3C313.8,599.6,313.8,598.5,313.2,597.9z"/>
		</g>
	</g>
	<g>
		<g>
			<path class="st2" d="M341.6,587.5c-0.6-0.6-1.7-0.6-2.3,0l-3.3,3.3c-0.6,0.6-0.6,1.7,0,2.3c0.3,0.3,0.7,0.5,1.1,0.5
				c0.4,0,0.8-0.2,1.1-0.5l3.3-3.3C342.3,589.2,342.3,588.2,341.6,587.5z"/>
		</g>
	</g>
</g>
<rect y="-2.7" class="st4" width="600" height="794.7"/>
</svg>
