<?xml version="1.0" encoding="utf-8"?>
<!-- Generator: Adobe Illustrator 22.0.1, SVG Export Plug-In . SVG Version: 6.00 Build 0)  -->
<svg version="1.1" id="Capa_1" xmlns="http://www.w3.org/2000/svg" xmlns:xlink="http://www.w3.org/1999/xlink" x="0px" y="0px"
	 viewBox="0 0 633 824.1" style="enable-background:new 0 0 633 824.1;" xml:space="preserve">
<style type="text/css">
	.st0{display:none;fill:#404041;stroke:#1D1D1B;stroke-miterlimit:10;}
	.st1{fill:#FFFFFF;}
	.st2{opacity:0.14;}
	.st3{fill:#727278;}
	.st4{opacity:0.46;}
</style>
<title>fondo_morado</title>
<rect x="0.5" y="8.5" class="st0" width="632" height="815.5"/>
<g>
	<rect x="0.8" y="-1" class="st1" width="632" height="826"/>
	<g class="st2">
		<path class="st3" d="M560.5,59.2h7.8c1.1,0,3.1,1.3,4.8,2.4c2.2,1.4,4.2,2.8,6,2.8h5.9c0.8,0,1.6,0.2,2.2,0.6
			c0.3,0.4,0.9,0.5,1.4,0.3s0.6-0.8,0.3-1.2c-0.1-0.1-0.2-0.2-0.3-0.3c-1-0.8-2.3-1.2-3.6-1.1h-5.9c-1.1,0-3.1-1.3-4.8-2.4
			c-2.2-1.4-4.2-2.8-6-2.8h-7.8c-0.6,0-1,0.4-1,0.9S559.9,59.3,560.5,59.2L560.5,59.2z"/>
		<path class="st3" d="M552.7,72.8c0-0.7-0.7-1.3-1.5-1.3c-0.8,0-1.5,0.6-1.5,1.3s0.7,1.3,1.5,1.3l0,0
			C552,74.1,552.7,73.5,552.7,72.8z"/>
		<path class="st3" d="M605.9,62.7c-0.5-0.8-1.4-1.4-2.4-1.6c-1-0.2-2-0.1-2.9,0.3l-11.2,4.9c-1.8,0.8-3.5,0.8-7.4,0.8
			c-3.2-0.1-6.4-0.4-9.6-0.9c-0.5-0.2-1.1,0-1.3,0.5c-0.2,0.5,0.1,1,0.6,1.2c0.1,0,0.3,0.1,0.4,0.1c3.3,0.5,6.6,0.8,9.9,0.9
			c4.1,0,6.1,0,8.3-1l11.3-4.9c0.8-0.7,2.1-0.6,2.8,0.1c0.7,0.7,0.7,1.9-0.2,2.5c-0.2,0.2-0.5,0.3-0.7,0.4l-13.2,7.4
			c0,0-2.8,1.6-9.2,1.6c-5.5,0-14.1-4.2-14.2-4.3c-2-0.7-4.1-1-6.3-0.9c-0.6,0-1,0.4-1,0.9s0.4,0.9,1,0.9c1.8-0.1,3.7,0.2,5.4,0.8
			c0.4,0.2,9.1,4.5,15.1,4.5c7.1,0,10.2-1.8,10.3-1.9l13.2-7.3C606.4,66.5,607,64.4,605.9,62.7L605.9,62.7z"/>
		<path class="st3" d="M554.6,54h-5.9c-0.6,0-1,0.4-1,0.9c0,0.5,0.4,0.9,1,0.9h5.9c0.6,0,1,0.4,1,0.9v19.2c0,0.5-0.4,0.9-1,0.9h-5.9
			c-0.6,0-1,0.4-1,0.9s0.4,0.9,1,0.9h5.9c1.6,0,2.9-1.2,2.9-2.6V56.6C557.6,55.1,556.2,54,554.6,54z"/>
		<path class="st3" d="M581.1,57c-1.1,0-2.1-0.4-2.9-1.1l-8.9-8c-1.6-1.4-1.6-3.7,0-5.1l8.9-8c1.6-1.4,4.1-1.4,5.7,0l8.9,8
			c1.6,1.4,1.6,3.7,0,5.1l-8.9,8C583.2,56.6,582.2,57,581.1,57z M581.1,35.1c-0.7,0-1.3,0.2-1.8,0.7l-8.9,8c-1,0.9-1,2.3,0,3.2
			l8.9,8c1,0.9,2.6,0.9,3.6,0l8.9-8c1-0.9,1-2.3,0-3.2l-8.9-8C582.5,35.3,581.8,35.1,581.1,35.1z"/>
	</g>
	<g class="st2">
		<path class="st3" d="M587.5,190.5c0-0.4-0.4-0.7-0.8-0.7c-0.5,0-0.8,0.3-0.8,0.7v1.5c0,0.4,0.4,0.7,0.8,0.7c0.5,0,0.8-0.3,0.8-0.7
			l0,0V190.5z"/>
		<path class="st3" d="M586.7,198.7c-0.5,0-0.8,0.3-0.8,0.7v0v3c0,0.4,0.4,0.7,0.8,0.7c0.5,0,0.8-0.3,0.8-0.7l0,0v-3
			C587.6,199.1,587.2,198.7,586.7,198.7C586.7,198.7,586.7,198.7,586.7,198.7z"/>
		<path class="st3" d="M590.9,181.6c0-0.4-0.4-0.7-0.8-0.7c-0.5,0-0.8,0.3-0.8,0.7v1.5c0,0.4,0.4,0.7,0.8,0.7c0.5,0,0.8-0.3,0.8-0.7
			V181.6z"/>
		<path class="st3" d="M587.5,186.1c0-0.4-0.4-0.7-0.8-0.7c-0.5,0-0.8,0.3-0.8,0.7v1.5c0,0.4,0.4,0.7,0.8,0.7c0.5,0,0.8-0.3,0.8-0.7
			l0,0V186.1z"/>
		<path class="st3" d="M587.5,195c0-0.4-0.4-0.7-0.8-0.7c-0.5,0-0.8,0.3-0.8,0.7v1.5c0,0.4,0.4,0.7,0.8,0.7c0.5,0,0.8-0.3,0.8-0.7
			V195z"/>
		<path class="st3" d="M590.9,186.1c0-0.4-0.4-0.7-0.8-0.7c-0.5,0-0.8,0.3-0.8,0.7v1.5c0,0.4,0.4,0.7,0.8,0.7c0.5,0,0.8-0.3,0.8-0.7
			l0,0V186.1z"/>
		<path class="st3" d="M584.2,181.6c0-0.4-0.4-0.7-0.8-0.7c-0.5,0-0.8,0.3-0.8,0.7v1.5c0,0.4,0.4,0.7,0.8,0.7c0.5,0,0.8-0.3,0.8-0.7
			V181.6z"/>
		<path class="st3" d="M587.5,181.6c0-0.4-0.4-0.7-0.8-0.7c-0.5,0-0.8,0.3-0.8,0.7v1.5c0,0.4,0.4,0.7,0.8,0.7c0.5,0,0.8-0.3,0.8-0.7
			V181.6z"/>
		<path class="st3" d="M590.9,174.1v-1.5c0-0.4-0.4-0.7-0.8-0.7c-0.5,0-0.8,0.3-0.8,0.7v1.5c0,0.4,0.4,0.7,0.8,0.7
			C590.5,174.9,590.9,174.6,590.9,174.1z"/>
		<path class="st3" d="M584.2,186.1c0-0.4-0.4-0.7-0.8-0.7c-0.5,0-0.8,0.3-0.8,0.7v1.5c0,0.4,0.4,0.7,0.8,0.7c0.5,0,0.8-0.3,0.8-0.7
			l0,0V186.1z"/>
		<path class="st3" d="M594.2,172.7c0-0.4-0.4-0.7-0.8-0.7c-0.5,0-0.8,0.3-0.8,0.7v1.5c0,0.4,0.4,0.7,0.8,0.7c0.5,0,0.8-0.3,0.8-0.7
			V172.7z"/>
		<path class="st3" d="M583.4,189.8c-0.5,0-0.8,0.3-0.8,0.7v0v1.5c0,0.4,0.4,0.7,0.8,0.7c0.5,0,0.8-0.3,0.8-0.7l0,0v-1.5
			C584.2,190.1,583.8,189.8,583.4,189.8C583.4,189.8,583.4,189.8,583.4,189.8z"/>
		<path class="st3" d="M597.5,195c0-0.4-0.4-0.7-0.8-0.7c-0.5,0-0.8,0.3-0.8,0.7v1.5c0,0.4,0.4,0.7,0.8,0.7c0.5,0,0.8-0.3,0.8-0.7
			V195z"/>
		<path class="st3" d="M596.7,198.7c-0.5,0-0.8,0.3-0.8,0.7v0v3c0,0.4,0.4,0.7,0.8,0.7c0.5,0,0.8-0.3,0.8-0.7l0,0v-3
			C597.6,199.1,597.2,198.7,596.7,198.7C596.7,198.7,596.7,198.7,596.7,198.7z"/>
		<path class="st3" d="M600,189.8c-0.5,0-0.8,0.3-0.8,0.7v0v1.5c0,0.4,0.4,0.7,0.8,0.7c0.5,0,0.8-0.3,0.8-0.7l0,0v-1.5
			C600.8,190.1,600.5,189.8,600,189.8C600,189.8,600,189.8,600,189.8z"/>
		<path class="st3" d="M586.7,174.9c0.5,0,0.8-0.3,0.8-0.7v0V171l8.3-1.9v12.4c0,0.3,0.2,0.6,0.5,0.7l6.1,2.1v7.7
			c0,0.4,0.4,0.7,0.8,0.7c0.5,0,0.8-0.3,0.8-0.7l0,0v-8.2c0-0.3-0.2-0.6-0.5-0.7l-6.1-2.1v-14.4c0-0.4-0.4-0.7-0.8-0.7
			c-0.5,0-0.8,0.3-0.8,0.7v0.9l-9.4,2.1c-0.4,0.1-0.6,0.4-0.6,0.7v3.7C585.9,174.5,586.2,174.9,586.7,174.9
			C586.7,174.9,586.7,174.9,586.7,174.9z"/>
		<path class="st3" d="M600.9,186.1c0-0.4-0.4-0.7-0.8-0.7c-0.5,0-0.8,0.3-0.8,0.7v1.5c0,0.4,0.4,0.7,0.8,0.7c0.5,0,0.8-0.3,0.8-0.7
			l0,0V186.1z"/>
		<path class="st3" d="M597.5,186.1c0-0.4-0.4-0.7-0.8-0.7c-0.5,0-0.8,0.3-0.8,0.7v1.5c0,0.4,0.4,0.7,0.8,0.7c0.5,0,0.8-0.3,0.8-0.7
			l0,0V186.1z"/>
		<path class="st3" d="M590.9,195c0-0.4-0.4-0.7-0.8-0.7c-0.5,0-0.8,0.3-0.8,0.7v1.5c0,0.4,0.4,0.7,0.8,0.7c0.5,0,0.8-0.3,0.8-0.7
			V195z"/>
		<path class="st3" d="M597.5,190.5c0-0.4-0.4-0.7-0.8-0.7c-0.5,0-0.8,0.3-0.8,0.7v1.5c0,0.4,0.4,0.7,0.8,0.7c0.5,0,0.8-0.3,0.8-0.7
			l0,0V190.5z"/>
		<path class="st3" d="M590,198.7c-0.5,0-0.8,0.3-0.8,0.7v0v3c0,0.4,0.4,0.7,0.8,0.7c0.5,0,0.8-0.3,0.8-0.7l0,0v-3
			C590.8,199.1,590.5,198.7,590,198.7C590,198.7,590,198.7,590,198.7z"/>
		<path class="st3" d="M590.9,190.5c0-0.4-0.4-0.7-0.8-0.7c-0.5,0-0.8,0.3-0.8,0.7v1.5c0,0.4,0.4,0.7,0.8,0.7c0.5,0,0.8-0.3,0.8-0.7
			l0,0V190.5z"/>
		<path class="st3" d="M593.4,203.2c0.5,0,0.8-0.3,0.8-0.7v0v-23.8c0-0.3-0.3-0.6-0.6-0.7l-13.3-3c-0.4-0.1-0.9,0.2-1,0.6
			c0,0,0,0.1,0,0.1V192c0,0.4,0.4,0.7,0.8,0.7c0.5,0,0.8-0.3,0.8-0.7l0,0v-15.4l11.7,2.6v23.2C592.6,202.8,592.9,203.2,593.4,203.2z
			"/>
		<path class="st3" d="M574.2,177.1c0-0.4-0.4-0.7-0.8-0.7c-0.5,0-0.8,0.3-0.8,0.7v1.5c0,0.4,0.4,0.7,0.8,0.7c0.5,0,0.8-0.3,0.8-0.7
			l0,0V177.1z"/>
		<path class="st3" d="M574.2,172.7c0-0.4-0.4-0.7-0.8-0.7c-0.5,0-0.8,0.3-0.8,0.7v1.5c0,0.4,0.4,0.7,0.8,0.7c0.5,0,0.8-0.3,0.8-0.7
			V172.7z"/>
		<path class="st3" d="M567.5,195c0-0.4-0.4-0.7-0.8-0.7c-0.5,0-0.8,0.3-0.8,0.7v1.5c0,0.4,0.4,0.7,0.8,0.7c0.5,0,0.8-0.3,0.8-0.7
			V195z"/>
		<path class="st3" d="M560,188.3c0.5,0,0.8-0.3,0.8-0.7v0v-3.7h8.3v18.6c0,0.4,0.4,0.7,0.8,0.7c0.5,0,0.8-0.3,0.8-0.7l0,0v-19.4
			c0-0.4-0.4-0.7-0.8-0.7l0,0h-10c-0.5,0-0.8,0.3-0.8,0.7v0v4.5C559.2,188,559.5,188.3,560,188.3L560,188.3z"/>
		<path class="st3" d="M569.2,177.1v1.5c0,0.4,0.4,0.7,0.8,0.7c0.5,0,0.8-0.3,0.8-0.7l0,0v-1.5c0-0.4-0.4-0.7-0.8-0.7
			C569.6,176.4,569.2,176.7,569.2,177.1z"/>
		<path class="st3" d="M574.2,168.2c0-0.4-0.4-0.7-0.8-0.7c-0.5,0-0.8,0.3-0.8,0.7v1.5c0,0.4,0.4,0.7,0.8,0.7c0.5,0,0.8-0.3,0.8-0.7
			V168.2z"/>
		<path class="st3" d="M566.7,198.7c-0.5,0-0.8,0.3-0.8,0.7v0v3c0,0.4,0.4,0.7,0.8,0.7c0.5,0,0.8-0.3,0.8-0.7l0,0v-3
			C567.6,199.1,567.2,198.7,566.7,198.7C566.7,198.7,566.7,198.7,566.7,198.7z"/>
		<path class="st3" d="M605,204.7h-1.7v-4.6c1.8-0.4,2.8-2,2.4-3.6c-0.5-1.6-2.3-2.5-4.1-2.1c-1.8,0.4-2.8,2-2.4,3.6
			c0.3,1,1.2,1.9,2.4,2.1v4.6h-20.8v-3.1c2.3-0.4,3.7-2.4,3.3-4.4c-0.5-2-2.7-3.3-4.9-2.9c-2.3,0.4-3.7,2.4-3.3,4.4
			c0.3,1.5,1.6,2.6,3.3,2.9v3.1h-18.3v-7.5c2.3-0.4,3.7-2.4,3.3-4.4c-0.5-2-2.7-3.3-4.9-2.9s-3.7,2.4-3.3,4.4
			c0.3,1.5,1.6,2.6,3.3,2.9v7.5h-2.5c-0.5,0-0.8,0.3-0.8,0.7c0,0.4,0.4,0.7,0.8,0.7H605c0.5,0,0.8-0.3,0.8-0.7
			C605.8,205,605.5,204.7,605,204.7z M557.5,193.5c0-1.2,1.1-2.2,2.5-2.2s2.5,1,2.5,2.2s-1.1,2.2-2.5,2.2
			C558.6,195.7,557.5,194.7,557.5,193.5L557.5,193.5z M577.5,198c0-1.2,1.1-2.2,2.5-2.2s2.5,1,2.5,2.2c0,1.2-1.1,2.2-2.5,2.2
			C578.6,200.2,577.5,199.2,577.5,198L577.5,198z M600.8,197.2c0-0.8,0.7-1.5,1.7-1.5s1.7,0.7,1.7,1.5c0,0.8-0.7,1.5-1.7,1.5l0,0
			C601.6,198.7,600.9,198,600.8,197.2L600.8,197.2z"/>
		<path class="st3" d="M562.5,199.5v3c0,0.4,0.4,0.7,0.8,0.7c0.5,0,0.8-0.3,0.8-0.7l0,0v-3c0-0.4-0.4-0.7-0.8-0.7
			C562.9,198.7,562.5,199,562.5,199.5z"/>
		<path class="st3" d="M567.5,186.1c0-0.4-0.4-0.7-0.8-0.7c-0.5,0-0.8,0.3-0.8,0.7v1.5c0,0.4,0.4,0.7,0.8,0.7c0.5,0,0.8-0.3,0.8-0.7
			l0,0V186.1z"/>
		<path class="st3" d="M567.5,190.5c0-0.4-0.4-0.7-0.8-0.7c-0.5,0-0.8,0.3-0.8,0.7v1.5c0,0.4,0.4,0.7,0.8,0.7c0.5,0,0.8-0.3,0.8-0.7
			l0,0V190.5z"/>
		<path class="st3" d="M562.5,186.1v1.5c0,0.4,0.4,0.7,0.8,0.7c0.5,0,0.8-0.3,0.8-0.7l0,0v-1.5c0-0.4-0.4-0.7-0.8-0.7
			C562.9,185.3,562.5,185.6,562.5,186.1z"/>
		<path class="st3" d="M574.2,190.5c0-0.4-0.4-0.7-0.8-0.7c-0.5,0-0.8,0.3-0.8,0.7v1.5c0,0.4,0.4,0.7,0.8,0.7c0.5,0,0.8-0.3,0.8-0.7
			l0,0V190.5z"/>
		<path class="st3" d="M577.5,181.6c0-0.4-0.4-0.7-0.8-0.7c-0.5,0-0.8,0.3-0.8,0.7v1.5c0,0.4,0.4,0.7,0.8,0.7c0.5,0,0.8-0.3,0.8-0.7
			V181.6z"/>
		<path class="st3" d="M577.5,177.1c0-0.4-0.4-0.7-0.8-0.7c-0.5,0-0.8,0.3-0.8,0.7v1.5c0,0.4,0.4,0.7,0.8,0.7c0.5,0,0.8-0.3,0.8-0.7
			l0,0V177.1z"/>
		<path class="st3" d="M577.5,186.1c0-0.4-0.4-0.7-0.8-0.7c-0.5,0-0.8,0.3-0.8,0.7v1.5c0,0.4,0.4,0.7,0.8,0.7c0.5,0,0.8-0.3,0.8-0.7
			l0,0V186.1z"/>
		<path class="st3" d="M576.7,189.8c-0.5,0-0.8,0.3-0.8,0.7v0v1.5c0,0.4,0.4,0.7,0.8,0.7c0.5,0,0.8-0.3,0.8-0.7l0,0v-1.5
			C577.6,190.1,577.2,189.8,576.7,189.8C576.7,189.8,576.7,189.8,576.7,189.8z"/>
		<path class="st3" d="M577.5,172.7c0-0.4-0.4-0.7-0.8-0.7c-0.5,0-0.8,0.3-0.8,0.7v1.5c0,0.4,0.4,0.7,0.8,0.7c0.5,0,0.8-0.3,0.8-0.7
			V172.7z"/>
		<path class="st3" d="M574.2,195c0-0.4-0.4-0.7-0.8-0.7c-0.5,0-0.8,0.3-0.8,0.7v1.5c0,0.4,0.4,0.7,0.8,0.7c0.5,0,0.8-0.3,0.8-0.7
			V195z"/>
		<path class="st3" d="M566.7,180.8c0.5,0,0.8-0.3,0.8-0.7v0v-5.5l2.9-1.3c0.3-0.1,0.5-0.4,0.5-0.7v-6.3l4.2-1.9l4.2,1.9v6.3
			c0,0.4,0.4,0.7,0.8,0.7c0.5,0,0.8-0.3,0.8-0.7v-6.7c0-0.3-0.2-0.5-0.5-0.7l-4.5-2v-1c0-0.4-0.4-0.7-0.8-0.7
			c-0.5,0-0.8,0.3-0.8,0.7v1l-4.5,2.1c-0.3,0.1-0.5,0.4-0.5,0.7v6.3l-2.9,1.3c-0.3,0.1-0.5,0.4-0.5,0.7v6
			C565.9,180.5,566.3,180.8,566.7,180.8z"/>
		<path class="st3" d="M574.2,186.1c0-0.4-0.4-0.7-0.8-0.7c-0.5,0-0.8,0.3-0.8,0.7v1.5c0,0.4,0.4,0.7,0.8,0.7c0.5,0,0.8-0.3,0.8-0.7
			l0,0V186.1z"/>
		<path class="st3" d="M573.4,198.7c-0.5,0-0.8,0.3-0.8,0.7v0v3c0,0.4,0.4,0.7,0.8,0.7c0.5,0,0.8-0.3,0.8-0.7l0,0v-3
			C574.2,199.1,573.8,198.7,573.4,198.7C573.4,198.7,573.4,198.7,573.4,198.7z"/>
		<path class="st3" d="M577.5,168.2c0-0.4-0.4-0.7-0.8-0.7c-0.5,0-0.8,0.3-0.8,0.7v1.5c0,0.4,0.4,0.7,0.8,0.7c0.5,0,0.8-0.3,0.8-0.7
			V168.2z"/>
		<path class="st3" d="M574.2,181.6c0-0.4-0.4-0.7-0.8-0.7c-0.5,0-0.8,0.3-0.8,0.7v1.5c0,0.4,0.4,0.7,0.8,0.7c0.5,0,0.8-0.3,0.8-0.7
			V181.6z"/>
	</g>
	<g class="st2">
		<g class="st4">
			<path class="st3" d="M333.5,53.9l-5.3-2.1c-0.4-0.1-0.7-0.5-0.6-0.9v-1.3c1.9-1.3,2.9-3.3,2.9-5.4v-1.8c0.6-0.3,1-0.9,1-1.5v-0.2
				c0-3.8-3.5-6.9-7.8-6.9h-2c-4.3,0-7.8,3.1-7.8,7v1.6c0,0.5,0.3,1,0.7,1.4l0.3,0.1v0.4c0,2.1,1.1,4.1,2.9,5.4v1.3
				c0,0.4-0.2,0.7-0.6,0.9l-5.3,2.1c-1.7,0.7-2.9,2.2-2.9,3.9v10.8c0.1,0.5,0.5,0.8,1,0.7c0.4,0,0.8-0.3,0.8-0.7V57.8
				c0-0.1,0-0.2,0-0.3l2.5,2.2c0.4,0.3,0.6,0.8,0.6,1.3v7.7c-0.1,0.5,0.3,0.9,0.8,0.9c0.5,0,1-0.3,1-0.7c0-0.1,0-0.1,0-0.2V61
				c0-0.9-0.4-1.8-1.1-2.4l-2.9-2.6c0.3-0.2,0.6-0.4,0.9-0.6l5.3-2.1l3.9,3.5v11.9c0.1,0.5,0.5,0.8,1,0.7c0.4,0,0.8-0.3,0.8-0.7
				V56.8l3.9-3.5l5.2,2.1c0.4,0.1,0.7,0.3,0.9,0.6l-2.9,2.6c-0.7,0.6-1.1,1.5-1.1,2.4v7.7c-0.1,0.5,0.3,0.9,0.8,0.9
				c0.5,0,1-0.3,1-0.7c0-0.1,0-0.1,0-0.2V61c0-0.5,0.2-0.9,0.6-1.3l2.5-2.2c0,0.1,0,0.2,0,0.3v10.8c0.1,0.5,0.5,0.8,1,0.7
				c0.4,0,0.8-0.3,0.8-0.7V57.8C336.4,56.1,335.3,54.6,333.5,53.9z M322.8,55.3l-3.4-3c0.3-0.4,0.4-0.9,0.4-1.3v-0.3
				c1.9,0.7,4.1,0.7,6,0v0.3c0,0.5,0.1,0.9,0.4,1.3L322.8,55.3z M322.8,49.5c-3.3,0-5.9-2.4-5.9-5.3v-0.4c0.6-0.2,1.2-0.5,1.7-1
				c0.3-0.3,0.3-0.9-0.1-1.2c-0.3-0.3-0.8-0.3-1.2,0c-0.4,0.3-0.8,0.6-1.4,0.7l0,0c0,0,0,0,0-0.1v-1.6c0-2.9,2.7-5.3,5.9-5.3l0,0h2
				c3.3,0,5.9,2.4,5.9,5.3v0v0.2c0,0,0,0,0,0.1c-5.5,1-8.2-0.9-9.2-1.7c-0.4-0.3-1-0.2-1.3,0.2c-0.3,0.3-0.3,0.7,0,1
				c2.8,2.5,7,2.6,9.5,2.3v1.5c0,2.9-2.6,5.3-5.9,5.3C322.9,49.5,322.8,49.5,322.8,49.5L322.8,49.5z"/>
		</g>
		<g class="st4">
			<path class="st3" d="M308,49.4v-1.8c0-2.1-1.2-4-3.1-5.1c0.6-1.8-0.5-3.7-2.5-4.3c-2-0.6-4.2,0.4-4.8,2.3c-0.2,0.7-0.2,1.4,0,2.1
				c-1.9,1.1-3.1,3-3.1,5.1v1.8c0,2,1.1,3.9,2.9,5v1.8c0,0.4-0.2,0.7-0.6,0.8l-3.2,1.4c-1.3,0.6-2.1,1.8-2.1,3.1v7.1
				c0.1,0.5,0.5,0.8,1,0.7c0.4,0,0.8-0.3,0.8-0.7v-6.8l1.5,1.3c0.4,0.3,0.6,0.8,0.6,1.3v4.2c-0.1,0.5,0.3,0.9,0.8,0.9
				c0.5,0,1-0.3,1-0.7c0-0.1,0-0.1,0-0.2v-4.2c0-0.9-0.4-1.8-1.1-2.4l-2.1-1.9l0,0c0.1-0.1,0.3-0.2,0.4-0.3l3.2-1.4
				c0.2-0.1,0.3-0.2,0.5-0.3l2.2,2v8.4c-0.1,0.5,0.3,0.9,0.8,0.9s1-0.3,1-0.7c0-0.1,0-0.1,0-0.2v-8.4l2.2-2c0.1,0.1,0.3,0.2,0.5,0.3
				l0.9,0.4c0.4,0.2,1,0.1,1.3-0.3c0.3-0.4,0.1-0.9-0.3-1.1c0,0-0.1,0-0.1-0.1l-0.9-0.4c-0.4-0.1-0.6-0.5-0.6-0.8v-1.8
				C306.9,53.3,308,51.4,308,49.4z M301.2,39.8c1.1,0,2,0.8,2,1.8c0,0.1,0,0.2,0,0.3c-1.3-0.4-2.7-0.4-4,0c-0.2-1,0.5-1.9,1.6-2.1
				C300.9,39.7,301.1,39.7,301.2,39.8L301.2,39.8z M301.2,43.3c2.8,0,5,2,5,4.5V48c-2.3,0.6-4.7,0-6.2-1.7c-0.3-0.4-0.9-0.4-1.3-0.2
				c0,0-0.1,0-0.1,0.1c-0.7,0.6-1.5,1.1-2.4,1.3C296.4,45.2,298.5,43.3,301.2,43.3L301.2,43.3z M301.2,58.8l-2.1-1.9
				c0.1-0.2,0.1-0.4,0.1-0.7v-1c1.3,0.4,2.7,0.4,4,0v1c0,0.2,0,0.4,0.1,0.7L301.2,58.8z M301.2,53.9c-2.8,0-5-2-5-4.5v-0.2
				c1.1-0.2,2.1-0.7,2.9-1.3c0.5,0.4,1.1,0.8,1.7,1.1c1.1,0.5,2.3,0.8,3.5,0.8c0.6,0,1.2-0.1,1.8-0.2C306,52,303.9,53.8,301.2,53.9
				L301.2,53.9z"/>
		</g>
		<g class="st4">
			<path class="st3" d="M351.9,56.7l-5.1-2.3c-0.4-0.1-0.6-0.5-0.6-0.8v-1.2c1.3-1,2-2.4,2-3.9v-0.9h0.1c0.5,0,0.9-0.4,0.9-0.8
				c0,0,0,0,0,0v-1.8c0-2.9-2.6-5.2-5.8-5.2h-2c-3.2,0-5.8,2.3-5.8,5.2v1.8c0,0.5,0.4,0.8,0.9,0.8l0,0h0.1v0.9c0,1.5,0.7,2.9,2,3.9
				v1.1c0,0.4-0.2,0.7-0.6,0.8c-0.5,0.2-0.7,0.6-0.5,1.1c0.2,0.4,0.7,0.6,1.2,0.5c0,0,0.1,0,0.1-0.1c0.2-0.1,0.3-0.2,0.5-0.3l2.2,2
				v11c-0.1,0.5,0.3,0.9,0.8,0.9s1-0.3,1-0.7c0-0.1,0-0.1,0-0.2v-11l2.2-2c0.1,0.1,0.3,0.2,0.5,0.3l5,2.2l-1.5,1.3
				c-0.7,0.6-1.1,1.5-1.1,2.4v6.8c-0.1,0.5,0.3,0.9,0.8,0.9c0.5,0,1-0.3,1-0.7c0-0.1,0-0.1,0-0.2v-6.8c0-0.5,0.2-0.9,0.6-1.3
				l1.4-1.3c0,0.2,0.1,0.3,0.1,0.5v8.9c0.1,0.5,0.5,0.8,1,0.7c0.4,0,0.8-0.3,0.8-0.7v-8.8C354.1,58.5,353.2,57.3,351.9,56.7z
				 M337.4,45.8v-0.8l0,0c0-2,1.8-3.6,4-3.6h2c2.2,0,4,1.6,4,3.6V46c-2.2-0.1-4.4-0.6-6.4-1.6c-0.4-0.2-0.8-0.2-1.2,0.1
				C339.1,45.1,338.3,45.6,337.4,45.8z M342.4,56.1l-2.1-1.9c0.1-0.2,0.1-0.4,0.1-0.7v-0.2c1.3,0.4,2.7,0.4,4,0v0.2
				c0,0.2,0,0.4,0.1,0.7L342.4,56.1z M342.4,52.1c-2.2,0-4-1.6-4-3.6v-1.3l0,0c0.8-0.3,1.5-0.7,2.1-1.2c1.8,0.8,3.8,1.3,5.8,1.5v1
				C346.3,50.5,344.5,52.1,342.4,52.1L342.4,52.1z"/>
		</g>
	</g>
	<g class="st2">
		<path class="st3" d="M75.7,53.8c-0.7,0.6-0.7,1.5,0,2.1c0,0,0,0,0,0l1,0.9c0.3,0.2,0.6,0.4,1,0.5c0.1,0.3,0.2,0.6,0.5,0.9l0.9,0.8
			c0.7,0.7,1.9,0.7,2.7,0c0,0,0,0,0,0l7.5-6.7c0.7-0.7,0.7-1.7,0-2.4l-0.9-0.8c-0.3-0.2-0.6-0.4-1-0.5c-0.1-0.3-0.2-0.7-0.5-0.9
			l-1-0.9c-0.3-0.3-0.8-0.5-1.2-0.4c-0.4,0-0.9,0.2-1.2,0.4l-8.3-7.4c0.7-0.6,0.7-1.5,0-2.1c0,0,0,0,0,0l-1-0.9
			c-0.3-0.2-0.6-0.4-1-0.4c-0.1-0.3-0.2-0.7-0.5-0.9l-0.9-0.8c-0.7-0.6-1.9-0.6-2.7,0l-7.5,6.7c-0.7,0.7-0.7,1.7,0,2.4l0.9,0.8
			c0.3,0.2,0.6,0.4,1,0.5c0.1,0.3,0.2,0.6,0.5,0.9l1,0.9c0.3,0.3,0.7,0.4,1.2,0.4l0,0c0.4,0,0.9-0.2,1.2-0.4l1.3,1.2
			c0.2,0.2,0.2,0.6,0,0.8l-6.1,5.5l-0.6-0.5c-1.1-0.8-2.7-0.7-3.6,0.2c-0.8,0.9-0.8,2.1,0,3L59,57l-7.6,6.8c-0.4,0.4-1,0.7-1.6,0.8
			l-2.4,0.6c-0.9,0.2-1.7,0.6-2.4,1.2l-0.3,0.2c-2,1.8-2,4.7,0,6.5l1,0.9c2,1.8,5.3,1.8,7.3,0c0,0,0,0,0,0l0.3-0.2
			c0.7-0.6,1.1-1.3,1.4-2.1l0.6-2.2c0.2-0.5,0.5-1,0.9-1.4l7.6-6.8l0.6,0.5c1,0.9,2.6,0.9,3.6,0c1-0.9,1-2.3,0-3.2l-0.6-0.5l6.1-5.5
			c0.2-0.2,0.6-0.2,0.9,0L75.7,53.8z M88.1,51.1c0,0,0,0.1-0.1,0.1l-7.5,6.7c-0.1,0.1-0.2,0.1-0.2,0c0,0,0,0,0,0l-0.9-0.8
			c-0.1-0.1-0.1-0.2,0-0.3l7.5-6.7c0.1-0.1,0.2-0.1,0.3,0l0.9,0.8C88.1,51,88.1,51.1,88.1,51.1L88.1,51.1z M62.7,42.1
			c0,0,0-0.1,0.1-0.1l7.5-6.7c0,0,0.1-0.1,0.1-0.1c0.1,0,0.1,0,0.1,0.1l0.9,0.8c0.1,0.1,0.1,0.2,0,0.3L63.9,43
			c-0.1,0.1-0.2,0.1-0.3,0l-0.9-0.8C62.7,42.2,62.7,42.1,62.7,42.1z M72.3,51.5L65,58.1l1.8,1.6c0.3,0.3,0.3,0.8,0,1.1c0,0,0,0,0,0
			c-0.3,0.3-0.9,0.3-1.2,0l-1.8-1.6L55,67c-0.7,0.6-1.1,1.3-1.4,2.1L53,71.3c-0.2,0.5-0.5,1-0.9,1.4L51.8,73
			c-0.7,0.6-1.5,0.9-2.5,0.9c-0.9,0-1.8-0.3-2.5-0.9l-1-0.9c-1.4-1.2-1.4-3.2,0-4.4c0,0,0,0,0,0l0.3-0.2c0.4-0.4,1-0.7,1.6-0.8
			l2.4-0.6c0.9-0.2,1.7-0.6,2.4-1.2l8.8-7.9l-1.8-1.6c-0.3-0.3-0.3-0.8,0-1.1s0.9-0.3,1.2,0l1.8,1.6l7.3-6.5c0.9-0.8,0.9-2.1,0-2.9
			c0,0,0,0,0,0l-1.3-1.2c-0.3-0.3-0.7-0.4-1.2-0.4l0,0c-0.4,0-0.9,0.2-1.2,0.4l-1-0.9c0,0-0.1-0.1-0.1-0.1c0,0,0-0.1,0.1-0.1
			l7.5-6.7c0.1-0.1,0.2-0.1,0.2,0c0,0,0,0,0,0l1,0.9c-0.3,0.3-0.5,0.7-0.5,1c0,0.4,0.2,0.8,0.5,1.1l8.3,7.5c0.3,0.3,0.7,0.4,1.2,0.4
			l0,0c0.4,0,0.9-0.2,1.2-0.4l1.1,0.9c0,0,0.1,0.1,0.1,0.1c0,0,0,0.1-0.1,0.1l-7.5,6.7l0,0c-0.1,0.1-0.2,0.1-0.3,0l-1-0.9
			c0.3-0.3,0.5-0.7,0.5-1c0-0.4-0.2-0.8-0.5-1.1l-1.3-1.2C74.7,50.7,73.2,50.7,72.3,51.5C72.3,51.5,72.3,51.5,72.3,51.5L72.3,51.5z"
			/>
		<path class="st3" d="M87.8,72.4h-7.6c-3.3,0-5.9,2.4-5.9,5.3c0,0,0,0,0,0v0.8h19.4v-0.8C93.7,74.8,91.1,72.4,87.8,72.4
			C87.8,72.4,87.8,72.4,87.8,72.4z M76.1,76.9c0.4-1.8,2.1-3,4.1-3h7.6c2,0,3.7,1.3,4.1,3H76.1z"/>
		<path class="st3" d="M78.5,70.2c-0.5,0-0.8,0.3-0.8,0.8c0,0.4,0.4,0.8,0.8,0.8h10.9c0.5,0,0.8-0.3,0.8-0.8c0-0.4-0.4-0.8-0.8-0.8
			H78.5z"/>
	</g>
	<g class="st2">
		<g class="st4">
			<path class="st3" d="M81.7,186.1l-5.3-2.1c-0.4-0.1-0.7-0.5-0.6-0.9v-1.3c1.9-1.3,2.9-3.3,2.9-5.4v-1.8c0.6-0.3,1-0.9,1-1.5v-0.2
				c0-3.8-3.5-6.9-7.8-6.9h-2c-4.3,0-7.8,3.1-7.8,6.9v1.6c0,0.5,0.3,1,0.7,1.4l0.3,0.1v0.4c0,2.1,1.1,4.1,2.9,5.4v1.3
				c0,0.4-0.2,0.7-0.6,0.9l-5.3,2.1c-1.7,0.7-2.9,2.2-2.9,3.9v10.9c-0.1,0.5,0.3,0.9,0.8,0.9c0.5,0,1-0.3,1-0.7c0-0.1,0-0.1,0-0.2
				V190c0-0.1,0-0.2,0-0.3l2.5,2.2c0.4,0.3,0.6,0.8,0.6,1.3v7.7c0.1,0.5,0.5,0.8,1,0.7c0.4,0,0.8-0.3,0.8-0.7v-7.7
				c0-0.9-0.4-1.8-1.1-2.4l-2.9-2.6c0.3-0.2,0.6-0.4,0.9-0.6l5.2-2.1L70,189v11.9c0.1,0.5,0.5,0.8,1,0.7c0.4,0,0.8-0.3,0.8-0.7V189
				l3.9-3.5l5.2,2.1c0.4,0.1,0.7,0.3,0.9,0.6l-2.9,2.6c-0.7,0.6-1.1,1.5-1.1,2.4v7.7c0.1,0.5,0.5,0.8,1,0.7c0.4,0,0.8-0.3,0.8-0.7
				v-7.7c0-0.5,0.2-0.9,0.6-1.3l2.4-2.2c0,0.1,0,0.2,0,0.3v10.9c0.1,0.5,0.5,0.8,1,0.7c0.4,0,0.8-0.3,0.8-0.7V190
				C84.5,188.3,83.4,186.8,81.7,186.1z M70.9,187.5l-3.4-3c0.3-0.4,0.4-0.9,0.4-1.3v-0.3c1.9,0.7,4.1,0.7,6,0v0.3
				c0,0.5,0.1,0.9,0.4,1.3L70.9,187.5z M70.9,181.7c-3.3,0-5.9-2.4-5.9-5.3V176c0.6-0.2,1.2-0.6,1.7-1c0.3-0.3,0.3-0.9-0.1-1.2
				c-0.3-0.3-0.8-0.3-1.2,0c-0.4,0.3-0.8,0.6-1.4,0.7l0,0c0,0,0,0,0-0.1v-1.6c0-2.9,2.7-5.3,5.9-5.3c0,0,0,0,0,0h2
				c3.3,0,5.9,2.4,5.9,5.3l0,0v0.2c0,0,0,0,0,0.1c-5.5,1-8.2-0.9-9.2-1.7c-0.3-0.4-0.9-0.4-1.3-0.2c-0.4,0.3-0.5,0.8-0.2,1.2
				c0,0.1,0.1,0.1,0.2,0.2c2.8,2.5,7,2.6,9.5,2.3v1.5c0,2.9-2.6,5.3-5.9,5.3C71,181.7,71,181.7,70.9,181.7z"/>
		</g>
		<g class="st4">
			<path class="st3" d="M56.2,181.6v-1.8c0-2.1-1.2-4-3.1-5.1c0.6-1.8-0.5-3.7-2.5-4.3c-2-0.6-4.2,0.4-4.8,2.3
				c-0.2,0.7-0.2,1.4,0,2.1c-1.9,1.1-3.1,3-3.1,5.1v1.8c0,2,1.1,3.9,2.9,5v1.8c0,0.4-0.2,0.7-0.6,0.8l-3.2,1.4
				c-1.3,0.6-2.1,1.8-2.1,3.1v7.1c0.1,0.5,0.5,0.8,1,0.7c0.4,0,0.8-0.3,0.8-0.7v-6.8l1.5,1.3c0.4,0.3,0.6,0.8,0.6,1.3v4.2
				c0.1,0.5,0.5,0.8,1,0.7c0.4,0,0.8-0.3,0.8-0.7v-4.2c0-0.9-0.4-1.8-1.1-2.4l-2.1-1.9l0,0c0.1-0.1,0.3-0.2,0.4-0.3l3.2-1.4
				c0.2-0.1,0.3-0.2,0.5-0.3l2.2,2v8.4c0.1,0.5,0.5,0.8,1,0.7c0.4,0,0.8-0.3,0.8-0.7v-8.4l2.2-2c0.1,0.1,0.3,0.2,0.5,0.3l0.9,0.4
				c0.4,0.2,1,0.1,1.3-0.3c0.3-0.4,0.1-0.9-0.3-1.1c0,0-0.1,0-0.1-0.1l-0.9-0.4c-0.4-0.1-0.6-0.5-0.6-0.8v-1.8
				C55.1,185.5,56.2,183.6,56.2,181.6z M49.4,172c1.1,0,2,0.8,2,1.8c0,0.1,0,0.2,0,0.3c-1.3-0.4-2.7-0.4-4,0c-0.2-1,0.5-1.9,1.6-2.1
				C49.1,171.9,49.2,171.9,49.4,172L49.4,172z M49.4,175.4c2.8,0,5,2,5,4.5v0.3c-2.2,0.6-4.7,0-6.2-1.7c-0.3-0.4-0.9-0.4-1.3-0.2
				c0,0-0.1,0-0.1,0.1c-0.7,0.6-1.5,1.1-2.3,1.3C44.5,177.4,46.7,175.5,49.4,175.4L49.4,175.4z M49.4,191l-2.1-1.9
				c0.1-0.2,0.1-0.4,0.1-0.7v-1c1.3,0.4,2.7,0.4,4,0v1c0,0.2,0,0.4,0.1,0.7L49.4,191z M49.4,186.1c-2.8,0-5-2-5-4.5v-0.2
				c1.1-0.2,2.1-0.7,2.9-1.3c0.5,0.4,1.1,0.8,1.7,1.1c1.1,0.5,2.3,0.8,3.5,0.8c0.6,0,1.2-0.1,1.8-0.2C54.1,184.2,52,186,49.4,186.1
				L49.4,186.1z"/>
		</g>
		<g class="st4">
			<path class="st3" d="M100,188.9l-5.1-2.3c-0.4-0.1-0.6-0.5-0.6-0.8v-1.2c1.3-1,2-2.4,2-3.9v-0.9h0.1c0.5,0,0.9-0.4,0.9-0.8v-1.8
				c0-2.9-2.6-5.2-5.8-5.2h-2c-3.2,0-5.8,2.3-5.8,5.2v1.8c0,0.5,0.4,0.8,0.9,0.8h0.1v0.9c0,1.5,0.7,2.9,2,3.9v1.2
				c0,0.4-0.2,0.7-0.6,0.8c-0.5,0.2-0.7,0.6-0.5,1.1s0.7,0.6,1.2,0.5c0,0,0.1,0,0.1-0.1c0.2-0.1,0.3-0.2,0.4-0.3l2.2,2v11
				c0.1,0.5,0.5,0.8,1,0.7c0.4,0,0.8-0.3,0.8-0.7v-11l2.2-2c0.1,0.1,0.3,0.2,0.4,0.3l4.9,2.2l-1.5,1.3c-0.7,0.6-1.1,1.5-1.1,2.4v6.8
				c0.1,0.5,0.5,0.8,1,0.7c0.4,0,0.8-0.3,0.8-0.7v-6.8c0-0.5,0.2-0.9,0.6-1.3l1.4-1.3c0,0.2,0.1,0.3,0.1,0.5v8.9
				c0.1,0.5,0.5,0.8,1,0.7c0.4,0,0.8-0.3,0.8-0.7V192C102.1,190.7,101.3,189.5,100,188.9z M85.5,178v-0.8l0,0c0-2,1.8-3.6,4-3.6h2
				c2.2,0,4,1.6,4,3.6v0.9c-2.3,0-4.5-0.6-6.5-1.6c-0.4-0.2-0.8-0.2-1.2,0.1C87.2,177.3,86.4,177.7,85.5,178L85.5,178z M90.5,188.3
				l-2.1-1.9c0.1-0.2,0.1-0.4,0.1-0.7v-0.2c1.3,0.4,2.7,0.4,4,0v0.2c0,0.2,0,0.4,0.1,0.7L90.5,188.3z M90.5,184.3
				c-2.2,0-4-1.6-4-3.6v-1.3l0,0c0.8-0.3,1.5-0.7,2.2-1.2c1.8,0.8,3.8,1.3,5.8,1.5v1C94.5,182.7,92.7,184.3,90.5,184.3L90.5,184.3z"
				/>
		</g>
	</g>
	<g class="st2">
		<path class="st3" d="M580,309.2c-0.7,0.6-0.7,1.5,0,2.1c0,0,0,0,0,0l1,0.9c0.7,0.1,1.3,0.7,1.5,1.3l0.9,0.8c0.7,0.7,1.9,0.7,2.7,0
			c0,0,0,0,0,0l7.5-6.7c0.7-0.7,0.7-1.7,0-2.4l-0.9-0.8c-0.7-0.1-1.3-0.7-1.5-1.3l-1-0.9c-0.3-0.3-0.8-0.5-1.2-0.4
			c-0.4,0-0.9,0.2-1.2,0.4l-8.3-7.4c0.7-0.6,0.7-1.5,0-2.1c0,0,0,0,0,0l-1-0.9c-0.3-0.2-0.6-0.4-1-0.4c-0.1-0.3-0.2-0.7-0.5-0.9
			l-0.9-0.8c-0.7-0.6-1.9-0.6-2.7,0l-7.5,6.7c-0.7,0.7-0.7,1.7,0,2.4l0.9,0.8c0.7,0.1,1.3,0.7,1.5,1.3l1,0.9
			c0.3,0.3,0.7,0.4,1.2,0.4l0,0c0.4,0,0.9-0.2,1.2-0.4l1.3,1.2c0.2,0.2,0.2,0.6,0,0.8l-6.1,5.5l-0.6-0.5c-1.1-0.8-2.7-0.7-3.6,0.2
			c-0.8,0.9-0.8,2.1,0,3l0.6,0.5l-7.6,6.8c-0.4,0.4-1,0.7-1.6,0.8l-2.5,0.5c-0.9,0.2-1.7,0.6-2.4,1.2l-0.3,0.2c-2,1.8-2,4.7,0,6.5
			l1,0.9c2,1.8,5.3,1.8,7.3,0c0,0,0,0,0,0l0.3-0.2c0.7-0.6,1.1-1.3,1.4-2.1l0.6-2.2c0.2-0.5,0.5-1,0.9-1.4l7.6-6.8l0.6,0.5
			c1,0.9,2.6,0.9,3.6,0c1-0.9,1-2.3,0-3.2l-0.6-0.5l6.1-5.5c0.2-0.2,0.6-0.2,0.9,0L580,309.2z M592.4,306.5c0,0,0,0.1-0.1,0.1
			l-7.5,6.7c-0.1,0.1-0.2,0.1-0.2,0c0,0,0,0,0,0l-0.9-0.8c-0.1-0.1-0.1-0.2,0-0.3l7.5-6.7c0.1-0.1,0.2-0.1,0.3,0l0.9,0.8
			C592.4,306.4,592.5,306.5,592.4,306.5L592.4,306.5z M567,297.6c0,0,0-0.1,0.1-0.1l7.5-6.7c0,0,0.1-0.1,0.1-0.1
			c0.1,0,0.1,0,0.1,0.1l0.9,0.8c0.1,0.1,0.1,0.2,0,0.3l-7.5,6.6c-0.1,0.1-0.2,0.1-0.3,0L567,297.6C567,297.6,567,297.6,567,297.6z
			 M576.6,307l-7.3,6.5l1.8,1.6c0.3,0.3,0.3,0.8,0,1.1c0,0,0,0,0,0c-0.3,0.3-0.9,0.3-1.2,0l-1.8-1.6l-8.8,7.9
			c-0.7,0.6-1.1,1.3-1.4,2.1l-0.6,2.2c-0.2,0.5-0.5,1-0.9,1.4l-0.3,0.2c-0.7,0.6-1.5,0.9-2.5,0.9c-0.9,0-1.8-0.3-2.5-0.9l-1-0.9
			c-1.4-1.2-1.4-3.2,0-4.4c0,0,0,0,0,0l0.3-0.2c0.4-0.4,1-0.7,1.6-0.8l2.5-0.5c0.9-0.2,1.7-0.6,2.4-1.2l8.8-7.9l-1.8-1.6
			c-0.3-0.3-0.3-0.8,0-1.1s0.9-0.3,1.2,0l1.8,1.6l7.3-6.5c0.9-0.8,0.9-2.1,0-2.9c0,0,0,0,0,0l-1.3-1.2c-0.3-0.3-0.7-0.4-1.2-0.4l0,0
			c-0.4,0-0.9,0.2-1.2,0.4l-1-0.9c0,0-0.1-0.1-0.1-0.1c0,0,0-0.1,0.1-0.1l7.5-6.7c0.1-0.1,0.2-0.1,0.2,0c0,0,0,0,0,0l1,0.9
			c-0.3,0.3-0.5,0.7-0.5,1c0,0.4,0.2,0.8,0.5,1.1l8.3,7.5c0.3,0.3,0.7,0.4,1.2,0.4l0,0c0.4,0,0.9-0.2,1.2-0.4l1,0.9
			c0,0,0.1,0.1,0.1,0.1c0,0,0,0.1-0.1,0.1l-7.5,6.7l0,0c-0.1,0.1-0.2,0.1-0.3,0l-1-0.9c0.3-0.3,0.5-0.7,0.5-1c0-0.4-0.2-0.8-0.5-1.1
			L580,307c-0.9-0.8-2.3-0.9-3.3-0.1C576.7,306.9,576.6,307,576.6,307L576.6,307z"/>
		<path class="st3" d="M592.1,327.9h-7.6c-3.3,0-5.9,2.4-5.9,5.3v0.8H598v-0.8C598,330.2,595.4,327.9,592.1,327.9z M580.4,332.4
			c0.4-1.8,2.1-3,4.1-3h7.6c2,0,3.7,1.3,4.1,3H580.4z"/>
		<path class="st3" d="M582.8,325.6c-0.5,0-0.8,0.3-0.8,0.7s0.4,0.8,0.8,0.8c0,0,0,0,0,0h11c0.5,0,0.8-0.3,0.8-0.7s-0.4-0.8-0.8-0.8
			c0,0,0,0,0,0H582.8z"/>
	</g>
	<g class="st2">
		<path class="st3" d="M81,318.3c0-0.4-0.4-0.7-0.8-0.7s-0.8,0.3-0.8,0.7v1.5c0,0.4,0.4,0.7,0.8,0.7s0.8-0.3,0.8-0.7V318.3z"/>
		<path class="st3" d="M80.1,326.4c-0.5,0-0.8,0.3-0.8,0.7v3c0,0.4,0.4,0.7,0.8,0.7s0.8-0.3,0.8-0.7v-3
			C81,326.8,80.6,326.4,80.1,326.4C80.1,326.4,80.1,326.4,80.1,326.4z"/>
		<path class="st3" d="M84.3,309.3c0-0.4-0.4-0.7-0.8-0.7s-0.8,0.3-0.8,0.7v1.5c0,0.4,0.4,0.7,0.8,0.7s0.8-0.3,0.8-0.7V309.3z"/>
		<path class="st3" d="M81,313.8c0-0.4-0.4-0.7-0.8-0.7s-0.8,0.3-0.8,0.7v1.5c0,0.4,0.4,0.7,0.8,0.7s0.8-0.3,0.8-0.7V313.8z"/>
		<path class="st3" d="M81,322.7c0-0.4-0.4-0.7-0.8-0.7s-0.8,0.3-0.8,0.7v1.5c0,0.4,0.4,0.7,0.8,0.7s0.8-0.3,0.8-0.7V322.7z"/>
		<path class="st3" d="M84.3,313.8c0-0.4-0.4-0.7-0.8-0.7s-0.8,0.3-0.8,0.7v1.5c0,0.4,0.4,0.7,0.8,0.7s0.8-0.3,0.8-0.7V313.8z"/>
		<path class="st3" d="M77.6,309.3c0-0.4-0.4-0.7-0.8-0.7s-0.8,0.3-0.8,0.7v1.5c0,0.4,0.4,0.7,0.8,0.7s0.8-0.3,0.8-0.7V309.3z"/>
		<path class="st3" d="M81,309.3c0-0.4-0.4-0.7-0.8-0.7s-0.8,0.3-0.8,0.7v1.5c0,0.4,0.4,0.7,0.8,0.7s0.8-0.3,0.8-0.7V309.3z"/>
		<path class="st3" d="M84.3,301.9v-1.5c0-0.4-0.4-0.7-0.8-0.7s-0.8,0.3-0.8,0.7v1.5c0,0.4,0.4,0.7,0.8,0.7S84.3,302.3,84.3,301.9z"
			/>
		<path class="st3" d="M77.6,313.8c0-0.4-0.4-0.7-0.8-0.7s-0.8,0.3-0.8,0.7v1.5c0,0.4,0.4,0.7,0.8,0.7s0.8-0.3,0.8-0.7V313.8z"/>
		<path class="st3" d="M87.6,300.4c0-0.4-0.4-0.7-0.8-0.7S86,300,86,300.4v1.5c0,0.4,0.4,0.7,0.8,0.7s0.8-0.3,0.8-0.7V300.4z"/>
		<path class="st3" d="M76.8,317.5c-0.5,0-0.8,0.3-0.8,0.7v1.5c0,0.4,0.4,0.7,0.8,0.7s0.8-0.3,0.8-0.7v-1.5
			C77.6,317.8,77.3,317.5,76.8,317.5C76.8,317.5,76.8,317.5,76.8,317.5z"/>
		<path class="st3" d="M91,322.7c0-0.4-0.4-0.7-0.8-0.7s-0.8,0.3-0.8,0.7v1.5c0,0.4,0.4,0.7,0.8,0.7s0.8-0.3,0.8-0.7V322.7z"/>
		<path class="st3" d="M90.1,326.4c-0.5,0-0.8,0.3-0.8,0.7v3c0,0.4,0.4,0.7,0.8,0.7s0.8-0.3,0.8-0.7v-3
			C91,326.8,90.6,326.4,90.1,326.4C90.1,326.4,90.1,326.4,90.1,326.4z"/>
		<path class="st3" d="M93.5,317.5c-0.5,0-0.8,0.3-0.8,0.7v1.5c0,0.4,0.4,0.7,0.8,0.7s0.8-0.3,0.8-0.7v-1.5
			C94.3,317.8,93.9,317.5,93.5,317.5C93.5,317.5,93.5,317.5,93.5,317.5z"/>
		<path class="st3" d="M80.1,302.6c0.5,0,0.8-0.3,0.8-0.7v-3.1l8.3-1.9v12.4c0,0.3,0.2,0.6,0.5,0.7l6.1,2.1v7.7
			c0,0.4,0.4,0.7,0.8,0.7s0.8-0.3,0.8-0.7v-8.2c0-0.3-0.2-0.6-0.5-0.7l-6.1-2.1v-14.4c0-0.4-0.4-0.7-0.8-0.7s-0.8,0.3-0.8,0.7v0.9
			l-9.4,2.1c-0.4,0.1-0.6,0.4-0.6,0.7v3.7C79.3,302.3,79.7,302.6,80.1,302.6z"/>
		<path class="st3" d="M94.3,313.8c0-0.4-0.4-0.7-0.8-0.7s-0.8,0.3-0.8,0.7v1.5c0,0.4,0.4,0.7,0.8,0.7s0.8-0.3,0.8-0.7V313.8z"/>
		<path class="st3" d="M91,313.8c0-0.4-0.4-0.7-0.8-0.7s-0.8,0.3-0.8,0.7v1.5c0,0.4,0.4,0.7,0.8,0.7s0.8-0.3,0.8-0.7V313.8z"/>
		<path class="st3" d="M84.3,322.7c0-0.4-0.4-0.7-0.8-0.7s-0.8,0.3-0.8,0.7v1.5c0,0.4,0.4,0.7,0.8,0.7s0.8-0.3,0.8-0.7V322.7z"/>
		<path class="st3" d="M91,318.3c0-0.4-0.4-0.7-0.8-0.7s-0.8,0.3-0.8,0.7v1.5c0,0.4,0.4,0.7,0.8,0.7s0.8-0.3,0.8-0.7V318.3z"/>
		<path class="st3" d="M83.5,326.4c-0.5,0-0.8,0.3-0.8,0.7v3c0,0.4,0.4,0.7,0.8,0.7s0.8-0.3,0.8-0.7v-3
			C84.3,326.8,83.9,326.4,83.5,326.4C83.5,326.4,83.5,326.4,83.5,326.4z"/>
		<path class="st3" d="M84.3,318.3c0-0.4-0.4-0.7-0.8-0.7s-0.8,0.3-0.8,0.7v1.5c0,0.4,0.4,0.7,0.8,0.7s0.8-0.3,0.8-0.7V318.3z"/>
		<path class="st3" d="M86.8,330.9c0.5,0,0.8-0.3,0.8-0.7v-23.8c0-0.3-0.3-0.6-0.6-0.7l-13.3-3c-0.4-0.1-0.9,0.2-1,0.6
			c0,0,0,0.1,0,0.1v16.4c0,0.4,0.4,0.7,0.8,0.7s0.8-0.3,0.8-0.7v-15.4l11.7,2.6v23.2C86,330.6,86.3,330.9,86.8,330.9z"/>
		<path class="st3" d="M67.6,304.8c0-0.4-0.4-0.7-0.8-0.7s-0.8,0.3-0.8,0.7l0,0v1.5c0,0.4,0.4,0.7,0.8,0.7s0.8-0.3,0.8-0.7V304.8z"
			/>
		<path class="st3" d="M67.6,300.4c0-0.4-0.4-0.7-0.8-0.7S66,300,66,300.4v1.5c0,0.4,0.4,0.7,0.8,0.7s0.8-0.3,0.8-0.7V300.4z"/>
		<path class="st3" d="M61,322.7c0-0.4-0.4-0.7-0.8-0.7s-0.8,0.3-0.8,0.7v1.5c0,0.4,0.4,0.7,0.8,0.7s0.8-0.3,0.8-0.7V322.7z"/>
		<path class="st3" d="M53.5,316c0.5,0,0.8-0.3,0.8-0.7v-3.7h8.3v18.6c0,0.4,0.4,0.7,0.8,0.7s0.8-0.3,0.8-0.7v-19.4
			c0-0.4-0.4-0.7-0.8-0.7h-10c-0.5,0-0.8,0.3-0.8,0.7v4.5C52.6,315.7,53,316,53.5,316C53.5,316,53.5,316,53.5,316z"/>
		<path class="st3" d="M62.6,304.8v1.5c0,0.4,0.4,0.7,0.8,0.7c0.5,0,0.8-0.3,0.8-0.7v-1.5c0-0.4-0.4-0.7-0.8-0.7
			S62.6,304.4,62.6,304.8C62.6,304.8,62.6,304.8,62.6,304.8z"/>
		<path class="st3" d="M67.6,295.9c0-0.4-0.4-0.7-0.8-0.7s-0.8,0.3-0.8,0.7l0,0v1.5c0,0.4,0.4,0.7,0.8,0.7s0.8-0.3,0.8-0.7V295.9z"
			/>
		<path class="st3" d="M60.1,326.4c-0.5,0-0.8,0.3-0.8,0.7v3c0,0.4,0.4,0.7,0.8,0.7s0.8-0.3,0.8-0.7v-3
			C61,326.8,60.6,326.4,60.1,326.4C60.1,326.4,60.1,326.4,60.1,326.4z"/>
		<path class="st3" d="M98.5,332.4h-1.7v-4.6c1.8-0.4,2.8-2,2.4-3.6c-0.5-1.6-2.3-2.5-4.1-2.1c-1.8,0.4-2.8,2-2.4,3.6
			c0.3,1,1.2,1.9,2.4,2.1v4.6H74.3v-3.1c2.3-0.4,3.7-2.4,3.3-4.4c-0.5-2-2.7-3.3-4.9-2.9c-2.3,0.4-3.7,2.4-3.3,4.4
			c0.3,1.5,1.6,2.6,3.3,2.9v3.1H54.3v-7.5c2.3-0.4,3.7-2.4,3.3-4.4c-0.5-2-2.7-3.3-4.9-2.9c-2.3,0.4-3.7,2.4-3.3,4.4
			c0.3,1.5,1.6,2.6,3.3,2.9v7.5h-2.5c-0.5,0-0.8,0.3-0.8,0.7c0,0.4,0.4,0.7,0.8,0.7h48.3c0.5,0,0.8-0.3,0.8-0.7
			C99.3,332.8,98.9,332.4,98.5,332.4z M51,321.2c0-1.2,1.1-2.2,2.5-2.2s2.5,1,2.5,2.2c0,1.2-1.1,2.2-2.5,2.2S51,322.5,51,321.2z
			 M71,325.7c0-1.2,1.1-2.2,2.5-2.2s2.5,1,2.5,2.2c0,1.2-1.1,2.2-2.5,2.2S71,326.9,71,325.7z M94.3,325c0-0.8,0.7-1.5,1.7-1.5
			s1.7,0.7,1.7,1.5c0,0.8-0.7,1.5-1.7,1.5c0,0,0,0,0,0C95.1,326.5,94.3,325.8,94.3,325C94.3,325,94.3,325,94.3,325L94.3,325z"/>
		<path class="st3" d="M56,327.2v3c0,0.4,0.4,0.7,0.8,0.7s0.8-0.3,0.8-0.7v-3c0-0.4-0.4-0.7-0.8-0.7S56,326.8,56,327.2z"/>
		<path class="st3" d="M61,313.8c0-0.4-0.4-0.7-0.8-0.7s-0.8,0.3-0.8,0.7v1.5c0,0.4,0.4,0.7,0.8,0.7s0.8-0.3,0.8-0.7V313.8z"/>
		<path class="st3" d="M61,318.3c0-0.4-0.4-0.7-0.8-0.7s-0.8,0.3-0.8,0.7v1.5c0,0.4,0.4,0.7,0.8,0.7s0.8-0.3,0.8-0.7V318.3z"/>
		<path class="st3" d="M56,313.8v1.5c0,0.4,0.4,0.7,0.8,0.7s0.8-0.3,0.8-0.7v-1.5c0-0.4-0.4-0.7-0.8-0.7S56,313.4,56,313.8z"/>
		<path class="st3" d="M67.6,318.3c0-0.4-0.4-0.7-0.8-0.7s-0.8,0.3-0.8,0.7v1.5c0,0.4,0.4,0.7,0.8,0.7s0.8-0.3,0.8-0.7V318.3z"/>
		<path class="st3" d="M71,309.3c0-0.4-0.4-0.7-0.8-0.7s-0.8,0.3-0.8,0.7v1.5c0,0.4,0.4,0.7,0.8,0.7s0.8-0.3,0.8-0.7V309.3z"/>
		<path class="st3" d="M71,304.8c0-0.4-0.4-0.7-0.8-0.7s-0.8,0.3-0.8,0.7l0,0v1.5c0,0.4,0.4,0.7,0.8,0.7s0.8-0.3,0.8-0.7V304.8z"/>
		<path class="st3" d="M71,313.8c0-0.4-0.4-0.7-0.8-0.7s-0.8,0.3-0.8,0.7v1.5c0,0.4,0.4,0.7,0.8,0.7s0.8-0.3,0.8-0.7V313.8z"/>
		<path class="st3" d="M70.1,317.5c-0.5,0-0.8,0.3-0.8,0.7v1.5c0,0.4,0.4,0.7,0.8,0.7s0.8-0.3,0.8-0.7v-1.5
			C71,317.8,70.6,317.5,70.1,317.5C70.1,317.5,70.1,317.5,70.1,317.5z"/>
		<path class="st3" d="M71,300.4c0-0.4-0.4-0.7-0.8-0.7s-0.8,0.3-0.8,0.7v1.5c0,0.4,0.4,0.7,0.8,0.7s0.8-0.3,0.8-0.7V300.4z"/>
		<path class="st3" d="M67.6,322.7c0-0.4-0.4-0.7-0.8-0.7s-0.8,0.3-0.8,0.7v1.5c0,0.4,0.4,0.7,0.8,0.7s0.8-0.3,0.8-0.7V322.7z"/>
		<path class="st3" d="M60.1,308.6c0.5,0,0.8-0.3,0.8-0.7v-5.5l2.9-1.3c0.3-0.1,0.5-0.4,0.5-0.7v-6.3l4.2-1.9l4.2,1.9v6.3
			c0,0.4,0.4,0.7,0.8,0.7s0.8-0.3,0.8-0.7l0,0v-6.7c0-0.3-0.2-0.5-0.5-0.7l-4.5-2v-1c0-0.4-0.4-0.7-0.8-0.7s-0.8,0.3-0.8,0.7v1
			l-4.5,2c-0.3,0.1-0.5,0.4-0.5,0.7v6.3l-2.9,1.3c-0.3,0.1-0.5,0.4-0.5,0.7v6C59.3,308.3,59.7,308.6,60.1,308.6z"/>
		<path class="st3" d="M67.6,313.8c0-0.4-0.4-0.7-0.8-0.7s-0.8,0.3-0.8,0.7v1.5c0,0.4,0.4,0.7,0.8,0.7s0.8-0.3,0.8-0.7V313.8z"/>
		<path class="st3" d="M66.8,326.4c-0.5,0-0.8,0.3-0.8,0.7v3c0,0.4,0.4,0.7,0.8,0.7s0.8-0.3,0.8-0.7v-3
			C67.6,326.8,67.3,326.4,66.8,326.4C66.8,326.4,66.8,326.4,66.8,326.4z"/>
		<path class="st3" d="M71,295.9c0-0.4-0.4-0.7-0.8-0.7s-0.8,0.3-0.8,0.7l0,0v1.5c0,0.4,0.4,0.7,0.8,0.7s0.8-0.3,0.8-0.7V295.9z"/>
		<path class="st3" d="M67.6,309.3c0-0.4-0.4-0.7-0.8-0.7s-0.8,0.3-0.8,0.7v1.5c0,0.4,0.4,0.7,0.8,0.7s0.8-0.3,0.8-0.7V309.3z"/>
	</g>
	<g class="st2">
		<path class="st3" d="M306.9,314.7h7.8c1.1,0,3.1,1.3,4.8,2.4c2.1,1.4,4.2,2.8,6,2.8h5.9c0.8,0,1.6,0.2,2.2,0.6
			c0.5,0.3,1.1,0.2,1.4-0.2c0.2-0.3,0.2-0.7,0-1c-1-0.8-2.3-1.2-3.6-1.1h-5.9c-1.1,0-3.1-1.3-4.8-2.4c-2.1-1.4-4.2-2.8-6-2.8h-7.8
			c-0.6,0-1,0.4-1,0.9S306.3,314.7,306.9,314.7L306.9,314.7z"/>
		<path class="st3" d="M299.1,328.2c0-0.7-0.7-1.3-1.5-1.3s-1.5,0.6-1.5,1.3s0.7,1.3,1.5,1.3S299.1,328.9,299.1,328.2L299.1,328.2z"
			/>
		<path class="st3" d="M352.3,318.1c-0.5-0.8-1.4-1.4-2.4-1.6c-1-0.2-2-0.1-2.9,0.3l-11.3,4.9c-1.8,0.8-3.5,0.8-7.4,0.8
			c-3.2-0.1-6.4-0.4-9.6-0.9c-0.5-0.2-1.1,0-1.3,0.5c-0.2,0.5,0.1,1,0.6,1.2c0.1,0,0.3,0.1,0.4,0.1c3.3,0.5,6.6,0.8,9.9,0.9
			c4.1,0,6.1,0,8.3-1l11.4-4.9c0.8-0.7,2.1-0.6,2.8,0.1c0.7,0.7,0.7,1.9-0.2,2.5c-0.2,0.2-0.5,0.3-0.7,0.4l-13.2,7.4
			c0,0-2.9,1.6-9.2,1.6c-5.5,0-14.1-4.2-14.2-4.3c-2-0.7-4.1-1-6.3-1c-0.6,0-1,0.4-1,0.9s0.4,0.9,1,0.9c1.8-0.1,3.7,0.2,5.4,0.8
			c0.4,0.2,9.1,4.5,15.1,4.5c7.1,0,10.2-1.8,10.3-1.9l13.2-7.3C352.8,322,353.4,319.9,352.3,318.1L352.3,318.1z"/>
		<path class="st3" d="M301,309.4h-5.9c-0.6,0-1,0.4-1,0.9c0,0.5,0.4,0.9,1,0.9h5.9c0.6,0,1,0.4,1,0.9v19.2c0,0.5-0.4,0.9-1,0.9
			h-5.9c-0.6,0-1,0.4-1,0.9s0.4,0.9,1,0.9h5.9c1.6,0,2.9-1.2,2.9-2.6V312C303.9,310.6,302.6,309.4,301,309.4z"/>
		<path class="st3" d="M327.5,312.4c-1.1,0-2.1-0.4-2.9-1.1l-8.9-8c-1.6-1.4-1.6-3.7,0-5.1l8.9-8c1.6-1.4,4.2-1.4,5.7,0l8.9,8
			c1.6,1.4,1.6,3.7,0,5.1l-8.9,8C329.6,312,328.6,312.4,327.5,312.4z M327.5,290.5c-0.7,0-1.3,0.2-1.8,0.7l-8.9,8
			c-1,0.9-1,2.3,0,3.2l8.9,8c1,0.9,2.6,0.9,3.6,0l8.9-8c1-0.9,1-2.3,0-3.2l-8.9-8C328.9,290.8,328.2,290.5,327.5,290.5z"/>
	</g>
	<g class="st2">
		<path class="st3" d="M350.8,168.2c-3.7,0-6.7,2.7-6.7,6c0,1.2,0.4,2.3,1.1,3.3l-7.3,6.5c-2.3-1.3-5.2-1.3-7.5,0.1l-7.3-6.6
			c2-2.8,1.1-6.5-2-8.3c-3.1-1.8-7.3-1-9.3,1.8c-1.5,2-1.5,4.6,0,6.6l-7.3,6.5c-3.1-1.8-7.3-1-9.3,1.8c-2,2.8-1.1,6.5,2,8.3
			s7.3,1,9.3-1.8c1.4-2,1.4-4.5,0-6.5l7.3-6.5c2.2,1.3,5.1,1.3,7.3,0l7.4,6.6c-2,2.8-1,6.5,2.1,8.3c3.1,1.8,7.3,0.9,9.3-1.9
			c1.4-2,1.4-4.5-0.1-6.5l7.3-6.5c3.1,1.8,7.3,1,9.3-1.8c2-2.8,1.1-6.5-2-8.3C353.4,168.6,352.1,168.2,350.8,168.2L350.8,168.2z
			 M301,192.5c-2.2,0-3.9-1.6-3.9-3.5c0-1.9,1.8-3.5,3.9-3.5s3.9,1.6,3.9,3.5C304.9,190.9,303.2,192.5,301,192.5z M317.6,177.7
			c-2.2,0-3.9-1.6-3.9-3.5c0-1.9,1.8-3.5,3.9-3.5s3.9,1.6,3.9,3.5C321.5,176.1,319.7,177.7,317.6,177.7
			C317.5,177.7,317.5,177.7,317.6,177.7L317.6,177.7z M334.3,192.5c-2.2,0-3.9-1.6-3.9-3.5c0-1.9,1.8-3.5,3.9-3.5s3.9,1.6,3.9,3.5
			C338.2,190.9,336.5,192.5,334.3,192.5C334.3,192.5,334.3,192.5,334.3,192.5L334.3,192.5z M350.9,177.7c-2.2,0-3.9-1.6-3.9-3.5
			c0-1.9,1.8-3.5,3.9-3.5s3.9,1.6,3.9,3.5C354.8,176.1,353,177.7,350.9,177.7C350.8,177.7,350.8,177.7,350.9,177.7L350.9,177.7z"/>
		<path class="st3" d="M316.1,183.4c-0.5-0.5-1.4-0.5-2,0c0,0,0,0,0,0l-2.8,2.5c-0.6,0.5-0.6,1.3,0,1.8c0.6,0.5,1.4,0.5,2,0l2.8-2.5
			C316.6,184.7,316.7,184,316.1,183.4C316.1,183.5,316.1,183.4,316.1,183.4z"/>
		<path class="st3" d="M340.5,175.5c-0.5-0.5-1.4-0.5-2,0c0,0,0,0,0,0l-2.8,2.5c-0.6,0.5-0.6,1.3,0,1.8c0.6,0.5,1.4,0.5,2,0l2.8-2.5
			C341,176.8,341,176,340.5,175.5C340.5,175.5,340.5,175.5,340.5,175.5z"/>
	</g>
	<g class="st2">
		<path class="st3" d="M560.8,470h7.8c1.1,0,3.1,1.5,4.8,2.7c2.2,1.6,4.2,3.1,6,3.1h5.9c0.8,0,1.6,0.2,2.2,0.7
			c0.3,0.5,0.9,0.6,1.4,0.3s0.6-0.9,0.3-1.4c-0.1-0.1-0.2-0.2-0.3-0.3c-1-0.9-2.3-1.3-3.6-1.3h-5.9c-1.1,0-3.1-1.5-4.8-2.7
			c-2.2-1.6-4.2-3.1-6-3.1h-7.8c-0.6,0-1,0.4-1,1S560.3,470,560.8,470L560.8,470z"/>
		<path class="st3" d="M553,485.1c0-0.8-0.7-1.5-1.5-1.5c-0.8,0-1.5,0.7-1.5,1.5s0.7,1.5,1.5,1.5l0,0
			C552.4,486.6,553,485.9,553,485.1z"/>
		<path class="st3" d="M606.3,473.9c-0.5-0.9-1.4-1.6-2.4-1.8c-1-0.3-2-0.1-2.9,0.4l-11.2,5.5c-1.8,0.9-3.5,0.9-7.4,0.9
			c-3.2-0.1-6.4-0.5-9.6-1c-0.5-0.2-1.1,0.1-1.3,0.6c-0.2,0.5,0.1,1.1,0.6,1.3c0.1,0.1,0.3,0.1,0.4,0.1c3.3,0.5,6.6,0.9,9.9,1
			c4.1,0,6.1,0,8.3-1.1l11.3-5.5c0.8-0.7,2.1-0.7,2.8,0.2c0.7,0.8,0.7,2.1-0.2,2.8c-0.2,0.2-0.5,0.3-0.7,0.4l-13.2,8.2
			c0,0-2.8,1.8-9.2,1.8c-5.5,0-14.1-4.7-14.2-4.8c-2-0.8-4.1-1.2-6.3-1c-0.6,0-1,0.4-1,1s0.4,1,1,1c1.8-0.1,3.7,0.2,5.4,0.9
			c0.4,0.2,9.1,5,15.1,5c7.1,0,10.2-2,10.3-2.1l13.2-8.2C606.7,478.1,607.3,475.7,606.3,473.9L606.3,473.9z"/>
		<path class="st3" d="M555,464.1h-5.9c-0.6,0-1,0.4-1,1c0,0.6,0.4,1,1,1h5.9c0.6,0,1,0.4,1,1v21.5c0,0.6-0.4,1-1,1h-5.9
			c-0.6,0-1,0.4-1,1s0.4,1,1,1h5.9c1.6,0,2.9-1.3,2.9-2.9V467C557.9,465.4,556.6,464.1,555,464.1z"/>
		<path class="st3" d="M581.5,467.4c-1.1,0-2.1-0.4-2.9-1.2l-8.9-8.9c-1.6-1.6-1.6-4.2,0-5.7l8.9-8.9c1.6-1.6,4.1-1.6,5.7,0l8.9,8.9
			c1.6,1.6,1.6,4.2,0,5.7l-8.9,8.9C583.6,467,582.5,467.4,581.5,467.4z M581.5,443c-0.7,0-1.3,0.3-1.8,0.8l-8.9,9c-1,1-1,2.6,0,3.6
			l8.9,8.9c1,1,2.6,1,3.6,0l8.9-8.9c1-1,1-2.6,0-3.6l-8.9-9C582.8,443.2,582.2,442.9,581.5,443z"/>
	</g>
	<g class="st2">
		<path class="st3" d="M587.9,616.9c0-0.5-0.4-0.8-0.8-0.8c-0.5,0-0.8,0.4-0.8,0.8v1.7c0,0.5,0.4,0.8,0.8,0.8c0.5,0,0.8-0.4,0.8-0.8
			l0,0V616.9z"/>
		<path class="st3" d="M587,626c-0.5,0-0.8,0.4-0.8,0.8l0,0v3.3c0,0.5,0.4,0.8,0.8,0.8c0.5,0,0.8-0.4,0.8-0.8l0,0v-3.3
			C587.9,626.4,587.5,626,587,626C587,626,587,626,587,626z"/>
		<path class="st3" d="M591.2,606.9c0-0.5-0.4-0.8-0.8-0.8c-0.5,0-0.8,0.4-0.8,0.8v1.7c0,0.5,0.4,0.8,0.8,0.8c0.5,0,0.8-0.4,0.8-0.8
			V606.9z"/>
		<path class="st3" d="M587.9,611.9c0-0.5-0.4-0.8-0.8-0.8c-0.5,0-0.8,0.4-0.8,0.8v1.7c0,0.5,0.4,0.8,0.8,0.8c0.5,0,0.8-0.4,0.8-0.8
			l0,0V611.9z"/>
		<path class="st3" d="M587.9,621.9c0-0.5-0.4-0.8-0.8-0.8c-0.5,0-0.8,0.4-0.8,0.8v1.7c0,0.5,0.4,0.8,0.8,0.8c0.5,0,0.8-0.4,0.8-0.8
			V621.9z"/>
		<path class="st3" d="M591.2,611.9c0-0.5-0.4-0.8-0.8-0.8c-0.5,0-0.8,0.4-0.8,0.8v1.7c0,0.5,0.4,0.8,0.8,0.8c0.5,0,0.8-0.4,0.8-0.8
			l0,0V611.9z"/>
		<path class="st3" d="M584.5,606.9c0-0.5-0.4-0.8-0.8-0.8c-0.5,0-0.8,0.4-0.8,0.8v1.7c0,0.5,0.4,0.8,0.8,0.8c0.5,0,0.8-0.4,0.8-0.8
			V606.9z"/>
		<path class="st3" d="M587.9,606.9c0-0.5-0.4-0.8-0.8-0.8c-0.5,0-0.8,0.4-0.8,0.8v1.7c0,0.5,0.4,0.8,0.8,0.8c0.5,0,0.8-0.4,0.8-0.8
			V606.9z"/>
		<path class="st3" d="M591.2,598.5v-1.7c0-0.5-0.4-0.8-0.8-0.8c-0.5,0-0.8,0.4-0.8,0.8v1.7c0,0.5,0.4,0.8,0.8,0.8
			C590.8,599.4,591.2,599,591.2,598.5z"/>
		<path class="st3" d="M584.5,611.9c0-0.5-0.4-0.8-0.8-0.8c-0.5,0-0.8,0.4-0.8,0.8v1.7c0,0.5,0.4,0.8,0.8,0.8c0.5,0,0.8-0.4,0.8-0.8
			l0,0V611.9z"/>
		<path class="st3" d="M594.5,596.9c0-0.5-0.4-0.8-0.8-0.8c-0.5,0-0.8,0.4-0.8,0.8v1.7c0,0.5,0.4,0.8,0.8,0.8c0.5,0,0.8-0.4,0.8-0.8
			V596.9z"/>
		<path class="st3" d="M583.7,616c-0.5,0-0.8,0.4-0.8,0.8l0,0v1.7c0,0.5,0.4,0.8,0.8,0.8c0.5,0,0.8-0.4,0.8-0.8l0,0v-1.7
			C584.6,616.4,584.2,616,583.7,616C583.7,616,583.7,616,583.7,616z"/>
		<path class="st3" d="M597.9,621.9c0-0.5-0.4-0.8-0.8-0.8c-0.5,0-0.8,0.4-0.8,0.8v1.7c0,0.5,0.4,0.8,0.8,0.8c0.5,0,0.8-0.4,0.8-0.8
			V621.9z"/>
		<path class="st3" d="M597,626c-0.5,0-0.8,0.4-0.8,0.8l0,0v3.3c0,0.5,0.4,0.8,0.8,0.8c0.5,0,0.8-0.4,0.8-0.8l0,0v-3.3
			C597.9,626.4,597.5,626,597,626C597,626,597,626,597,626z"/>
		<path class="st3" d="M600.3,616c-0.5,0-0.8,0.4-0.8,0.8l0,0v1.7c0,0.5,0.4,0.8,0.8,0.8c0.5,0,0.8-0.4,0.8-0.8l0,0v-1.7
			C601.2,616.4,600.8,616,600.3,616C600.3,616,600.3,616,600.3,616z"/>
		<path class="st3" d="M587,599.4c0.5,0,0.8-0.4,0.8-0.8l0,0V595l8.3-2.1v13.9c0,0.3,0.2,0.7,0.5,0.8l6.1,2.3v8.6
			c0,0.5,0.4,0.8,0.8,0.8c0.5,0,0.8-0.4,0.8-0.8l0,0v-9.2c0-0.3-0.2-0.7-0.5-0.8l-6.1-2.3v-16.1c0-0.5-0.4-0.8-0.8-0.8
			c-0.5,0-0.8,0.4-0.8,0.8v1l-9.4,2.3c-0.4,0.1-0.6,0.4-0.6,0.8v4.2C586.2,599,586.6,599.4,587,599.4C587,599.4,587,599.4,587,599.4
			z"/>
		<path class="st3" d="M601.2,611.9c0-0.5-0.4-0.8-0.8-0.8c-0.5,0-0.8,0.4-0.8,0.8v1.7c0,0.5,0.4,0.8,0.8,0.8c0.5,0,0.8-0.4,0.8-0.8
			l0,0V611.9z"/>
		<path class="st3" d="M597.9,611.9c0-0.5-0.4-0.8-0.8-0.8c-0.5,0-0.8,0.4-0.8,0.8v1.7c0,0.5,0.4,0.8,0.8,0.8c0.5,0,0.8-0.4,0.8-0.8
			l0,0V611.9z"/>
		<path class="st3" d="M591.2,621.9c0-0.5-0.4-0.8-0.8-0.8c-0.5,0-0.8,0.4-0.8,0.8v1.7c0,0.5,0.4,0.8,0.8,0.8c0.5,0,0.8-0.4,0.8-0.8
			V621.9z"/>
		<path class="st3" d="M597.9,616.9c0-0.5-0.4-0.8-0.8-0.8c-0.5,0-0.8,0.4-0.8,0.8v1.7c0,0.5,0.4,0.8,0.8,0.8c0.5,0,0.8-0.4,0.8-0.8
			l0,0V616.9z"/>
		<path class="st3" d="M590.3,626c-0.5,0-0.8,0.4-0.8,0.8l0,0v3.3c0,0.5,0.4,0.8,0.8,0.8c0.5,0,0.8-0.4,0.8-0.8l0,0v-3.3
			C591.2,626.4,590.8,626,590.3,626C590.3,626,590.3,626,590.3,626z"/>
		<path class="st3" d="M591.2,616.9c0-0.5-0.4-0.8-0.8-0.8c-0.5,0-0.8,0.4-0.8,0.8v1.7c0,0.5,0.4,0.8,0.8,0.8c0.5,0,0.8-0.4,0.8-0.8
			l0,0V616.9z"/>
		<path class="st3" d="M593.7,631c0.5,0,0.8-0.4,0.8-0.8v0v-26.7c0-0.4-0.3-0.7-0.6-0.8l-13.3-3.3c-0.4-0.1-0.9,0.2-1,0.6
			c0,0.1,0,0.1,0,0.2v18.3c0,0.5,0.4,0.8,0.8,0.8c0.5,0,0.8-0.4,0.8-0.8l0,0v-17.3l11.7,2.9v26C592.9,630.7,593.3,631,593.7,631z"/>
		<path class="st3" d="M574.5,601.9c0-0.5-0.4-0.8-0.8-0.8c-0.5,0-0.8,0.4-0.8,0.8v1.7c0,0.5,0.4,0.8,0.8,0.8c0.5,0,0.8-0.4,0.8-0.8
			l0,0V601.9z"/>
		<path class="st3" d="M574.5,596.9c0-0.5-0.4-0.8-0.8-0.8c-0.5,0-0.8,0.4-0.8,0.8v1.7c0,0.5,0.4,0.8,0.8,0.8c0.5,0,0.8-0.4,0.8-0.8
			V596.9z"/>
		<path class="st3" d="M567.9,621.9c0-0.5-0.4-0.8-0.8-0.8c-0.5,0-0.8,0.4-0.8,0.8v1.7c0,0.5,0.4,0.8,0.8,0.8c0.5,0,0.8-0.4,0.8-0.8
			V621.9z"/>
		<path class="st3" d="M560.3,614.4c0.5,0,0.8-0.4,0.8-0.8l0,0v-4.2h8.3v20.8c0,0.5,0.4,0.8,0.8,0.8c0.5,0,0.8-0.4,0.8-0.8l0,0
			v-21.7c0-0.5-0.4-0.8-0.8-0.8l0,0h-10c-0.5,0-0.8,0.4-0.8,0.8l0,0v5C559.5,614,559.9,614.4,560.3,614.4L560.3,614.4z"/>
		<path class="st3" d="M569.5,601.9v1.7c0,0.5,0.4,0.8,0.8,0.8c0.5,0,0.8-0.4,0.8-0.8l0,0v-1.7c0-0.5-0.4-0.8-0.8-0.8
			C569.9,601,569.5,601.4,569.5,601.9z"/>
		<path class="st3" d="M574.5,591.9c0-0.5-0.4-0.8-0.8-0.8c-0.5,0-0.8,0.4-0.8,0.8v1.7c0,0.5,0.4,0.8,0.8,0.8c0.5,0,0.8-0.4,0.8-0.8
			V591.9z"/>
		<path class="st3" d="M567,626c-0.5,0-0.8,0.4-0.8,0.8l0,0v3.3c0,0.5,0.4,0.8,0.8,0.8c0.5,0,0.8-0.4,0.8-0.8l0,0v-3.3
			C567.9,626.4,567.5,626,567,626C567,626,567,626,567,626z"/>
		<path class="st3" d="M605.3,632.7h-1.7v-5.1c1.8-0.5,2.8-2.3,2.4-4.1c-0.5-1.8-2.3-2.8-4.1-2.4c-1.8,0.5-2.8,2.3-2.4,4.1
			c0.3,1.2,1.2,2.1,2.4,2.4v5.1h-20.8v-3.4c2.3-0.5,3.7-2.7,3.3-4.9c-0.5-2.3-2.7-3.7-4.9-3.3c-2.3,0.5-3.7,2.7-3.3,4.9
			c0.3,1.6,1.6,2.9,3.3,3.3v3.4h-18.3v-8.4c2.3-0.5,3.7-2.7,3.3-4.9c-0.5-2.3-2.7-3.7-4.9-3.3c-2.3,0.5-3.7,2.7-3.3,4.9
			c0.3,1.6,1.6,2.9,3.3,3.3v8.4H557c-0.5,0-0.8,0.4-0.8,0.8c0,0.5,0.4,0.8,0.8,0.8h48.3c0.5,0,0.8-0.4,0.8-0.8
			C606.2,633.1,605.8,632.7,605.3,632.7z M557.8,620.2c0-1.4,1.1-2.5,2.5-2.5s2.5,1.1,2.5,2.5c0,1.4-1.1,2.5-2.5,2.5
			C559,622.7,557.9,621.6,557.8,620.2L557.8,620.2z M577.8,625.2c0-1.4,1.1-2.5,2.5-2.5s2.5,1.1,2.5,2.5c0,1.4-1.1,2.5-2.5,2.5
			C579,627.7,577.9,626.6,577.8,625.2L577.8,625.2z M601.2,624.4c0-0.9,0.7-1.7,1.7-1.7s1.7,0.7,1.7,1.7s-0.7,1.7-1.7,1.7l0,0
			C601.9,626,601.2,625.3,601.2,624.4L601.2,624.4z"/>
		<path class="st3" d="M562.9,626.9v3.3c0,0.5,0.4,0.8,0.8,0.8c0.5,0,0.8-0.4,0.8-0.8l0,0v-3.3c0-0.5-0.4-0.8-0.8-0.8
			C563.3,626,562.9,626.4,562.9,626.9z"/>
		<path class="st3" d="M567.9,611.9c0-0.5-0.4-0.8-0.8-0.8c-0.5,0-0.8,0.4-0.8,0.8v1.7c0,0.5,0.4,0.8,0.8,0.8c0.5,0,0.8-0.4,0.8-0.8
			l0,0V611.9z"/>
		<path class="st3" d="M567.9,616.9c0-0.5-0.4-0.8-0.8-0.8c-0.5,0-0.8,0.4-0.8,0.8v1.7c0,0.5,0.4,0.8,0.8,0.8c0.5,0,0.8-0.4,0.8-0.8
			l0,0V616.9z"/>
		<path class="st3" d="M562.9,611.9v1.7c0,0.5,0.4,0.8,0.8,0.8c0.5,0,0.8-0.4,0.8-0.8l0,0v-1.7c0-0.5-0.4-0.8-0.8-0.8
			C563.3,611,562.9,611.4,562.9,611.9z"/>
		<path class="st3" d="M574.5,616.9c0-0.5-0.4-0.8-0.8-0.8c-0.5,0-0.8,0.4-0.8,0.8v1.7c0,0.5,0.4,0.8,0.8,0.8c0.5,0,0.8-0.4,0.8-0.8
			l0,0V616.9z"/>
		<path class="st3" d="M577.9,606.9c0-0.5-0.4-0.8-0.8-0.8c-0.5,0-0.8,0.4-0.8,0.8v1.7c0,0.5,0.4,0.8,0.8,0.8c0.5,0,0.8-0.4,0.8-0.8
			V606.9z"/>
		<path class="st3" d="M577.9,601.9c0-0.5-0.4-0.8-0.8-0.8c-0.5,0-0.8,0.4-0.8,0.8v1.7c0,0.5,0.4,0.8,0.8,0.8c0.5,0,0.8-0.4,0.8-0.8
			l0,0V601.9z"/>
		<path class="st3" d="M577.9,611.9c0-0.5-0.4-0.8-0.8-0.8c-0.5,0-0.8,0.4-0.8,0.8v1.7c0,0.5,0.4,0.8,0.8,0.8c0.5,0,0.8-0.4,0.8-0.8
			l0,0V611.9z"/>
		<path class="st3" d="M577,616c-0.5,0-0.8,0.4-0.8,0.8l0,0v1.7c0,0.5,0.4,0.8,0.8,0.8c0.5,0,0.8-0.4,0.8-0.8l0,0v-1.7
			C577.9,616.4,577.5,616,577,616C577,616,577,616,577,616z"/>
		<path class="st3" d="M577.9,596.9c0-0.5-0.4-0.8-0.8-0.8c-0.5,0-0.8,0.4-0.8,0.8v1.7c0,0.5,0.4,0.8,0.8,0.8c0.5,0,0.8-0.4,0.8-0.8
			V596.9z"/>
		<path class="st3" d="M574.5,621.9c0-0.5-0.4-0.8-0.8-0.8c-0.5,0-0.8,0.4-0.8,0.8v1.7c0,0.5,0.4,0.8,0.8,0.8c0.5,0,0.8-0.4,0.8-0.8
			V621.9z"/>
		<path class="st3" d="M567,606c0.5,0,0.8-0.4,0.8-0.8v0v-6.2l2.9-1.4c0.3-0.1,0.5-0.4,0.5-0.8v-7l4.2-2.1l4.2,2.1v7
			c0,0.5,0.4,0.8,0.8,0.8c0.5,0,0.8-0.4,0.8-0.8v-7.5c0-0.3-0.2-0.6-0.5-0.8l-4.5-2.3v-1.1c0-0.5-0.4-0.8-0.8-0.8
			c-0.5,0-0.8,0.4-0.8,0.8v1.1l-4.5,2.3c-0.3,0.1-0.5,0.4-0.5,0.8v7l-2.9,1.4c-0.3,0.1-0.5,0.4-0.5,0.8v6.7
			C566.2,605.7,566.6,606.1,567,606z"/>
		<path class="st3" d="M574.5,611.9c0-0.5-0.4-0.8-0.8-0.8c-0.5,0-0.8,0.4-0.8,0.8v1.7c0,0.5,0.4,0.8,0.8,0.8c0.5,0,0.8-0.4,0.8-0.8
			l0,0V611.9z"/>
		<path class="st3" d="M573.7,626c-0.5,0-0.8,0.4-0.8,0.8l0,0v3.3c0,0.5,0.4,0.8,0.8,0.8c0.5,0,0.8-0.4,0.8-0.8l0,0v-3.3
			C574.6,626.4,574.2,626,573.7,626C573.7,626,573.7,626,573.7,626z"/>
		<path class="st3" d="M577.9,591.9c0-0.5-0.4-0.8-0.8-0.8c-0.5,0-0.8,0.4-0.8,0.8v1.7c0,0.5,0.4,0.8,0.8,0.8c0.5,0,0.8-0.4,0.8-0.8
			V591.9z"/>
		<path class="st3" d="M574.5,606.9c0-0.5-0.4-0.8-0.8-0.8c-0.5,0-0.8,0.4-0.8,0.8v1.7c0,0.5,0.4,0.8,0.8,0.8c0.5,0,0.8-0.4,0.8-0.8
			V606.9z"/>
	</g>
	<g class="st2">
		<g class="st4">
			<path class="st3" d="M333.9,464l-5.3-2.3c-0.4-0.2-0.7-0.6-0.6-1v-1.4c1.9-1.5,2.9-3.7,2.9-6.1v-2.1c0.6-0.3,1-1,1-1.7v-0.2
				c0-4.3-3.5-7.8-7.8-7.8h-2c-4.3,0-7.8,3.5-7.8,7.8v1.8c0,0.6,0.3,1.2,0.7,1.5l0.3,0.2v0.4c0,2.4,1.1,4.6,2.9,6.1v1.5
				c0,0.4-0.2,0.8-0.6,1l-5.3,2.3c-1.7,0.8-2.9,2.5-2.9,4.4v12.1c0.1,0.5,0.5,0.9,1,0.8c0.4,0,0.8-0.4,0.8-0.8v-12.1
				c0-0.1,0-0.2,0-0.3l2.5,2.4c0.4,0.4,0.6,0.9,0.6,1.4v8.6c-0.1,0.5,0.3,1,0.8,1c0.5,0.1,1-0.3,1-0.8c0-0.1,0-0.1,0-0.2V472
				c0-1-0.4-2-1.1-2.7l-2.9-2.9c0.3-0.3,0.6-0.5,0.9-0.7l5.3-2.3l3.9,3.9v13.3c0.1,0.5,0.5,0.9,1,0.8c0.4,0,0.8-0.4,0.8-0.8v-13.3
				l3.9-3.9l5.2,2.3c0.4,0.2,0.7,0.4,0.9,0.7l-2.9,2.9c-0.7,0.7-1.1,1.7-1.1,2.7v8.6c-0.1,0.5,0.3,1,0.8,1c0.5,0.1,1-0.3,1-0.8
				c0-0.1,0-0.1,0-0.2V472c0-0.5,0.2-1.1,0.6-1.4l2.5-2.5c0,0.1,0,0.2,0,0.3v12.1c0.1,0.5,0.5,0.9,1,0.8c0.4,0,0.8-0.4,0.8-0.8
				v-12.1C336.7,466.5,335.6,464.8,333.9,464z M323.1,465.5l-3.4-3.4c0.3-0.4,0.4-1,0.4-1.5v-0.4c1.9,0.8,4.1,0.8,6,0v0.4
				c0,0.5,0.1,1,0.4,1.5L323.1,465.5z M323.1,459.1c-3.3,0-5.9-2.7-5.9-5.9v-0.4c0.6-0.3,1.2-0.6,1.7-1.1c0.3-0.4,0.3-1-0.1-1.3
				c-0.3-0.3-0.8-0.3-1.2-0.1c-0.4,0.4-0.8,0.7-1.4,0.8l0,0c0,0,0-0.1,0-0.1v-1.8c0-3.3,2.7-5.9,5.9-5.9l0,0h2
				c3.3,0,5.9,2.7,5.9,5.9v0v0.2c0,0,0,0,0,0.1c-5.5,1.1-8.2-1-9.2-1.9c-0.4-0.3-1-0.2-1.3,0.2c-0.3,0.3-0.3,0.8,0,1.1
				c2.8,2.8,7,2.9,9.5,2.6v1.6c0,3.3-2.6,5.9-5.9,6C323.2,459.1,323.1,459.1,323.1,459.1L323.1,459.1z"/>
		</g>
		<g class="st4">
			<path class="st3" d="M308.3,459v-2c0-2.3-1.2-4.5-3.1-5.7c0.6-2-0.5-4.2-2.5-4.8c-2-0.6-4.2,0.5-4.8,2.5c-0.2,0.7-0.2,1.5,0,2.3
				c-1.9,1.2-3.1,3.4-3.1,5.7v2c0,2.2,1.1,4.3,2.9,5.6v2c0,0.4-0.2,0.8-0.6,0.9l-3.2,1.6c-1.3,0.6-2.1,2-2.1,3.4v8
				c0.1,0.5,0.5,0.9,1,0.8c0.4,0,0.8-0.4,0.8-0.8V473l1.5,1.5c0.4,0.4,0.6,0.9,0.6,1.4v4.7c-0.1,0.5,0.3,1,0.8,1
				c0.5,0.1,1-0.3,1-0.8c0-0.1,0-0.1,0-0.2v-4.7c0-1-0.4-2-1.1-2.7l-2.1-2.1l0,0c0.1-0.1,0.3-0.2,0.4-0.3l3.2-1.6
				c0.2-0.1,0.3-0.2,0.5-0.3l2.2,2.2v9.4c-0.1,0.5,0.3,1,0.8,1c0.5,0.1,1-0.3,1-0.8c0-0.1,0-0.1,0-0.2v-9.4l2.2-2.2
				c0.1,0.1,0.3,0.2,0.5,0.3l0.9,0.4c0.4,0.3,1,0.1,1.3-0.3c0.3-0.4,0.1-1-0.3-1.3c0,0-0.1,0-0.1-0.1l-0.9-0.4
				c-0.4-0.2-0.6-0.5-0.6-0.9v-2C307.2,463.3,308.3,461.2,308.3,459z M301.5,448.2c1.1,0,2,0.9,2,2c0,0.1,0,0.2,0,0.4
				c-1.3-0.4-2.7-0.4-4,0c-0.2-1.1,0.5-2.1,1.6-2.3C301.3,448.2,301.4,448.2,301.5,448.2L301.5,448.2z M301.5,452.1c2.8,0,5,2.2,5,5
				v0.3c-2.3,0.7-4.7,0-6.2-1.9c-0.3-0.4-0.9-0.5-1.3-0.2c0,0-0.1,0.1-0.1,0.1c-0.7,0.7-1.5,1.2-2.4,1.5
				C296.7,454.3,298.9,452.1,301.5,452.1L301.5,452.1z M301.5,469.5l-2.1-2.1c0.1-0.2,0.1-0.5,0.1-0.7v-1.1c1.3,0.4,2.7,0.4,4,0v1.2
				c0,0.2,0,0.5,0.1,0.7L301.5,469.5z M301.5,464c-2.8,0-5-2.2-5-5v-0.2c1.1-0.3,2.1-0.8,2.9-1.5c0.5,0.5,1.1,0.9,1.7,1.2
				c1.1,0.6,2.3,0.9,3.5,0.9c0.6,0,1.2-0.1,1.8-0.2C306.3,461.8,304.2,463.9,301.5,464L301.5,464z"/>
		</g>
		<g class="st4">
			<path class="st3" d="M352.2,467.2l-5.1-2.6c-0.4-0.2-0.6-0.5-0.6-0.9v-1.3c1.3-1.1,2-2.7,2-4.3v-1h0.1c0.5,0,0.9-0.4,0.9-0.9
				c0,0,0,0,0,0v-2c0-3.2-2.6-5.8-5.8-5.8h-2c-3.2,0-5.8,2.6-5.8,5.8v2c0,0.5,0.4,0.9,0.9,0.9l0,0h0.1v1c0,1.7,0.7,3.2,2,4.3v1.3
				c0,0.4-0.2,0.8-0.6,0.9c-0.5,0.2-0.7,0.7-0.5,1.2c0.2,0.5,0.7,0.7,1.2,0.5c0,0,0.1,0,0.1-0.1c0.2-0.1,0.3-0.2,0.5-0.3l2.2,2.2
				v12.4c-0.1,0.5,0.3,1,0.8,1s1-0.3,1-0.8c0-0.1,0-0.1,0-0.2v-12.3l2.2-2.2c0.1,0.1,0.3,0.2,0.5,0.3l5,2.5l-1.5,1.5
				c-0.7,0.7-1.1,1.7-1.1,2.7v7.6c-0.1,0.5,0.3,1,0.8,1c0.5,0.1,1-0.3,1-0.8c0-0.1,0-0.1,0-0.2V473c0-0.5,0.2-1.1,0.6-1.4l1.4-1.4
				c0,0.2,0.1,0.3,0.1,0.5v9.9c0.1,0.5,0.5,0.9,1,0.8c0.4,0,0.8-0.4,0.8-0.8v-9.9C354.4,469.2,353.6,467.8,352.2,467.2z M337.7,455
				v-0.9l0,0c0-2.2,1.8-4,4-4h2c2.2,0,4,1.8,4,4v1c-2.2-0.1-4.4-0.7-6.4-1.8c-0.4-0.2-0.8-0.2-1.2,0.1
				C339.5,454.1,338.6,454.7,337.7,455z M342.7,466.5l-2.1-2.1c0.1-0.2,0.1-0.5,0.1-0.7v-0.2c1.3,0.5,2.7,0.5,4,0v0.2
				c0,0.2,0,0.5,0.1,0.7L342.7,466.5z M342.7,462c-2.2,0-4-1.8-4-4v-1.5l0,0c0.8-0.3,1.5-0.8,2.1-1.3c1.8,0.9,3.8,1.5,5.8,1.6v1.1
				C346.7,460.2,344.9,462,342.7,462L342.7,462z"/>
		</g>
	</g>
	<g class="st2">
		<path class="st3" d="M76,463.9c-0.7,0.6-0.7,1.7,0,2.4c0,0,0,0,0,0l1,1c0.3,0.3,0.6,0.4,1,0.5c0.1,0.4,0.2,0.7,0.5,1l0.9,0.9
			c0.7,0.7,1.9,0.7,2.7,0c0,0,0,0,0,0l7.5-7.5c0.7-0.7,0.7-1.9,0-2.7l-0.9-0.9c-0.3-0.3-0.6-0.4-1-0.5c-0.1-0.4-0.2-0.7-0.5-1l-1-1
			c-0.3-0.3-0.8-0.5-1.2-0.5c-0.4,0-0.9,0.2-1.2,0.5l-8.3-8.3c0.7-0.6,0.7-1.7,0-2.4c0,0,0,0,0,0l-1-1c-0.3-0.3-0.6-0.4-1-0.5
			c-0.1-0.4-0.2-0.7-0.5-1L72,442c-0.7-0.7-1.9-0.7-2.7,0l-7.5,7.5c-0.7,0.7-0.7,1.9,0,2.7l0.9,0.9c0.3,0.3,0.6,0.5,1,0.5
			c0.1,0.4,0.2,0.7,0.5,1l1,1c0.3,0.3,0.7,0.5,1.2,0.5l0,0c0.4,0,0.9-0.2,1.2-0.5l1.3,1.3c0.2,0.2,0.2,0.6,0,0.9l-6.1,6.1l-0.6-0.6
			c-1.1-0.9-2.7-0.8-3.6,0.2c-0.8,1-0.8,2.4,0,3.3l0.6,0.6l-7.6,7.6c-0.4,0.4-1,0.8-1.6,0.9l-2.4,0.6c-0.9,0.2-1.7,0.7-2.4,1.4
			l-0.3,0.3c-2,2-2,5.3,0,7.3l1,1c2,2,5.3,2,7.3,0c0,0,0,0,0,0l0.3-0.3c0.7-0.7,1.1-1.5,1.4-2.4l0.6-2.5c0.2-0.6,0.5-1.2,0.9-1.6
			l7.6-7.6l0.6,0.6c1,1,2.6,1,3.6,0c1-1,1-2.6,0-3.6l-0.6-0.6l6.1-6.1c0.2-0.2,0.6-0.2,0.9,0L76,463.9z M88.4,460.9
			c0,0.1,0,0.1-0.1,0.1l-7.5,7.5c-0.1,0.1-0.2,0.1-0.2,0c0,0,0,0,0,0l-0.9-0.9c-0.1-0.1-0.1-0.2,0-0.3l7.5-7.5
			c0.1-0.1,0.2-0.1,0.3,0l0.9,0.9C88.4,460.8,88.4,460.8,88.4,460.9L88.4,460.9z M63,450.8c0-0.1,0-0.1,0.1-0.1l7.5-7.5
			c0,0,0.1-0.1,0.1-0.1c0.1,0,0.1,0,0.1,0.1l0.9,0.9c0.1,0.1,0.1,0.2,0,0.3l-7.5,7.5c-0.1,0.1-0.2,0.1-0.3,0l-0.9-0.9
			C63,450.9,63,450.8,63,450.8z M72.6,461.3l-7.3,7.3l1.8,1.8c0.3,0.3,0.3,0.9,0,1.2c0,0,0,0,0,0c-0.3,0.3-0.9,0.3-1.2,0l-1.8-1.8
			l-8.9,8.8c-0.7,0.7-1.1,1.5-1.4,2.4l-0.6,2.5c-0.2,0.6-0.5,1.2-0.9,1.6l-0.3,0.3c-0.7,0.6-1.5,1-2.5,1c-0.9,0-1.8-0.4-2.5-1l-1-1
			c-1.4-1.4-1.4-3.6,0-4.9c0,0,0,0,0,0l0.3-0.3c0.4-0.4,1-0.8,1.6-0.9l2.4-0.6c0.9-0.2,1.7-0.7,2.4-1.4l8.8-8.8l-1.8-1.8
			c-0.3-0.3-0.3-0.9,0-1.2s0.9-0.3,1.2,0l1.8,1.8l7.3-7.3c0.9-0.9,0.9-2.4,0-3.3c0,0,0,0,0,0l-1.3-1.3c-0.3-0.3-0.7-0.5-1.2-0.5l0,0
			c-0.4,0-0.9,0.2-1.2,0.5l-1-1c0,0-0.1-0.1-0.1-0.1c0-0.1,0-0.1,0.1-0.1l7.5-7.5c0.1-0.1,0.2-0.1,0.2,0c0,0,0,0,0,0l1,1
			c-0.3,0.3-0.5,0.7-0.5,1.2c0,0.5,0.2,0.9,0.5,1.2l8.3,8.3c0.3,0.3,0.7,0.5,1.2,0.5l0,0c0.4,0,0.9-0.2,1.2-0.5l1.1,1.1
			c0,0,0.1,0.1,0.1,0.1c0,0.1,0,0.1-0.1,0.1l-7.5,7.5l0,0c-0.1,0.1-0.2,0.1-0.3,0l-1-1c0.3-0.3,0.5-0.7,0.5-1.2
			c0-0.5-0.2-0.9-0.5-1.2l-1.3-1.3C75,460.4,73.5,460.4,72.6,461.3C72.6,461.3,72.6,461.3,72.6,461.3L72.6,461.3z"/>
		<path class="st3" d="M88.1,484.7h-7.6c-3.3,0-5.9,2.6-5.9,5.9c0,0,0,0,0,0v0.8H94v-0.8C94,487.4,91.4,484.7,88.1,484.7
			C88.1,484.7,88.1,484.7,88.1,484.7z M76.4,489.8c0.4-2,2.1-3.4,4.1-3.4h7.6c2,0,3.7,1.4,4.1,3.4H76.4z"/>
		<path class="st3" d="M78.8,482.2c-0.5,0-0.8,0.4-0.8,0.8c0,0.5,0.4,0.8,0.8,0.8h10.9c0.5,0,0.8-0.4,0.8-0.8c0-0.5-0.4-0.8-0.8-0.8
			H78.8z"/>
	</g>
	<g class="st2">
		<g class="st4">
			<path class="st3" d="M82,611.9l-5.3-2.4c-0.4-0.2-0.7-0.6-0.6-1v-1.5c1.9-1.5,2.9-3.7,2.9-6.1V599c0.6-0.3,1-1,1-1.7v-0.2
				c0-4.3-3.5-7.8-7.8-7.8h-2c-4.3,0-7.8,3.5-7.8,7.8v1.8c0,0.6,0.3,1.2,0.7,1.5l0.3,0.2v0.4c0,2.4,1.1,4.6,2.9,6.1v1.5
				c0,0.4-0.2,0.8-0.6,1l-5.3,2.4c-1.7,0.8-2.9,2.5-2.9,4.4v12.2c-0.1,0.5,0.3,1,0.8,1c0.5,0.1,1-0.3,1-0.8c0-0.1,0-0.1,0-0.2v-12.1
				c0-0.1,0-0.2,0-0.3l2.5,2.4c0.4,0.4,0.6,0.9,0.6,1.4v8.6c0.1,0.5,0.5,0.9,1,0.8c0.4,0,0.8-0.4,0.8-0.8v-8.6c0-1-0.4-2-1.1-2.7
				l-2.9-2.9c0.3-0.3,0.6-0.5,0.9-0.7l5.2-2.3l3.9,3.9v13.3c0.1,0.5,0.5,0.9,1,0.8c0.4,0,0.8-0.4,0.8-0.8v-13.3l3.9-3.9l5.2,2.3
				c0.4,0.2,0.7,0.4,0.9,0.7l-2.9,2.9c-0.7,0.7-1.1,1.7-1.1,2.7v8.6c0.1,0.5,0.5,0.9,1,0.8c0.4,0,0.8-0.4,0.8-0.8v-8.6
				c0-0.5,0.2-1.1,0.6-1.4L83,616c0,0.1,0,0.2,0,0.3v12.2c0.1,0.5,0.5,0.9,1,0.8c0.4,0,0.8-0.4,0.8-0.8v-12.1
				C84.9,614.4,83.7,612.7,82,611.9z M71.2,613.5l-3.4-3.4c0.3-0.4,0.4-1,0.4-1.5v-0.4c1.9,0.8,4.1,0.8,6,0v0.4c0,0.5,0.1,1,0.4,1.5
				L71.2,613.5z M71.2,607c-3.3,0-5.9-2.7-5.9-5.9v-0.4c0.6-0.3,1.2-0.6,1.7-1.1c0.3-0.4,0.3-1-0.1-1.3c-0.3-0.3-0.8-0.3-1.2-0.1
				c-0.4,0.4-0.8,0.7-1.4,0.8l0,0c0,0,0-0.1,0-0.1v-1.8c0-3.3,2.7-5.9,5.9-5.9c0,0,0,0,0,0h2c3.3,0,5.9,2.7,5.9,5.9l0,0v0.2
				c0,0,0,0,0,0.1c-5.5,1.1-8.2-1-9.2-1.9c-0.3-0.4-0.9-0.5-1.3-0.2c-0.4,0.3-0.5,0.9-0.2,1.3c0,0.1,0.1,0.1,0.2,0.2
				c2.8,2.8,7,2.9,9.5,2.6v1.7c0,3.3-2.6,5.9-5.9,6C71.4,607,71.3,607,71.2,607z"/>
		</g>
		<g class="st4">
			<path class="st3" d="M56.5,606.9v-2c0-2.3-1.2-4.5-3.1-5.7c0.6-2-0.5-4.2-2.5-4.8c-2-0.6-4.2,0.5-4.8,2.5c-0.2,0.7-0.2,1.5,0,2.3
				c-1.9,1.2-3.1,3.4-3.1,5.7v2c0,2.2,1.1,4.3,2.9,5.6v2c0,0.4-0.2,0.8-0.6,0.9l-3.2,1.6c-1.3,0.6-2.1,2-2.1,3.4v8
				c0.1,0.5,0.5,0.9,1,0.8c0.4,0,0.8-0.4,0.8-0.8v-7.6l1.5,1.5c0.4,0.4,0.6,0.9,0.6,1.4v4.7c0.1,0.5,0.5,0.9,1,0.8
				c0.4,0,0.8-0.4,0.8-0.8v-4.7c0-1-0.4-2-1.1-2.7l-2.1-2.1l0,0c0.1-0.1,0.3-0.2,0.4-0.3l3.2-1.6c0.2-0.1,0.3-0.2,0.5-0.3l2.2,2.2
				v9.4c0.1,0.5,0.5,0.9,1,0.8c0.4,0,0.8-0.4,0.8-0.8v-9.4l2.2-2.2c0.1,0.1,0.3,0.2,0.5,0.3l0.9,0.4c0.4,0.3,1,0.1,1.3-0.3
				c0.3-0.4,0.1-1-0.3-1.3c0,0-0.1,0-0.1-0.1l-0.9-0.4c-0.4-0.2-0.6-0.5-0.6-0.9v-2C55.4,611.2,56.5,609.2,56.5,606.9z M49.7,596.1
				c1.1,0,2,0.9,2,2c0,0.1,0,0.2,0,0.4c-1.3-0.4-2.7-0.4-4,0c-0.2-1.1,0.5-2.1,1.6-2.3C49.4,596.1,49.6,596.1,49.7,596.1L49.7,596.1
				z M49.7,600c2.8,0,5,2.2,5,5v0.3c-2.2,0.7-4.7,0-6.2-1.9c-0.3-0.4-0.9-0.5-1.3-0.2c0,0-0.1,0.1-0.1,0.1c-0.7,0.7-1.5,1.2-2.3,1.5
				C44.9,602.2,47,600.1,49.7,600L49.7,600z M49.7,617.4l-2.1-2.1c0.1-0.2,0.1-0.5,0.1-0.7v-1.1c1.3,0.4,2.7,0.4,4,0v1.1
				c0,0.2,0,0.5,0.1,0.7L49.7,617.4z M49.7,611.9c-2.8,0-5-2.2-5-5v-0.2c1.1-0.3,2.1-0.8,2.9-1.5c0.5,0.5,1.1,0.9,1.7,1.2
				c1.1,0.6,2.3,0.9,3.5,0.9c0.6,0,1.2-0.1,1.8-0.2C54.5,609.8,52.3,611.8,49.7,611.9L49.7,611.9z"/>
		</g>
		<g class="st4">
			<path class="st3" d="M100.3,615.1l-5.1-2.6c-0.4-0.2-0.6-0.5-0.6-0.9v-1.3c1.3-1.1,2-2.7,2-4.3v-1h0.1c0.5,0,0.9-0.4,0.9-0.9v-2
				c0-3.2-2.6-5.8-5.8-5.8h-2c-3.2,0-5.8,2.6-5.8,5.8v2c0,0.5,0.4,0.9,0.9,0.9H85v1c0,1.7,0.7,3.2,2,4.3v1.3c0,0.4-0.2,0.8-0.6,0.9
				c-0.5,0.2-0.7,0.7-0.5,1.2s0.7,0.7,1.2,0.5c0,0,0.1,0,0.1-0.1c0.2-0.1,0.3-0.2,0.4-0.3l2.2,2.2v12.3c0.1,0.5,0.5,0.9,1,0.8
				c0.4,0,0.8-0.4,0.8-0.8v-12.3l2.2-2.2c0.1,0.1,0.3,0.2,0.4,0.3l4.9,2.5l-1.5,1.5c-0.7,0.7-1.1,1.7-1.1,2.7v7.6
				c0.1,0.5,0.5,0.9,1,0.8c0.4,0,0.8-0.4,0.8-0.8v-7.6c0-0.5,0.2-1.1,0.6-1.4l1.4-1.4c0,0.2,0.1,0.3,0.1,0.5v9.9
				c0.1,0.5,0.5,0.9,1,0.8c0.4,0,0.8-0.4,0.8-0.8v-9.9C102.5,617.1,101.6,615.7,100.3,615.1z M85.8,602.9V602l0,0c0-2.2,1.8-4,4-4h2
				c2.2,0,4,1.8,4,4v1c-2.3-0.1-4.5-0.7-6.5-1.8c-0.4-0.2-0.8-0.2-1.2,0.1C87.5,602.1,86.7,602.6,85.8,602.9L85.8,602.9z
				 M90.8,614.4l-2.1-2.1c0.1-0.2,0.1-0.5,0.1-0.7v-0.2c1.3,0.5,2.7,0.5,4,0v0.2c0,0.2,0,0.5,0.1,0.7L90.8,614.4z M90.8,609.9
				c-2.2,0-4-1.8-4-4v-1.5l0,0c0.8-0.3,1.5-0.8,2.2-1.3c1.8,0.9,3.8,1.5,5.8,1.6v1.1C94.8,608.1,93,609.9,90.8,609.9L90.8,609.9z"/>
		</g>
	</g>
	<g class="st2">
		<path class="st3" d="M580.3,749.7c-0.7,0.6-0.7,1.7,0,2.4c0,0,0,0,0,0l1,1c0.7,0.1,1.3,0.7,1.5,1.5l0.9,0.9c0.7,0.7,1.9,0.7,2.7,0
			c0,0,0,0,0,0l7.5-7.5c0.7-0.7,0.7-1.9,0-2.7l-0.9-0.9c-0.7-0.1-1.3-0.7-1.5-1.5l-1-1c-0.3-0.3-0.8-0.5-1.2-0.5
			c-0.4,0-0.9,0.2-1.2,0.5l-8.3-8.2c0.7-0.6,0.7-1.7,0-2.4c0,0,0,0,0,0l-1-1c-0.3-0.3-0.6-0.4-1-0.5c-0.1-0.4-0.2-0.7-0.5-1
			l-0.9-0.9c-0.7-0.7-1.9-0.7-2.7,0l-7.5,7.5c-0.7,0.7-0.7,1.9,0,2.7l0.9,0.9c0.7,0.2,1.3,0.7,1.5,1.5l1,1c0.3,0.3,0.7,0.5,1.2,0.5
			l0,0c0.4,0,0.9-0.2,1.2-0.5l1.3,1.3c0.2,0.2,0.2,0.6,0,0.9l-6.1,6.1l-0.6-0.6c-1.1-0.9-2.7-0.8-3.6,0.2c-0.8,1-0.8,2.4,0,3.3
			l0.6,0.6l-7.6,7.6c-0.4,0.4-1,0.8-1.6,0.9l-2.5,0.6c-0.9,0.2-1.7,0.7-2.4,1.4l-0.3,0.3c-2,2-2,5.3,0,7.3l1,1c2,2,5.3,2,7.3,0
			c0,0,0,0,0,0l0.3-0.3c0.7-0.7,1.1-1.5,1.4-2.4l0.6-2.5c0.2-0.6,0.5-1.2,0.9-1.6l7.6-7.6l0.6,0.6c1,1,2.6,1,3.6,0c1-1,1-2.6,0-3.6
			l-0.6-0.6l6.1-6.1c0.2-0.2,0.6-0.2,0.9,0L580.3,749.7z M592.7,746.7c0,0.1,0,0.1-0.1,0.1l-7.5,7.5c-0.1,0.1-0.2,0.1-0.2,0
			c0,0,0,0,0,0l-0.9-0.9c-0.1-0.1-0.1-0.2,0-0.3l7.5-7.5c0.1-0.1,0.2-0.1,0.3,0l0.9,0.9C592.8,746.6,592.8,746.7,592.7,746.7
			L592.7,746.7z M567.3,736.7c0-0.1,0-0.1,0.1-0.1l7.5-7.5c0,0,0.1-0.1,0.1-0.1c0.1,0,0.1,0,0.1,0.1l0.9,0.9c0.1,0.1,0.1,0.2,0,0.3
			l-7.5,7.4c-0.1,0.1-0.2,0.1-0.3,0L567.3,736.7C567.4,736.7,567.3,736.7,567.3,736.7z M576.9,747.2l-7.3,7.3l1.8,1.8
			c0.3,0.3,0.3,0.9,0,1.2c0,0,0,0,0,0c-0.3,0.3-0.9,0.3-1.2,0l-1.8-1.8l-8.8,8.8c-0.7,0.7-1.1,1.5-1.4,2.4l-0.6,2.5
			c-0.2,0.6-0.5,1.2-0.9,1.6l-0.3,0.3c-0.7,0.6-1.5,1-2.5,1c-0.9,0-1.8-0.4-2.5-1l-1-1c-1.4-1.4-1.4-3.6,0-4.9c0,0,0,0,0,0l0.3-0.3
			c0.4-0.4,1-0.8,1.6-0.9l2.5-0.6c0.9-0.2,1.7-0.7,2.4-1.4l8.8-8.8l-1.8-1.8c-0.3-0.3-0.3-0.9,0-1.2s0.9-0.3,1.2,0l1.8,1.8l7.3-7.3
			c0.9-0.9,0.9-2.4,0-3.3c0,0,0,0,0,0l-1.3-1.3c-0.3-0.3-0.7-0.5-1.2-0.5l0,0c-0.4,0-0.9,0.2-1.2,0.5l-1-1c0,0-0.1-0.1-0.1-0.1
			c0-0.1,0-0.1,0.1-0.1l7.5-7.5c0.1-0.1,0.2-0.1,0.2,0c0,0,0,0,0,0l1,1c-0.3,0.3-0.5,0.7-0.5,1.2c0,0.5,0.2,0.9,0.5,1.2l8.3,8.3
			c0.3,0.3,0.7,0.5,1.2,0.5l0,0c0.4,0,0.9-0.2,1.2-0.5l1,1c0,0,0.1,0.1,0.1,0.1c0,0.1,0,0.1-0.1,0.1l-7.5,7.5l0,0
			c-0.1,0.1-0.2,0.1-0.3,0l-1-1c0.3-0.3,0.5-0.7,0.5-1.2c0-0.5-0.2-0.9-0.5-1.2l-1.3-1.3c-0.9-0.9-2.3-1-3.3-0.1
			C577,747.1,577,747.2,576.9,747.2L576.9,747.2z"/>
		<path class="st3" d="M592.4,770.6h-7.6c-3.3,0-5.9,2.6-5.9,5.9v0.8h19.4v-0.8C598.3,773.2,595.7,770.6,592.4,770.6z M580.7,775.7
			c0.4-2,2.1-3.4,4.1-3.4h7.6c2,0,3.7,1.4,4.1,3.4H580.7z"/>
		<path class="st3" d="M583.2,768c-0.5,0-0.8,0.4-0.8,0.8s0.4,0.8,0.8,0.8c0,0,0,0,0,0h11c0.5,0,0.8-0.4,0.8-0.8s-0.4-0.8-0.8-0.8
			c0,0,0,0,0,0H583.2z"/>
	</g>
	<g class="st2">
		<path class="st3" d="M81.3,759.8c0-0.5-0.4-0.8-0.8-0.8c-0.5,0-0.8,0.4-0.8,0.8v1.7c0,0.5,0.4,0.8,0.8,0.8c0.5,0,0.8-0.4,0.8-0.8
			V759.8z"/>
		<path class="st3" d="M80.5,769c-0.5,0-0.8,0.4-0.8,0.8v3.3c0,0.5,0.4,0.8,0.8,0.8c0.5,0,0.8-0.4,0.8-0.8v-3.3
			C81.3,769.3,80.9,769,80.5,769C80.5,769,80.5,769,80.5,769z"/>
		<path class="st3" d="M84.6,749.8c0-0.5-0.4-0.8-0.8-0.8c-0.5,0-0.8,0.4-0.8,0.8v1.7c0,0.5,0.4,0.8,0.8,0.8c0.5,0,0.8-0.4,0.8-0.8
			V749.8z"/>
		<path class="st3" d="M81.3,754.8c0-0.5-0.4-0.8-0.8-0.8c-0.5,0-0.8,0.4-0.8,0.8v1.7c0,0.5,0.4,0.8,0.8,0.8c0.5,0,0.8-0.4,0.8-0.8
			V754.8z"/>
		<path class="st3" d="M81.3,764.8c0-0.5-0.4-0.8-0.8-0.8c-0.5,0-0.8,0.4-0.8,0.8v1.7c0,0.5,0.4,0.8,0.8,0.8c0.5,0,0.8-0.4,0.8-0.8
			V764.8z"/>
		<path class="st3" d="M84.6,754.8c0-0.5-0.4-0.8-0.8-0.8c-0.5,0-0.8,0.4-0.8,0.8v1.7c0,0.5,0.4,0.8,0.8,0.8c0.5,0,0.8-0.4,0.8-0.8
			V754.8z"/>
		<path class="st3" d="M78,749.8c0-0.5-0.4-0.8-0.8-0.8c-0.5,0-0.8,0.4-0.8,0.8v1.7c0,0.5,0.4,0.8,0.8,0.8c0.5,0,0.8-0.4,0.8-0.8
			V749.8z"/>
		<path class="st3" d="M81.3,749.8c0-0.5-0.4-0.8-0.8-0.8c-0.5,0-0.8,0.4-0.8,0.8v1.7c0,0.5,0.4,0.8,0.8,0.8c0.5,0,0.8-0.4,0.8-0.8
			V749.8z"/>
		<path class="st3" d="M84.6,741.5v-1.7c0-0.5-0.4-0.8-0.8-0.8c-0.5,0-0.8,0.4-0.8,0.8v1.7c0,0.5,0.4,0.8,0.8,0.8
			C84.2,742.3,84.6,741.9,84.6,741.5z"/>
		<path class="st3" d="M78,754.8c0-0.5-0.4-0.8-0.8-0.8c-0.5,0-0.8,0.4-0.8,0.8v1.7c0,0.5,0.4,0.8,0.8,0.8c0.5,0,0.8-0.4,0.8-0.8
			V754.8z"/>
		<path class="st3" d="M88,739.8c0-0.5-0.4-0.8-0.8-0.8c-0.5,0-0.8,0.4-0.8,0.8v1.7c0,0.5,0.4,0.8,0.8,0.8c0.5,0,0.8-0.4,0.8-0.8
			V739.8z"/>
		<path class="st3" d="M77.1,759c-0.5,0-0.8,0.4-0.8,0.8v1.7c0,0.5,0.4,0.8,0.8,0.8c0.5,0,0.8-0.4,0.8-0.8v-1.7
			C78,759.3,77.6,759,77.1,759C77.1,759,77.1,759,77.1,759z"/>
		<path class="st3" d="M91.3,764.8c0-0.5-0.4-0.8-0.8-0.8c-0.5,0-0.8,0.4-0.8,0.8v1.7c0,0.5,0.4,0.8,0.8,0.8c0.5,0,0.8-0.4,0.8-0.8
			V764.8z"/>
		<path class="st3" d="M90.5,769c-0.5,0-0.8,0.4-0.8,0.8v3.3c0,0.5,0.4,0.8,0.8,0.8c0.5,0,0.8-0.4,0.8-0.8v-3.3
			C91.3,769.3,90.9,769,90.5,769C90.5,769,90.5,769,90.5,769z"/>
		<path class="st3" d="M93.8,759c-0.5,0-0.8,0.4-0.8,0.8v1.7c0,0.5,0.4,0.8,0.8,0.8c0.5,0,0.8-0.4,0.8-0.8v-1.7
			C94.6,759.3,94.3,759,93.8,759C93.8,759,93.8,759,93.8,759z"/>
		<path class="st3" d="M80.5,742.3c0.5,0,0.8-0.4,0.8-0.8V738l8.3-2.1v13.9c0,0.3,0.2,0.7,0.5,0.8l6.1,2.3v8.6
			c0,0.5,0.4,0.8,0.8,0.8c0.5,0,0.8-0.4,0.8-0.8v-9.2c0-0.3-0.2-0.7-0.5-0.8l-6.1-2.3v-16.1c0-0.5-0.4-0.8-0.8-0.8
			c-0.5,0-0.8,0.4-0.8,0.8v1l-9.4,2.3c-0.4,0.1-0.6,0.4-0.6,0.8v4.2C79.7,741.9,80,742.3,80.5,742.3z"/>
		<path class="st3" d="M94.6,754.8c0-0.5-0.4-0.8-0.8-0.8c-0.5,0-0.8,0.4-0.8,0.8v1.7c0,0.5,0.4,0.8,0.8,0.8c0.5,0,0.8-0.4,0.8-0.8
			V754.8z"/>
		<path class="st3" d="M91.3,754.8c0-0.5-0.4-0.8-0.8-0.8c-0.5,0-0.8,0.4-0.8,0.8v1.7c0,0.5,0.4,0.8,0.8,0.8c0.5,0,0.8-0.4,0.8-0.8
			V754.8z"/>
		<path class="st3" d="M84.6,764.8c0-0.5-0.4-0.8-0.8-0.8c-0.5,0-0.8,0.4-0.8,0.8v1.7c0,0.5,0.4,0.8,0.8,0.8c0.5,0,0.8-0.4,0.8-0.8
			V764.8z"/>
		<path class="st3" d="M91.3,759.8c0-0.5-0.4-0.8-0.8-0.8c-0.5,0-0.8,0.4-0.8,0.8v1.7c0,0.5,0.4,0.8,0.8,0.8c0.5,0,0.8-0.4,0.8-0.8
			V759.8z"/>
		<path class="st3" d="M83.8,769c-0.5,0-0.8,0.4-0.8,0.8v3.3c0,0.5,0.4,0.8,0.8,0.8c0.5,0,0.8-0.4,0.8-0.8v-3.3
			C84.6,769.3,84.3,769,83.8,769C83.8,769,83.8,769,83.8,769z"/>
		<path class="st3" d="M84.6,759.8c0-0.5-0.4-0.8-0.8-0.8c-0.5,0-0.8,0.4-0.8,0.8v1.7c0,0.5,0.4,0.8,0.8,0.8c0.5,0,0.8-0.4,0.8-0.8
			V759.8z"/>
		<path class="st3" d="M87.1,774c0.5,0,0.8-0.4,0.8-0.8v-26.7c0-0.4-0.3-0.7-0.6-0.8L74,742.3c-0.4-0.1-0.9,0.2-1,0.6
			c0,0.1,0,0.1,0,0.2v18.3c0,0.5,0.4,0.8,0.8,0.8c0.5,0,0.8-0.4,0.8-0.8v-17.3l11.7,2.9v26C86.3,773.6,86.7,773.9,87.1,774z"/>
		<path class="st3" d="M68,744.8c0-0.5-0.4-0.8-0.8-0.8c-0.5,0-0.8,0.4-0.8,0.8l0,0v1.7c0,0.5,0.4,0.8,0.8,0.8
			c0.5,0,0.8-0.4,0.8-0.8V744.8z"/>
		<path class="st3" d="M68,739.8c0-0.5-0.4-0.8-0.8-0.8c-0.5,0-0.8,0.4-0.8,0.8v1.7c0,0.5,0.4,0.8,0.8,0.8c0.5,0,0.8-0.4,0.8-0.8
			V739.8z"/>
		<path class="st3" d="M61.3,764.8c0-0.5-0.4-0.8-0.8-0.8s-0.8,0.4-0.8,0.8v1.7c0,0.5,0.4,0.8,0.8,0.8s0.8-0.4,0.8-0.8V764.8z"/>
		<path class="st3" d="M53.8,757.3c0.5,0,0.8-0.4,0.8-0.8v-4.2H63v20.8c0,0.5,0.4,0.8,0.8,0.8c0.5,0,0.8-0.4,0.8-0.8v-21.7
			c0-0.5-0.4-0.8-0.8-0.8h-10c-0.5,0-0.8,0.4-0.8,0.8v5C53,756.9,53.3,757.3,53.8,757.3C53.8,757.3,53.8,757.3,53.8,757.3z"/>
		<path class="st3" d="M63,744.8v1.7c0,0.5,0.4,0.8,0.8,0.8c0.5,0,0.8-0.4,0.8-0.8v-1.7c0-0.5-0.4-0.8-0.8-0.8
			C63.3,744,63,744.3,63,744.8C63,744.8,63,744.8,63,744.8z"/>
		<path class="st3" d="M68,734.8c0-0.5-0.4-0.8-0.8-0.8c-0.5,0-0.8,0.4-0.8,0.8l0,0v1.7c0,0.5,0.4,0.8,0.8,0.8
			c0.5,0,0.8-0.4,0.8-0.8V734.8z"/>
		<path class="st3" d="M60.5,769c-0.5,0-0.8,0.4-0.8,0.8v3.3c0,0.5,0.4,0.8,0.8,0.8s0.8-0.4,0.8-0.8v-3.3
			C61.3,769.3,60.9,769,60.5,769C60.5,769,60.5,769,60.5,769z"/>
		<path class="st3" d="M98.8,775.7h-1.7v-5.1c1.8-0.5,2.8-2.3,2.4-4.1c-0.5-1.8-2.3-2.8-4.1-2.4s-2.8,2.3-2.4,4.1
			c0.3,1.2,1.2,2.1,2.4,2.4v5.1H74.6v-3.4c2.3-0.5,3.7-2.7,3.3-4.9c-0.5-2.3-2.7-3.7-4.9-3.3c-2.3,0.5-3.7,2.7-3.3,4.9
			c0.3,1.6,1.6,2.9,3.3,3.3v3.4H54.6v-8.4c2.3-0.5,3.7-2.7,3.3-4.9c-0.5-2.3-2.7-3.7-4.9-3.3c-2.3,0.5-3.7,2.7-3.3,4.9
			c0.3,1.6,1.6,2.9,3.3,3.3v8.4h-2.5c-0.5,0-0.8,0.4-0.8,0.8s0.4,0.8,0.8,0.8h48.3c0.5,0,0.8-0.4,0.8-0.8S99.3,775.7,98.8,775.7z
			 M51.3,763.1c0-1.4,1.1-2.5,2.5-2.5s2.5,1.1,2.5,2.5c0,1.4-1.1,2.5-2.5,2.5S51.3,764.5,51.3,763.1z M71.3,768.1
			c0-1.4,1.1-2.5,2.5-2.5c1.4,0,2.5,1.1,2.5,2.5c0,1.4-1.1,2.5-2.5,2.5C72.5,770.6,71.3,769.5,71.3,768.1z M94.7,767.3
			c0-0.9,0.7-1.7,1.7-1.7s1.7,0.7,1.7,1.7c0,0.9-0.7,1.7-1.7,1.7c0,0,0,0,0,0C95.4,769,94.6,768.3,94.7,767.3
			C94.6,767.3,94.6,767.3,94.7,767.3L94.7,767.3z"/>
		<path class="st3" d="M56.3,769.8v3.3c0,0.5,0.4,0.8,0.8,0.8s0.8-0.4,0.8-0.8v-3.3c0-0.5-0.4-0.8-0.8-0.8S56.3,769.3,56.3,769.8z"
			/>
		<path class="st3" d="M61.3,754.8c0-0.5-0.4-0.8-0.8-0.8s-0.8,0.4-0.8,0.8v1.7c0,0.5,0.4,0.8,0.8,0.8s0.8-0.4,0.8-0.8V754.8z"/>
		<path class="st3" d="M61.3,759.8c0-0.5-0.4-0.8-0.8-0.8s-0.8,0.4-0.8,0.8v1.7c0,0.5,0.4,0.8,0.8,0.8s0.8-0.4,0.8-0.8V759.8z"/>
		<path class="st3" d="M56.3,754.8v1.7c0,0.5,0.4,0.8,0.8,0.8s0.8-0.4,0.8-0.8v-1.7c0-0.5-0.4-0.8-0.8-0.8S56.3,754.3,56.3,754.8z"
			/>
		<path class="st3" d="M68,759.8c0-0.5-0.4-0.8-0.8-0.8c-0.5,0-0.8,0.4-0.8,0.8v1.7c0,0.5,0.4,0.8,0.8,0.8c0.5,0,0.8-0.4,0.8-0.8
			V759.8z"/>
		<path class="st3" d="M71.3,749.8c0-0.5-0.4-0.8-0.8-0.8c-0.5,0-0.8,0.4-0.8,0.8v1.7c0,0.5,0.4,0.8,0.8,0.8c0.5,0,0.8-0.4,0.8-0.8
			V749.8z"/>
		<path class="st3" d="M71.3,744.8c0-0.5-0.4-0.8-0.8-0.8c-0.5,0-0.8,0.4-0.8,0.8l0,0v1.7c0,0.5,0.4,0.8,0.8,0.8
			c0.5,0,0.8-0.4,0.8-0.8V744.8z"/>
		<path class="st3" d="M71.3,754.8c0-0.5-0.4-0.8-0.8-0.8c-0.5,0-0.8,0.4-0.8,0.8v1.7c0,0.5,0.4,0.8,0.8,0.8c0.5,0,0.8-0.4,0.8-0.8
			V754.8z"/>
		<path class="st3" d="M70.5,759c-0.5,0-0.8,0.4-0.8,0.8v1.7c0,0.5,0.4,0.8,0.8,0.8c0.5,0,0.8-0.4,0.8-0.8v-1.7
			C71.3,759.3,70.9,759,70.5,759C70.5,759,70.5,759,70.5,759z"/>
		<path class="st3" d="M71.3,739.8c0-0.5-0.4-0.8-0.8-0.8c-0.5,0-0.8,0.4-0.8,0.8v1.7c0,0.5,0.4,0.8,0.8,0.8c0.5,0,0.8-0.4,0.8-0.8
			V739.8z"/>
		<path class="st3" d="M68,764.8c0-0.5-0.4-0.8-0.8-0.8c-0.5,0-0.8,0.4-0.8,0.8v1.7c0,0.5,0.4,0.8,0.8,0.8c0.5,0,0.8-0.4,0.8-0.8
			V764.8z"/>
		<path class="st3" d="M60.5,749c0.5,0,0.8-0.4,0.8-0.8V742l2.9-1.4c0.3-0.1,0.5-0.4,0.5-0.8v-7l4.2-2.1l4.2,2.1v7
			c0,0.5,0.4,0.8,0.8,0.8c0.5,0,0.8-0.4,0.8-0.8l0,0v-7.5c0-0.3-0.2-0.6-0.5-0.8l-4.5-2.3v-1.2c0-0.5-0.4-0.8-0.8-0.8
			c-0.5,0-0.8,0.4-0.8,0.8v1.2l-4.5,2.3c-0.3,0.1-0.5,0.4-0.5,0.8v7l-2.9,1.4c-0.3,0.1-0.5,0.4-0.5,0.8v6.7
			C59.6,748.6,60,749,60.5,749z"/>
		<path class="st3" d="M68,754.8c0-0.5-0.4-0.8-0.8-0.8c-0.5,0-0.8,0.4-0.8,0.8v1.7c0,0.5,0.4,0.8,0.8,0.8c0.5,0,0.8-0.4,0.8-0.8
			V754.8z"/>
		<path class="st3" d="M67.1,769c-0.5,0-0.8,0.4-0.8,0.8v3.3c0,0.5,0.4,0.8,0.8,0.8c0.5,0,0.8-0.4,0.8-0.8v-3.3
			C68,769.3,67.6,769,67.1,769C67.1,769,67.1,769,67.1,769z"/>
		<path class="st3" d="M71.3,734.8c0-0.5-0.4-0.8-0.8-0.8c-0.5,0-0.8,0.4-0.8,0.8l0,0v1.7c0,0.5,0.4,0.8,0.8,0.8
			c0.5,0,0.8-0.4,0.8-0.8V734.8z"/>
		<path class="st3" d="M68,749.8c0-0.5-0.4-0.8-0.8-0.8c-0.5,0-0.8,0.4-0.8,0.8v1.7c0,0.5,0.4,0.8,0.8,0.8c0.5,0,0.8-0.4,0.8-0.8
			V749.8z"/>
	</g>
	<g class="st2">
		<path class="st3" d="M307.2,755.8h7.8c1.1,0,3.1,1.5,4.8,2.7c2.1,1.6,4.2,3.1,6,3.1h5.9c0.8,0,1.6,0.2,2.2,0.7
			c0.5,0.3,1.1,0.2,1.4-0.3c0.2-0.3,0.2-0.8,0-1.1c-1-0.9-2.3-1.3-3.6-1.3h-5.9c-1.1,0-3.1-1.5-4.8-2.7c-2.1-1.6-4.2-3.1-6-3.1h-7.8
			c-0.6,0-1,0.4-1,1C306.2,755.4,306.7,755.8,307.2,755.8L307.2,755.8z"/>
		<path class="st3" d="M299.4,771c0-0.8-0.7-1.5-1.5-1.5s-1.5,0.7-1.5,1.5c0,0.8,0.7,1.5,1.5,1.5S299.4,771.8,299.4,771L299.4,771z"
			/>
		<path class="st3" d="M352.7,759.7c-0.5-0.9-1.4-1.6-2.4-1.8c-1-0.3-2-0.1-2.9,0.4l-11.3,5.5c-1.8,0.9-3.5,0.9-7.4,0.9
			c-3.2-0.1-6.4-0.5-9.6-1c-0.5-0.2-1.1,0.1-1.3,0.6c-0.2,0.5,0.1,1.1,0.6,1.3c0.1,0.1,0.3,0.1,0.4,0.1c3.3,0.6,6.6,0.9,9.9,1
			c4.1,0,6.1,0,8.3-1.1l11.4-5.5c0.8-0.7,2.1-0.7,2.8,0.2c0.7,0.8,0.7,2.1-0.2,2.8c-0.2,0.2-0.5,0.3-0.7,0.4l-13.2,8.2
			c0,0-2.9,1.8-9.2,1.8c-5.5,0-14.1-4.7-14.2-4.8c-2-0.8-4.1-1.2-6.3-1.1c-0.6,0-1,0.4-1,1c0,0.6,0.4,1,1,1c1.8-0.1,3.7,0.2,5.4,0.9
			c0.4,0.2,9.1,5,15.1,5c7.1,0,10.2-2,10.3-2.1l13.2-8.2C353.1,764,353.8,761.6,352.7,759.7L352.7,759.7z"/>
		<path class="st3" d="M301.3,749.9h-5.9c-0.6,0-1,0.4-1,1c0,0.6,0.4,1,1,1h5.9c0.6,0,1,0.4,1,1v21.5c0,0.6-0.4,1-1,1h-5.9
			c-0.6,0-1,0.4-1,1c0,0.6,0.4,1,1,1h5.9c1.6,0,2.9-1.3,2.9-2.9v-21.7C304.3,751.2,302.9,749.9,301.3,749.9z"/>
		<path class="st3" d="M327.9,753.3c-1.1,0-2.1-0.4-2.9-1.2l-8.9-8.9c-1.6-1.6-1.6-4.2,0-5.7l8.9-8.9c1.6-1.6,4.2-1.6,5.7,0l8.9,8.9
			c1.6,1.6,1.6,4.2,0,5.7l-8.9,8.9C330,752.9,328.9,753.3,327.9,753.3z M327.9,728.8c-0.7,0-1.3,0.3-1.8,0.8l-8.9,8.9
			c-1,1-1,2.6,0,3.6l8.9,8.9c1,1,2.6,1,3.6,0l8.9-8.9c1-1,1-2.6,0-3.6l-8.9-8.9C329.2,729.1,328.5,728.8,327.9,728.8z"/>
	</g>
	<g class="st2">
		<path class="st3" d="M351.2,591.9c-3.7,0-6.7,3-6.7,6.7c0,1.3,0.4,2.6,1.1,3.7l-7.3,7.3c-2.3-1.5-5.2-1.5-7.5,0.1l-7.3-7.3
			c2-3.1,1.1-7.3-2-9.3c-3.1-2-7.3-1.1-9.3,2c-1.5,2.2-1.5,5.1,0,7.3l-7.3,7.3c-3.1-2-7.3-1.1-9.3,2c-2,3.1-1.1,7.3,2,9.3
			s7.3,1.1,9.3-2c1.4-2.2,1.4-5.1,0-7.3l7.3-7.3c2.2,1.5,5.1,1.5,7.3,0l7.4,7.4c-2,3.1-1,7.3,2.1,9.3c3.1,2,7.3,1,9.3-2.1
			c1.4-2.2,1.4-5-0.1-7.2l7.3-7.3c3.1,2,7.3,1.1,9.3-2c2-3.1,1.1-7.3-2-9.3C353.8,592.3,352.5,591.9,351.2,591.9L351.2,591.9z
			 M301.3,619.1c-2.2,0-3.9-1.8-3.9-3.9c0-2.2,1.8-3.9,3.9-3.9s3.9,1.8,3.9,3.9C305.3,617.3,303.5,619.1,301.3,619.1z M317.9,602.5
			c-2.2,0-3.9-1.8-3.9-3.9c0-2.2,1.8-3.9,3.9-3.9s3.9,1.8,3.9,3.9C321.8,600.8,320.1,602.6,317.9,602.5
			C317.9,602.6,317.9,602.6,317.9,602.5L317.9,602.5z M334.6,619.1c-2.2,0-3.9-1.8-3.9-3.9c0-2.2,1.8-3.9,3.9-3.9s3.9,1.8,3.9,3.9
			C338.6,617.3,336.8,619.1,334.6,619.1C334.6,619.1,334.6,619.1,334.6,619.1L334.6,619.1z M351.2,602.5c-2.2,0-3.9-1.8-3.9-3.9
			c0-2.2,1.8-3.9,3.9-3.9s3.9,1.8,3.9,3.9C355.1,600.8,353.4,602.6,351.2,602.5C351.2,602.6,351.2,602.6,351.2,602.5L351.2,602.5z"
			/>
		<path class="st3" d="M316.4,609c-0.5-0.6-1.4-0.6-2,0c0,0,0,0,0,0l-2.8,2.8c-0.6,0.6-0.6,1.4,0,2c0.6,0.6,1.4,0.6,2,0l2.8-2.8
			C317,610.4,317,609.5,316.4,609C316.4,609,316.4,609,316.4,609z"/>
		<path class="st3" d="M340.8,600.1c-0.5-0.6-1.4-0.6-2,0c0,0,0,0,0,0l-2.8,2.8c-0.6,0.6-0.6,1.4,0,2c0.6,0.6,1.4,0.6,2,0l2.8-2.8
			C341.4,601.5,341.4,600.7,340.8,600.1C340.8,600.1,340.8,600.1,340.8,600.1z"/>
	</g>
</g>
</svg>
