<svg xmlns="http://www.w3.org/2000/svg" viewBox="0 0 287.13 380.58"><defs><style>.cls-1{opacity:0.14;}.cls-2{fill:#0087ad;}.cls-3{fill:#684595;}.cls-4{opacity:0.29;}</style></defs><title>fondo_superior_1</title><g id="Capa_2" data-name="Capa 2"><g id="Capa_1-2" data-name="Capa 1"><g class="cls-1"><path class="cls-2" d="M171,327.1a4.48,4.48,0,0,0-3.75,6.92l-4.84,4.84a4.47,4.47,0,0,0-5,.05L152.58,334a4.48,4.48,0,1,0-7.51,0l-4.84,4.84a4.49,4.49,0,1,0,1.31,1.31l4.84-4.84a4.47,4.47,0,0,0,4.89,0l4.92,4.92a4.48,4.48,0,1,0,7.56-.08l4.84-4.84A4.48,4.48,0,1,0,171,327.1Zm-33.24,18.15a2.63,2.63,0,1,1,2.63-2.63A2.63,2.63,0,0,1,137.79,345.24Zm11-11a2.63,2.63,0,1,1,2.63-2.63A2.63,2.63,0,0,1,148.83,334.21Zm11.16,11a2.63,2.63,0,1,1,2.63-2.63A2.63,2.63,0,0,1,160,345.24Zm11-11a2.63,2.63,0,1,1,2.63-2.63A2.63,2.63,0,0,1,171,334.21Z"/><path class="cls-2" d="M147.88,338.47a.93.93,0,0,0-1.31,0l-1.88,1.88a.93.93,0,1,0,1.31,1.31l1.88-1.88A.93.93,0,0,0,147.88,338.47Z"/><path class="cls-2" d="M164.13,332.56a.93.93,0,0,0-1.31,0l-1.88,1.88a.93.93,0,1,0,1.31,1.31l1.88-1.88A.93.93,0,0,0,164.13,332.56Z"/></g><g class="cls-1"><path class="cls-2" d="M121.56,245.17a3.92,3.92,0,0,0-3.28,6.06L114,255.46a3.91,3.91,0,0,0-4.34,0l-4.28-4.28a3.92,3.92,0,1,0-6.57,0l-4.24,4.24a3.93,3.93,0,1,0,1.15,1.15l4.24-4.24a3.91,3.91,0,0,0,4.28,0l4.3,4.3a3.92,3.92,0,1,0,6.61-.07l4.24-4.24a3.92,3.92,0,1,0,2.14-7.2ZM92.47,261a2.3,2.3,0,1,1,2.3-2.3A2.3,2.3,0,0,1,92.47,261Zm9.66-9.66a2.3,2.3,0,1,1,2.3-2.3A2.3,2.3,0,0,1,102.13,251.39ZM111.9,261a2.3,2.3,0,1,1,2.3-2.3A2.3,2.3,0,0,1,111.9,261Zm9.66-9.66a2.3,2.3,0,1,1,2.3-2.3A2.3,2.3,0,0,1,121.56,251.39Z"/><path class="cls-2" d="M101.3,255.12a.81.81,0,0,0-1.15,0l-1.65,1.65a.81.81,0,1,0,1.15,1.15l1.65-1.65A.81.81,0,0,0,101.3,255.12Z"/><path class="cls-2" d="M115.52,249.95a.81.81,0,0,0-1.15,0l-1.65,1.65a.81.81,0,1,0,1.15,1.15l1.65-1.65A.81.81,0,0,0,115.52,249.95Z"/></g><g class="cls-1"><path class="cls-2" d="M51.8,304.93a5,5,0,0,0-4.22,7.79l-5.45,5.45a5,5,0,0,0-5.58.06l-5.5-5.5a5,5,0,1,0-8.45,0l-5.45,5.45a5,5,0,1,0,1.47,1.47l5.45-5.45a5,5,0,0,0,5.5,0l5.53,5.53a5,5,0,1,0,8.5-.09L49,314.19a5,5,0,1,0,2.75-9.26ZM14.4,325.34a3,3,0,1,1,3-3A3,3,0,0,1,14.4,325.34Zm12.42-12.42a3,3,0,1,1,3-3A3,3,0,0,1,26.82,312.93Zm12.56,12.42a3,3,0,1,1,3-3A3,3,0,0,1,39.38,325.34ZM51.8,312.93a3,3,0,1,1,3-3A3,3,0,0,1,51.8,312.93Z"/><path class="cls-2" d="M25.75,317.73a1,1,0,0,0-1.47,0l-2.12,2.12a1,1,0,1,0,1.47,1.47l2.12-2.12A1,1,0,0,0,25.75,317.73Z"/><path class="cls-2" d="M44,311.07a1,1,0,0,0-1.47,0l-2.12,2.12a1,1,0,1,0,1.47,1.47L44,312.54A1,1,0,0,0,44,311.07Z"/></g><g class="cls-1"><path class="cls-2" d="M212.37,207a4.48,4.48,0,0,0-3.75,6.92l-4.84,4.84a4.47,4.47,0,0,0-5,.05L193.92,214a4.48,4.48,0,1,0-7.51,0l-4.84,4.84a4.49,4.49,0,1,0,1.31,1.31l4.84-4.84a4.47,4.47,0,0,0,4.89,0l4.92,4.92a4.48,4.48,0,1,0,7.56-.08l4.84-4.84a4.48,4.48,0,1,0,2.44-8.23ZM179.13,225.2a2.63,2.63,0,1,1,2.63-2.63A2.63,2.63,0,0,1,179.13,225.2Zm11-11a2.63,2.63,0,1,1,2.63-2.63A2.63,2.63,0,0,1,190.17,214.16Zm11.16,11a2.63,2.63,0,1,1,2.63-2.63A2.63,2.63,0,0,1,201.33,225.2Zm11-11a2.63,2.63,0,1,1,2.63-2.63A2.63,2.63,0,0,1,212.37,214.16Z"/><path class="cls-2" d="M189.22,218.43a.93.93,0,0,0-1.31,0L186,220.31a.93.93,0,1,0,1.31,1.31l1.88-1.88A.93.93,0,0,0,189.22,218.43Z"/><path class="cls-2" d="M205.47,212.51a.93.93,0,0,0-1.31,0l-1.88,1.88a.93.93,0,1,0,1.31,1.31l1.88-1.88A.93.93,0,0,0,205.47,212.51Z"/></g><g class="cls-1"><path class="cls-2" d="M211.28,279.06a3.36,3.36,0,0,0-2.81,5.19l-3.63,3.63a3.35,3.35,0,0,0-3.72,0l-3.67-3.67a3.36,3.36,0,1,0-5.63,0l-3.63,3.63a3.37,3.37,0,1,0,1,1l3.63-3.63a3.35,3.35,0,0,0,3.67,0l3.69,3.69a3.36,3.36,0,1,0,5.67-.06l3.63-3.63a3.36,3.36,0,1,0,1.83-6.18Zm-24.93,13.61a2,2,0,1,1,2-2A2,2,0,0,1,186.35,292.67Zm8.28-8.28a2,2,0,1,1,2-2A2,2,0,0,1,194.63,284.39Zm8.37,8.28a2,2,0,1,1,2-2A2,2,0,0,1,203,292.67Zm8.28-8.28a2,2,0,1,1,2-2A2,2,0,0,1,211.28,284.39Z"/><path class="cls-2" d="M193.92,287.59a.69.69,0,0,0-1,0L191.52,289a.69.69,0,1,0,1,1l1.41-1.41A.69.69,0,0,0,193.92,287.59Z"/><path class="cls-2" d="M206.11,283.15a.69.69,0,0,0-1,0l-1.41,1.41a.69.69,0,1,0,1,1l1.41-1.41A.69.69,0,0,0,206.11,283.15Z"/></g><g class="cls-1"><path class="cls-2" d="M267.41,121.27a3.36,3.36,0,0,0-2.81,5.19L261,130.1a3.35,3.35,0,0,0-3.72,0l-3.67-3.67a3.36,3.36,0,1,0-5.63,0l-3.63,3.63a3.37,3.37,0,1,0,1,1l3.63-3.63a3.35,3.35,0,0,0,3.67,0l3.69,3.69a3.36,3.36,0,1,0,5.67-.06l3.63-3.63a3.36,3.36,0,1,0,1.83-6.18Zm-24.93,13.61a2,2,0,1,1,2-2A2,2,0,0,1,242.48,134.89Zm8.28-8.28a2,2,0,1,1,2-2A2,2,0,0,1,250.76,126.61Zm8.37,8.28a2,2,0,1,1,2-2A2,2,0,0,1,259.13,134.89Zm8.28-8.28a2,2,0,1,1,2-2A2,2,0,0,1,267.41,126.61Z"/><path class="cls-2" d="M250,129.81a.69.69,0,0,0-1,0l-1.41,1.41a.69.69,0,1,0,1,1l1.41-1.41A.69.69,0,0,0,250,129.81Z"/><path class="cls-2" d="M262.24,125.37a.69.69,0,0,0-1,0l-1.41,1.41a.69.69,0,1,0,1,1l1.41-1.41A.69.69,0,0,0,262.24,125.37Z"/></g><g class="cls-1"><path class="cls-3" d="M53.69,202.72a3.36,3.36,0,0,0-2.81,5.19l-3.63,3.63a3.35,3.35,0,0,0-3.72,0l-3.67-3.67a3.36,3.36,0,1,0-5.63,0l-3.63,3.63a3.37,3.37,0,1,0,1,1l3.63-3.63a3.35,3.35,0,0,0,3.67,0l3.69,3.69a3.36,3.36,0,1,0,5.67-.06l3.63-3.63a3.36,3.36,0,1,0,1.83-6.18ZM28.76,216.34a2,2,0,1,1,2-2A2,2,0,0,1,28.76,216.34ZM37,208.06a2,2,0,1,1,2-2A2,2,0,0,1,37,208.06Zm8.37,8.28a2,2,0,1,1,2-2A2,2,0,0,1,45.41,216.34Zm8.28-8.28a2,2,0,1,1,2-2A2,2,0,0,1,53.69,208.06Z"/><path class="cls-3" d="M36.33,211.26a.69.69,0,0,0-1,0l-1.41,1.41a.69.69,0,1,0,1,1l1.41-1.41A.69.69,0,0,0,36.33,211.26Z"/><path class="cls-3" d="M48.52,206.82a.69.69,0,0,0-1,0l-1.41,1.41a.69.69,0,1,0,1,1l1.41-1.41A.69.69,0,0,0,48.52,206.82Z"/></g><g class="cls-1"><g class="cls-4"><path class="cls-3" d="M151.57,269.5a12.86,12.86,0,0,0-11.49,7,1.11,1.11,0,0,0-.06.46.69.69,0,0,0,.29.29l6.74,3.49a.43.43,0,0,0,.29.06.6.6,0,0,0,.51-.29,4.18,4.18,0,0,1,3.71-2.29.54.54,0,0,0,.57-.57v-7.6A.54.54,0,0,0,151.57,269.5Zm-.57,7.6a5.19,5.19,0,0,0-3.89,2.4l-5.77-3a11.82,11.82,0,0,1,9.66-5.89Z"/></g><g class="cls-4"><path class="cls-3" d="M149.91,288.87a4.16,4.16,0,0,1-1.6-5.49,1.11,1.11,0,0,0,.06-.46.59.59,0,0,0-.29-.34l-6.74-3.49a.5.5,0,0,0-.74.23,12.44,12.44,0,0,0-1.43,5.89,12.94,12.94,0,0,0,6.34,11.26.52.52,0,0,0,.29.06H146c.17-.06.29-.11.34-.29l3.83-6.57A.58.58,0,0,0,149.91,288.87Zm-4.29,6.29a11.84,11.84,0,0,1-4.34-14.74l5.77,3a5.49,5.49,0,0,0-.34,1.89,5.23,5.23,0,0,0,2.17,4.29Z"/></g><g class="cls-4"><path class="cls-3" d="M153.74,273.61a.54.54,0,0,0-.57.57v7.6a.61.61,0,0,0,.57.57,4.17,4.17,0,1,1,0,8.34,3.92,3.92,0,0,1-2.11-.57.61.61,0,0,0-.46-.06c-.17.06-.29.11-.34.29L147,296.93a.58.58,0,0,0,.23.8,13.12,13.12,0,0,0,6.51,1.77,12.94,12.94,0,0,0,0-25.89Zm0,24.69a11.89,11.89,0,0,1-5.43-1.31l3.26-5.6a5.69,5.69,0,0,0,2.17.46,5.33,5.33,0,0,0,.57-10.63v-6.46a11.78,11.78,0,0,1-.57,23.54Z"/></g></g><g class="cls-1"><path class="cls-3" d="M122.68,228h19.78a1.31,1.31,0,0,0,1.31-1.31V211.76h.9a.47.47,0,1,0,0-.94h-24.3a.47.47,0,0,0,0,.94h1v14.88A1.31,1.31,0,0,0,122.68,228Zm20.15-1.31a.38.38,0,0,1-.38.38H122.68a.38.38,0,0,1-.38-.38V211.76h20.54v14.88Z"/><path class="cls-3" d="M132.58,235.82a.47.47,0,0,0,.47-.47v-2.63l2.95,2.95a.46.46,0,0,0,.66,0,.47.47,0,0,0,0-.66L133,231.39V230h1.87a.47.47,0,0,0,0-.94h-4.66a.47.47,0,1,0,0,.94h1.86v1.39L128.49,235a.47.47,0,0,0,0,.66.46.46,0,0,0,.66,0l3-3v2.63A.47.47,0,0,0,132.58,235.82Z"/><path class="cls-3" d="M126.28,224.57h2.85a.47.47,0,0,0,.47-.47v-4.18a.47.47,0,0,0-.47-.47h-2.84a.47.47,0,0,0-.47.47v4.18A.46.46,0,0,0,126.28,224.57Zm.47-4.17h1.91v3.24h-1.91Z"/><path class="cls-3" d="M135.92,224.57h2.84a.47.47,0,0,0,.47-.47v-6.58a.47.47,0,0,0-.47-.47h-2.84a.47.47,0,0,0-.47.47v6.59A.47.47,0,0,0,135.92,224.57Zm.47-6.59h1.91v5.65h-1.91Z"/><path class="cls-3" d="M131.1,224.57h2.84a.47.47,0,0,0,.47-.47v-9.43a.47.47,0,0,0-.47-.47H131.1a.47.47,0,0,0-.47.47v9.44A.47.47,0,0,0,131.1,224.57Zm.47-9.44h1.91v8.51h-1.91v-8.51Z"/></g><g class="cls-1"><path class="cls-3" d="M66.3,237.5H82.13a1.05,1.05,0,0,0,1.05-1.05V224.54h.72a.38.38,0,1,0,0-.75H64.46a.38.38,0,1,0,0,.75h.8v11.91A1.05,1.05,0,0,0,66.3,237.5Zm16.12-1.05a.3.3,0,0,1-.31.31H66.3a.3.3,0,0,1-.31-.31V224.54H82.43v11.91Z"/><path class="cls-3" d="M74.22,243.79a.38.38,0,0,0,.38-.38v-2.11L77,243.67a.37.37,0,0,0,.53,0,.38.38,0,0,0,0-.53l-2.89-2.89v-1.11h1.49a.38.38,0,0,0,0-.75H72.36a.38.38,0,0,0,0,.75h1.48v1.11l-2.9,2.9a.38.38,0,0,0,0,.53.37.37,0,0,0,.53,0l2.37-2.37v2.11A.38.38,0,0,0,74.22,243.79Z"/><path class="cls-3" d="M69.18,234.79h2.28a.38.38,0,0,0,.38-.38v-3.34a.38.38,0,0,0-.38-.38H69.18a.38.38,0,0,0-.38.38v3.34A.37.37,0,0,0,69.18,234.79Zm.38-3.34h1.53v2.59H69.55Z"/><path class="cls-3" d="M76.9,234.79h2.27a.38.38,0,0,0,.38-.38v-5.27a.38.38,0,0,0-.38-.38H76.9a.38.38,0,0,0-.38.38v5.27A.38.38,0,0,0,76.9,234.79Zm.38-5.27H78.8V234H77.27Z"/><path class="cls-3" d="M73,234.79h2.27a.38.38,0,0,0,.38-.38v-7.55a.38.38,0,0,0-.38-.38H73a.38.38,0,0,0-.38.38v7.55A.38.38,0,0,0,73,234.79Zm.38-7.55h1.53V234H73.41v-6.8Z"/></g><g class="cls-1"><g class="cls-4"><path class="cls-3" d="M95,173.41a12.86,12.86,0,0,0-11.49,7,1.11,1.11,0,0,0-.06.46.69.69,0,0,0,.29.29l6.74,3.49a.43.43,0,0,0,.29.06.6.6,0,0,0,.51-.29A4.18,4.18,0,0,1,95,182.15a.54.54,0,0,0,.57-.57V174A.54.54,0,0,0,95,173.41Zm-.57,7.6a5.19,5.19,0,0,0-3.89,2.4l-5.77-3a11.82,11.82,0,0,1,9.66-5.89Z"/></g><g class="cls-4"><path class="cls-3" d="M93.32,192.78a4.16,4.16,0,0,1-1.6-5.49,1.11,1.11,0,0,0,.06-.46.59.59,0,0,0-.29-.34L84.75,183a.5.5,0,0,0-.74.23,12.44,12.44,0,0,0-1.43,5.89,12.94,12.94,0,0,0,6.34,11.26.52.52,0,0,0,.29.06h.17c.17-.06.29-.11.34-.29l3.83-6.57A.58.58,0,0,0,93.32,192.78ZM89,199.07a11.84,11.84,0,0,1-4.34-14.74l5.77,3a5.49,5.49,0,0,0-.34,1.89,5.23,5.23,0,0,0,2.17,4.29Z"/></g><g class="cls-4"><path class="cls-3" d="M97.15,177.52a.54.54,0,0,0-.57.57v7.6a.61.61,0,0,0,.57.57,4.17,4.17,0,1,1,0,8.34A3.92,3.92,0,0,1,95,194a.61.61,0,0,0-.46-.06c-.17.06-.29.11-.34.29l-3.83,6.57a.58.58,0,0,0,.23.8,13.12,13.12,0,0,0,6.51,1.77,12.94,12.94,0,0,0,0-25.89Zm0,24.69a11.89,11.89,0,0,1-5.43-1.31L95,195.3a5.69,5.69,0,0,0,2.17.46,5.33,5.33,0,0,0,.57-10.63v-6.46a11.78,11.78,0,0,1-.57,23.54Z"/></g></g><g class="cls-1"><g class="cls-4"><path class="cls-3" d="M42.57,249.71a12.86,12.86,0,0,0-11.49,7,1.11,1.11,0,0,0-.06.46.69.69,0,0,0,.29.29L38.06,261a.43.43,0,0,0,.29.06.6.6,0,0,0,.51-.29,4.18,4.18,0,0,1,3.71-2.29.54.54,0,0,0,.57-.57v-7.6A.54.54,0,0,0,42.57,249.71Zm-.57,7.6a5.19,5.19,0,0,0-3.89,2.4l-5.77-3A11.82,11.82,0,0,1,42,250.85Z"/></g><g class="cls-4"><path class="cls-3" d="M40.92,269.08a4.16,4.16,0,0,1-1.6-5.49,1.11,1.11,0,0,0,.06-.46.59.59,0,0,0-.29-.34l-6.74-3.49a.5.5,0,0,0-.74.23,12.44,12.44,0,0,0-1.43,5.89,12.94,12.94,0,0,0,6.34,11.26.52.52,0,0,0,.29.06H37c.17-.06.29-.11.34-.29l3.83-6.57A.58.58,0,0,0,40.92,269.08Zm-4.29,6.29a11.84,11.84,0,0,1-4.34-14.74l5.77,3a5.49,5.49,0,0,0-.34,1.89,5.23,5.23,0,0,0,2.17,4.29Z"/></g><g class="cls-4"><path class="cls-3" d="M44.74,253.82a.54.54,0,0,0-.57.57V262a.61.61,0,0,0,.57.57,4.17,4.17,0,1,1,0,8.34,3.92,3.92,0,0,1-2.11-.57.61.61,0,0,0-.46-.06c-.17.06-.29.11-.34.29L38,277.14a.58.58,0,0,0,.23.8,13.12,13.12,0,0,0,6.51,1.77,12.94,12.94,0,0,0,0-25.89Zm0,24.69a11.89,11.89,0,0,1-5.43-1.31l3.26-5.6a5.69,5.69,0,0,0,2.17.46,5.33,5.33,0,0,0,.57-10.63V255a11.78,11.78,0,0,1-.57,23.54Z"/></g></g><g class="cls-1"><g class="cls-4"><path class="cls-3" d="M236.34,241.52a12.86,12.86,0,0,0-11.49,7,1.11,1.11,0,0,0-.06.46.69.69,0,0,0,.29.29l6.74,3.49a.43.43,0,0,0,.29.06.6.6,0,0,0,.51-.29,4.18,4.18,0,0,1,3.71-2.29.54.54,0,0,0,.57-.57v-7.6A.54.54,0,0,0,236.34,241.52Zm-.57,7.6a5.19,5.19,0,0,0-3.89,2.4l-5.77-3a11.82,11.82,0,0,1,9.66-5.89Z"/></g><g class="cls-4"><path class="cls-3" d="M234.68,260.89a4.16,4.16,0,0,1-1.6-5.49,1.11,1.11,0,0,0,.06-.46.59.59,0,0,0-.29-.34l-6.74-3.49a.5.5,0,0,0-.74.23,12.44,12.44,0,0,0-1.43,5.89,12.94,12.94,0,0,0,6.34,11.26.52.52,0,0,0,.29.06h.17c.17-.06.29-.11.34-.29l3.83-6.57A.58.58,0,0,0,234.68,260.89Zm-4.29,6.29a11.84,11.84,0,0,1-4.34-14.74l5.77,3a5.49,5.49,0,0,0-.34,1.89,5.23,5.23,0,0,0,2.17,4.29Z"/></g><g class="cls-4"><path class="cls-3" d="M238.51,245.63a.54.54,0,0,0-.57.57v7.6a.61.61,0,0,0,.57.57,4.17,4.17,0,1,1,0,8.34,3.92,3.92,0,0,1-2.11-.57.61.61,0,0,0-.46-.06c-.17.06-.29.11-.34.29l-3.83,6.57a.58.58,0,0,0,.23.8,13.12,13.12,0,0,0,6.51,1.77,12.94,12.94,0,0,0,0-25.89Zm0,24.69a11.89,11.89,0,0,1-5.43-1.31l3.26-5.6a5.69,5.69,0,0,0,2.17.46,5.33,5.33,0,0,0,.57-10.63v-6.46a11.78,11.78,0,0,1-.57,23.54Z"/></g></g><g class="cls-1"><path class="cls-3" d="M162.92,255.17H182.7a1.31,1.31,0,0,0,1.31-1.31V239h.9a.47.47,0,1,0,0-.94h-24.3a.47.47,0,1,0,0,.94h1v14.88A1.31,1.31,0,0,0,162.92,255.17Zm20.15-1.31a.38.38,0,0,1-.38.38H162.92a.38.38,0,0,1-.38-.38V239h20.54v14.88Z"/><path class="cls-3" d="M172.82,263a.47.47,0,0,0,.47-.47v-2.63l2.95,2.95a.46.46,0,0,0,.66,0,.47.47,0,0,0,0-.66l-3.61-3.61v-1.39h1.87a.47.47,0,0,0,0-.94h-4.66a.47.47,0,1,0,0,.94h1.86v1.39l-3.62,3.62a.47.47,0,0,0,0,.66.46.46,0,0,0,.66,0l3-3v2.63A.47.47,0,0,0,172.82,263Z"/><path class="cls-3" d="M166.51,251.79h2.85a.47.47,0,0,0,.47-.47v-4.18a.47.47,0,0,0-.47-.47h-2.84a.47.47,0,0,0-.47.47v4.18A.46.46,0,0,0,166.51,251.79Zm.47-4.17h1.91v3.24H167Z"/><path class="cls-3" d="M176.16,251.79H179a.47.47,0,0,0,.47-.47v-6.58a.47.47,0,0,0-.47-.47h-2.84a.47.47,0,0,0-.47.47v6.59A.47.47,0,0,0,176.16,251.79Zm.47-6.59h1.91v5.65h-1.91Z"/><path class="cls-3" d="M171.34,251.79h2.84a.47.47,0,0,0,.47-.47v-9.43a.47.47,0,0,0-.47-.47h-2.84a.47.47,0,0,0-.47.47v9.44A.47.47,0,0,0,171.34,251.79Zm.47-9.44h1.91v8.51h-1.91v-8.51Z"/></g><g class="cls-1"><path class="cls-3" d="M188.86,321.93h13.84a.92.92,0,0,0,.92-.92V310.59h.63a.33.33,0,1,0,0-.66h-17a.33.33,0,1,0,0,.66h.7V321A.92.92,0,0,0,188.86,321.93ZM203,321a.27.27,0,0,1-.27.27H188.86a.27.27,0,0,1-.27-.27V310.59H203V321Z"/><path class="cls-3" d="M195.79,327.43a.33.33,0,0,0,.33-.33v-1.84l2.06,2.06a.32.32,0,0,0,.46,0,.33.33,0,0,0,0-.46l-2.53-2.53v-1h1.31a.33.33,0,0,0,0-.66h-3.26a.33.33,0,0,0,0,.66h1.3v1l-2.54,2.54a.33.33,0,0,0,0,.46.32.32,0,0,0,.46,0l2.07-2.07v1.84A.33.33,0,0,0,195.79,327.43Z"/><path class="cls-3" d="M191.38,319.56h2a.33.33,0,0,0,.33-.33v-2.92a.33.33,0,0,0-.33-.33h-2a.33.33,0,0,0-.33.33v2.92A.32.32,0,0,0,191.38,319.56Zm.33-2.92H193v2.27H191.7Z"/><path class="cls-3" d="M198.13,319.56h2a.33.33,0,0,0,.33-.33v-4.61a.33.33,0,0,0-.33-.33h-2a.33.33,0,0,0-.33.33v4.61A.33.33,0,0,0,198.13,319.56Zm.33-4.61h1.34v4h-1.34Z"/><path class="cls-3" d="M194.75,319.56h2a.33.33,0,0,0,.33-.33v-6.6a.33.33,0,0,0-.33-.33h-2a.33.33,0,0,0-.33.33v6.61A.33.33,0,0,0,194.75,319.56Zm.33-6.61h1.34v6h-1.34v-6Z"/></g><g class="cls-1"><path class="cls-3" d="M74.43,309.57H94.21a1.31,1.31,0,0,0,1.31-1.31V293.37h.9a.47.47,0,1,0,0-.94H72.12a.47.47,0,1,0,0,.94h1v14.88A1.31,1.31,0,0,0,74.43,309.57Zm20.15-1.31a.38.38,0,0,1-.38.38H74.43a.38.38,0,0,1-.38-.38V293.37H94.59v14.88Z"/><path class="cls-3" d="M84.33,317.43a.47.47,0,0,0,.47-.47v-2.63l2.95,2.95a.46.46,0,0,0,.66,0,.47.47,0,0,0,0-.66L84.8,313v-1.39h1.87a.47.47,0,0,0,0-.94H82a.47.47,0,0,0,0,.94h1.86V313l-3.62,3.62a.47.47,0,0,0,0,.66.46.46,0,0,0,.66,0l3-3V317A.47.47,0,0,0,84.33,317.43Z"/><path class="cls-3" d="M78,306.18h2.85a.47.47,0,0,0,.47-.47v-4.18a.47.47,0,0,0-.47-.47H78a.47.47,0,0,0-.47.47v4.18A.46.46,0,0,0,78,306.18Zm.47-4.17H80.4v3.24H78.49Z"/><path class="cls-3" d="M87.67,306.18h2.84a.47.47,0,0,0,.47-.47v-6.58a.47.47,0,0,0-.47-.47H87.67a.47.47,0,0,0-.47.47v6.59A.47.47,0,0,0,87.67,306.18Zm.47-6.59H90v5.65H88.14Z"/><path class="cls-3" d="M82.85,306.18h2.84a.47.47,0,0,0,.47-.47v-9.43a.47.47,0,0,0-.47-.47H82.85a.47.47,0,0,0-.47.47v9.44A.47.47,0,0,0,82.85,306.18Zm.47-9.44h1.91v8.51H83.32v-8.51Z"/></g><g class="cls-1"><path class="cls-2" d="M156.4,154.87a4.48,4.48,0,0,0-3.75,6.92l-4.84,4.84a4.47,4.47,0,0,0-5,.05l-4.89-4.89a4.48,4.48,0,1,0-7.51,0l-4.84,4.84a4.49,4.49,0,1,0,1.31,1.31l4.84-4.84a4.47,4.47,0,0,0,4.89,0l4.92,4.92a4.48,4.48,0,1,0,7.56-.08l4.84-4.84a4.48,4.48,0,1,0,2.44-8.23ZM123.16,173a2.63,2.63,0,1,1,2.63-2.63A2.63,2.63,0,0,1,123.16,173Zm11-11a2.63,2.63,0,1,1,2.63-2.63A2.63,2.63,0,0,1,134.19,162Zm11.16,11a2.63,2.63,0,1,1,2.63-2.63A2.63,2.63,0,0,1,145.36,173Zm11-11a2.63,2.63,0,1,1,2.63-2.63A2.63,2.63,0,0,1,156.4,162Z"/><path class="cls-2" d="M133.25,166.25a.93.93,0,0,0-1.31,0l-1.88,1.88a.93.93,0,1,0,1.31,1.31l1.88-1.88A.93.93,0,0,0,133.25,166.25Z"/><path class="cls-2" d="M149.5,160.33a.93.93,0,0,0-1.31,0l-1.88,1.88a.93.93,0,1,0,1.31,1.31l1.88-1.88A.93.93,0,0,0,149.5,160.33Z"/></g><g class="cls-1"><path class="cls-2" d="M106.92,72.94A3.92,3.92,0,0,0,103.64,79L99.4,83.24a3.91,3.91,0,0,0-4.34,0L90.78,79a3.92,3.92,0,1,0-6.57,0L80,83.24a3.93,3.93,0,1,0,1.15,1.15l4.24-4.24a3.91,3.91,0,0,0,4.28,0l4.3,4.3a3.92,3.92,0,1,0,6.61-.07l4.24-4.24a3.92,3.92,0,1,0,2.14-7.2ZM77.83,88.82a2.3,2.3,0,1,1,2.3-2.3A2.3,2.3,0,0,1,77.83,88.82Zm9.66-9.66a2.3,2.3,0,1,1,2.3-2.3A2.3,2.3,0,0,1,87.49,79.16Zm9.77,9.66a2.3,2.3,0,1,1,2.3-2.3A2.3,2.3,0,0,1,97.26,88.82Zm9.66-9.66a2.3,2.3,0,1,1,2.3-2.3A2.3,2.3,0,0,1,106.92,79.16Z"/><path class="cls-2" d="M86.66,82.9a.81.81,0,0,0-1.15,0l-1.65,1.65A.81.81,0,1,0,85,85.69L86.66,84A.81.81,0,0,0,86.66,82.9Z"/><path class="cls-2" d="M100.89,77.72a.81.81,0,0,0-1.15,0l-1.65,1.65a.81.81,0,1,0,1.15,1.15l1.65-1.65A.81.81,0,0,0,100.89,77.72Z"/></g><g class="cls-1"><path class="cls-2" d="M33,135.2a3.92,3.92,0,0,0-3.28,6.06l-4.24,4.24a3.91,3.91,0,0,0-4.34,0l-4.28-4.28a3.92,3.92,0,1,0-6.57,0L6.06,145.5a3.93,3.93,0,1,0,1.15,1.15l4.24-4.24a3.91,3.91,0,0,0,4.28,0l4.3,4.3a3.92,3.92,0,1,0,6.61-.07l4.24-4.24A3.92,3.92,0,1,0,33,135.2ZM3.92,151.08a2.3,2.3,0,1,1,2.3-2.3A2.3,2.3,0,0,1,3.92,151.08Zm9.66-9.66a2.3,2.3,0,1,1,2.3-2.3A2.3,2.3,0,0,1,13.58,141.42Zm9.77,9.66a2.3,2.3,0,1,1,2.3-2.3A2.3,2.3,0,0,1,23.35,151.08ZM33,141.42a2.3,2.3,0,1,1,2.3-2.3A2.3,2.3,0,0,1,33,141.42Z"/><path class="cls-2" d="M12.75,145.16a.81.81,0,0,0-1.15,0L10,146.81A.81.81,0,1,0,11.1,148l1.65-1.65A.81.81,0,0,0,12.75,145.16Z"/><path class="cls-2" d="M27,140a.81.81,0,0,0-1.15,0l-1.65,1.65a.81.81,0,1,0,1.15,1.15L27,141.13A.81.81,0,0,0,27,140Z"/></g><g class="cls-1"><path class="cls-2" d="M197.73,34.82A4.48,4.48,0,0,0,194,41.75l-4.84,4.84a4.47,4.47,0,0,0-5,.05l-4.89-4.89a4.48,4.48,0,1,0-7.51,0l-4.84,4.84a4.49,4.49,0,1,0,1.31,1.31l4.84-4.84a4.47,4.47,0,0,0,4.89,0L182.89,48a4.48,4.48,0,1,0,7.56-.08l4.84-4.84a4.48,4.48,0,1,0,2.44-8.23ZM164.49,53a2.63,2.63,0,1,1,2.63-2.63A2.63,2.63,0,0,1,164.49,53Zm11-11a2.63,2.63,0,1,1,2.63-2.63A2.63,2.63,0,0,1,175.53,41.93ZM186.7,53a2.63,2.63,0,1,1,2.63-2.63A2.63,2.63,0,0,1,186.7,53Zm11-11a2.63,2.63,0,1,1,2.63-2.63A2.63,2.63,0,0,1,197.73,41.93Z"/><path class="cls-2" d="M174.58,46.2a.93.93,0,0,0-1.31,0l-1.88,1.88a.93.93,0,1,0,1.31,1.31l1.88-1.88A.93.93,0,0,0,174.58,46.2Z"/><path class="cls-2" d="M190.84,40.29a.93.93,0,0,0-1.31,0l-1.88,1.88A.93.93,0,1,0,189,43.48l1.88-1.88A.93.93,0,0,0,190.84,40.29Z"/></g><g class="cls-1"><path class="cls-2" d="M196.65,106.83a3.36,3.36,0,0,0-2.81,5.19l-3.63,3.63a3.35,3.35,0,0,0-3.72,0L182.81,112a3.36,3.36,0,1,0-5.63,0l-3.63,3.63a3.37,3.37,0,1,0,1,1l3.63-3.63a3.35,3.35,0,0,0,3.67,0l3.69,3.69a3.36,3.36,0,1,0,5.67-.06l3.63-3.63a3.36,3.36,0,1,0,1.83-6.18Zm-24.93,13.61a2,2,0,1,1,2-2A2,2,0,0,1,171.72,120.44Zm8.28-8.28a2,2,0,1,1,2-2A2,2,0,0,1,180,112.17Zm8.37,8.28a2,2,0,1,1,2-2A2,2,0,0,1,188.37,120.44Zm8.28-8.28a2,2,0,1,1,2-2A2,2,0,0,1,196.65,112.17Z"/><path class="cls-2" d="M179.28,115.37a.69.69,0,0,0-1,0l-1.41,1.41a.69.69,0,1,0,1,1l1.41-1.41A.69.69,0,0,0,179.28,115.37Z"/><path class="cls-2" d="M191.47,110.93a.69.69,0,0,0-1,0l-1.41,1.41a.69.69,0,1,0,1,1l1.41-1.41A.69.69,0,0,0,191.47,110.93Z"/></g><g class="cls-1"><path class="cls-2" d="M144.75,12a3.36,3.36,0,0,0-2.81,5.19l-3.63,3.63a3.35,3.35,0,0,0-3.72,0l-3.67-3.67a3.36,3.36,0,1,0-5.63,0l-3.63,3.63a3.37,3.37,0,1,0,1,1l3.63-3.63a3.35,3.35,0,0,0,3.67,0l3.69,3.69a3.36,3.36,0,1,0,5.67-.06l3.63-3.63A3.36,3.36,0,1,0,144.75,12ZM119.81,25.57a2,2,0,1,1,2-2A2,2,0,0,1,119.81,25.57Zm8.28-8.28a2,2,0,1,1,2-2A2,2,0,0,1,128.09,17.29Zm8.37,8.28a2,2,0,1,1,2-2A2,2,0,0,1,136.47,25.57Zm8.28-8.28a2,2,0,1,1,2-2A2,2,0,0,1,144.75,17.29Z"/><path class="cls-2" d="M127.38,20.49a.69.69,0,0,0-1,0L125,21.91a.69.69,0,1,0,1,1l1.41-1.41A.69.69,0,0,0,127.38,20.49Z"/><path class="cls-2" d="M139.57,16.06a.69.69,0,0,0-1,0l-1.41,1.41a.69.69,0,1,0,1,1L139.57,17A.69.69,0,0,0,139.57,16.06Z"/></g><g class="cls-1"><path class="cls-2" d="M43.21,28a4.48,4.48,0,0,0-3.75,6.92l-4.84,4.84a4.47,4.47,0,0,0-5,.05l-4.89-4.89a4.48,4.48,0,1,0-7.51,0l-4.84,4.84a4.49,4.49,0,1,0,1.31,1.31l4.84-4.84a4.47,4.47,0,0,0,4.89,0l4.92,4.92a4.48,4.48,0,1,0,7.56-.08l4.84-4.84A4.48,4.48,0,1,0,43.21,28ZM10,46.15a2.63,2.63,0,1,1,2.63-2.63A2.63,2.63,0,0,1,10,46.15Zm11-11a2.63,2.63,0,1,1,2.63-2.63A2.63,2.63,0,0,1,21,35.11Zm11.16,11a2.63,2.63,0,1,1,2.63-2.63A2.63,2.63,0,0,1,32.17,46.15Zm11-11a2.63,2.63,0,1,1,2.63-2.63A2.63,2.63,0,0,1,43.21,35.11Z"/><path class="cls-2" d="M20.06,39.38a.93.93,0,0,0-1.31,0l-1.88,1.88a.93.93,0,1,0,1.31,1.31l1.88-1.88A.93.93,0,0,0,20.06,39.38Z"/><path class="cls-2" d="M36.31,33.46a.93.93,0,0,0-1.31,0l-1.88,1.88a.93.93,0,1,0,1.31,1.31l1.88-1.88A.93.93,0,0,0,36.31,33.46Z"/></g><g class="cls-1"><g class="cls-4"><path class="cls-3" d="M125.07,114.78a10.72,10.72,0,0,0-9.57,5.86.93.93,0,0,0,0,.38.57.57,0,0,0,.24.24l5.62,2.9a.36.36,0,0,0,.24,0A.5.5,0,0,0,122,124a3.48,3.48,0,0,1,3.1-1.9.45.45,0,0,0,.48-.48v-6.33A.45.45,0,0,0,125.07,114.78Zm-.48,6.33a4.33,4.33,0,0,0-3.24,2l-4.81-2.48a9.85,9.85,0,0,1,8-4.9Z"/></g><g class="cls-4"><path class="cls-3" d="M123.69,130.92a3.47,3.47,0,0,1-1.33-4.57.93.93,0,0,0,0-.38.49.49,0,0,0-.24-.29l-5.62-2.9a.42.42,0,0,0-.62.19,10.37,10.37,0,0,0-1.19,4.9,10.79,10.79,0,0,0,5.29,9.38.43.43,0,0,0,.24,0h.14c.14,0,.24-.1.29-.24l3.19-5.48A.48.48,0,0,0,123.69,130.92Zm-3.57,5.24a9.87,9.87,0,0,1-3.62-12.29l4.81,2.48a4.57,4.57,0,0,0-.29,1.57,4.36,4.36,0,0,0,1.81,3.57Z"/></g><g class="cls-4"><path class="cls-3" d="M126.88,118.2a.45.45,0,0,0-.48.48V125a.51.51,0,0,0,.48.48,3.48,3.48,0,1,1,0,7,3.27,3.27,0,0,1-1.76-.48.51.51,0,0,0-.38,0c-.14,0-.24.1-.29.24l-3.19,5.48a.48.48,0,0,0,.19.67,10.93,10.93,0,0,0,5.43,1.48,10.79,10.79,0,0,0,0-21.57Zm0,20.57a9.91,9.91,0,0,1-4.52-1.1l2.71-4.67a4.74,4.74,0,0,0,1.81.38,4.44,4.44,0,0,0,.48-8.86v-5.38a9.82,9.82,0,0,1-.48,19.62Z"/></g></g><g class="cls-1"><path class="cls-3" d="M108,55.73h19.78a1.31,1.31,0,0,0,1.31-1.31V39.53h.9a.47.47,0,1,0,0-.94h-24.3a.47.47,0,1,0,0,.94h1V54.41A1.31,1.31,0,0,0,108,55.73Zm20.15-1.31a.38.38,0,0,1-.38.38H108a.38.38,0,0,1-.38-.38V39.53H128.2V54.41Z"/><path class="cls-3" d="M117.94,63.59a.47.47,0,0,0,.47-.47V60.49l2.95,2.95a.46.46,0,0,0,.66,0,.47.47,0,0,0,0-.66l-3.61-3.61V57.78h1.87a.47.47,0,1,0,0-.94h-4.66a.47.47,0,1,0,0,.94h1.86v1.39l-3.62,3.62a.47.47,0,0,0,0,.66.46.46,0,0,0,.66,0l3-3v2.63A.47.47,0,0,0,117.94,63.59Z"/><path class="cls-3" d="M111.64,52.35h2.85a.47.47,0,0,0,.47-.47V47.7a.47.47,0,0,0-.47-.47h-2.84a.47.47,0,0,0-.47.47v4.18A.46.46,0,0,0,111.64,52.35Zm.47-4.17H114v3.24h-1.91Z"/><path class="cls-3" d="M121.29,52.35h2.84a.47.47,0,0,0,.47-.47V45.29a.47.47,0,0,0-.47-.47h-2.84a.47.47,0,0,0-.47.47v6.59A.47.47,0,0,0,121.29,52.35Zm.47-6.59h1.91v5.65h-1.91Z"/><path class="cls-3" d="M116.47,52.35h2.84a.47.47,0,0,0,.47-.47V42.44a.47.47,0,0,0-.47-.47h-2.84a.47.47,0,0,0-.47.47v9.44A.47.47,0,0,0,116.47,52.35Zm.47-9.44h1.91v8.51h-1.91V42.91Z"/></g><g class="cls-1"><path class="cls-3" d="M51.67,65.27H67.49a1.05,1.05,0,0,0,1.05-1.05V52.32h.72a.38.38,0,1,0,0-.75H49.82a.38.38,0,0,0,0,.75h.8V64.22A1.05,1.05,0,0,0,51.67,65.27Zm16.12-1.05a.3.3,0,0,1-.31.31H51.67a.3.3,0,0,1-.31-.31V52.32H67.79V64.22Z"/><path class="cls-3" d="M59.59,71.57a.38.38,0,0,0,.38-.38V69.08l2.36,2.36a.37.37,0,0,0,.53,0,.38.38,0,0,0,0-.53L60,68V66.91h1.49a.38.38,0,0,0,0-.75H57.73a.38.38,0,0,0,0,.75h1.48V68l-2.9,2.9a.38.38,0,0,0,0,.53.37.37,0,0,0,.53,0l2.37-2.37v2.11A.38.38,0,0,0,59.59,71.57Z"/><path class="cls-3" d="M54.54,62.57h2.28a.38.38,0,0,0,.38-.38V58.85a.38.38,0,0,0-.38-.38H54.55a.38.38,0,0,0-.38.38v3.34A.37.37,0,0,0,54.54,62.57Zm.38-3.34h1.53v2.59H54.92Z"/><path class="cls-3" d="M62.26,62.57h2.27a.38.38,0,0,0,.38-.38V56.93a.38.38,0,0,0-.38-.38H62.26a.38.38,0,0,0-.38.38V62.2A.38.38,0,0,0,62.26,62.57Zm.38-5.27h1.53v4.52H62.64Z"/><path class="cls-3" d="M58.4,62.57h2.27a.38.38,0,0,0,.38-.38V54.65a.38.38,0,0,0-.38-.38H58.4a.38.38,0,0,0-.38.38V62.2A.38.38,0,0,0,58.4,62.57ZM58.78,55H60.3v6.8H58.78V55Z"/></g><g class="cls-1"><g class="cls-4"><path class="cls-3" d="M80.57,3.69A10.72,10.72,0,0,0,71,9.54a.93.93,0,0,0,0,.38.57.57,0,0,0,.24.24l5.62,2.9a.36.36,0,0,0,.24,0,.5.5,0,0,0,.43-.24,3.48,3.48,0,0,1,3.1-1.9A.45.45,0,0,0,81,10.5V4.16A.45.45,0,0,0,80.57,3.69ZM80.09,10a4.33,4.33,0,0,0-3.24,2L72,9.54a9.85,9.85,0,0,1,8-4.9Z"/></g><g class="cls-4"><path class="cls-3" d="M79.19,19.83a3.47,3.47,0,0,1-1.33-4.57.93.93,0,0,0,0-.38.49.49,0,0,0-.24-.29L72,11.69a.42.42,0,0,0-.62.19,10.37,10.37,0,0,0-1.19,4.9,10.79,10.79,0,0,0,5.29,9.38.43.43,0,0,0,.24,0h.14c.14,0,.24-.1.29-.24l3.19-5.48A.48.48,0,0,0,79.19,19.83Zm-3.57,5.24A9.87,9.87,0,0,1,72,12.78l4.81,2.48a4.57,4.57,0,0,0-.29,1.57,4.36,4.36,0,0,0,1.81,3.57Z"/></g><g class="cls-4"><path class="cls-3" d="M82.38,7.11a.45.45,0,0,0-.48.48v6.33a.51.51,0,0,0,.48.48,3.48,3.48,0,0,1,0,7,3.27,3.27,0,0,1-1.76-.48.51.51,0,0,0-.38,0c-.14,0-.24.1-.29.24l-3.19,5.48a.48.48,0,0,0,.19.67,10.93,10.93,0,0,0,5.43,1.48,10.79,10.79,0,0,0,0-21.57Zm0,20.57a9.91,9.91,0,0,1-4.52-1.1l2.71-4.67a4.74,4.74,0,0,0,1.81.38,4.44,4.44,0,0,0,.48-8.86V8.07a9.82,9.82,0,0,1-.48,19.62Z"/></g></g><g class="cls-1"><g class="cls-4"><path class="cls-3" d="M27.94,77.48a12.86,12.86,0,0,0-11.49,7,1.11,1.11,0,0,0-.06.46.69.69,0,0,0,.29.29l6.74,3.49a.43.43,0,0,0,.29.06.6.6,0,0,0,.51-.29,4.18,4.18,0,0,1,3.71-2.29.54.54,0,0,0,.57-.57v-7.6A.54.54,0,0,0,27.94,77.48Zm-.57,7.6a5.19,5.19,0,0,0-3.89,2.4l-5.77-3a11.82,11.82,0,0,1,9.66-5.89Z"/></g><g class="cls-4"><path class="cls-3" d="M26.28,96.85a4.16,4.16,0,0,1-1.6-5.49,1.11,1.11,0,0,0,.06-.46.59.59,0,0,0-.29-.34l-6.74-3.49a.5.5,0,0,0-.74.23,12.44,12.44,0,0,0-1.43,5.89,12.94,12.94,0,0,0,6.34,11.26.52.52,0,0,0,.29.06h.17c.17-.06.29-.11.34-.29l3.83-6.57A.58.58,0,0,0,26.28,96.85ZM22,103.14A11.84,11.84,0,0,1,17.65,88.4l5.77,3a5.49,5.49,0,0,0-.34,1.89,5.23,5.23,0,0,0,2.17,4.29Z"/></g><g class="cls-4"><path class="cls-3" d="M30.11,81.6a.54.54,0,0,0-.57.57v7.6a.61.61,0,0,0,.57.57,4.17,4.17,0,0,1,0,8.34A3.92,3.92,0,0,1,28,98.11a.61.61,0,0,0-.46-.06c-.17.06-.29.11-.34.29l-3.83,6.57a.58.58,0,0,0,.23.8,13.12,13.12,0,0,0,6.51,1.77,12.94,12.94,0,0,0,0-25.89Zm0,24.69A11.89,11.89,0,0,1,24.68,105l3.26-5.6a5.69,5.69,0,0,0,2.17.46,5.33,5.33,0,0,0,.57-10.63V82.74a11.78,11.78,0,0,1-.57,23.54Z"/></g></g><g class="cls-1"><g class="cls-4"><path class="cls-3" d="M221.7,69.29a12.86,12.86,0,0,0-11.49,7,1.11,1.11,0,0,0-.06.46.69.69,0,0,0,.29.29l6.74,3.49a.43.43,0,0,0,.29.06.6.6,0,0,0,.51-.29A4.18,4.18,0,0,1,221.7,78a.54.54,0,0,0,.57-.57v-7.6A.54.54,0,0,0,221.7,69.29Zm-.57,7.6a5.19,5.19,0,0,0-3.89,2.4l-5.77-3a11.82,11.82,0,0,1,9.66-5.89Z"/></g><g class="cls-4"><path class="cls-3" d="M220,88.67a4.16,4.16,0,0,1-1.6-5.49,1.11,1.11,0,0,0,.06-.46.59.59,0,0,0-.29-.34l-6.74-3.49a.5.5,0,0,0-.74.23A12.44,12.44,0,0,0,209.3,85a12.94,12.94,0,0,0,6.34,11.26.52.52,0,0,0,.29.06h.17c.17-.06.29-.11.34-.29l3.83-6.57A.58.58,0,0,0,220,88.67ZM215.76,95a11.84,11.84,0,0,1-4.34-14.74l5.77,3a5.49,5.49,0,0,0-.34,1.89A5.23,5.23,0,0,0,219,89.35Z"/></g><g class="cls-4"><path class="cls-3" d="M223.88,73.41a.54.54,0,0,0-.57.57v7.6a.61.61,0,0,0,.57.57,4.17,4.17,0,1,1,0,8.34,3.92,3.92,0,0,1-2.11-.57.61.61,0,0,0-.46-.06c-.17.06-.29.11-.34.29l-3.83,6.57a.58.58,0,0,0,.23.8,13.12,13.12,0,0,0,6.51,1.77,12.94,12.94,0,0,0,0-25.89Zm0,24.69a11.89,11.89,0,0,1-5.43-1.31l3.26-5.6a5.69,5.69,0,0,0,2.17.46A5.33,5.33,0,0,0,224.45,81V74.55a11.78,11.78,0,0,1-.57,23.54Z"/></g></g><g class="cls-1"><path class="cls-3" d="M148.29,82.95h19.78a1.31,1.31,0,0,0,1.31-1.31V66.75h.9a.47.47,0,1,0,0-.94H146a.47.47,0,1,0,0,.94h1V81.64A1.31,1.31,0,0,0,148.29,82.95Zm20.15-1.31a.38.38,0,0,1-.38.38H148.29a.38.38,0,0,1-.38-.38V66.75h20.54V81.64Z"/><path class="cls-3" d="M158.18,90.82a.47.47,0,0,0,.47-.47V87.71l2.95,2.95a.46.46,0,0,0,.66,0,.47.47,0,0,0,0-.66l-3.61-3.61V85h1.87a.47.47,0,1,0,0-.94h-4.66a.47.47,0,1,0,0,.94h1.86v1.39L154.09,90a.47.47,0,0,0,0,.66.46.46,0,0,0,.66,0l3-3v2.63A.47.47,0,0,0,158.18,90.82Z"/><path class="cls-3" d="M151.88,79.57h2.85a.47.47,0,0,0,.47-.47V74.92a.47.47,0,0,0-.47-.47h-2.84a.47.47,0,0,0-.47.47V79.1A.46.46,0,0,0,151.88,79.57Zm.47-4.17h1.91v3.24h-1.91Z"/><path class="cls-3" d="M161.53,79.57h2.84a.47.47,0,0,0,.47-.47V72.52a.47.47,0,0,0-.47-.47h-2.84a.47.47,0,0,0-.47.47V79.1A.47.47,0,0,0,161.53,79.57ZM162,73h1.91v5.65H162Z"/><path class="cls-3" d="M156.7,79.57h2.84a.47.47,0,0,0,.47-.47V69.67a.47.47,0,0,0-.47-.47H156.7a.47.47,0,0,0-.47.47V79.1A.47.47,0,0,0,156.7,79.57Zm.47-9.44h1.91v8.51h-1.91V70.13Z"/></g><g class="cls-1"><path class="cls-3" d="M171.27,151.09h19.78a1.31,1.31,0,0,0,1.31-1.31V134.9h.9a.47.47,0,1,0,0-.94H169a.47.47,0,0,0,0,.94h1v14.88A1.31,1.31,0,0,0,171.27,151.09Zm20.15-1.31a.38.38,0,0,1-.38.38H171.27a.38.38,0,0,1-.38-.38V134.9h20.54v14.88Z"/><path class="cls-3" d="M181.17,159a.47.47,0,0,0,.47-.47v-2.63l2.95,2.95a.46.46,0,0,0,.66,0,.47.47,0,0,0,0-.66l-3.61-3.61v-1.39h1.87a.47.47,0,0,0,0-.94h-4.66a.47.47,0,0,0,0,.94h1.86v1.39l-3.62,3.62a.47.47,0,0,0,0,.66.46.46,0,0,0,.66,0l3-3v2.63A.47.47,0,0,0,181.17,159Z"/><path class="cls-3" d="M174.87,147.71h2.85a.47.47,0,0,0,.47-.47v-4.18a.47.47,0,0,0-.47-.47h-2.84a.47.47,0,0,0-.47.47v4.18A.46.46,0,0,0,174.87,147.71Zm.47-4.17h1.91v3.24h-1.91Z"/><path class="cls-3" d="M184.52,147.71h2.84a.47.47,0,0,0,.47-.47v-6.58a.47.47,0,0,0-.47-.47h-2.84a.47.47,0,0,0-.47.47v6.59A.47.47,0,0,0,184.52,147.71Zm.47-6.59h1.91v5.65H185Z"/><path class="cls-3" d="M179.69,147.71h2.84a.47.47,0,0,0,.47-.47v-9.43a.47.47,0,0,0-.47-.47h-2.84a.47.47,0,0,0-.47.47v9.44A.47.47,0,0,0,179.69,147.71Zm.47-9.44h1.91v8.51h-1.91v-8.51Z"/></g><g class="cls-1"><path class="cls-3" d="M59.8,137.34H79.57A1.31,1.31,0,0,0,80.89,136V121.15h.9a.47.47,0,1,0,0-.94H57.49a.47.47,0,1,0,0,.94h1V136A1.31,1.31,0,0,0,59.8,137.34ZM80,136a.38.38,0,0,1-.38.38H59.8a.38.38,0,0,1-.38-.38V121.15H80V136Z"/><path class="cls-3" d="M69.69,145.21a.47.47,0,0,0,.47-.47V142.1l2.95,2.95a.46.46,0,0,0,.66,0,.47.47,0,0,0,0-.66l-3.61-3.61v-1.39H72a.47.47,0,0,0,0-.94H67.37a.47.47,0,0,0,0,.94h1.86v1.39l-3.62,3.62a.47.47,0,0,0,0,.66.46.46,0,0,0,.66,0l3-3v2.63A.47.47,0,0,0,69.69,145.21Z"/><path class="cls-3" d="M63.39,134h2.85a.47.47,0,0,0,.47-.47v-4.18a.47.47,0,0,0-.47-.47H63.39a.47.47,0,0,0-.47.47v4.18A.46.46,0,0,0,63.39,134Zm.47-4.17h1.91V133H63.86Z"/><path class="cls-3" d="M73,134h2.84a.47.47,0,0,0,.47-.47v-6.58a.47.47,0,0,0-.47-.47H73a.47.47,0,0,0-.47.47v6.59A.47.47,0,0,0,73,134Zm.47-6.59h1.91V133H73.51Z"/><path class="cls-3" d="M68.21,134h2.84a.47.47,0,0,0,.47-.47v-9.43a.47.47,0,0,0-.47-.47H68.21a.47.47,0,0,0-.47.47v9.44A.47.47,0,0,0,68.21,134Zm.47-9.44h1.91V133H68.68v-8.51Z"/></g><g class="cls-1"><path class="cls-3" d="M219.62,17.13H239.4a1.31,1.31,0,0,0,1.31-1.31V.94h.9a.47.47,0,1,0,0-.94h-24.3a.47.47,0,0,0,0,.94h1V15.82A1.31,1.31,0,0,0,219.62,17.13Zm20.15-1.31a.38.38,0,0,1-.38.38H219.62a.38.38,0,0,1-.38-.38V.94h20.54V15.82Z"/><path class="cls-3" d="M229.52,25a.47.47,0,0,0,.47-.47V21.9l2.95,2.95a.46.46,0,0,0,.66,0,.47.47,0,0,0,0-.66L230,20.58V19.19h1.87a.47.47,0,1,0,0-.94H227.2a.47.47,0,1,0,0,.94h1.86v1.39l-3.62,3.62a.47.47,0,0,0,0,.66.46.46,0,0,0,.66,0l3-3v2.63A.47.47,0,0,0,229.52,25Z"/><path class="cls-3" d="M223.22,13.75h2.85a.47.47,0,0,0,.47-.47V9.11a.47.47,0,0,0-.47-.47h-2.84a.47.47,0,0,0-.47.47v4.18A.46.46,0,0,0,223.22,13.75Zm.47-4.17h1.91v3.24h-1.91Z"/><path class="cls-3" d="M232.87,13.75h2.84a.47.47,0,0,0,.47-.47V6.7a.47.47,0,0,0-.47-.47h-2.84a.47.47,0,0,0-.47.47v6.59A.47.47,0,0,0,232.87,13.75Zm.47-6.59h1.91v5.65h-1.91Z"/><path class="cls-3" d="M228,13.75h2.84a.47.47,0,0,0,.47-.47V3.85a.47.47,0,0,0-.47-.47H228a.47.47,0,0,0-.47.47v9.44A.47.47,0,0,0,228,13.75Zm.47-9.44h1.91v8.51h-1.91V4.31Z"/></g><g class="cls-1"><g class="cls-4"><path class="cls-3" d="M221.27,150.68a9.64,9.64,0,0,0-8.61,5.27.84.84,0,0,0,0,.34.52.52,0,0,0,.21.21l5.06,2.61a.32.32,0,0,0,.21,0,.45.45,0,0,0,.39-.21,3.14,3.14,0,0,1,2.79-1.71.4.4,0,0,0,.43-.43v-5.7A.4.4,0,0,0,221.27,150.68Zm-.43,5.7a3.89,3.89,0,0,0-2.91,1.8L213.6,156a8.86,8.86,0,0,1,7.24-4.41Z"/></g><g class="cls-4"><path class="cls-3" d="M220,165.21a3.12,3.12,0,0,1-1.2-4.11.84.84,0,0,0,0-.34.44.44,0,0,0-.21-.26l-5.06-2.61a.38.38,0,0,0-.56.17,9.33,9.33,0,0,0-1.07,4.41,9.71,9.71,0,0,0,4.76,8.44.39.39,0,0,0,.21,0h.13c.13,0,.21-.09.26-.21l2.87-4.93A.43.43,0,0,0,220,165.21Zm-3.21,4.71a8.88,8.88,0,0,1-3.26-11.06l4.33,2.23a4.11,4.11,0,0,0-.26,1.41,3.92,3.92,0,0,0,1.63,3.21Z"/></g><g class="cls-4"><path class="cls-3" d="M222.9,153.77a.4.4,0,0,0-.43.43v5.7a.46.46,0,0,0,.43.43,3.13,3.13,0,1,1,0,6.26,2.94,2.94,0,0,1-1.59-.43.46.46,0,0,0-.34,0c-.13,0-.21.09-.26.21l-2.87,4.93a.43.43,0,0,0,.17.6,9.84,9.84,0,0,0,4.89,1.33,9.71,9.71,0,0,0,0-19.41Zm0,18.51a8.92,8.92,0,0,1-4.07-1l2.44-4.2a4.27,4.27,0,0,0,1.63.34,4,4,0,0,0,.43-8v-4.84a8.83,8.83,0,0,1-.43,17.66Z"/></g></g><g class="cls-1"><g class="cls-4"><path class="cls-3" d="M272,27.84a12.86,12.86,0,0,0-11.49,7,1.11,1.11,0,0,0-.06.46.69.69,0,0,0,.29.29l6.74,3.49a.43.43,0,0,0,.29.06.6.6,0,0,0,.51-.29A4.18,4.18,0,0,1,272,36.59a.54.54,0,0,0,.57-.57v-7.6A.54.54,0,0,0,272,27.84Zm-.57,7.6a5.19,5.19,0,0,0-3.89,2.4l-5.77-3A11.82,11.82,0,0,1,271.47,29Z"/></g><g class="cls-4"><path class="cls-3" d="M270.38,47.21a4.16,4.16,0,0,1-1.6-5.49,1.11,1.11,0,0,0,.06-.46.59.59,0,0,0-.29-.34l-6.74-3.49a.5.5,0,0,0-.74.23,12.44,12.44,0,0,0-1.43,5.89A12.94,12.94,0,0,0,266,54.81a.52.52,0,0,0,.29.06h.17c.17-.06.29-.11.34-.29L270.61,48A.58.58,0,0,0,270.38,47.21ZM266.1,53.5a11.84,11.84,0,0,1-4.34-14.74l5.77,3a5.49,5.49,0,0,0-.34,1.89,5.23,5.23,0,0,0,2.17,4.29Z"/></g><g class="cls-4"><path class="cls-3" d="M274.21,32a.54.54,0,0,0-.57.57v7.6a.61.61,0,0,0,.57.57,4.17,4.17,0,0,1,0,8.34,3.92,3.92,0,0,1-2.11-.57.61.61,0,0,0-.46-.06c-.17.06-.29.11-.34.29l-3.83,6.57a.58.58,0,0,0,.23.8,13.12,13.12,0,0,0,6.51,1.77,12.94,12.94,0,0,0,0-25.89Zm0,24.69a11.89,11.89,0,0,1-5.43-1.31l3.26-5.6a5.69,5.69,0,0,0,2.17.46,5.33,5.33,0,0,0,.57-10.63V33.1a11.78,11.78,0,0,1-.57,23.54Z"/></g></g><g class="cls-1"><path class="cls-3" d="M259.45,210h19.78a1.31,1.31,0,0,0,1.31-1.31V193.85h.9a.47.47,0,1,0,0-.94h-24.3a.47.47,0,1,0,0,.94h1v14.88A1.31,1.31,0,0,0,259.45,210Zm20.15-1.31a.38.38,0,0,1-.38.38H259.45a.38.38,0,0,1-.38-.38V193.85h20.54v14.88Z"/><path class="cls-3" d="M269.35,217.91a.47.47,0,0,0,.47-.47v-2.63l2.95,2.95a.46.46,0,0,0,.66,0,.47.47,0,0,0,0-.66l-3.61-3.61V212.1h1.87a.47.47,0,1,0,0-.94H267a.47.47,0,1,0,0,.94h1.86v1.39l-3.62,3.62a.47.47,0,0,0,0,.66.46.46,0,0,0,.66,0l3-3v2.63A.47.47,0,0,0,269.35,217.91Z"/><path class="cls-3" d="M263,206.67h2.85a.47.47,0,0,0,.47-.47V202a.47.47,0,0,0-.47-.47h-2.84a.47.47,0,0,0-.47.47v4.18A.46.46,0,0,0,263,206.67Zm.47-4.17h1.91v3.24h-1.91Z"/><path class="cls-3" d="M272.7,206.67h2.84a.47.47,0,0,0,.47-.47v-6.58a.47.47,0,0,0-.47-.47H272.7a.47.47,0,0,0-.47.47v6.59A.47.47,0,0,0,272.7,206.67Zm.47-6.59h1.91v5.65h-1.91Z"/><path class="cls-3" d="M267.87,206.67h2.84a.47.47,0,0,0,.47-.47v-9.43a.47.47,0,0,0-.47-.47h-2.84a.47.47,0,0,0-.47.47v9.44A.47.47,0,0,0,267.87,206.67Zm.47-9.44h1.91v8.51h-1.91v-8.51Z"/></g><g class="cls-1"><path class="cls-3" d="M241.59,359.07h19.78a1.31,1.31,0,0,0,1.31-1.31V342.88h.9a.47.47,0,1,0,0-.94h-24.3a.47.47,0,1,0,0,.94h1v14.88A1.31,1.31,0,0,0,241.59,359.07Zm20.15-1.31a.38.38,0,0,1-.38.38H241.59a.38.38,0,0,1-.38-.38V342.88h20.54v14.88Z"/><path class="cls-3" d="M251.48,366.94a.47.47,0,0,0,.47-.47v-2.63l2.95,2.95a.46.46,0,0,0,.66,0,.47.47,0,0,0,0-.66L252,362.52v-1.39h1.87a.47.47,0,0,0,0-.94h-4.66a.47.47,0,1,0,0,.94H251v1.39l-3.62,3.62a.47.47,0,0,0,0,.66.46.46,0,0,0,.66,0l3-3v2.63A.47.47,0,0,0,251.48,366.94Z"/><path class="cls-3" d="M245.18,355.69H248a.47.47,0,0,0,.47-.47V351a.47.47,0,0,0-.47-.47h-2.84a.47.47,0,0,0-.47.47v4.18A.46.46,0,0,0,245.18,355.69Zm.47-4.17h1.91v3.24h-1.91Z"/><path class="cls-3" d="M254.83,355.69h2.84a.47.47,0,0,0,.47-.47v-6.58a.47.47,0,0,0-.47-.47h-2.84a.47.47,0,0,0-.47.47v6.59A.47.47,0,0,0,254.83,355.69Zm.47-6.59h1.91v5.65H255.3Z"/><path class="cls-3" d="M250,355.69h2.84a.47.47,0,0,0,.47-.47v-9.43a.47.47,0,0,0-.47-.47H250a.47.47,0,0,0-.47.47v9.44A.47.47,0,0,0,250,355.69Zm.47-9.44h1.91v8.51h-1.91v-8.51Z"/></g><g class="cls-1"><path class="cls-2" d="M273.51,312a3.36,3.36,0,0,0-2.81,5.19l-3.63,3.63a3.35,3.35,0,0,0-3.72,0l-3.67-3.67a3.36,3.36,0,1,0-5.63,0l-3.63,3.63a3.37,3.37,0,1,0,1,1L255,318.2a3.35,3.35,0,0,0,3.67,0l3.69,3.69a3.36,3.36,0,1,0,5.67-.06l3.63-3.63a3.36,3.36,0,1,0,1.83-6.18Zm-24.93,13.61a2,2,0,1,1,2-2A2,2,0,0,1,248.57,325.63Zm8.28-8.28a2,2,0,1,1,2-2A2,2,0,0,1,256.85,317.36Zm8.37,8.28a2,2,0,1,1,2-2A2,2,0,0,1,265.23,325.63Zm8.28-8.28a2,2,0,1,1,2-2A2,2,0,0,1,273.51,317.36Z"/><path class="cls-2" d="M256.14,320.56a.69.69,0,0,0-1,0L253.75,322a.69.69,0,1,0,1,1l1.41-1.41A.69.69,0,0,0,256.14,320.56Z"/><path class="cls-2" d="M268.33,316.12a.69.69,0,0,0-1,0l-1.41,1.41a.69.69,0,1,0,1,1l1.41-1.41A.69.69,0,0,0,268.33,316.12Z"/></g><g class="cls-1"><g class="cls-4"><path class="cls-3" d="M76.69,350.58a12.86,12.86,0,0,0-11.49,7,1.11,1.11,0,0,0-.06.46.69.69,0,0,0,.29.29l6.74,3.49a.43.43,0,0,0,.29.06.6.6,0,0,0,.51-.29,4.18,4.18,0,0,1,3.71-2.29.54.54,0,0,0,.57-.57v-7.6A.54.54,0,0,0,76.69,350.58Zm-.57,7.6a5.19,5.19,0,0,0-3.89,2.4l-5.77-3a11.82,11.82,0,0,1,9.66-5.89Z"/></g><g class="cls-4"><path class="cls-3" d="M75,369.95a4.16,4.16,0,0,1-1.6-5.49,1.11,1.11,0,0,0,.06-.46.59.59,0,0,0-.29-.34l-6.74-3.49a.5.5,0,0,0-.74.23,12.44,12.44,0,0,0-1.43,5.89,12.94,12.94,0,0,0,6.34,11.26.52.52,0,0,0,.29.06h.17c.17-.06.29-.11.34-.29l3.83-6.57A.58.58,0,0,0,75,369.95Zm-4.29,6.29a11.84,11.84,0,0,1-4.34-14.74l5.77,3a5.49,5.49,0,0,0-.34,1.89A5.23,5.23,0,0,0,74,370.63Z"/></g><g class="cls-4"><path class="cls-3" d="M78.86,354.69a.54.54,0,0,0-.57.57v7.6a.61.61,0,0,0,.57.57,4.17,4.17,0,0,1,0,8.34,3.92,3.92,0,0,1-2.11-.57.61.61,0,0,0-.46-.06c-.17.06-.29.11-.34.29L72.12,378a.58.58,0,0,0,.23.8,13.12,13.12,0,0,0,6.51,1.77,12.94,12.94,0,0,0,0-25.89Zm0,24.69a11.89,11.89,0,0,1-5.43-1.31l3.26-5.6a5.69,5.69,0,0,0,2.17.46,5.33,5.33,0,0,0,.57-10.63v-6.46a11.78,11.78,0,0,1-.57,23.54Z"/></g></g></g></g></svg>