<?xml version="1.0" encoding="utf-8"?>
<!-- Generator: Adobe Illustrator 21.1.0, SVG Export Plug-In . SVG Version: 6.00 Build 0)  -->
<svg version="1.1" id="Capa_1" xmlns="http://www.w3.org/2000/svg" xmlns:xlink="http://www.w3.org/1999/xlink" x="0px" y="0px"
	 viewBox="0 0 600 792" style="enable-background:new 0 0 600 792;" xml:space="preserve">
<style type="text/css">
	.st0{fill:#008D36;}
	.st1{opacity:0.33;}
	.st2{fill:#FFFFFF;}
	.st3{opacity:0.45;}
</style>
<g>
	<rect x="-13.6" y="-5.9" class="st0" width="627.1" height="804.9"/>
	<g class="st1">
		<g>
			<g>
				<path class="st2" d="M222.9,163.1c-4.9,0-9,4-9,9c0,1.8,0.5,3.5,1.5,4.9l-9.7,9.7c-1.4-0.9-3.1-1.5-4.9-1.5
					c-1.9,0-3.6,0.6-5,1.6L186,177c0.9-1.4,1.5-3.1,1.5-4.9c0-4.9-4-9-9-9c-4.9,0-9,4-9,9c0,1.8,0.5,3.5,1.5,4.9l-9.7,9.7
					c-1.4-0.9-3.1-1.5-4.9-1.5c-4.9,0-9,4-9,9c0,4.9,4,9,9,9c4.9,0,9-4,9-9c0-1.8-0.5-3.5-1.5-4.9l9.7-9.7c1.4,0.9,3.1,1.5,4.9,1.5
					c1.8,0,3.5-0.5,4.9-1.5l9.8,9.8c-0.9,1.4-1.4,3-1.4,4.7c0,4.9,4,9,9,9s9-4,9-9c0-1.8-0.5-3.5-1.5-4.9l9.7-9.7
					c1.4,0.9,3.1,1.5,4.9,1.5c4.9,0,9-4,9-9C231.9,167.1,227.8,163.1,222.9,163.1z M156.4,199.4c-2.9,0-5.3-2.4-5.3-5.3
					c0-2.9,2.4-5.3,5.3-5.3c2.9,0,5.3,2.4,5.3,5.3C161.7,197.1,159.3,199.4,156.4,199.4z M178.5,177.3c-2.9,0-5.3-2.4-5.3-5.3
					c0-2.9,2.4-5.3,5.3-5.3s5.3,2.4,5.3,5.3S181.4,177.3,178.5,177.3z M200.8,199.4c-2.9,0-5.3-2.4-5.3-5.3s2.4-5.3,5.3-5.3
					c2.9,0,5.3,2.4,5.3,5.3C206.1,197.1,203.7,199.4,200.8,199.4z M222.9,177.3c-2.9,0-5.3-2.4-5.3-5.3c0-2.9,2.4-5.3,5.3-5.3
					c2.9,0,5.3,2.4,5.3,5.3S225.8,177.3,222.9,177.3z"/>
			</g>
		</g>
		<g>
			<g>
				<path class="st2" d="M176.6,185.9c-0.7-0.7-1.9-0.7-2.6,0l-3.8,3.8c-0.7,0.7-0.7,1.9,0,2.6c0.4,0.4,0.8,0.5,1.3,0.5
					s0.9-0.2,1.3-0.5l3.8-3.8C177.3,187.8,177.3,186.6,176.6,185.9z"/>
			</g>
		</g>
		<g>
			<g>
				<path class="st2" d="M209.1,174c-0.7-0.7-1.9-0.7-2.6,0l-3.8,3.8c-0.7,0.7-0.7,1.9,0,2.6c0.4,0.4,0.8,0.5,1.3,0.5
					c0.5,0,0.9-0.2,1.3-0.5l3.8-3.8C209.8,175.9,209.8,174.8,209.1,174z"/>
			</g>
		</g>
	</g>
	<g class="st1">
		<g>
			<g>
				<path class="st2" d="M462.6,173.1c-2.5,0-4.5,2-4.5,4.5c0,0.9,0.3,1.7,0.7,2.4l-4.8,4.8c-0.7-0.5-1.5-0.7-2.4-0.7
					c-0.9,0-1.8,0.3-2.5,0.8l-4.9-4.9c0.5-0.7,0.7-1.5,0.7-2.4c0-2.5-2-4.5-4.5-4.5c-2.5,0-4.5,2-4.5,4.5c0,0.9,0.3,1.7,0.7,2.4
					l-4.8,4.8c-0.7-0.5-1.5-0.7-2.4-0.7c-2.5,0-4.5,2-4.5,4.5s2,4.5,4.5,4.5s4.5-2,4.5-4.5c0-0.9-0.3-1.7-0.7-2.4l4.8-4.8
					c0.7,0.5,1.5,0.7,2.4,0.7c0.9,0,1.7-0.3,2.4-0.7l4.9,4.9c-0.4,0.7-0.7,1.5-0.7,2.4c0,2.5,2,4.5,4.5,4.5s4.5-2,4.5-4.5
					c0-0.9-0.3-1.7-0.7-2.4l4.8-4.8c0.7,0.5,1.5,0.7,2.4,0.7c2.5,0,4.5-2,4.5-4.5C467.1,175.1,465.1,173.1,462.6,173.1z
					 M429.4,191.3c-1.4,0-2.6-1.2-2.6-2.6c0-1.4,1.2-2.6,2.6-2.6c1.4,0,2.6,1.2,2.6,2.6C432,190.1,430.9,191.3,429.4,191.3z
					 M440.4,180.2c-1.4,0-2.6-1.2-2.6-2.6c0-1.4,1.2-2.6,2.6-2.6s2.6,1.2,2.6,2.6S441.9,180.2,440.4,180.2z M451.6,191.3
					c-1.4,0-2.6-1.2-2.6-2.6s1.2-2.6,2.6-2.6c1.4,0,2.6,1.2,2.6,2.6C454.2,190.1,453.1,191.3,451.6,191.3z M462.6,180.2
					c-1.4,0-2.6-1.2-2.6-2.6c0-1.4,1.2-2.6,2.6-2.6c1.4,0,2.6,1.2,2.6,2.6S464.1,180.2,462.6,180.2z"/>
			</g>
		</g>
		<g>
			<g>
				<path class="st2" d="M439.5,184.5c-0.4-0.4-0.9-0.4-1.3,0l-1.9,1.9c-0.4,0.4-0.4,0.9,0,1.3c0.2,0.2,0.4,0.3,0.7,0.3
					s0.5-0.1,0.7-0.3l1.9-1.9C439.9,185.4,439.9,184.9,439.5,184.5z"/>
			</g>
		</g>
		<g>
			<g>
				<path class="st2" d="M455.7,178.6c-0.4-0.4-0.9-0.4-1.3,0l-1.9,1.9c-0.4,0.4-0.4,0.9,0,1.3c0.2,0.2,0.4,0.3,0.7,0.3
					c0.2,0,0.5-0.1,0.7-0.3l1.9-1.9C456.1,179.5,456.1,178.9,455.7,178.6z"/>
			</g>
		</g>
	</g>
	<g class="st1">
		<g>
			<g>
				<path class="st2" d="M348.2,336c-3.7,0-6.7,3-6.7,6.7c0,1.4,0.4,2.6,1.1,3.7l-7.3,7.3c-1.1-0.7-2.3-1.1-3.7-1.1
					c-1.4,0-2.7,0.4-3.8,1.2l-7.3-7.3c0.7-1.1,1.1-2.3,1.1-3.7c0-3.7-3-6.7-6.7-6.7s-6.7,3-6.7,6.7c0,1.4,0.4,2.6,1.1,3.7l-7.3,7.3
					c-1.1-0.7-2.3-1.1-3.7-1.1c-3.7,0-6.7,3-6.7,6.7s3,6.7,6.7,6.7s6.7-3,6.7-6.7c0-1.4-0.4-2.6-1.1-3.7l7.3-7.3
					c1.1,0.7,2.3,1.1,3.7,1.1c1.4,0,2.6-0.4,3.7-1.1l7.4,7.4c-0.6,1-1,2.2-1,3.5c0,3.7,3,6.7,6.7,6.7c3.7,0,6.7-3,6.7-6.7
					c0-1.4-0.4-2.6-1.1-3.7l7.3-7.3c1.1,0.7,2.3,1.1,3.7,1.1c3.7,0,6.7-3,6.7-6.7C354.9,339,351.9,336,348.2,336z M298.4,363.2
					c-2.2,0-3.9-1.8-3.9-3.9c0-2.2,1.8-3.9,3.9-3.9c2.2,0,3.9,1.8,3.9,3.9C302.3,361.5,300.5,363.2,298.4,363.2z M314.9,346.7
					c-2.2,0-3.9-1.8-3.9-3.9c0-2.2,1.8-3.9,3.9-3.9c2.2,0,3.9,1.8,3.9,3.9C318.9,344.9,317.1,346.7,314.9,346.7z M331.7,363.2
					c-2.2,0-3.9-1.8-3.9-3.9c0-2.2,1.8-3.9,3.9-3.9c2.2,0,3.9,1.8,3.9,3.9C335.6,361.5,333.8,363.2,331.7,363.2z M348.2,346.7
					c-2.2,0-3.9-1.8-3.9-3.9c0-2.2,1.8-3.9,3.9-3.9c2.2,0,3.9,1.8,3.9,3.9C352.2,344.9,350.4,346.7,348.2,346.7z"/>
			</g>
		</g>
		<g>
			<g>
				<path class="st2" d="M313.5,353.1c-0.5-0.5-1.4-0.5-2,0l-2.8,2.8c-0.5,0.5-0.5,1.4,0,2c0.3,0.3,0.6,0.4,1,0.4s0.7-0.1,1-0.4
					l2.8-2.8C314,354.5,314,353.6,313.5,353.1z"/>
			</g>
		</g>
		<g>
			<g>
				<path class="st2" d="M337.9,344.2c-0.5-0.5-1.4-0.5-2,0l-2.8,2.8c-0.5,0.5-0.5,1.4,0,2c0.3,0.3,0.6,0.4,1,0.4
					c0.4,0,0.7-0.1,1-0.4l2.8-2.8C338.4,345.6,338.4,344.7,337.9,344.2z"/>
			</g>
		</g>
	</g>
	<g class="st1">
		<g>
			<g>
				<path class="st2" d="M367.4,61c-4.3,0-7.8,3.5-7.8,7.8c0,1.6,0.5,3,1.3,4.3l-8.5,8.5c-1.2-0.8-2.7-1.3-4.3-1.3
					c-1.6,0-3.2,0.5-4.4,1.4l-8.6-8.6c0.8-1.2,1.3-2.7,1.3-4.3c0-4.3-3.5-7.8-7.8-7.8s-7.8,3.5-7.8,7.8c0,1.6,0.5,3,1.3,4.3
					l-8.5,8.5c-1.2-0.8-2.7-1.3-4.3-1.3c-4.3,0-7.8,3.5-7.8,7.8c0,4.3,3.5,7.8,7.8,7.8s7.8-3.5,7.8-7.8c0-1.6-0.5-3-1.3-4.3l8.5-8.5
					c1.2,0.8,2.7,1.3,4.3,1.3c1.6,0,3-0.5,4.3-1.3l8.6,8.6c-0.8,1.2-1.2,2.6-1.2,4.1c0,4.3,3.5,7.8,7.8,7.8s7.8-3.5,7.8-7.8
					c0-1.6-0.5-3-1.3-4.3l8.5-8.5c1.2,0.8,2.7,1.3,4.3,1.3c4.3,0,7.8-3.5,7.8-7.8C375.2,64.6,371.7,61,367.4,61z M309.2,92.8
					c-2.5,0-4.6-2.1-4.6-4.6c0-2.5,2.1-4.6,4.6-4.6c2.5,0,4.6,2.1,4.6,4.6C313.8,90.7,311.7,92.8,309.2,92.8z M328.5,73.5
					c-2.5,0-4.6-2.1-4.6-4.6c0-2.5,2.1-4.6,4.6-4.6s4.6,2.1,4.6,4.6S331.1,73.5,328.5,73.5z M348.1,92.8c-2.5,0-4.6-2.1-4.6-4.6
					s2.1-4.6,4.6-4.6c2.5,0,4.6,2.1,4.6,4.6C352.7,90.7,350.6,92.8,348.1,92.8z M367.4,73.5c-2.5,0-4.6-2.1-4.6-4.6
					c0-2.5,2.1-4.6,4.6-4.6c2.5,0,4.6,2.1,4.6,4.6S369.9,73.5,367.4,73.5z"/>
			</g>
		</g>
		<g>
			<g>
				<path class="st2" d="M326.9,81c-0.6-0.6-1.7-0.6-2.3,0l-3.3,3.3c-0.6,0.6-0.6,1.7,0,2.3c0.3,0.3,0.7,0.5,1.1,0.5
					c0.4,0,0.8-0.2,1.1-0.5l3.3-3.3C327.5,82.6,327.5,81.6,326.9,81z"/>
			</g>
		</g>
		<g>
			<g>
				<path class="st2" d="M355.3,70.6c-0.6-0.6-1.7-0.6-2.3,0l-3.3,3.3c-0.6,0.6-0.6,1.7,0,2.3c0.3,0.3,0.7,0.5,1.1,0.5
					c0.4,0,0.8-0.2,1.1-0.5l3.3-3.3C355.9,72.3,355.9,71.2,355.3,70.6z"/>
			</g>
		</g>
	</g>
	<g class="st1">
		<g>
			<g>
				<path class="st2" d="M149.3,476.2c-4.9,0-9,4-9,9c0,1.8,0.5,3.5,1.5,4.9l-9.7,9.7c-1.4-0.9-3.1-1.5-4.9-1.5
					c-1.9,0-3.6,0.6-5,1.6l-9.8-9.8c0.9-1.4,1.5-3.1,1.5-4.9c0-4.9-4-9-9-9c-4.9,0-9,4-9,9c0,1.8,0.5,3.5,1.5,4.9l-9.7,9.7
					c-1.4-0.9-3.1-1.5-4.9-1.5c-4.9,0-9,4-9,9c0,4.9,4,9,9,9s9-4,9-9c0-1.8-0.5-3.5-1.5-4.9l9.7-9.7c1.4,0.9,3.1,1.5,4.9,1.5
					c1.8,0,3.5-0.5,4.9-1.5l9.8,9.8c-0.9,1.4-1.4,3-1.4,4.7c0,4.9,4,9,9,9s9-4,9-9c0-1.8-0.5-3.5-1.5-4.9l9.7-9.7
					c1.4,0.9,3.1,1.5,4.9,1.5c4.9,0,9-4,9-9C158.2,480.2,154.2,476.2,149.3,476.2z M82.8,512.4c-2.9,0-5.3-2.4-5.3-5.3
					c0-2.9,2.4-5.3,5.3-5.3c2.9,0,5.3,2.4,5.3,5.3C88,510.1,85.7,512.4,82.8,512.4z M104.8,490.4c-2.9,0-5.3-2.4-5.3-5.3
					c0-2.9,2.4-5.3,5.3-5.3s5.3,2.4,5.3,5.3S107.7,490.4,104.8,490.4z M127.2,512.4c-2.9,0-5.3-2.4-5.3-5.3s2.4-5.3,5.3-5.3
					c2.9,0,5.3,2.4,5.3,5.3C132.4,510.1,130.1,512.4,127.2,512.4z M149.3,490.4c-2.9,0-5.3-2.4-5.3-5.3c0-2.9,2.4-5.3,5.3-5.3
					c2.9,0,5.3,2.4,5.3,5.3S152.1,490.4,149.3,490.4z"/>
			</g>
		</g>
		<g>
			<g>
				<path class="st2" d="M102.9,498.9c-0.7-0.7-1.9-0.7-2.6,0l-3.8,3.8c-0.7,0.7-0.7,1.9,0,2.6c0.4,0.4,0.8,0.5,1.3,0.5
					s0.9-0.2,1.3-0.5l3.8-3.8C103.7,500.8,103.7,499.6,102.9,498.9z"/>
			</g>
		</g>
		<g>
			<g>
				<path class="st2" d="M135.5,487.1c-0.7-0.7-1.9-0.7-2.6,0l-3.8,3.8c-0.7,0.7-0.7,1.9,0,2.6c0.4,0.4,0.8,0.5,1.3,0.5
					c0.5,0,0.9-0.2,1.3-0.5l3.8-3.8C136.2,489,136.2,487.8,135.5,487.1z"/>
			</g>
		</g>
	</g>
	<g class="st1">
		<g>
			<g>
				<path class="st2" d="M111.5,678.4c-2.5,0-4.5,2-4.5,4.5c0,0.9,0.3,1.7,0.7,2.4l-4.8,4.8c-0.7-0.5-1.5-0.7-2.4-0.7
					c-0.9,0-1.8,0.3-2.5,0.8l-4.9-4.9c0.5-0.7,0.7-1.5,0.7-2.4c0-2.5-2-4.5-4.5-4.5c-2.5,0-4.5,2-4.5,4.5c0,0.9,0.3,1.7,0.7,2.4
					l-4.8,4.8c-0.7-0.5-1.5-0.7-2.4-0.7c-2.5,0-4.5,2-4.5,4.5s2,4.5,4.5,4.5c2.5,0,4.5-2,4.5-4.5c0-0.9-0.3-1.7-0.7-2.4l4.8-4.8
					c0.7,0.5,1.5,0.7,2.4,0.7c0.9,0,1.7-0.3,2.4-0.7l4.9,4.9c-0.4,0.7-0.7,1.5-0.7,2.4c0,2.5,2,4.5,4.5,4.5c2.5,0,4.5-2,4.5-4.5
					c0-0.9-0.3-1.7-0.7-2.4l4.8-4.8c0.7,0.5,1.5,0.7,2.4,0.7c2.5,0,4.5-2,4.5-4.5C116,680.4,114,678.4,111.5,678.4z M78.3,696.6
					c-1.4,0-2.6-1.2-2.6-2.6c0-1.4,1.2-2.6,2.6-2.6c1.4,0,2.6,1.2,2.6,2.6C80.9,695.4,79.7,696.6,78.3,696.6z M89.3,685.5
					c-1.4,0-2.6-1.2-2.6-2.6c0-1.4,1.2-2.6,2.6-2.6s2.6,1.2,2.6,2.6C92,684.3,90.8,685.5,89.3,685.5z M100.5,696.6
					c-1.4,0-2.6-1.2-2.6-2.6c0-1.4,1.2-2.6,2.6-2.6c1.4,0,2.6,1.2,2.6,2.6C103.1,695.4,101.9,696.6,100.5,696.6z M111.5,685.5
					c-1.4,0-2.6-1.2-2.6-2.6c0-1.4,1.2-2.6,2.6-2.6c1.4,0,2.6,1.2,2.6,2.6C114.2,684.3,113,685.5,111.5,685.5z"/>
			</g>
		</g>
		<g>
			<g>
				<path class="st2" d="M88.4,689.8c-0.4-0.4-0.9-0.4-1.3,0l-1.9,1.9c-0.4,0.4-0.4,0.9,0,1.3c0.2,0.2,0.4,0.3,0.7,0.3
					s0.5-0.1,0.7-0.3l1.9-1.9C88.7,690.7,88.7,690.1,88.4,689.8z"/>
			</g>
		</g>
		<g>
			<g>
				<path class="st2" d="M104.6,683.9c-0.4-0.4-0.9-0.4-1.3,0l-1.9,1.9c-0.4,0.4-0.4,0.9,0,1.3c0.2,0.2,0.4,0.3,0.7,0.3
					c0.2,0,0.5-0.1,0.7-0.3l1.9-1.9C105,684.8,105,684.2,104.6,683.9z"/>
			</g>
		</g>
	</g>
	<g class="st1">
		<g>
			<g>
				<path class="st2" d="M529.3,715.6c-3.7,0-6.7,3-6.7,6.7c0,1.4,0.4,2.6,1.1,3.7l-7.3,7.3c-1.1-0.7-2.3-1.1-3.7-1.1
					c-1.4,0-2.7,0.4-3.8,1.2l-7.3-7.3c0.7-1.1,1.1-2.3,1.1-3.7c0-3.7-3-6.7-6.7-6.7c-3.7,0-6.7,3-6.7,6.7c0,1.4,0.4,2.6,1.1,3.7
					l-7.3,7.3c-1.1-0.7-2.3-1.1-3.7-1.1c-3.7,0-6.7,3-6.7,6.7s3,6.7,6.7,6.7s6.7-3,6.7-6.7c0-1.4-0.4-2.6-1.1-3.7l7.3-7.3
					c1.1,0.7,2.3,1.1,3.7,1.1c1.4,0,2.6-0.4,3.7-1.1l7.4,7.4c-0.6,1-1,2.2-1,3.5c0,3.7,3,6.7,6.7,6.7s6.7-3,6.7-6.7
					c0-1.4-0.4-2.6-1.1-3.7l7.3-7.3c1.1,0.7,2.3,1.1,3.7,1.1c3.7,0,6.7-3,6.7-6.7C536.1,718.6,533,715.6,529.3,715.6z M479.5,742.8
					c-2.2,0-3.9-1.8-3.9-3.9c0-2.2,1.8-3.9,3.9-3.9c2.2,0,3.9,1.8,3.9,3.9C483.4,741.1,481.6,742.8,479.5,742.8z M496,726.3
					c-2.2,0-3.9-1.8-3.9-3.9c0-2.2,1.8-3.9,3.9-3.9c2.2,0,3.9,1.8,3.9,3.9S498.2,726.3,496,726.3z M512.8,742.8
					c-2.2,0-3.9-1.8-3.9-3.9c0-2.2,1.8-3.9,3.9-3.9c2.2,0,3.9,1.8,3.9,3.9C516.7,741.1,514.9,742.8,512.8,742.8z M529.3,726.3
					c-2.2,0-3.9-1.8-3.9-3.9c0-2.2,1.8-3.9,3.9-3.9c2.2,0,3.9,1.8,3.9,3.9S531.5,726.3,529.3,726.3z"/>
			</g>
		</g>
		<g>
			<g>
				<path class="st2" d="M494.6,732.7c-0.5-0.5-1.4-0.5-2,0l-2.8,2.8c-0.5,0.5-0.5,1.4,0,2c0.3,0.3,0.6,0.4,1,0.4s0.7-0.1,1-0.4
					l2.8-2.8C495.1,734.1,495.1,733.2,494.6,732.7z"/>
			</g>
		</g>
		<g>
			<g>
				<path class="st2" d="M519,723.8c-0.5-0.5-1.4-0.5-2,0l-2.8,2.8c-0.5,0.5-0.5,1.4,0,2c0.3,0.3,0.6,0.4,1,0.4c0.4,0,0.7-0.1,1-0.4
					l2.8-2.8C519.5,725.2,519.5,724.4,519,723.8z"/>
			</g>
		</g>
	</g>
	<g class="st1">
		<g>
			<g>
				<path class="st2" d="M368,597c-4.3,0-7.8,3.5-7.8,7.8c0,1.6,0.5,3,1.3,4.3l-8.5,8.5c-1.2-0.8-2.7-1.3-4.3-1.3
					c-1.6,0-3.2,0.5-4.4,1.4l-8.6-8.6c0.8-1.2,1.3-2.7,1.3-4.3c0-4.3-3.5-7.8-7.8-7.8s-7.8,3.5-7.8,7.8c0,1.6,0.5,3,1.3,4.3
					l-8.5,8.5c-1.2-0.8-2.7-1.3-4.3-1.3c-4.3,0-7.8,3.5-7.8,7.8c0,4.3,3.5,7.8,7.8,7.8s7.8-3.5,7.8-7.8c0-1.6-0.5-3-1.3-4.3l8.5-8.5
					c1.2,0.8,2.7,1.3,4.3,1.3c1.6,0,3-0.5,4.3-1.3l8.6,8.6c-0.8,1.2-1.2,2.6-1.2,4.1c0,4.3,3.5,7.8,7.8,7.8s7.8-3.5,7.8-7.8
					c0-1.6-0.5-3-1.3-4.3l8.5-8.5c1.2,0.8,2.7,1.3,4.3,1.3c4.3,0,7.8-3.5,7.8-7.8C375.9,600.5,372.3,597,368,597z M309.8,628.7
					c-2.5,0-4.6-2.1-4.6-4.6c0-2.5,2.1-4.6,4.6-4.6c2.5,0,4.6,2.1,4.6,4.6C314.4,626.7,312.4,628.7,309.8,628.7z M329.2,609.4
					c-2.5,0-4.6-2.1-4.6-4.6c0-2.5,2.1-4.6,4.6-4.6s4.6,2.1,4.6,4.6C333.8,607.4,331.7,609.4,329.2,609.4z M348.7,628.7
					c-2.5,0-4.6-2.1-4.6-4.6s2.1-4.6,4.6-4.6c2.5,0,4.6,2.1,4.6,4.6C353.3,626.7,351.2,628.7,348.7,628.7z M368,609.4
					c-2.5,0-4.6-2.1-4.6-4.6c0-2.5,2.1-4.6,4.6-4.6c2.5,0,4.6,2.1,4.6,4.6C372.6,607.4,370.6,609.4,368,609.4z"/>
			</g>
		</g>
		<g>
			<g>
				<path class="st2" d="M327.5,616.9c-0.6-0.6-1.7-0.6-2.3,0l-3.3,3.3c-0.6,0.6-0.6,1.7,0,2.3c0.3,0.3,0.7,0.5,1.1,0.5
					s0.8-0.2,1.1-0.5l3.3-3.3C328.1,618.6,328.1,617.5,327.5,616.9z"/>
			</g>
		</g>
		<g>
			<g>
				<path class="st2" d="M355.9,606.5c-0.6-0.6-1.7-0.6-2.3,0l-3.3,3.3c-0.6,0.6-0.6,1.7,0,2.3c0.3,0.3,0.7,0.5,1.1,0.5
					c0.4,0,0.8-0.2,1.1-0.5l3.3-3.3C356.6,608.2,356.6,607.2,355.9,606.5z"/>
			</g>
		</g>
	</g>
	<g class="st3">
		<g>
			<path class="st2" d="M304.2,468.8h7.8c1.1,0,3.1,1.5,4.8,2.7c2.1,1.6,4.2,3.1,6,3.1h5.9c1.5,0,2.2,0.7,2.2,0.7
				c0.2,0.2,0.4,0.3,0.7,0.3c0.3,0,0.5-0.1,0.7-0.3c0.4-0.4,0.4-1,0-1.4c-0.1-0.1-1.3-1.3-3.6-1.3h-5.9c-1.1,0-3.1-1.5-4.8-2.7
				c-2.1-1.6-4.2-3.1-6-3.1h-7.8c-0.5,0-1,0.4-1,1C303.2,468.3,303.6,468.8,304.2,468.8z"/>
			<path class="st2" d="M296.3,483.9c0-0.8-0.7-1.5-1.5-1.5s-1.5,0.7-1.5,1.5c0,0.8,0.7,1.5,1.5,1.5S296.3,484.7,296.3,483.9z"/>
			<path class="st2" d="M349.6,472.7c-0.5-0.9-1.4-1.6-2.4-1.8c-1-0.3-2.1-0.1-2.9,0.4l-11.3,5.5c-1.7,0.9-3.5,0.9-7.4,0.9
				c-3.8,0-9.6-1-9.6-1c-0.5-0.1-1,0.3-1.1,0.8c-0.1,0.5,0.3,1,0.8,1.1c0.2,0,6,1,9.9,1c4.1,0,6.1,0,8.3-1.1l11.3-5.5
				c0.9-0.5,2.1-0.2,2.7,0.7c0.3,0.5,0.3,1,0.2,1.5c-0.1,0.5-0.5,0.9-0.9,1.2l-13.2,8.2c0,0-2.8,1.8-9.2,1.8
				c-5.5,0-14.1-4.7-14.2-4.8c-0.1,0-2.2-1.1-6.3-1.1c-0.5,0-1,0.4-1,1c0,0.5,0.4,1,1,1c3.6,0,5.4,0.9,5.4,0.9c0.4,0.2,9.1,5,15.1,5
				c7.1,0,10.2-2,10.3-2.1l13.2-8.2c0.9-0.5,1.6-1.4,1.8-2.4C350.3,474.6,350.1,473.6,349.6,472.7z"/>
			<path class="st2" d="M298.3,462.9h-5.9c-0.5,0-1,0.4-1,1s0.4,1,1,1h5.9c0.5,0,1,0.4,1,1v21.5c0,0.5-0.4,1-1,1h-5.9
				c-0.5,0-1,0.4-1,1c0,0.5,0.4,1,1,1h5.9c1.6,0,2.9-1.3,2.9-2.9v-21.5C301.2,464.2,299.9,462.9,298.3,462.9z"/>
			<path class="st2" d="M324.8,466.3c-1,0-2.1-0.4-2.9-1.2l-8.9-8.9c-1.6-1.6-1.6-4.2,0-5.7l8.9-8.9c1.6-1.6,4.2-1.6,5.7,0l8.9,8.9
				c0.8,0.8,1.2,1.8,1.2,2.9c0,1.1-0.4,2.1-1.2,2.9l-8.9,8.9C326.9,465.9,325.9,466.3,324.8,466.3z M324.8,441.8
				c-0.7,0-1.3,0.3-1.8,0.8l-8.9,8.9c-1,1-1,2.6,0,3.6l8.9,8.9c1,1,2.6,1,3.6,0l8.9-8.9c0.5-0.5,0.8-1.1,0.8-1.8
				c0-0.7-0.3-1.3-0.8-1.8l-8.9-8.9C326.1,442,325.5,441.8,324.8,441.8z"/>
		</g>
	</g>
	<g class="st3">
		<g>
			<path class="st2" d="M62.1,84.1h12.5c1.8,0,4.9,2.3,7.7,4.4c3.4,2.6,6.7,5,9.5,5h9.4c2.4,0,3.6,1.1,3.6,1.1
				c0.3,0.3,0.7,0.5,1.1,0.5c0.4,0,0.8-0.2,1.1-0.5c0.6-0.6,0.6-1.6,0-2.2c-0.2-0.2-2.1-2-5.8-2h-9.4c-1.8,0-4.9-2.3-7.7-4.4
				c-3.4-2.6-6.7-5-9.5-5H62.1c-0.9,0-1.6,0.7-1.6,1.6C60.5,83.4,61.2,84.1,62.1,84.1z"/>
			<path class="st2" d="M49.5,108.4c0-1.3-1.1-2.3-2.3-2.3c-1.3,0-2.3,1.1-2.3,2.3s1.1,2.3,2.3,2.3
				C48.5,110.7,49.5,109.7,49.5,108.4z"/>
			<path class="st2" d="M134.7,90.4c-0.8-1.4-2.2-2.5-3.8-2.9c-1.6-0.4-3.3-0.2-4.7,0.6l-18,8.8c-2.8,1.4-5.6,1.4-11.8,1.4
				c-6.1,0-15.3-1.5-15.4-1.5c-0.9-0.1-1.7,0.4-1.8,1.3c-0.1,0.9,0.4,1.7,1.3,1.8c0.4,0.1,9.6,1.6,15.9,1.6c6.5,0,9.8,0,13.2-1.7
				l18.1-8.8c1.5-0.9,3.4-0.4,4.3,1.1c0.4,0.7,0.5,1.6,0.3,2.4s-0.7,1.5-1.5,1.9l-21.2,13.2c0,0-4.6,2.9-14.8,2.9
				c-8.9,0-22.6-7.6-22.8-7.7c-0.1-0.1-3.5-1.7-10.1-1.7c-0.9,0-1.6,0.7-1.6,1.6c0,0.9,0.7,1.6,1.6,1.6c5.7,0,8.6,1.4,8.6,1.4
				c0.6,0.3,14.5,8,24.2,8c11.3,0,16.3-3.3,16.5-3.4l21.1-13.1c1.4-0.8,2.5-2.2,2.9-3.8C135.8,93.5,135.6,91.8,134.7,90.4z"/>
			<path class="st2" d="M52.7,74.7h-9.4c-0.9,0-1.6,0.7-1.6,1.6c0,0.9,0.7,1.6,1.6,1.6h9.4c0.9,0,1.6,0.7,1.6,1.6v34.4
				c0,0.9-0.7,1.6-1.6,1.6h-9.4c-0.9,0-1.6,0.7-1.6,1.6c0,0.9,0.7,1.6,1.6,1.6h9.4c2.6,0,4.7-2.1,4.7-4.7V79.4
				C57.4,76.8,55.3,74.7,52.7,74.7z"/>
			<path class="st2" d="M95.1,80.1c-1.7,0-3.3-0.6-4.6-1.9L76.2,63.9c-2.5-2.5-2.5-6.6,0-9.2l14.3-14.3c2.5-2.5,6.6-2.5,9.2,0
				L114,54.7c1.2,1.2,1.9,2.9,1.9,4.6c0,1.7-0.7,3.4-1.9,4.6L99.7,78.2C98.4,79.5,96.7,80.1,95.1,80.1z M95.1,40.9
				c-1.1,0-2.1,0.4-2.9,1.2L77.9,56.4c-1.6,1.6-1.6,4.2,0,5.8l14.3,14.3c1.6,1.6,4.2,1.6,5.8,0l14.3-14.3c0.8-0.8,1.2-1.8,1.2-2.9
				c0-1.1-0.4-2.1-1.2-2.9L98,42.1C97.2,41.3,96.1,40.9,95.1,40.9z"/>
		</g>
	</g>
	<g class="st3">
		<g>
			<path class="st2" d="M232.5,719.1h7.8c1.1,0,3.1,1.5,4.8,2.7c2.1,1.6,4.2,3.1,6,3.1h5.9c1.5,0,2.2,0.7,2.2,0.7
				c0.2,0.2,0.4,0.3,0.7,0.3c0.3,0,0.5-0.1,0.7-0.3c0.4-0.4,0.4-1,0-1.4c-0.1-0.1-1.3-1.3-3.6-1.3h-5.9c-1.1,0-3.1-1.5-4.8-2.7
				c-2.1-1.6-4.2-3.1-6-3.1h-7.8c-0.5,0-1,0.4-1,1C231.5,718.7,231.9,719.1,232.5,719.1z"/>
			<path class="st2" d="M224.7,734.3c0-0.8-0.7-1.5-1.5-1.5c-0.8,0-1.5,0.7-1.5,1.5c0,0.8,0.7,1.5,1.5,1.5
				C224,735.7,224.7,735.1,224.7,734.3z"/>
			<path class="st2" d="M277.9,723c-0.5-0.9-1.4-1.6-2.4-1.8c-1-0.3-2.1-0.1-2.9,0.4l-11.3,5.5c-1.7,0.9-3.5,0.9-7.4,0.9
				c-3.8,0-9.6-1-9.6-1c-0.5-0.1-1,0.3-1.1,0.8c-0.1,0.5,0.3,1,0.8,1.1c0.2,0,6,1,9.9,1c4.1,0,6.1,0,8.3-1.1l11.3-5.5
				c0.9-0.5,2.1-0.2,2.7,0.7c0.3,0.5,0.3,1,0.2,1.5c-0.1,0.5-0.5,0.9-0.9,1.2l-13.2,8.2c0,0-2.8,1.8-9.2,1.8
				c-5.5,0-14.1-4.7-14.2-4.8c-0.1,0-2.2-1.1-6.3-1.1c-0.5,0-1,0.4-1,1s0.4,1,1,1c3.6,0,5.4,0.9,5.4,0.9c0.4,0.2,9.1,5,15.1,5
				c7.1,0,10.2-2,10.3-2.1l13.2-8.2c0.9-0.5,1.6-1.4,1.8-2.4C278.6,725,278.4,723.9,277.9,723z"/>
			<path class="st2" d="M226.6,713.2h-5.9c-0.5,0-1,0.4-1,1s0.4,1,1,1h5.9c0.5,0,1,0.4,1,1v21.5c0,0.5-0.4,1-1,1h-5.9
				c-0.5,0-1,0.4-1,1s0.4,1,1,1h5.9c1.6,0,2.9-1.3,2.9-2.9v-21.5C229.6,714.6,228.2,713.2,226.6,713.2z"/>
			<path class="st2" d="M253.1,716.6c-1,0-2.1-0.4-2.9-1.2l-8.9-8.9c-1.6-1.6-1.6-4.2,0-5.7l8.9-8.9c1.6-1.6,4.2-1.6,5.7,0l8.9,8.9
				c0.8,0.8,1.2,1.8,1.2,2.9c0,1.1-0.4,2.1-1.2,2.9l-8.9,8.9C255.2,716.2,254.2,716.6,253.1,716.6z M253.1,692.1
				c-0.7,0-1.3,0.3-1.8,0.8l-8.9,8.9c-1,1-1,2.6,0,3.6l8.9,8.9c1,1,2.6,1,3.6,0l8.9-8.9c0.5-0.5,0.8-1.1,0.8-1.8
				c0-0.7-0.3-1.3-0.8-1.8l-8.9-8.9C254.4,692.4,253.8,692.1,253.1,692.1z"/>
		</g>
	</g>
	<g class="st3">
		<g>
			<path class="st2" d="M474.5,539.6H487c1.8,0,4.9,2.3,7.7,4.4c3.4,2.6,6.7,5,9.5,5h9.4c2.4,0,3.6,1.1,3.6,1.1
				c0.3,0.3,0.7,0.5,1.1,0.5c0.4,0,0.8-0.2,1.1-0.5c0.6-0.6,0.6-1.6,0-2.2c-0.2-0.2-2.1-2-5.8-2h-9.4c-1.8,0-4.9-2.3-7.7-4.4
				c-3.4-2.6-6.7-5-9.5-5h-12.5c-0.9,0-1.6,0.7-1.6,1.6C472.9,538.9,473.6,539.6,474.5,539.6z"/>
			<path class="st2" d="M462,563.8c0-1.3-1.1-2.3-2.3-2.3c-1.3,0-2.3,1.1-2.3,2.3s1.1,2.3,2.3,2.3C460.9,566.2,462,565.1,462,563.8z
				"/>
			<path class="st2" d="M547.2,545.8c-0.8-1.4-2.2-2.5-3.8-2.9c-1.6-0.4-3.3-0.2-4.7,0.6l-18,8.8c-2.8,1.4-5.6,1.4-11.8,1.4
				c-6.1,0-15.3-1.5-15.4-1.5c-0.9-0.1-1.7,0.4-1.8,1.3c-0.1,0.9,0.4,1.7,1.3,1.8c0.4,0.1,9.6,1.6,15.9,1.6c6.5,0,9.8,0,13.2-1.7
				l18.1-8.8c1.5-0.9,3.4-0.4,4.3,1.1c0.4,0.7,0.5,1.6,0.3,2.4c-0.2,0.8-0.7,1.5-1.5,1.9l-21.2,13.2c0,0-4.6,2.9-14.8,2.9
				c-8.9,0-22.6-7.6-22.8-7.7c-0.1-0.1-3.5-1.7-10.1-1.7c-0.9,0-1.6,0.7-1.6,1.6s0.7,1.6,1.6,1.6c5.7,0,8.6,1.4,8.6,1.4
				c0.6,0.3,14.5,8,24.2,8c11.3,0,16.3-3.3,16.5-3.4l21.1-13.1c1.4-0.8,2.5-2.2,2.9-3.8C548.2,549,548,547.3,547.2,545.8z"/>
			<path class="st2" d="M465.1,530.2h-9.4c-0.9,0-1.6,0.7-1.6,1.6s0.7,1.6,1.6,1.6h9.4c0.9,0,1.6,0.7,1.6,1.6v34.4
				c0,0.9-0.7,1.6-1.6,1.6h-9.4c-0.9,0-1.6,0.7-1.6,1.6s0.7,1.6,1.6,1.6h9.4c2.6,0,4.7-2.1,4.7-4.7v-34.4
				C469.8,532.3,467.7,530.2,465.1,530.2z"/>
			<path class="st2" d="M507.5,535.6c-1.7,0-3.3-0.6-4.6-1.9l-14.3-14.3c-2.5-2.5-2.5-6.6,0-9.2l14.3-14.3c2.5-2.5,6.6-2.5,9.2,0
				l14.3,14.3c1.2,1.2,1.9,2.9,1.9,4.6c0,1.7-0.7,3.4-1.9,4.6l-14.3,14.3C510.8,534.9,509.2,535.6,507.5,535.6z M507.5,496.4
				c-1.1,0-2.1,0.4-2.9,1.2l-14.3,14.3c-1.6,1.6-1.6,4.2,0,5.8l14.3,14.3c1.6,1.6,4.2,1.6,5.8,0l14.3-14.3c0.8-0.8,1.2-1.8,1.2-2.9
				c0-1.1-0.4-2.1-1.2-2.9l-14.3-14.3C509.6,496.8,508.6,496.4,507.5,496.4z"/>
		</g>
	</g>
	<g class="st3">
		<g>
			<path class="st2" d="M101.3,340.2h9.4c1.4,0,3.7,1.7,5.7,3.3c2.6,1.9,5,3.8,7.2,3.8h7c1.8,0,2.7,0.8,2.7,0.8
				c0.2,0.2,0.5,0.3,0.8,0.3c0.3,0,0.6-0.1,0.8-0.3c0.5-0.5,0.5-1.2,0-1.7c-0.2-0.2-1.6-1.5-4.3-1.5h-7c-1.4,0-3.7-1.7-5.7-3.3
				c-2.6-1.9-5-3.8-7.2-3.8h-9.4c-0.6,0-1.2,0.5-1.2,1.2C100.1,339.7,100.6,340.2,101.3,340.2z"/>
			<path class="st2" d="M91.9,358.4c0-1-0.8-1.8-1.8-1.8c-1,0-1.8,0.8-1.8,1.8s0.8,1.8,1.8,1.8C91.1,360.1,91.9,359.3,91.9,358.4z"
				/>
			<path class="st2" d="M155.8,344.9c-0.6-1.1-1.6-1.9-2.9-2.2c-1.2-0.3-2.5-0.2-3.5,0.4l-13.5,6.6c-2.1,1.1-4.2,1.1-8.9,1.1
				c-4.5,0-11.5-1.1-11.5-1.2c-0.6-0.1-1.2,0.3-1.4,1c-0.1,0.6,0.3,1.2,1,1.4c0.3,0,7.2,1.2,11.9,1.2c4.9,0,7.3,0,9.9-1.3l13.6-6.6
				c1.1-0.6,2.6-0.3,3.2,0.9c0.3,0.5,0.4,1.2,0.2,1.8c-0.2,0.6-0.6,1.1-1.1,1.4l-15.9,9.9c0,0-3.4,2.2-11.1,2.2
				c-6.7,0-16.9-5.7-17.1-5.7c-0.1-0.1-2.7-1.3-7.6-1.3c-0.6,0-1.2,0.5-1.2,1.2c0,0.6,0.5,1.2,1.2,1.2c4.3,0,6.5,1,6.5,1
				c0.4,0.2,10.9,6,18.2,6c8.5,0,12.2-2.4,12.4-2.5l15.8-9.8c1.1-0.6,1.9-1.6,2.2-2.8C156.6,347.2,156.4,346,155.8,344.9z"/>
			<path class="st2" d="M94.2,333.1h-7c-0.6,0-1.2,0.5-1.2,1.2c0,0.6,0.5,1.2,1.2,1.2h7c0.6,0,1.2,0.5,1.2,1.2v25.8
				c0,0.6-0.5,1.2-1.2,1.2h-7c-0.6,0-1.2,0.5-1.2,1.2c0,0.6,0.5,1.2,1.2,1.2h7c1.9,0,3.5-1.6,3.5-3.5v-25.8
				C97.8,334.7,96.2,333.1,94.2,333.1z"/>
			<path class="st2" d="M126,337.2c-1.2,0-2.5-0.5-3.4-1.4L111.9,325c-1.9-1.9-1.9-5,0-6.9l10.7-10.7c1.9-1.9,5-1.9,6.9,0l10.7,10.7
				c0.9,0.9,1.4,2.1,1.4,3.4c0,1.3-0.5,2.5-1.4,3.4l-10.7,10.7C128.5,336.7,127.3,337.2,126,337.2z M126,307.8
				c-0.8,0-1.6,0.3-2.2,0.9l-10.7,10.7c-1.2,1.2-1.2,3.2,0,4.4l10.7,10.7c1.2,1.2,3.2,1.2,4.4,0l10.7-10.7c0.6-0.6,0.9-1.4,0.9-2.2
				c0-0.8-0.3-1.6-0.9-2.2l-10.7-10.7C127.6,308.1,126.8,307.8,126,307.8z"/>
		</g>
	</g>
	<g class="st3">
		<g>
			<path class="st2" d="M454.8,282.4h12.5c1.8,0,4.9,2.3,7.7,4.4c3.4,2.6,6.7,5,9.5,5h9.4c2.4,0,3.6,1.1,3.6,1.1
				c0.3,0.3,0.7,0.5,1.1,0.5c0.4,0,0.8-0.2,1.1-0.5c0.6-0.6,0.6-1.6,0-2.2c-0.2-0.2-2.1-2-5.8-2h-9.4c-1.8,0-4.9-2.3-7.7-4.4
				c-3.4-2.6-6.7-5-9.5-5h-12.5c-0.9,0-1.6,0.7-1.6,1.6C453.2,281.7,453.9,282.4,454.8,282.4z"/>
			<path class="st2" d="M442.2,306.6c0-1.3-1.1-2.3-2.3-2.3c-1.3,0-2.3,1.1-2.3,2.3s1.1,2.3,2.3,2.3
				C441.2,309,442.2,307.9,442.2,306.6z"/>
			<path class="st2" d="M527.5,288.6c-0.8-1.4-2.2-2.5-3.8-2.9c-1.6-0.4-3.3-0.2-4.7,0.6l-18,8.8c-2.8,1.4-5.6,1.4-11.8,1.4
				c-6.1,0-15.3-1.5-15.4-1.5c-0.9-0.1-1.7,0.4-1.8,1.3c-0.1,0.9,0.4,1.7,1.3,1.8c0.4,0.1,9.6,1.6,15.9,1.6c6.5,0,9.8,0,13.2-1.7
				l18.1-8.8c1.5-0.9,3.4-0.4,4.3,1.1c0.4,0.7,0.5,1.6,0.3,2.4s-0.7,1.5-1.5,1.9l-21.2,13.2c0,0-4.6,2.9-14.8,2.9
				c-8.9,0-22.6-7.6-22.8-7.7c-0.1-0.1-3.5-1.7-10.1-1.7c-0.9,0-1.6,0.7-1.6,1.6s0.7,1.6,1.6,1.6c5.7,0,8.6,1.4,8.6,1.4
				c0.6,0.3,14.5,8,24.2,8c11.3,0,16.3-3.3,16.5-3.4l21.1-13.1c1.4-0.8,2.5-2.2,2.9-3.8C528.5,291.8,528.3,290.1,527.5,288.6z"/>
			<path class="st2" d="M445.4,273H436c-0.9,0-1.6,0.7-1.6,1.6c0,0.9,0.7,1.6,1.6,1.6h9.4c0.9,0,1.6,0.7,1.6,1.6v34.4
				c0,0.9-0.7,1.6-1.6,1.6H436c-0.9,0-1.6,0.7-1.6,1.6s0.7,1.6,1.6,1.6h9.4c2.6,0,4.7-2.1,4.7-4.7v-34.4
				C450.1,275.1,448,273,445.4,273z"/>
			<path class="st2" d="M487.8,278.4c-1.7,0-3.3-0.6-4.6-1.9l-14.3-14.3c-2.5-2.5-2.5-6.6,0-9.2l14.3-14.3c2.5-2.5,6.6-2.5,9.2,0
				l14.3,14.3c1.2,1.2,1.9,2.9,1.9,4.6c0,1.7-0.7,3.4-1.9,4.6l-14.3,14.3C491.1,277.7,489.4,278.4,487.8,278.4z M487.8,239.2
				c-1.1,0-2.1,0.4-2.9,1.2l-14.3,14.3c-1.6,1.6-1.6,4.2,0,5.8l14.3,14.3c1.6,1.6,4.2,1.6,5.8,0l14.3-14.3c0.8-0.8,1.2-1.8,1.2-2.9
				c0-1.1-0.4-2.1-1.2-2.9l-14.3-14.3C489.9,239.6,488.8,239.2,487.8,239.2z"/>
		</g>
	</g>
	<g class="st3">
		<g>
			<path class="st2" d="M475.1,65.2h9.4c1.4,0,3.7,1.7,5.7,3.3c2.6,1.9,5,3.8,7.2,3.8h7c1.8,0,2.7,0.8,2.7,0.8
				c0.2,0.2,0.5,0.3,0.8,0.3c0.3,0,0.6-0.1,0.8-0.3c0.5-0.5,0.5-1.2,0-1.7c-0.2-0.2-1.6-1.5-4.3-1.5h-7c-1.4,0-3.7-1.7-5.7-3.3
				c-2.6-1.9-5-3.8-7.2-3.8h-9.4c-0.6,0-1.2,0.5-1.2,1.2C473.9,64.7,474.4,65.2,475.1,65.2z"/>
			<path class="st2" d="M465.7,83.4c0-1-0.8-1.8-1.8-1.8s-1.8,0.8-1.8,1.8s0.8,1.8,1.8,1.8S465.7,84.4,465.7,83.4z"/>
			<path class="st2" d="M529.6,69.9c-0.6-1.1-1.6-1.9-2.9-2.2c-1.2-0.3-2.5-0.2-3.5,0.4l-13.5,6.6c-2.1,1.1-4.2,1.1-8.9,1.1
				c-4.5,0-11.5-1.1-11.5-1.2c-0.6-0.1-1.2,0.3-1.4,1c-0.1,0.6,0.3,1.2,1,1.4c0.3,0,7.2,1.2,11.9,1.2c4.9,0,7.3,0,9.9-1.3l13.6-6.6
				c1.1-0.6,2.6-0.3,3.2,0.9c0.3,0.5,0.4,1.2,0.2,1.8s-0.6,1.1-1.1,1.4l-15.9,9.9c0,0-3.4,2.2-11.1,2.2c-6.7,0-16.9-5.7-17.1-5.7
				c-0.1-0.1-2.7-1.3-7.6-1.3c-0.6,0-1.2,0.5-1.2,1.2c0,0.6,0.5,1.2,1.2,1.2c4.3,0,6.5,1,6.5,1c0.4,0.2,10.9,6,18.2,6
				c8.5,0,12.2-2.4,12.4-2.5l15.8-9.8c1.1-0.6,1.9-1.6,2.2-2.8C530.4,72.3,530.2,71,529.6,69.9z"/>
			<path class="st2" d="M468,58.2h-7c-0.6,0-1.2,0.5-1.2,1.2s0.5,1.2,1.2,1.2h7c0.6,0,1.2,0.5,1.2,1.2v25.8c0,0.6-0.5,1.2-1.2,1.2
				h-7c-0.6,0-1.2,0.5-1.2,1.2c0,0.6,0.5,1.2,1.2,1.2h7c1.9,0,3.5-1.6,3.5-3.5V61.7C471.5,59.8,470,58.2,468,58.2z"/>
			<path class="st2" d="M499.8,62.2c-1.2,0-2.5-0.5-3.4-1.4l-10.7-10.7c-1.9-1.9-1.9-5,0-6.9l10.7-10.7c1.9-1.9,5-1.9,6.9,0
				L514,43.2c0.9,0.9,1.4,2.1,1.4,3.4c0,1.3-0.5,2.5-1.4,3.4l-10.7,10.7C502.3,61.7,501.1,62.2,499.8,62.2z M499.8,32.8
				c-0.8,0-1.6,0.3-2.2,0.9l-10.7,10.7c-1.2,1.2-1.2,3.2,0,4.4l10.7,10.7c1.2,1.2,3.2,1.2,4.4,0l10.7-10.7c0.6-0.6,0.9-1.4,0.9-2.2
				c0-0.8-0.3-1.6-0.9-2.2L502,33.7C501.4,33.1,500.6,32.8,499.8,32.8z"/>
		</g>
	</g>
</g>
</svg>
