<svg xmlns="http://www.w3.org/2000/svg" viewBox="0 0 937.45 240.02"><defs><style>.cls-1{fill:#4b4647;}.cls-2{fill:none;}</style></defs><title>indicadoes_texto1</title><g id="Capa_2" data-name="Capa 2"><g id="Capa_1-2" data-name="Capa 1"><path class="cls-1" d="M105.24,61h8.91v40.55h-8.91Z"/><path class="cls-1" d="M121.14,72.17h7.67v4.08H129a10.33,10.33,0,0,1,9-4.88c8.57,0,10.73,4.83,10.73,12.1v18.06h-8.06V84.94c0-4.82-1.36-7.21-5.17-7.21-4.37,0-6.25,2.44-6.25,8.41v15.39h-8.06Z"/><path class="cls-1" d="M175.77,97.78h-.11c-1.88,3.18-5.11,4.54-8.92,4.54-8.86,0-13.17-7.55-13.17-15.73,0-7.89,4.37-15.22,13-15.22a10.11,10.11,0,0,1,8.69,4.37h.11V61h8.07v40.55h-7.67Zm-7-20.33c-5.28,0-7.1,4.6-7.1,9.37,0,4.6,2.1,9.43,7.1,9.43,5.28,0,6.93-4.66,6.93-9.49S174,77.45,168.73,77.45Z"/><path class="cls-1" d="M197.81,67.62h-8.07V61h8.07Zm-8.07,4.55h8.07v29.36h-8.07Z"/><path class="cls-1" d="M224.16,82.5c-.51-3.35-2.5-5-6-5-5.16,0-6.87,5.22-6.87,9.54s1.65,9.26,6.7,9.26c3.81,0,5.91-2.33,6.42-6h7.78c-1.08,7.78-6.36,12-14.14,12-8.86,0-14.82-6.25-14.82-15,0-9.14,5.45-15.9,15-15.9,6.93,0,13.35,3.63,13.8,11.13Z"/><path class="cls-1" d="M236.42,81.2c.46-7.5,7.22-9.83,13.8-9.83,5.85,0,12.89,1.31,12.89,8.35V95c0,2.66.29,5.33,1,6.53H256a11.93,11.93,0,0,1-.57-2.84c-2.55,2.67-6.25,3.63-9.88,3.63-5.62,0-10-2.78-10-8.8.12-13.35,19.88-6.19,19.54-12.78,0-3.41-2.39-4-5.22-4-3.13,0-5.06,1.24-5.34,4.43Zm18.63,6c-1.36,1.19-4.2,1.25-6.7,1.7s-4.77,1.37-4.77,4.32,2.33,3.75,4.94,3.75c6.3,0,6.53-4.94,6.53-6.76Z"/><path class="cls-1" d="M290.32,97.78h-.12c-1.87,3.18-5.11,4.54-8.91,4.54-8.86,0-13.18-7.55-13.18-15.73,0-7.89,4.37-15.22,13-15.22a10.12,10.12,0,0,1,8.69,4.37h.11V61H298v40.55h-7.66Zm-7.05-20.33c-5.28,0-7.09,4.6-7.09,9.37,0,4.6,2.1,9.43,7.09,9.43,5.29,0,6.93-4.66,6.93-9.49S288.5,77.45,283.27,77.45Z"/><path class="cls-1" d="M318.31,71.37c9.26,0,15.22,6.13,15.22,15.5s-6,15.45-15.22,15.45-15.16-6.13-15.16-15.45S309.11,71.37,318.31,71.37Zm0,24.88c5.51,0,7.16-4.66,7.16-9.38s-1.65-9.42-7.16-9.42-7.09,4.71-7.09,9.42S312.86,96.25,318.31,96.25Z"/><path class="cls-1" d="M338.76,72.17h7.67v5.45h.11a10.32,10.32,0,0,1,9.37-6.25,6.06,6.06,0,0,1,1.76.28v7.5a14.78,14.78,0,0,0-2.9-.28c-6,0-7.95,4.2-7.95,9.42v13.24h-8.06Z"/><path class="cls-1" d="M367.49,88.81c.23,5.16,2.67,7.44,7.22,7.44,3.23,0,5.85-2,6.36-3.81h7.1c-2.27,7-7.1,9.88-13.75,9.88-9.25,0-15-6.36-15-15.45,0-8.8,6.08-15.5,15-15.5,10,0,14.88,8.41,14.26,17.44Zm13.12-5.12c-.73-4.09-2.5-6.24-6.41-6.24-5.23,0-6.54,4-6.71,6.24Z"/><path class="cls-1" d="M399.69,92c0,3.46,3.07,4.94,6.19,4.94,2.28,0,5.29-.91,5.29-3.75,0-2.44-3.41-3.35-9.15-4.55-4.71-1.07-9.31-2.61-9.31-7.83,0-7.5,6.47-9.43,12.78-9.43s12.32,2.16,12.95,9.37h-7.67c-.23-3.12-2.61-4-5.51-4-1.82,0-4.49.28-4.49,2.72,0,2.9,4.6,3.3,9.15,4.37,4.71,1.08,9.31,2.79,9.31,8.24,0,7.72-6.76,10.22-13.4,10.22-6.82,0-13.52-2.55-13.8-10.33Z"/><path class="cls-1" d="M460.69,97.78h-.12c-1.87,3.18-5.11,4.54-8.91,4.54-8.86,0-13.18-7.55-13.18-15.73,0-7.89,4.38-15.22,13-15.22a10.12,10.12,0,0,1,8.69,4.37h.11V61h8.06v40.55h-7.66Zm-7-20.33c-5.29,0-7.1,4.6-7.1,9.37,0,4.6,2.1,9.43,7.1,9.43,5.28,0,6.92-4.66,6.92-9.49S458.87,77.45,453.65,77.45Z"/><path class="cls-1" d="M481.07,88.81c.23,5.16,2.67,7.44,7.22,7.44,3.23,0,5.85-2,6.36-3.81h7.1c-2.27,7-7.1,9.88-13.75,9.88-9.25,0-15-6.36-15-15.45,0-8.8,6.08-15.5,15-15.5,10,0,14.88,8.41,14.26,17.44Zm13.12-5.12c-.73-4.09-2.5-6.24-6.41-6.24-5.23,0-6.53,4-6.71,6.24Z"/><path class="cls-1" d="M507.26,61h8.06v40.55h-8.06Z"/><path class="cls-1" d="M544.4,88.07c0,5.39,4.2,7.49,9,7.49,3.12,0,7.89-.91,7.89-5,0-4.43-6.13-5.06-12-6.7-6-1.48-12.09-4-12.09-11.53C537.13,63.93,545,60,552.29,60c8.46,0,16.24,3.69,16.24,13.06H559.9c-.28-4.82-3.69-6.13-8-6.13-2.84,0-6.13,1.19-6.13,4.6,0,3.12,1.93,3.58,12.1,6.13,3,.69,12,2.67,12,11.82,0,7.44-5.8,13-16.87,13-9,0-17.44-4.43-17.27-14.42Z"/><path class="cls-1" d="M582.62,67.62h-8.07V61h8.07Zm-8.07,4.55h8.07v29.36h-8.07Z"/><path class="cls-1" d="M595.22,92c0,3.46,3.07,4.94,6.19,4.94,2.27,0,5.29-.91,5.29-3.75,0-2.44-3.41-3.35-9.15-4.55-4.71-1.07-9.31-2.61-9.31-7.83,0-7.5,6.47-9.43,12.78-9.43s12.32,2.16,12.94,9.37H606.3c-.23-3.12-2.62-4-5.51-4-1.82,0-4.49.28-4.49,2.72,0,2.9,4.6,3.3,9.15,4.37,4.71,1.08,9.31,2.79,9.31,8.24,0,7.72-6.76,10.22-13.4,10.22-6.82,0-13.52-2.55-13.8-10.33Z"/><path class="cls-1" d="M629.69,72.17h5.91v5.39h-5.91V92.1c0,2.73.69,3.41,3.41,3.41a11.38,11.38,0,0,0,2.5-.23v6.3a30.47,30.47,0,0,1-4.71.29c-5,0-9.26-1.08-9.26-7V77.56h-4.88V72.17h4.88V63.36h8.06Z"/><path class="cls-1" d="M646.11,88.81c.22,5.16,2.67,7.44,7.21,7.44,3.24,0,5.85-2,6.36-3.81h7.1c-2.27,7-7.1,9.88-13.74,9.88-9.26,0-15-6.36-15-15.45,0-8.8,6.08-15.5,15-15.5,10,0,14.87,8.41,14.25,17.44Zm13.12-5.12c-.74-4.09-2.5-6.24-6.42-6.24-5.23,0-6.53,4-6.7,6.24Z"/><path class="cls-1" d="M672.29,72.17h7.61v4H680a10.53,10.53,0,0,1,9-4.77c3.69,0,7,1.31,8.58,4.88a10.75,10.75,0,0,1,8.86-4.88c6.25,0,10.73,2.9,10.73,10.51v19.65h-8.06V84.89c0-3.92-.34-7.16-4.94-7.16s-5.4,3.81-5.4,7.44v16.36h-8.06V85.06c0-3.41.22-7.33-4.89-7.33-1.59,0-5.45,1-5.45,6.76v17h-8.06Z"/><path class="cls-1" d="M723.17,81.2c.46-7.5,7.21-9.83,13.8-9.83,5.85,0,12.89,1.31,12.89,8.35V95c0,2.66.29,5.33,1,6.53h-8.18a11.93,11.93,0,0,1-.57-2.84c-2.56,2.67-6.25,3.63-9.88,3.63-5.62,0-10-2.78-10-8.8.12-13.35,19.88-6.19,19.54-12.78,0-3.41-2.39-4-5.23-4-3.12,0-5.05,1.24-5.33,4.43Zm18.63,6c-1.36,1.19-4.2,1.25-6.7,1.7s-4.77,1.37-4.77,4.32,2.33,3.75,4.94,3.75c6.3,0,6.53-4.94,6.53-6.76Z"/><path class="cls-1" d="M792.85,97.78h-.11c-1.87,3.18-5.11,4.54-8.92,4.54-8.86,0-13.17-7.55-13.17-15.73,0-7.89,4.37-15.22,13-15.22a10.11,10.11,0,0,1,8.69,4.37h.12V61h8.06v40.55h-7.67Zm-7-20.33c-5.28,0-7.1,4.6-7.1,9.37,0,4.6,2.1,9.43,7.1,9.43,5.28,0,6.93-4.66,6.93-9.49S791,77.45,785.81,77.45Z"/><path class="cls-1" d="M813.24,88.81c.23,5.16,2.67,7.44,7.21,7.44,3.24,0,5.85-2,6.36-3.81h7.1c-2.27,7-7.1,9.88-13.74,9.88-9.26,0-15-6.36-15-15.45,0-8.8,6.07-15.5,15-15.5,10,0,14.88,8.41,14.25,17.44Zm13.12-5.12c-.74-4.09-2.5-6.24-6.42-6.24-5.22,0-6.53,4-6.7,6.24Z"/><path class="cls-1" d="M110.75,142.76c-.63-4-4.49-7.1-8.86-7.1-8,0-11,6.81-11,13.91,0,6.76,3,13.57,11,13.57,5.45,0,8.51-3.69,9.2-9.08h8.63c-.91,10.16-7.84,16.58-17.83,16.58-12.5,0-19.94-9.37-19.94-21.07,0-12,7.44-21.41,19.94-21.41,8.86,0,16.41,5.23,17.49,14.6Z"/><path class="cls-1" d="M139.2,139.52c9.25,0,15.22,6.13,15.22,15.5s-6,15.45-15.22,15.45S124,164.34,124,155,130,139.52,139.2,139.52Zm0,24.87c5.51,0,7.15-4.65,7.15-9.37s-1.64-9.42-7.15-9.42-7.1,4.71-7.1,9.42S133.75,164.39,139.2,164.39Z"/><path class="cls-1" d="M159.87,140.31h7.61v4h.11a10.53,10.53,0,0,1,9-4.77c3.69,0,7,1.31,8.57,4.88a10.75,10.75,0,0,1,8.86-4.88c6.25,0,10.73,2.9,10.73,10.51v19.65h-8.06V153c0-3.92-.34-7.16-4.94-7.16s-5.4,3.81-5.4,7.44v16.36h-8.06V153.21c0-3.41.23-7.33-4.88-7.33-1.59,0-5.46,1-5.46,6.76v17h-8.06Z"/><path class="cls-1" d="M211.09,140.31h7.67v3.75h.11a9.72,9.72,0,0,1,8.75-4.54c9.2,0,13.35,7.44,13.35,15.79,0,7.83-4.26,15.16-12.9,15.16a10.42,10.42,0,0,1-8.8-4.43h-.11v14h-8.07Zm21.81,14.77c0-4.71-1.87-9.48-7-9.48s-7,4.71-7,9.48,1.82,9.31,7,9.31S232.9,159.85,232.9,155.08Z"/><path class="cls-1" d="M245.79,140.31h7.67v5.46h.11a10.33,10.33,0,0,1,9.37-6.25,6,6,0,0,1,1.76.28v7.5a14.67,14.67,0,0,0-2.89-.28c-6,0-7.95,4.2-7.95,9.42v13.24h-8.07Z"/><path class="cls-1" d="M267.54,149.34c.46-7.49,7.22-9.82,13.8-9.82,5.85,0,12.9,1.31,12.9,8.35v15.27c0,2.67.28,5.34,1,6.54h-8.18a12.44,12.44,0,0,1-.57-2.84c-2.55,2.67-6.25,3.63-9.88,3.63-5.62,0-10-2.78-10-8.8.12-13.35,19.88-6.19,19.54-12.78,0-3.41-2.38-4-5.22-4-3.13,0-5.06,1.25-5.34,4.43Zm18.63,6c-1.36,1.19-4.2,1.25-6.7,1.7s-4.77,1.36-4.77,4.32,2.33,3.75,4.94,3.75c6.3,0,6.53-5,6.53-6.76Z"/><path class="cls-1" d="M317.12,129.13h18.29c10.16,0,14,6.41,14,13s-3.87,13-14,13H326v14.54h-8.92ZM326,148.21H333c4.09,0,7.83-.91,7.83-6.08s-3.74-6.07-7.83-6.07H326Z"/><path class="cls-1" d="M381.69,169.68H374v-4.09h-.17a10.36,10.36,0,0,1-9,4.88c-8.57,0-10.73-4.83-10.73-12.1V140.31h8.06V156.9c0,4.83,1.37,7.21,5.17,7.21,4.37,0,6.25-2.44,6.25-8.4v-15.4h8.06Zm-11.24-33.45h-5.62l5.45-8.07h8.91Z"/><path class="cls-1" d="M387.83,129.13h8.06v14.76H396c2-3,5.63-4.37,9.26-4.37,5.85,0,12.15,4.71,12.15,15.45s-6.3,15.5-12.15,15.5c-4.32,0-7.89-1.31-9.65-4.54h-.12v3.75h-7.66Zm14.65,16.47c-4.77,0-6.87,4.43-6.87,9.42s2.1,9.37,6.87,9.37,6.87-4.48,6.87-9.37S407.25,145.6,402.48,145.6Z"/><path class="cls-1" d="M422.75,129.13h8.07v40.55h-8.07Z"/><path class="cls-1" d="M445.47,135.77H437.4v-6.64h8.07Zm-8.07,4.54h8.07v29.37H437.4Z"/><path class="cls-1" d="M471.82,150.65c-.51-3.35-2.5-5.05-6-5.05-5.17,0-6.88,5.22-6.88,9.54s1.65,9.25,6.71,9.25c3.8,0,5.9-2.32,6.41-6h7.78c-1.08,7.78-6.36,12-14.14,12-8.86,0-14.82-6.25-14.82-15.05,0-9.14,5.45-15.9,15-15.9,6.93,0,13.35,3.63,13.8,11.13Z"/><path class="cls-1" d="M484.08,149.34c.46-7.49,7.22-9.82,13.8-9.82,5.85,0,12.9,1.31,12.9,8.35v15.27c0,2.67.28,5.34,1,6.54h-8.18a12.44,12.44,0,0,1-.57-2.84c-2.55,2.67-6.24,3.63-9.88,3.63-5.62,0-10-2.78-10-8.8.11-13.35,19.87-6.19,19.53-12.78,0-3.41-2.38-4-5.22-4-3.13,0-5.06,1.25-5.34,4.43Zm18.63,6c-1.36,1.19-4.2,1.25-6.7,1.7s-4.77,1.36-4.77,4.32,2.33,3.75,4.94,3.75c6.31,0,6.53-5,6.53-6.76Z"/><path class="cls-1" d="M560.7,142.76c-.63-4-4.49-7.1-8.86-7.1-8,0-11,6.81-11,13.91,0,6.76,3,13.57,11,13.57,5.45,0,8.51-3.69,9.2-9.08h8.63c-.91,10.16-7.84,16.58-17.83,16.58-12.5,0-19.94-9.37-19.94-21.07,0-12,7.44-21.41,19.94-21.41,8.86,0,16.41,5.23,17.49,14.6Z"/><path class="cls-1" d="M589.15,139.52c9.25,0,15.22,6.13,15.22,15.5s-6,15.45-15.22,15.45S574,164.34,574,155,580,139.52,589.15,139.52Zm0,24.87c5.51,0,7.15-4.65,7.15-9.37s-1.64-9.42-7.15-9.42-7.1,4.71-7.1,9.42S583.7,164.39,589.15,164.39Z"/><path class="cls-1" d="M609.82,129.13h8.06v40.55h-8.06Z"/><path class="cls-1" d="M638.5,139.52c9.26,0,15.22,6.13,15.22,15.5s-6,15.45-15.22,15.45-15.17-6.13-15.17-15.45S629.3,139.52,638.5,139.52Zm0,24.87c5.51,0,7.15-4.65,7.15-9.37s-1.64-9.42-7.15-9.42-7.1,4.71-7.1,9.42S633.05,164.39,638.5,164.39Z"/><path class="cls-1" d="M659.17,140.31h7.61v4h.11a10.53,10.53,0,0,1,9-4.77c3.69,0,7,1.31,8.57,4.88a10.75,10.75,0,0,1,8.86-4.88c6.25,0,10.74,2.9,10.74,10.51v19.65H696V153c0-3.92-.34-7.16-4.94-7.16s-5.4,3.81-5.4,7.44v16.36h-8.06V153.21c0-3.41.23-7.33-4.88-7.33-1.59,0-5.46,1-5.46,6.76v17h-8.06Z"/><path class="cls-1" d="M710.39,129.13h8.07v14.76h.11c2-3,5.63-4.37,9.26-4.37,5.85,0,12.15,4.71,12.15,15.45s-6.3,15.5-12.15,15.5c-4.32,0-7.89-1.31-9.65-4.54h-.12v3.75h-7.67Zm14.66,16.47c-4.77,0-6.87,4.43-6.87,9.42s2.1,9.37,6.87,9.37,6.87-4.48,6.87-9.37S729.82,145.6,725.05,145.6Z"/><path class="cls-1" d="M753.39,135.77h-8.07v-6.64h8.07Zm-8.07,4.54h8.07v29.37h-8.07Z"/><path class="cls-1" d="M759.41,149.34c.45-7.49,7.21-9.82,13.8-9.82,5.85,0,12.89,1.31,12.89,8.35v15.27c0,2.67.28,5.34,1,6.54h-8.18a12.44,12.44,0,0,1-.57-2.84c-2.55,2.67-6.24,3.63-9.88,3.63-5.62,0-10-2.78-10-8.8.11-13.35,19.87-6.19,19.53-12.78,0-3.41-2.38-4-5.22-4-3.13,0-5.06,1.25-5.34,4.43Zm18.62,6c-1.36,1.19-4.2,1.25-6.7,1.7s-4.77,1.36-4.77,4.32,2.33,3.75,4.94,3.75c6.31,0,6.53-5,6.53-6.76Z"/><path class="cls-1" d="M792.34,140.31H800v4.09h.17a10.34,10.34,0,0,1,9-4.88c8.58,0,10.74,4.83,10.74,12.1v18.06h-8.07V153.09c0-4.82-1.36-7.21-5.17-7.21-4.37,0-6.24,2.44-6.24,8.41v15.39h-8.07Z"/><path class="cls-1" d="M840.27,139.52c9.26,0,15.22,6.13,15.22,15.5s-6,15.45-15.22,15.45-15.16-6.13-15.16-15.45S831.07,139.52,840.27,139.52Zm0,24.87c5.51,0,7.16-4.65,7.16-9.37s-1.65-9.42-7.16-9.42-7.09,4.71-7.09,9.42S834.82,164.39,840.27,164.39Z"/><rect class="cls-2" width="937.45" height="240.02"/></g></g></svg>