<svg xmlns="http://www.w3.org/2000/svg" viewBox="0 0 937.45 240.02"><defs><style>.cls-1{fill:#4b4647;}.cls-2{fill:none;}</style></defs><title>indicadores_texto1</title><g id="Capa_2" data-name="Capa 2"><g id="Capa_1-2" data-name="Capa 1"><path class="cls-1" d="M44.66,51.14h10.4V98.45H44.66Z"/><path class="cls-1" d="M63.21,64.19h8.94V69h.2a12.07,12.07,0,0,1,10.47-5.7c10,0,12.52,5.64,12.52,14.12V98.45H85.93V79.1c0-5.63-1.59-8.42-6-8.42-5.1,0-7.28,2.85-7.28,9.81v18H63.21Z"/><path class="cls-1" d="M127,94.07h-.14c-2.18,3.71-6,5.3-10.4,5.3C106.07,99.37,101,90.56,101,81c0-9.21,5.1-17.76,15.17-17.76a11.8,11.8,0,0,1,10.14,5.11h.13V51.14h9.41V98.45H127Zm-8.22-23.72c-6.16,0-8.28,5.37-8.28,10.94,0,5.36,2.45,11,8.28,11,6.16,0,8.08-5.43,8.08-11.06S124.83,70.35,118.73,70.35Z"/><path class="cls-1" d="M152.65,58.89h-9.41V51.14h9.41Zm-9.41,5.3h9.41V98.45h-9.41Z"/><path class="cls-1" d="M183.4,76.25c-.6-3.91-2.92-5.9-7-5.9-6,0-8,6.1-8,11.13s1.92,10.8,7.82,10.8c4.44,0,6.89-2.71,7.49-7h9.07c-1.26,9.07-7.42,14-16.49,14C166,99.37,159,92.08,159,81.82c0-10.67,6.36-18.56,17.49-18.56,8.09,0,15.58,4.24,16.11,13Z"/><path class="cls-1" d="M197.71,74.73c.53-8.75,8.41-11.47,16.1-11.47,6.82,0,15,1.53,15,9.74V90.83c0,3.11.33,6.22,1.19,7.62H220.5a13.77,13.77,0,0,1-.66-3.32c-3,3.12-7.29,4.24-11.53,4.24-6.56,0-11.66-3.24-11.66-10.27.13-15.57,23.19-7.22,22.79-14.9,0-4-2.78-4.64-6.1-4.64-3.64,0-5.89,1.46-6.23,5.17Zm21.73,7c-1.59,1.39-4.9,1.46-7.82,2s-5.57,1.59-5.57,5,2.72,4.37,5.77,4.37c7.35,0,7.62-5.77,7.62-7.89Z"/><path class="cls-1" d="M260.58,94.07h-.13c-2.19,3.71-6,5.3-10.4,5.3-10.34,0-15.37-8.81-15.37-18.35,0-9.21,5.1-17.76,15.17-17.76A11.8,11.8,0,0,1,260,68.37h.13V51.14h9.41V98.45h-8.95Zm-8.21-23.72c-6.17,0-8.29,5.37-8.29,10.94,0,5.36,2.46,11,8.29,11,6.16,0,8.08-5.43,8.08-11.06S258.46,70.35,252.37,70.35Z"/><path class="cls-1" d="M293.25,63.26c10.8,0,17.75,7.16,17.75,18.09s-6.95,18-17.75,18-17.69-7.15-17.69-18S282.51,63.26,293.25,63.26Zm0,29c6.42,0,8.34-5.43,8.34-10.93s-1.92-11-8.34-11-8.29,5.5-8.29,11S286.89,92.28,293.25,92.28Z"/><path class="cls-1" d="M317.1,64.19H326v6.36h.13a12,12,0,0,1,10.94-7.29,7.27,7.27,0,0,1,2.05.33v8.75a17.06,17.06,0,0,0-3.38-.33c-6.95,0-9.27,4.9-9.27,11V98.45H317.1Z"/><path class="cls-1" d="M350.62,83.6c.27,6,3.12,8.68,8.42,8.68,3.77,0,6.82-2.32,7.42-4.44h8.28c-2.65,8.15-8.28,11.53-16,11.53-10.8,0-17.5-7.42-17.5-18,0-10.27,7.09-18.09,17.5-18.09,11.66,0,17.36,9.81,16.63,20.34Zm15.31-6c-.86-4.77-2.92-7.29-7.49-7.29-6.09,0-7.62,4.64-7.82,7.29Z"/><path class="cls-1" d="M388.19,87.31c0,4,3.58,5.77,7.22,5.77,2.65,0,6.16-1.06,6.16-4.37,0-2.85-4-3.91-10.66-5.3-5.5-1.26-10.87-3-10.87-9.15,0-8.74,7.55-11,14.91-11s14.38,2.52,15.1,10.94h-8.94c-.27-3.65-3.05-4.64-6.43-4.64-2.12,0-5.23.33-5.23,3.18,0,3.38,5.37,3.84,10.67,5.1,5.5,1.26,10.86,3.25,10.86,9.61,0,9-7.88,11.92-15.63,11.92-8,0-15.77-3-16.11-12.06Z"/><path class="cls-1" d="M459.35,94.07h-.13c-2.19,3.71-6,5.3-10.41,5.3-10.33,0-15.37-8.81-15.37-18.35,0-9.21,5.1-17.76,15.17-17.76a11.78,11.78,0,0,1,10.14,5.11h.13V51.14h9.41V98.45h-8.94Zm-8.22-23.72c-6.16,0-8.28,5.37-8.28,10.94,0,5.36,2.45,11,8.28,11,6.16,0,8.09-5.43,8.09-11.06S457.23,70.35,451.13,70.35Z"/><path class="cls-1" d="M483.13,83.6c.27,6,3.12,8.68,8.42,8.68,3.77,0,6.82-2.32,7.42-4.44h8.28c-2.65,8.15-8.28,11.53-16,11.53-10.8,0-17.49-7.42-17.49-18,0-10.27,7.08-18.09,17.49-18.09,11.66,0,17.36,9.81,16.63,20.34Zm15.31-6c-.86-4.77-2.92-7.29-7.49-7.29-6.09,0-7.62,4.64-7.82,7.29Z"/><path class="cls-1" d="M513.68,51.14h9.41V98.45h-9.41Z"/><path class="cls-1" d="M557,82.74c0,6.3,4.9,8.75,10.47,8.75,3.64,0,9.21-1.06,9.21-5.9,0-5.17-7.16-5.89-14.05-7.82-7-1.72-14.11-4.7-14.11-13.45,0-9.74,9.14-14.31,17.69-14.31,9.87,0,18.95,4.31,18.95,15.24H575.1c-.33-5.63-4.31-7.15-9.35-7.15-3.31,0-7.15,1.39-7.15,5.36,0,3.65,2.25,4.18,14.11,7.16,3.51.79,14,3.11,14,13.78,0,8.68-6.76,15.17-19.68,15.17-10.47,0-20.34-5.17-20.14-16.83Z"/><path class="cls-1" d="M601.6,58.89h-9.41V51.14h9.41Zm-9.41,5.3h9.41V98.45h-9.41Z"/><path class="cls-1" d="M616.31,87.31c0,4,3.57,5.77,7.22,5.77,2.65,0,6.16-1.06,6.16-4.37,0-2.85-4-3.91-10.67-5.3-5.5-1.26-10.86-3-10.86-9.15,0-8.74,7.55-11,14.9-11s14.38,2.52,15.11,10.94h-8.94c-.27-3.65-3.05-4.64-6.43-4.64-2.12,0-5.23.33-5.23,3.18,0,3.38,5.36,3.84,10.66,5.1,5.5,1.26,10.87,3.25,10.87,9.61,0,9-7.89,11.92-15.64,11.92-8,0-15.77-3-16.1-12.06Z"/><path class="cls-1" d="M656.52,64.19h6.89v6.3h-6.89v17c0,3.18.8,4,4,4a13.12,13.12,0,0,0,2.91-.26v7.35a35.43,35.43,0,0,1-5.5.33c-5.83,0-10.79-1.26-10.79-8.15V70.49h-5.7v-6.3h5.7V53.92h9.4Z"/><path class="cls-1" d="M675.67,83.6c.27,6,3.12,8.68,8.42,8.68,3.77,0,6.82-2.32,7.42-4.44h8.28c-2.65,8.15-8.28,11.53-16,11.53-10.8,0-17.49-7.42-17.49-18,0-10.27,7.09-18.09,17.49-18.09,11.67,0,17.36,9.81,16.63,20.34Zm15.31-6c-.86-4.77-2.92-7.29-7.49-7.29-6.1,0-7.62,4.64-7.82,7.29Z"/><path class="cls-1" d="M706.21,64.19h8.88v4.64h.14a12.29,12.29,0,0,1,10.46-5.57c4.31,0,8.15,1.53,10,5.7A12.53,12.53,0,0,1,746,63.26c7.29,0,12.53,3.38,12.53,12.26V98.45h-9.41V79c0-4.57-.4-8.35-5.77-8.35s-6.29,4.44-6.29,8.68V98.45h-9.41V79.23c0-4,.27-8.55-5.7-8.55-1.85,0-6.36,1.2-6.36,7.89V98.45h-9.41Z"/><path class="cls-1" d="M765.58,74.73c.53-8.75,8.41-11.47,16.1-11.47,6.82,0,15,1.53,15,9.74V90.83c0,3.11.33,6.22,1.19,7.62h-9.54a14.27,14.27,0,0,1-.66-3.32c-3,3.12-7.29,4.24-11.53,4.24-6.56,0-11.66-3.24-11.66-10.27.13-15.57,23.19-7.22,22.79-14.9,0-4-2.78-4.64-6.09-4.64-3.65,0-5.9,1.46-6.23,5.17Zm21.73,7c-1.59,1.39-4.9,1.46-7.82,2s-5.56,1.59-5.56,5,2.71,4.37,5.76,4.37c7.36,0,7.62-5.77,7.62-7.89Z"/><path class="cls-1" d="M846.88,94.07h-.14c-2.18,3.71-6,5.3-10.4,5.3C826,99.37,821,90.56,821,81c0-9.21,5.1-17.76,15.17-17.76a11.8,11.8,0,0,1,10.14,5.11h.13V51.14h9.41V98.45h-8.94Zm-8.22-23.72c-6.16,0-8.28,5.37-8.28,10.94,0,5.36,2.45,11,8.28,11,6.16,0,8.08-5.43,8.08-11.06S844.76,70.35,838.66,70.35Z"/><path class="cls-1" d="M870.66,83.6c.27,6,3.11,8.68,8.42,8.68,3.77,0,6.82-2.32,7.42-4.44h8.28c-2.65,8.15-8.28,11.53-16,11.53-10.8,0-17.49-7.42-17.49-18,0-10.27,7.09-18.09,17.49-18.09,11.67,0,17.36,9.81,16.63,20.34Zm15.31-6c-.87-4.77-2.92-7.29-7.49-7.29-6.1,0-7.62,4.64-7.82,7.29Z"/><path class="cls-1" d="M51.08,146.55c-.73-4.71-5.23-8.28-10.33-8.28-9.35,0-12.86,7.95-12.86,16.23,0,7.88,3.51,15.83,12.86,15.83,6.36,0,9.93-4.3,10.73-10.6H61.55c-1.06,11.86-9.14,19.35-20.8,19.35-14.58,0-23.26-10.93-23.26-24.58,0-14.05,8.68-25,23.26-25,10.33,0,19.14,6.1,20.4,17Z"/><path class="cls-1" d="M84.28,142.77c10.8,0,17.75,7.16,17.75,18.09s-7,18-17.75,18-17.69-7.15-17.69-18S73.54,142.77,84.28,142.77Zm0,29c6.42,0,8.34-5.43,8.34-10.93s-1.92-11-8.34-11-8.29,5.5-8.29,11S77.92,171.79,84.28,171.79Z"/><path class="cls-1" d="M108.39,143.7h8.88v4.64h.13a12.29,12.29,0,0,1,10.47-5.57c4.31,0,8.15,1.52,10,5.7a12.53,12.53,0,0,1,10.33-5.7c7.29,0,12.53,3.38,12.53,12.26V178h-9.41V158.54c0-4.57-.4-8.35-5.77-8.35s-6.29,4.44-6.29,8.68V178h-9.41V158.74c0-4,.27-8.55-5.7-8.55-1.85,0-6.36,1.19-6.36,7.89V178h-9.41Z"/><path class="cls-1" d="M168.16,143.7h8.94v4.37h.13c2.32-3.71,6-5.3,10.21-5.3,10.73,0,15.57,8.68,15.57,18.42,0,9.14-5,17.69-15,17.69a12.15,12.15,0,0,1-10.27-5.17h-.14V190h-9.4Zm25.44,17.23c0-5.5-2.19-11.07-8.22-11.07s-8.15,5.5-8.15,11.07,2.12,10.86,8.22,10.86S193.6,166.49,193.6,160.93Z"/><path class="cls-1" d="M208.64,143.7h8.94v6.36h.13a12,12,0,0,1,10.94-7.29,6.93,6.93,0,0,1,2,.33v8.75a17.06,17.06,0,0,0-3.38-.33c-6.95,0-9.27,4.9-9.27,11V178h-9.41Z"/><path class="cls-1" d="M234,154.23c.53-8.74,8.42-11.46,16.1-11.46,6.83,0,15,1.52,15,9.74v17.82c0,3.12.34,6.23,1.2,7.62h-9.54a13.7,13.7,0,0,1-.67-3.31c-3,3.11-7.29,4.24-11.53,4.24-6.56,0-11.66-3.25-11.66-10.27.14-15.57,23.19-7.22,22.8-14.91,0-4-2.79-4.63-6.1-4.63-3.64,0-5.9,1.45-6.23,5.16Zm21.74,7c-1.59,1.39-4.91,1.46-7.82,2s-5.57,1.59-5.57,5,2.72,4.38,5.77,4.38c7.35,0,7.62-5.77,7.62-7.89Z"/><path class="cls-1" d="M291.85,130.65h21.34c11.86,0,16.36,7.48,16.36,15.17S325.05,161,313.19,161H302.26v17H291.85Zm10.41,22.26h8.08c4.77,0,9.14-1.06,9.14-7.09s-4.37-7.09-9.14-7.09h-8.08Z"/><path class="cls-1" d="M367.19,178h-8.95v-4.77H358a12.06,12.06,0,0,1-10.46,5.7c-10,0-12.53-5.63-12.53-14.11V143.7h9.41v19.35c0,5.63,1.59,8.41,6,8.41,5.1,0,7.29-2.85,7.29-9.81v-18h9.41Zm-13.12-39h-6.56l6.36-9.41h10.4Z"/><path class="cls-1" d="M374.34,130.65h9.41v17.22h.13c2.32-3.51,6.56-5.1,10.8-5.1,6.83,0,14.18,5.5,14.18,18s-7.35,18.09-14.18,18.09c-5,0-9.21-1.52-11.26-5.3h-.13V178h-9Zm17.1,19.21c-5.57,0-8,5.17-8,11s2.45,10.93,8,10.93,8-5.23,8-10.93S397,149.86,391.44,149.86Z"/><path class="cls-1" d="M415.09,130.65h9.41V178h-9.41Z"/><path class="cls-1" d="M441.59,138.4h-9.41v-7.75h9.41Zm-9.41,5.3h9.41V178h-9.41Z"/><path class="cls-1" d="M472.33,155.76c-.59-3.91-2.91-5.9-6.95-5.9-6,0-8,6.1-8,11.13s1.92,10.8,7.82,10.8c4.44,0,6.89-2.72,7.49-7h9.07c-1.26,9.08-7.42,14-16.5,14-10.33,0-17.29-7.29-17.29-17.56,0-10.66,6.36-18.55,17.49-18.55,8.09,0,15.57,4.24,16.1,13Z"/><path class="cls-1" d="M486.64,154.23c.53-8.74,8.42-11.46,16.11-11.46,6.82,0,15,1.52,15,9.74v17.82c0,3.12.33,6.23,1.19,7.62h-9.54a14.2,14.2,0,0,1-.67-3.31c-3,3.11-7.28,4.24-11.52,4.24-6.56,0-11.67-3.25-11.67-10.27.14-15.57,23.19-7.22,22.8-14.91,0-4-2.79-4.63-6.1-4.63-3.64,0-5.9,1.45-6.23,5.16Zm21.74,7c-1.59,1.39-4.91,1.46-7.82,2s-5.57,1.59-5.57,5,2.72,4.38,5.77,4.38c7.35,0,7.62-5.77,7.62-7.89Z"/><path class="cls-1" d="M576,146.55c-.72-4.71-5.23-8.28-10.33-8.28-9.34,0-12.86,7.95-12.86,16.23,0,7.88,3.52,15.83,12.86,15.83,6.36,0,9.94-4.3,10.73-10.6h10.07c-1.06,11.86-9.14,19.35-20.8,19.35-14.58,0-23.26-10.93-23.26-24.58,0-14.05,8.68-25,23.26-25,10.33,0,19.15,6.1,20.41,17Z"/><path class="cls-1" d="M609.22,142.77c10.8,0,17.76,7.16,17.76,18.09s-7,18-17.76,18-17.69-7.15-17.69-18S598.48,142.77,609.22,142.77Zm0,29c6.43,0,8.35-5.43,8.35-10.93s-1.92-11-8.35-11-8.28,5.5-8.28,11S602.86,171.79,609.22,171.79Z"/><path class="cls-1" d="M633.33,130.65h9.41V178h-9.41Z"/><path class="cls-1" d="M666.79,142.77c10.8,0,17.76,7.16,17.76,18.09s-7,18-17.76,18-17.69-7.15-17.69-18S656.06,142.77,666.79,142.77Zm0,29c6.43,0,8.35-5.43,8.35-10.93s-1.92-11-8.35-11-8.28,5.5-8.28,11S660.43,171.79,666.79,171.79Z"/><path class="cls-1" d="M690.91,143.7h8.88v4.64h.13a12.28,12.28,0,0,1,10.47-5.57c4.31,0,8.15,1.52,10,5.7a12.53,12.53,0,0,1,10.33-5.7c7.29,0,12.52,3.38,12.52,12.26V178h-9.4V158.54c0-4.57-.4-8.35-5.77-8.35s-6.29,4.44-6.29,8.68V178h-9.41V158.74c0-4,.26-8.55-5.7-8.55-1.86,0-6.36,1.19-6.36,7.89V178h-9.41Z"/><path class="cls-1" d="M750.67,130.65h9.41v17.22h.13c2.32-3.51,6.56-5.1,10.8-5.1,6.83,0,14.18,5.5,14.18,18s-7.35,18.09-14.18,18.09c-5,0-9.21-1.52-11.26-5.3h-.13V178h-9Zm17.1,19.21c-5.57,0-8,5.17-8,11s2.45,10.93,8,10.93,8-5.23,8-10.93S773.33,149.86,767.77,149.86Z"/><path class="cls-1" d="M800.83,138.4h-9.41v-7.75h9.41Zm-9.41,5.3h9.41V178h-9.41Z"/><path class="cls-1" d="M807.85,154.23c.53-8.74,8.42-11.46,16.1-11.46,6.83,0,15,1.52,15,9.74v17.82c0,3.12.33,6.23,1.2,7.62h-9.55a14.18,14.18,0,0,1-.66-3.31c-3,3.11-7.29,4.24-11.53,4.24-6.56,0-11.66-3.25-11.66-10.27.13-15.57,23.19-7.22,22.79-14.91,0-4-2.78-4.63-6.09-4.63-3.65,0-5.9,1.45-6.23,5.16Zm21.73,7c-1.59,1.39-4.9,1.46-7.81,2s-5.57,1.59-5.57,5,2.72,4.38,5.76,4.38c7.36,0,7.62-5.77,7.62-7.89Z"/><path class="cls-1" d="M846.28,143.7h8.94v4.77h.2a12.08,12.08,0,0,1,10.47-5.7c10,0,12.52,5.63,12.52,14.11V178H869V158.61c0-5.64-1.59-8.42-6-8.42-5.11,0-7.29,2.85-7.29,9.81V178h-9.41Z"/><path class="cls-1" d="M902.2,142.77c10.8,0,17.76,7.16,17.76,18.09s-7,18-17.76,18-17.69-7.15-17.69-18S891.47,142.77,902.2,142.77Zm0,29c6.43,0,8.35-5.43,8.35-10.93s-1.92-11-8.35-11-8.28,5.5-8.28,11S895.84,171.79,902.2,171.79Z"/><rect class="cls-2" width="937.45" height="240.02"/></g></g></svg>