<svg xmlns="http://www.w3.org/2000/svg" viewBox="0 0 1627.19 429.43"><defs><style>.cls-1{fill:#4b4647;}.cls-2{fill:none;}</style></defs><title>indicadores_texto</title><g id="Capa_2" data-name="Capa 2"><g id="Capa_1-2" data-name="Capa 1"><path class="cls-1" d="M79.34,66.72H95.59V168.51H79.34Z"/><path class="cls-1" d="M110.71,91.81h14.54v9h.43c3.85-6.84,11.12-11,19.68-11,11.69,0,19.1,5.28,19.1,20.82v57.88h-15.4V115.9c0-10.26-2.71-13.83-10.69-13.83-6.27,0-12.26,4.71-12.26,15v51.46h-15.4Z"/><path class="cls-1" d="M218.5,159.1h-.28c-1.86,5-6,11.41-16.83,11.41-17.82,0-25.09-15.11-25.09-41.35,0-34.07,12-39.35,23.67-39.35,8.41,0,14.54,4.14,17.39,11h.29V66.72h15.4V168.51H218.5Zm-14-57c-8.7,0-12,7.13-12,27.81,0,17.39,2.14,28.37,13,28.37,10.55,0,13-10.69,13-27.23C218.5,112.63,216.5,102.07,204.53,102.07Z"/><path class="cls-1" d="M248.59,65.57H264V81h-15.4Zm0,26.24H264v76.7h-15.4Z"/><path class="cls-1" d="M331.28,140.57c-1.14,18.39-7.12,29.94-26.23,29.94-22.24,0-28.52-16.4-28.52-40.35s6.28-40.35,28.52-40.35c22.81-.43,26.38,18.11,26.38,27.52H316c0-7.13-1.85-16.54-11-16.11-11,0-13.12,12-13.12,28.94s2.14,28.94,13.12,28.94c8.55.15,11.69-7,11.69-18.53Z"/><path class="cls-1" d="M393.17,152.55c0,2.85,1.71,5.41,4,5.41a5.85,5.85,0,0,0,2.56-.43v10a16.46,16.46,0,0,1-7.55,1.85c-6.85,0-12.55-2.71-13-10.12h-.28c-4.14,7.55-10,11.26-19.11,11.26-12.4,0-20-6.7-20-21.53,0-17.11,7.56-20.67,17.83-24.1l12-3.27c5.56-1.57,9-3.14,9-9.84,0-7-2.42-11.41-10.55-11.41-10.26,0-11.69,7.27-11.69,14.69H341.84c0-16.4,6.7-25.24,27-25.24,13.54,0,24.38,5.28,24.38,18.82ZM378.62,128c-4.27,3.14-12.4,4.85-17.1,7.13-4.43,2.14-6.28,6.7-6.28,12.41,0,6.41,3.14,11.54,9.55,11.54,9.27,0,13.83-6.84,13.83-18.25Z"/><path class="cls-1" d="M448.07,159.1h-.29c-1.85,5-6,11.41-16.82,11.41-17.82,0-25.1-15.11-25.1-41.35,0-34.07,12-39.35,23.67-39.35,8.41,0,14.54,4.14,17.4,11h.28V66.72h15.4V168.51H448.07Zm-14-57c-8.69,0-12,7.13-12,27.81,0,17.39,2.14,28.37,13,28.37,10.55,0,13-10.69,13-27.23C448.07,112.63,446.07,102.07,434.09,102.07Z"/><path class="cls-1" d="M474.45,130.16c0-24,6.27-40.35,28.51-40.35s28.66,16.4,28.66,40.35-7.41,40.35-28.66,40.35C481.86,170.51,474.45,154.11,474.45,130.16ZM503,159.1c11.27,0,13.26-9.4,13.26-28.94,0-17-2-28.94-13.26-28.94-11,0-13.11,12-13.11,28.94C489.85,149.7,492,159.1,503,159.1Z"/><path class="cls-1" d="M543.46,91.81h15.4v12h.29c3.42-8.55,9.12-14,17.82-14a8.7,8.7,0,0,1,3.7.57v15.69a21.37,21.37,0,0,0-6.41-.86c-7,0-15.4,3.14-15.4,17.39v45.91h-15.4Z"/><path class="cls-1" d="M600.78,132.16v4.42c0,10.26,1.28,23.38,12.83,23.38,11,0,12.26-12.4,12.26-17.11h14.55c0,17.25-10.27,27.66-26.95,27.66-12.55,0-28.09-3.71-28.09-39.21,0-20.1,4.42-41.49,28.37-41.49,21.39,0,27.09,13,27.09,34.22v8.13Zm24.66-10.55v-4.14c0-9.69-3.13-17.11-11.83-17.11-9.69,0-12.83,9.7-12.83,19.68v1.57Z"/><path class="cls-1" d="M686.62,114.19v-2c0-6.13-2.14-11.84-10.13-11.84-6.13,0-11,2.71-11,10,0,6.13,2.71,8.41,10.84,11.27l9.84,3.42c11.4,3.85,16.68,10,16.68,22.1,0,16.4-12.12,23.38-27.51,23.38-19.4,0-25.24-9-25.24-23.81v-2.85h13.69v2.42c0,9,3,13.69,12,13.69,8.56,0,12.55-4.28,12.55-11.26,0-5.57-2.85-9.42-8.41-11.27L667.37,133c-11.55-3.85-16.4-9.83-16.4-22.1,0-14.4,10.27-21.1,26.24-21.1,19.53,0,23.95,11.41,23.95,21v3.42Z"/><path class="cls-1" d="M787.71,159.1h-.28c-1.86,5-6,11.41-16.83,11.41-17.82,0-25.09-15.11-25.09-41.35,0-34.07,12-39.35,23.67-39.35,8.41,0,14.54,4.14,17.39,11h.29V66.72h15.4V168.51H787.71Zm-14-57c-8.7,0-12,7.13-12,27.81,0,17.39,2.14,28.37,13,28.37,10.55,0,13-10.69,13-27.23C787.71,112.63,785.71,102.07,773.74,102.07Z"/><path class="cls-1" d="M830.35,132.16v4.42c0,10.26,1.28,23.38,12.83,23.38,11,0,12.26-12.4,12.26-17.11H870c0,17.25-10.26,27.66-26.94,27.66-12.55,0-28.09-3.71-28.09-39.21,0-20.1,4.42-41.49,28.37-41.49,21.39,0,27.09,13,27.09,34.22v8.13ZM855,121.61v-4.14c0-9.69-3.13-17.11-11.83-17.11-9.7,0-12.83,9.7-12.83,19.68v1.57Z"/><path class="cls-1" d="M883.82,66.72h15.4V168.51h-15.4Z"/><path class="cls-1" d="M962.52,137v2.57c0,12.41,5.57,18.68,16.69,18.68,10.12,0,15.39-7.42,15.39-14.83,0-10.69-5.41-15.4-14.54-18.11l-11.12-3.85c-14.83-5.7-21.24-13.4-21.24-27.94,0-18.54,12.69-28.8,31.65-28.8,26.09,0,28.8,16.25,28.8,26.8V93.8H991.9V91.67c0-9.27-4-14.69-14.26-14.69-7,0-13.69,3.85-13.69,14.69,0,8.69,4.42,13.11,15.26,17.25l11,4c14.4,5.13,20.67,12.83,20.67,27,0,21.67-13.12,30.65-33.65,30.65-25.24,0-30.94-16.82-30.94-31.08V137Z"/><path class="cls-1" d="M1023.7,65.57h15.39V81H1023.7Zm0,26.24h15.39v76.7H1023.7Z"/><path class="cls-1" d="M1087.72,114.19v-2c0-6.13-2.14-11.84-10.13-11.84-6.13,0-11,2.71-11,10,0,6.13,2.7,8.41,10.83,11.27l9.84,3.42c11.4,3.85,16.68,10,16.68,22.1,0,16.4-12.12,23.38-27.52,23.38-19.39,0-25.23-9-25.23-23.81v-2.85h13.68v2.42c0,9,3,13.69,12,13.69,8.56,0,12.55-4.28,12.55-11.26,0-5.57-2.86-9.42-8.41-11.27L1068.47,133c-11.55-3.85-16.4-9.83-16.4-22.1,0-14.4,10.27-21.1,26.24-21.1,19.53,0,24,11.41,24,21v3.42Z"/><path class="cls-1" d="M1108.53,91.81h10.55V70h15.4V91.81H1147v11.41h-12.55V149c0,6.13,1.72,8.13,7,8.13a28.94,28.94,0,0,0,5.56-.43v11.41a50.45,50.45,0,0,1-12.4,1.28c-10.27,0-15.55-3-15.55-18.54V103.22h-10.55Z"/><path class="cls-1" d="M1168.28,132.16v4.42c0,10.26,1.28,23.38,12.83,23.38,11,0,12.26-12.4,12.26-17.11h14.55c0,17.25-10.27,27.66-27,27.66-12.55,0-28.09-3.71-28.09-39.21,0-20.1,4.42-41.49,28.38-41.49,21.38,0,27.08,13,27.08,34.22v8.13Zm24.66-10.55v-4.14c0-9.69-3.13-17.11-11.83-17.11-9.69,0-12.83,9.7-12.83,19.68v1.57Z"/><path class="cls-1" d="M1221.75,91.81h14.55v9h.43a21.47,21.47,0,0,1,18.38-11c11,0,15.55,5.28,17.83,11.69,4.42-7.41,10.12-11.69,19.39-11.69,10.83,0,18.68,5.56,18.68,20.39v58.31h-15.4V115.9c0-10.12-3-13.83-9.27-13.83s-12.26,4.85-12.26,15v51.46h-15.4V115.9c0-10.12-3-13.83-9.41-13.83-6.27,0-12.12,5-12.12,15v51.46h-15.4Z"/><path class="cls-1" d="M1376.89,152.55c0,2.85,1.71,5.41,4,5.41a5.9,5.9,0,0,0,2.57-.43v10a16.53,16.53,0,0,1-7.56,1.85c-6.84,0-12.55-2.71-13-10.12h-.28c-4.13,7.55-10,11.26-19.1,11.26-12.41,0-20-6.7-20-21.53,0-17.11,7.56-20.67,17.83-24.1l12-3.27c5.57-1.57,9-3.14,9-9.84,0-7-2.42-11.41-10.55-11.41-10.26,0-11.69,7.27-11.69,14.69h-14.54c0-16.4,6.7-25.24,27-25.24,13.54,0,24.38,5.28,24.38,18.82ZM1362.34,128c-4.27,3.14-12.4,4.85-17.1,7.13-4.43,2.14-6.28,6.7-6.28,12.41,0,6.41,3.14,11.54,9.55,11.54,9.27,0,13.83-6.84,13.83-18.25Z"/><path class="cls-1" d="M1466,159.1h-.29c-1.85,5-6,11.41-16.82,11.41-17.82,0-25.1-15.11-25.1-41.35,0-34.07,12-39.35,23.67-39.35,8.41,0,14.54,4.14,17.4,11h.28V66.72h15.4V168.51H1466Zm-14-57c-8.7,0-12,7.13-12,27.81,0,17.39,2.14,28.37,13,28.37,10.55,0,13-10.69,13-27.23C1466,112.63,1464,102.07,1452,102.07Z"/><path class="cls-1" d="M1508.64,132.16v4.42c0,10.26,1.28,23.38,12.83,23.38,11,0,12.27-12.4,12.27-17.11h14.54c0,17.25-10.27,27.66-27,27.66-12.54,0-28.09-3.71-28.09-39.21,0-20.1,4.42-41.49,28.38-41.49,21.38,0,27.09,13,27.09,34.22v8.13Zm24.67-10.55v-4.14c0-9.69-3.14-17.11-11.84-17.11-9.69,0-12.83,9.7-12.83,19.68v1.57Z"/><path class="cls-1" d="M114.91,303.12v2.14c0,18.39-7.56,36.36-31.37,36.36-25.66,0-33.65-16.54-33.65-52.9s8-52.89,33.8-52.89c28.94,0,30.65,21.24,30.65,31.94v1.85H98.09v-1.71c0-9.56-2.86-20.25-14.55-19.82-12.12,0-17.39,7.41-17.39,40.2s5.27,41.07,17.39,41.07c13.69,0,15.11-15,15.11-24.52v-1.72Z"/><path class="cls-1" d="M122.33,301.27c0-23.95,6.27-40.35,28.51-40.35s28.66,16.4,28.66,40.35-7.41,40.35-28.66,40.35C129.74,341.62,122.33,325.22,122.33,301.27Zm28.51,28.94c11.27,0,13.26-9.41,13.26-28.94,0-17-2-28.94-13.26-28.94-11,0-13.11,12-13.11,28.94C137.73,320.8,139.86,330.21,150.84,330.21Z"/><path class="cls-1" d="M192.05,262.92H206.6v9H207a21.47,21.47,0,0,1,18.39-11c11,0,15.54,5.28,17.82,11.69,4.42-7.41,10.12-11.69,19.39-11.69,10.84,0,18.68,5.56,18.68,20.39v58.31h-15.4V287c0-10.12-3-13.83-9.27-13.83s-12.26,4.85-12.26,15v51.47H229V287c0-10.12-3-13.83-9.41-13.83-6.27,0-12.12,5-12.12,15v51.47h-15.4Z"/><path class="cls-1" d="M329.94,341.62c-8.56,0-14.54-4.13-17.39-11h-.29v34.08h-15.4V262.92H311.4v9.41h.29c3.28-6.85,8.69-11.41,17.25-11.41,17.54,0,24.67,15,24.67,41.35C353.61,334.49,340.63,341.62,329.94,341.62Zm-5.56-68.44c-10.55,0-13,10.69-13,27.24,0,18.39,2.28,28.94,13.12,28.94,8.7,0,12.83-6.56,12.83-27.81C337.35,284.16,335.21,273.18,324.38,273.18Z"/><path class="cls-1" d="M365.44,262.92h15.4v12h.29c3.42-8.55,9.12-14,17.82-14a8.77,8.77,0,0,1,3.71.57v15.68a21.9,21.9,0,0,0-6.42-.85c-7,0-15.4,3.14-15.4,17.39v45.91h-15.4Z"/><path class="cls-1" d="M459.83,323.65c0,2.86,1.71,5.42,4,5.42a5.9,5.9,0,0,0,2.57-.43v10a16.37,16.37,0,0,1-7.56,1.86c-6.84,0-12.54-2.71-13-10.13h-.29c-4.13,7.56-10,11.27-19.1,11.27-12.41,0-20-6.7-20-21.53,0-17.11,7.55-20.67,17.82-24.1l12-3.27c5.56-1.57,9-3.14,9-9.84,0-7-2.43-11.41-10.55-11.41-10.27,0-11.7,7.27-11.7,14.69H408.5c0-16.4,6.7-25.24,26.95-25.24,13.54,0,24.38,5.28,24.38,18.82Zm-14.54-24.52c-4.28,3.14-12.4,4.85-17.11,7.13-4.42,2.14-6.27,6.7-6.27,12.41,0,6.41,3.13,11.54,9.55,11.54,9.26,0,13.83-6.84,13.83-18.25Z"/><path class="cls-1" d="M510.74,237.82H543c19.53,0,28.08,12.27,28.08,29.66,0,18.25-10.83,30.08-29.8,30.08H527v42.06H510.74ZM527,285.3h11.54c8.7,0,16.26-4.56,16.26-17.53,0-11-4.42-17.68-17.4-17.68H527Z"/><path class="cls-1" d="M620.25,330.64h-.43c-3.85,6.85-11.12,11-19.68,11-11.4,0-19.1-5.28-19.1-25.1v-53.6h15.4v55c0,8.56,3.7,11.41,10.4,11.41s12.55-4.28,12.55-12.84v-53.6h15.4v76.7H620.25Zm-9.41-98.23H628l-15.12,20.53H602.28Z"/><path class="cls-1" d="M649.62,237.82H665V271.9h.29c2.85-6.84,9-11,17.39-11,11.69,0,23.67,5.28,23.67,39.35,0,26.38-7.27,41.35-25.09,41.35-10.84,0-15-6.42-16.83-11.41h-.28v9.41H649.62Zm27.52,91.54c10.84,0,13-11,13-28.37,0-20.68-3.28-27.81-12-27.81-12,0-14,10.55-14,28.94C664.17,318.67,666.59,329.36,677.14,329.36Z"/><path class="cls-1" d="M718.92,237.82h15.4v101.8h-15.4Z"/><path class="cls-1" d="M750.57,236.68H766v15.4h-15.4Zm0,26.24H766v76.7h-15.4Z"/><path class="cls-1" d="M833.27,311.68c-1.14,18.39-7.13,29.94-26.23,29.94-22.25,0-28.52-16.4-28.52-40.35s6.27-40.35,28.52-40.35c22.81-.43,26.37,18.11,26.37,27.52H818c0-7.13-1.85-16.54-11-16.11-11,0-13.12,12-13.12,28.94s2.14,28.94,13.12,28.94c8.55.14,11.68-7,11.68-18.53Z"/><path class="cls-1" d="M895.15,323.65c0,2.86,1.71,5.42,4,5.42a5.9,5.9,0,0,0,2.57-.43v10a16.34,16.34,0,0,1-7.56,1.86c-6.84,0-12.54-2.71-13-10.13h-.28c-4.14,7.56-10,11.27-19.11,11.27-12.41,0-20-6.7-20-21.53,0-17.11,7.55-20.67,17.82-24.1l12-3.27c5.56-1.57,9-3.14,9-9.84,0-7-2.43-11.41-10.55-11.41-10.27,0-11.69,7.27-11.69,14.69H843.83c0-16.4,6.7-25.24,26.94-25.24,13.54,0,24.38,5.28,24.38,18.82Zm-14.54-24.52c-4.28,3.14-12.41,4.85-17.11,7.13-4.42,2.14-6.27,6.7-6.27,12.41,0,6.41,3.13,11.54,9.55,11.54,9.27,0,13.83-6.84,13.83-18.25Z"/><path class="cls-1" d="M1008.65,303.12v2.14c0,18.39-7.55,36.36-31.37,36.36-25.66,0-33.64-16.54-33.64-52.9s8-52.89,33.79-52.89c28.94,0,30.65,21.24,30.65,31.94v1.85H991.83v-1.71c0-9.56-2.86-20.25-14.55-19.82-12.11,0-17.39,7.41-17.39,40.2s5.28,41.07,17.39,41.07c13.69,0,15.12-15,15.12-24.52v-1.72Z"/><path class="cls-1" d="M1016.07,301.27c0-23.95,6.28-40.35,28.52-40.35s28.66,16.4,28.66,40.35-7.42,40.35-28.66,40.35S1016.07,325.22,1016.07,301.27Zm28.52,28.94c11.26,0,13.26-9.41,13.26-28.94,0-17-2-28.94-13.26-28.94-11,0-13.12,12-13.12,28.94C1031.47,320.8,1033.61,330.21,1044.59,330.21Z"/><path class="cls-1" d="M1085.8,237.82h15.4v101.8h-15.4Z"/><path class="cls-1" d="M1113.74,301.27c0-23.95,6.28-40.35,28.52-40.35s28.66,16.4,28.66,40.35-7.41,40.35-28.66,40.35C1121.16,341.62,1113.74,325.22,1113.74,301.27Zm28.52,28.94c11.26,0,13.26-9.41,13.26-28.94,0-17-2-28.94-13.26-28.94-11,0-13.12,12-13.12,28.94C1129.14,320.8,1131.28,330.21,1142.26,330.21Z"/><path class="cls-1" d="M1183.47,262.92H1198v9h.43a21.47,21.47,0,0,1,18.39-11c11,0,15.55,5.28,17.83,11.69,4.42-7.41,10.12-11.69,19.39-11.69,10.83,0,18.68,5.56,18.68,20.39v58.31h-15.4V287c0-10.12-3-13.83-9.27-13.83s-12.26,4.85-12.26,15v51.47h-15.4V287c0-10.12-3-13.83-9.41-13.83s-12.12,5-12.12,15v51.47h-15.4Z"/><path class="cls-1" d="M1288.27,237.82h15.4V271.9h.29c2.85-6.84,9-11,17.39-11,11.69,0,23.67,5.28,23.67,39.35,0,26.38-7.27,41.35-25.09,41.35-10.84,0-15-6.42-16.83-11.41h-.28v9.41h-14.55Zm27.52,91.54c10.84,0,13-11,13-28.37,0-20.68-3.29-27.81-12-27.81-12,0-14,10.55-14,28.94C1302.82,318.67,1305.24,329.36,1315.79,329.36Z"/><path class="cls-1" d="M1357.57,236.68H1373v15.4h-15.4Zm0,26.24H1373v76.7h-15.4Z"/><path class="cls-1" d="M1438.84,323.65c0,2.86,1.71,5.42,4,5.42a5.88,5.88,0,0,0,2.56-.43v10a16.34,16.34,0,0,1-7.56,1.86c-6.84,0-12.54-2.71-13-10.13h-.28c-4.14,7.56-10,11.27-19.11,11.27-12.41,0-20-6.7-20-21.53,0-17.11,7.55-20.67,17.82-24.1l12-3.27c5.56-1.57,9-3.14,9-9.84,0-7-2.43-11.41-10.55-11.41-10.27,0-11.69,7.27-11.69,14.69h-14.54c0-16.4,6.7-25.24,26.94-25.24,13.54,0,24.38,5.28,24.38,18.82Zm-14.54-24.52c-4.28,3.14-12.4,4.85-17.11,7.13-4.42,2.14-6.27,6.7-6.27,12.41,0,6.41,3.13,11.54,9.55,11.54,9.27,0,13.83-6.84,13.83-18.25Z"/><path class="cls-1" d="M1454.53,262.92h14.54v9h.43c3.85-6.84,11.12-11,19.68-11,11.69,0,19.1,5.28,19.1,20.82v57.88h-15.4V287c0-10.26-2.71-13.83-10.69-13.83-6.28,0-12.26,4.71-12.26,15v51.47h-15.4Z"/><path class="cls-1" d="M1520.12,301.27c0-23.95,6.28-40.35,28.52-40.35s28.66,16.4,28.66,40.35-7.42,40.35-28.66,40.35S1520.12,325.22,1520.12,301.27Zm28.52,28.94c11.26,0,13.26-9.41,13.26-28.94,0-17-2-28.94-13.26-28.94-11,0-13.12,12-13.12,28.94C1535.52,320.8,1537.66,330.21,1548.64,330.21Z"/><rect class="cls-2" width="1627.19" height="429.43"/></g></g></svg>