<?xml version="1.0" encoding="utf-8"?>
<!-- Generator: Adobe Illustrator 22.0.1, SVG Export Plug-In . SVG Version: 6.00 Build 0)  -->
<svg version="1.1" id="Capa_1" xmlns="http://www.w3.org/2000/svg" xmlns:xlink="http://www.w3.org/1999/xlink" x="0px" y="0px"
	 viewBox="0 0 440.8 156.6" style="enable-background:new 0 0 440.8 156.6;" xml:space="preserve">
<style type="text/css">
	.st0{fill:#2BADDB;}
	.st1{fill:#963C8E;}
	.st2{fill:#372876;}
	.st3{fill:#33B9C7;}
</style>
<title>icono_inicio</title>
<g>
	<g id="Capa_2_1_">
		<g id="Capa_1-2">
			<g id="_Grupo_">
				<g id="_Grupo_2">
					<path id="_Trazado_" class="st0" d="M350.5,112c-0.4,6.6-6.1,11.6-12.7,11.2c-6.6-0.4-11.6-6.1-11.2-12.7
						c0.1-1.3,0.4-2.6,0.9-3.8L309,86.8c-4.7,3.4-11.3,2.9-15.5-1.3l-14.2,7v48.3h89.1v-39.6L350.5,112z"/>
					<path id="_Trazado_2" class="st1" d="M290.1,77.9c0-0.2,0-0.6,0-0.8c0-6.6,5.4-12,12-12s12,5.4,12,12c0,0.8-0.1,1.7-0.2,2.5
						l19.3,20.8c5.1-2.5,11.2-1.1,14.7,3.3l20.5-12.3V34.6h-89.1v48.5L290.1,77.9z"/>
					<path id="_Trazado_compuesto_" class="st2" d="M422.4,45.3c-2.8,0-5.1-2.3-5.1-5.1c0-2.8,2.3-5.1,5.1-5.1
						c2.8,0,5.1,2.3,5.1,5.1C427.5,43,425.2,45.3,422.4,45.3 M385.7,90.2c-2.8,0-5.1-2.3-5.1-5.1s2.3-5.1,5.1-5.1
						c2.8,0,5.1,2.3,5.1,5.1S388.6,90.2,385.7,90.2L385.7,90.2 M338.5,116.2c-2.8,0-5.1-2.3-5.1-5.1s2.3-5.1,5.1-5.1
						c2.8,0,5.1,2.3,5.1,5.1l0,0C343.6,114,341.3,116.2,338.5,116.2 M302.1,82.2c-2.8,0-5.1-2.3-5.1-5.1c0-2.8,2.3-5.1,5.1-5.1
						c2.8,0,5.1,2.3,5.1,5.1l0,0C307.2,79.9,304.9,82.2,302.1,82.2 M252.5,106.4c-2.8,0-5.1-2.3-5.1-5.1s2.3-5.1,5.1-5.1
						s5.1,2.3,5.1,5.1l0,0C257.5,104.1,255.3,106.4,252.5,106.4 M422.4,30.2c-5.5,0-10,4.4-10.1,10c0,2.5,1,5,2.7,6.9l-22.8,30.5
						c-4.3-3.6-10.6-3-14.1,1.1c-2.4,2.9-3,6.8-1.6,10.2l-29.2,17.4c-2.6-4.8-8.8-6.6-13.6-4c-0.3,0.2-0.7,0.4-1,0.6l-21.1-22.8
						c1.7-5.2-1.1-10.9-6.4-12.6s-10.9,1.1-12.6,6.4c-0.6,1.6-0.7,3.4-0.3,5.2l-32.2,15.7c-3.6-4.2-9.9-4.6-14.1-1
						c-4.2,3.6-4.6,9.9-1,14.1c3.6,4.2,9.9,4.6,14.1,1c2.2-1.9,3.4-4.7,3.4-7.5c0-0.9-0.2-1.8-0.3-2.6l31.9-15.6
						c3.4,4.4,9.6,5.3,14,2c0.4-0.3,0.7-0.6,1.1-1l20.6,22.2c-2.7,4.8-1,10.9,3.8,13.6c4.8,2.7,10.9,1,13.6-3.8
						c0.8-1.5,1.3-3.2,1.3-4.8c0-0.2,0-0.2,0-0.4l30.5-18.3c4.1,3.7,10.4,3.4,14.2-0.7c2.6-2.9,3.4-7,1.8-10.6l23.7-31.8
						c5.2,2,11-0.5,12.9-5.6c2-5.2-0.5-11-5.6-12.9C425,30.4,423.6,30.2,422.4,30.2"/>
					<path id="_Trazado_3" class="st2" d="M397.2,81.6c2,6.3-1.6,13-7.9,15c-3.5,1.1-7.4,0.5-10.4-1.6l-5.2,3.1v20.2h27.6V76.1
						L397.2,81.6z"/>
					<path id="_Trazado_4" class="st3" d="M373.7,88.3l0.4-0.2c-0.2-1-0.3-2-0.3-2.9c0-6.6,5.4-12,12-12c2.1,0,4.2,0.6,6,1.6
						l9.5-12.7V10.8h-89.1v20.1h61.6L373.7,88.3z"/>
				</g>
			</g>
		</g>
	</g>
	<g>
		<g>
			<path class="st0" d="M72.4,116.4c-0.9-4.2-4-6.2-8.2-6.2c-6.9,0-9.9,5.7-9.9,11.7c0,6.6,3,12.2,9.9,12.2c5.1,0,8.1-3.6,8.3-8.3
				h3.9c-0.8,7.3-5.2,11.7-12.6,11.7c-9,0-13.4-6.6-13.4-15.1S55.2,107,64.2,107c6.1,0,11.1,3.3,12,9.5h-3.8V116.4z"/>
			<path class="st0" d="M96,106.9c9.2,0,13.9,7.3,13.9,15.2s-4.7,15.2-13.9,15.2c-9.2,0-13.9-7.3-13.9-15.2S86.8,106.9,96,106.9z
				 M96,134.1c7,0,10-6.1,10-12c0-5.8-3-12-10-12c-7,0-10,6.1-10,12C86,128,89,134.1,96,134.1z"/>
			<path class="st0" d="M117.2,107.7h5.3l9.1,24.4l9.2-24.4h5.3v29h-3.6v-24.2h-0.1l-9.1,24.2h-3.3l-9.1-24.2h-0.1v24.2h-3.6V107.7z
				"/>
			<path class="st0" d="M154.9,107.7h12.7c5.9,0,9,3.1,9,8.6c0,5.5-3.1,8.6-9,8.6h-8.8v11.8h-3.9V107.7z M158.8,121.6h7.5
				c4.4,0,6.4-1.8,6.4-5.3c0-3.5-1.9-5.3-6.4-5.3h-7.5V121.6z"/>
			<path class="st0" d="M183.8,107.7h13.7c5.5,0,8.8,3,8.8,7.7c0,3.5-1.6,6.4-5.1,7.4v0.1c3.4,0.7,4,3.1,4.3,6
				c0.3,2.9,0.1,6.1,1.7,8.1h-4.3c-1-1.2-0.5-4.3-1-7.2c-0.4-2.9-1-5.2-4.8-5.2h-9.5v12.4h-3.9v-29.3H183.8z M195.8,121.1
				c3.6,0,6.8-0.9,6.8-5.2c0-2.9-1.6-4.9-5.2-4.9h-9.6v10.1H195.8z"/>
			<path class="st0" d="M222,107.7h4.3l11.3,29h-4.3l-3.1-8.7h-12.4l-3.3,8.7h-4L222,107.7z M219.2,124.7h9.9l-4.8-13.5h-0.1
				L219.2,124.7z"/>
		</g>
		<g>
			<g>
				<path class="st2" d="M29.9,76.5c-0.9-4.2-4-6.2-8.2-6.2c-6.9,0-9.9,5.7-9.9,11.7c0,6.6,3,12.2,9.9,12.2c5.1,0,8.1-3.6,8.3-8.3
					h3.9c-0.8,7.3-5.2,11.7-12.6,11.7c-9,0-13.4-6.6-13.4-15.1s4.8-15.3,13.8-15.3c6.1,0,11.1,3.3,12,9.5h-3.8V76.5z"/>
				<path class="st2" d="M53.5,67c9.2,0,13.9,7.3,13.9,15.2s-4.7,15.2-13.9,15.2s-13.9-7.3-13.9-15.2S44.3,67,53.5,67z M53.5,94.2
					c7,0,10-6.1,10-12s-3-12-10-12s-10,6.1-10,12S46.5,94.2,53.5,94.2z"/>
				<path class="st2" d="M74.6,67.8h3.9v25.7h15.3v3.3H74.6V67.8z"/>
				<path class="st2" d="M111.9,67c9.2,0,13.9,7.3,13.9,15.2s-4.7,15.2-13.9,15.2S98,90.2,98,82.3S102.7,67,111.9,67z M111.9,94.2
					c7,0,10-6.1,10-12s-3-12-10-12c-7,0-10,6.1-10,12C101.9,88.1,104.9,94.2,111.9,94.2z"/>
				<path class="st2" d="M133.1,67.8h5.3l9.1,24.4l9.2-24.4h5.3v29h-3.8V72.6l0,0l-9.1,24.2H146l-9.1-24.2h-0.1v24.2h-3.6V67.8z"/>
				<path class="st2" d="M170.9,67.8h10.5c2.5,0,6,0,7.7,1c2,1.2,3.4,3.1,3.4,6.1c0,3.1-1.6,5.5-4.3,6.5v0.1c3.6,0.8,5.6,3.4,5.6,7
					c0,4.3-3.1,8.3-8.8,8.3h-14V67.8z M174.8,80.3h7.7c4.4,0,6.2-1.6,6.2-4.7c0-4-2.9-4.5-6.2-4.5h-7.7V80.3z M174.8,93.6h9.6
					c3.4,0,5.5-2,5.5-5.2c0-3.8-3-4.8-6.4-4.8h-8.8v10H174.8z"/>
				<path class="st2" d="M201.3,67.8h3.9v29h-3.9V67.8z"/>
				<path class="st2" d="M222,67.8h4.3l11.3,29h-4.3l-3.1-8.7h-12.4l-3.3,8.7h-4L222,67.8z M219.2,84.9h9.9l-4.8-13.5h-0.1
					L219.2,84.9z"/>
			</g>
		</g>
	</g>
</g>
</svg>
