<svg xmlns="http://www.w3.org/2000/svg" xmlns:xlink="http://www.w3.org/1999/xlink" viewBox="0 0 495.14 181.04"><defs><style>.cls-1,.cls-3,.cls-6,.cls-9{fill:none;}.cls-2{fill:#edaa00;}.cls-3,.cls-6{stroke:#fff;}.cls-3,.cls-6,.cls-9{stroke-miterlimit:10;}.cls-3{stroke-width:1.5px;}.cls-4{fill:#0047ba;}.cls-5{fill:#d13239;}.cls-6{stroke-width:1.5px;}.cls-7{font-size:35px;font-family:CenturyGothic, Century Gothic;}.cls-8{clip-path:url(#clip-path);}.cls-9{stroke:#000;stroke-width:0.34px;}</style><clipPath id="clip-path" transform="translate(-5.53 -18.06)"><rect class="cls-1" width="506.2" height="204.29"/></clipPath></defs><title>logo_cce</title><g id="Capa_2" data-name="Capa 2"><g id="Capa_1-2" data-name="Capa 1"><rect x="0.17" y="2.25" width="6" height="130.98"/><rect x="19.04" y="2.25" width="2.67" height="112.24"/><rect x="33.39" y="2.25" width="2.66" height="112.24"/><rect x="45.13" y="2.25" width="2.98" height="112.24"/><rect x="65.77" y="2.25" width="2.99" height="112.24"/><rect x="77.33" y="2.25" width="2.99" height="112.24"/><rect x="97.98" y="2.25" width="3" height="112.24"/><rect x="118.98" y="2.25" width="3" height="112.24"/><rect x="130.52" y="2.25" width="3" height="112.24"/><rect x="227.83" y="2.25" width="2.99" height="112.24"/><rect x="251.71" y="2.25" width="3.18" height="130.98"/><rect x="405.48" y="2.25" width="2.58" height="112.24"/><rect x="260.47" y="2.25" width="3.17" height="112.24"/><rect x="292.66" y="2.25" width="3.18" height="112.24"/><rect x="325.57" y="2.25" width="3.17" height="112.24"/><rect x="369.67" y="2.25" width="3.17" height="112.24"/><rect x="414.12" y="2.25" width="3.17" height="112.24"/><rect x="482.93" y="2.25" width="3.17" height="130.98"/><rect x="358.14" y="2.25" width="5.58" height="112.24"/><rect x="489.24" y="2.25" width="5.58" height="130.98"/><rect x="390.34" y="2.25" width="5.58" height="112.24"/><rect x="444.52" y="2.25" width="2.97" height="112.24"/><rect x="422.54" y="2.25" width="5.57" height="112.24"/><rect x="456.34" y="2.25" width="6.28" height="112.24"/><rect x="471.04" y="2.25" width="9.09" height="112.24"/><rect x="302.15" y="2.25" width="5.58" height="112.24"/><rect x="210.34" y="2.25" width="2.99" height="112.24"/><rect x="163.08" y="2.25" width="2.99" height="112.24"/><rect x="222.05" y="2.25" width="3.37" height="112.24"/><rect x="195.79" y="2.25" width="5.48" height="112.24"/><rect x="281.56" y="2.25" width="8.23" height="112.24"/><rect x="331.61" y="2.25" width="8.22" height="112.24"/><rect x="378.86" y="2.25" width="8.24" height="112.24"/><rect x="432.06" y="2.25" width="8.24" height="112.24"/><rect x="310.96" y="2.25" width="8.23" height="112.24"/><rect x="234.28" y="2.25" width="5.49" height="130.98"/><rect x="57.58" y="2.25" width="5.04" height="112.24"/><rect x="89.78" y="2.25" width="5.05" height="112.24"/><rect x="110.44" y="2.25" width="5.37" height="112.24"/><rect x="139.84" y="2.25" width="5.36" height="112.24"/><rect x="148.66" y="2.25" width="8.38" height="112.24"/><rect x="181.21" y="2.25" width="11.52" height="112.24"/><rect x="266.95" y="2.25" width="11.53" height="112.24"/><rect x="343.26" y="2.25" width="11.52" height="112.24"/><rect x="169.31" y="2.25" width="8.37" height="112.24"/><rect x="9.22" y="2.25" width="2.72" height="130.98"/><rect class="cls-2" x="280.85" y="52.85" width="75.37" height="80.97"/><rect class="cls-3" x="280.85" y="52.85" width="75.37" height="80.97"/><rect class="cls-4" x="389.36" y="29.14" width="31.52" height="86.86"/><rect class="cls-3" x="389.36" y="29.14" width="31.52" height="86.86"/><rect class="cls-5" x="449.19" y="0.75" width="31.73" height="78.69"/><rect class="cls-6" x="449.19" y="0.75" width="31.73" height="78.69"/><text class="cls-7" transform="translate(153.09 170.31)">a</text><g class="cls-8"><path class="cls-9" d="M175.48,173.78a7.4,7.4,0,0,1,2.13,5.39,7.65,7.65,0,0,1-.95,3.81,6.91,6.91,0,0,1-2.7,2.68,7.48,7.48,0,0,1-3.72,1,7.05,7.05,0,0,1-3.64-1,7.32,7.32,0,0,1-2.71-2.79,7.53,7.53,0,0,1,0-7.51,7.21,7.21,0,0,1,6.38-3.74A7,7,0,0,1,175.48,173.78Zm2-4v3.42a9.45,9.45,0,0,0-3.26-2.92,8.79,8.79,0,0,0-4.14-1,9.19,9.19,0,0,0-6.78,2.86,9.42,9.42,0,0,0-2.82,6.87,9.6,9.6,0,0,0,2.79,7,9.43,9.43,0,0,0,10.84,1.94,10.24,10.24,0,0,0,3.38-2.75v3.19h2.36V169.78Z" transform="translate(-5.53 -18.06)"/></g><text class="cls-7" transform="translate(313.14 170.31)">a</text><g class="cls-8"><path class="cls-9" d="M335.53,173.78a7.4,7.4,0,0,1,2.13,5.39,7.65,7.65,0,0,1-.95,3.81,6.91,6.91,0,0,1-2.7,2.68,7.48,7.48,0,0,1-3.72,1,7.05,7.05,0,0,1-3.64-1,7.3,7.3,0,0,1-2.7-2.79,7.52,7.52,0,0,1,0-7.51,7.21,7.21,0,0,1,6.38-3.74A7,7,0,0,1,335.53,173.78Zm2-4v3.42a9.43,9.43,0,0,0-3.26-2.92,8.79,8.79,0,0,0-4.14-1,9.19,9.19,0,0,0-6.78,2.86A9.42,9.42,0,0,0,320.5,179a9.6,9.6,0,0,0,2.79,7,9.43,9.43,0,0,0,10.84,1.94,10.24,10.24,0,0,0,3.38-2.75v3.19h2.36V169.78Z" transform="translate(-5.53 -18.06)"/><path d="M21.53,189.36a16.14,16.14,0,0,1-9-2.63,15,15,0,0,1-2.28-23.25A15.86,15.86,0,0,1,21.53,159a22.54,22.54,0,0,1,10.25,2.75v2.44c-3.77-2-7.12-3.1-10.34-3.1a13.28,13.28,0,0,0-7.42,2.2,12.86,12.86,0,0,0-5.75,10.86A13.42,13.42,0,0,0,12,183.43a12.9,12.9,0,0,0,9.43,3.82c3.18,0,6.52-1.08,10.34-3.09v2.48a22,22,0,0,1-10.25,2.71" transform="translate(-5.53 -18.06)"/><path class="cls-9" d="M21.53,189.36a16.14,16.14,0,0,1-9-2.63,15,15,0,0,1-2.28-23.25A15.86,15.86,0,0,1,21.53,159a22.54,22.54,0,0,1,10.25,2.75v2.44c-3.77-2-7.12-3.1-10.34-3.1a13.28,13.28,0,0,0-7.42,2.2,12.86,12.86,0,0,0-5.75,10.86A13.42,13.42,0,0,0,12,183.43a12.9,12.9,0,0,0,9.43,3.82c3.18,0,6.52-1.08,10.34-3.09v2.48A22,22,0,0,1,21.53,189.36Z" transform="translate(-5.53 -18.06)"/><path d="M46.2,169.06a10,10,0,0,1,10.09,10.08,10.22,10.22,0,0,1-3,7.17,9.76,9.76,0,0,1-7.07,2.93,10.09,10.09,0,1,1,0-20.17m0,18.19a8.1,8.1,0,1,0-7.72-8.07,7.84,7.84,0,0,0,7.72,8.07" transform="translate(-5.53 -18.06)"/><path class="cls-9" d="M46.2,169.06a10,10,0,0,1,10.09,10.08,10.22,10.22,0,0,1-3,7.17,9.76,9.76,0,0,1-7.07,2.93,10.09,10.09,0,1,1,0-20.17Zm0,18.19a8.1,8.1,0,1,0-7.72-8.07A7.84,7.84,0,0,0,46.2,187.25Z" transform="translate(-5.53 -18.06)"/><rect x="56.45" y="141.47" width="2.2" height="29.3"/><rect class="cls-9" x="56.45" y="141.47" width="2.2" height="29.3"/><path d="M80,169.06a10.05,10.05,0,0,1,10.09,10.08,10.27,10.27,0,0,1-3,7.17A9.79,9.79,0,0,1,80,189.24a10.09,10.09,0,1,1,0-20.17m0,18.19a8.1,8.1,0,1,0-7.73-8.07A7.85,7.85,0,0,0,80,187.25" transform="translate(-5.53 -18.06)"/><path class="cls-9" d="M80,169.06a10.05,10.05,0,0,1,10.09,10.08,10.27,10.27,0,0,1-3,7.17A9.79,9.79,0,0,1,80,189.24a10.09,10.09,0,1,1,0-20.17Zm0,18.19a8.1,8.1,0,1,0-7.73-8.07A7.85,7.85,0,0,0,80,187.25Z" transform="translate(-5.53 -18.06)"/><path d="M95.58,169.49h2.14v3.1a7.88,7.88,0,0,1,6.45-3.44c2.88,0,4.68,1.15,6,3.94,2.11-2.66,4.25-3.94,6.95-3.94,4.21,0,6.62,2.83,6.62,7.89v11.8h-2.2V178.07c0-4.63-1.5-7-4.68-7-2.53,0-4.63,1.37-6.13,4.07v13.65h-2.15V178.07c0-4.63-1.54-7-4.72-7-2.52,0-4.59,1.37-6.14,4.07v13.65H95.58Z" transform="translate(-5.53 -18.06)"/><path class="cls-9" d="M95.58,169.49h2.14v3.1a7.88,7.88,0,0,1,6.45-3.44c2.88,0,4.68,1.15,6,3.94,2.11-2.66,4.25-3.94,6.95-3.94,4.21,0,6.62,2.83,6.62,7.89v11.8h-2.2V178.07c0-4.63-1.5-7-4.68-7-2.53,0-4.63,1.37-6.13,4.07v13.65h-2.15V178.07c0-4.63-1.54-7-4.72-7-2.52,0-4.59,1.37-6.14,4.07v13.65H95.58Z" transform="translate(-5.53 -18.06)"/><path d="M130.68,159.54h2.06V172a9.21,9.21,0,0,1,6.82-3c4.76,0,8.24,3.91,8.24,9.58,0,6.35-4.33,10.65-10.6,10.65a16.48,16.48,0,0,1-6.52-1.51Zm6.78,27.54c4.63,0,7.91-3.39,7.91-8.37,0-4.6-2.84-7.67-6.53-7.67-2.28,0-4.29,1.11-6.09,3.44v11.07a7,7,0,0,0,4.72,1.54" transform="translate(-5.53 -18.06)"/><path class="cls-9" d="M130.68,159.54h2.06V172a9.21,9.21,0,0,1,6.82-3c4.76,0,8.24,3.91,8.24,9.58,0,6.35-4.33,10.65-10.6,10.65a16.48,16.48,0,0,1-6.52-1.51Zm6.78,27.54c4.63,0,7.91-3.39,7.91-8.37,0-4.6-2.84-7.67-6.53-7.67-2.28,0-4.29,1.11-6.09,3.44v11.07A7,7,0,0,0,137.45,187.08Z" transform="translate(-5.53 -18.06)"/><path d="M153.5,159.54h2.18v3.55H153.5Zm0,10h2.18v19.35H153.5Z" transform="translate(-5.53 -18.06)"/><path class="cls-9" d="M153.5,159.53h2.18v3.55H153.5Zm0,10h2.18v19.35H153.5Z" transform="translate(-5.53 -18.06)"/><path d="M209.56,189.36a16.23,16.23,0,0,1-9-2.63,15,15,0,0,1-2.27-23.25A15.89,15.89,0,0,1,209.56,159a22.62,22.62,0,0,1,10.27,2.75v2.44c-3.77-2-7.12-3.1-10.35-3.1a13.29,13.29,0,0,0-7.42,2.2,12.88,12.88,0,0,0-5.75,10.86,13.37,13.37,0,0,0,3.74,9.27,12.9,12.9,0,0,0,9.44,3.82c3.19,0,6.52-1.08,10.35-3.09v2.48a22.07,22.07,0,0,1-10.27,2.71" transform="translate(-5.53 -18.06)"/><path class="cls-9" d="M209.56,189.36a16.23,16.23,0,0,1-9-2.63,15,15,0,0,1-2.27-23.25A15.89,15.89,0,0,1,209.56,159a22.62,22.62,0,0,1,10.27,2.75v2.44c-3.77-2-7.12-3.1-10.35-3.1a13.29,13.29,0,0,0-7.42,2.2,12.88,12.88,0,0,0-5.75,10.86,13.37,13.37,0,0,0,3.74,9.27,12.9,12.9,0,0,0,9.44,3.82c3.19,0,6.52-1.08,10.35-3.09v2.48A22.07,22.07,0,0,1,209.56,189.36Z" transform="translate(-5.53 -18.06)"/><path d="M234.25,169.06a10,10,0,0,1,10.07,10.08,10.2,10.2,0,0,1-3,7.17,9.72,9.72,0,0,1-7.06,2.93,10.09,10.09,0,0,1,0-20.17m0,18.19a8.1,8.1,0,1,0-7.74-8.07,7.84,7.84,0,0,0,7.74,8.07" transform="translate(-5.53 -18.06)"/><path class="cls-9" d="M234.25,169.06a10,10,0,0,1,10.07,10.08,10.2,10.2,0,0,1-3,7.17,9.72,9.72,0,0,1-7.06,2.93,10.09,10.09,0,0,1,0-20.17Zm0,18.19a8.1,8.1,0,1,0-7.74-8.07A7.84,7.84,0,0,0,234.25,187.25Z" transform="translate(-5.53 -18.06)"/><path d="M249.86,169.49H252v3.1a7.87,7.87,0,0,1,6.44-3.44c2.88,0,4.68,1.15,6,3.94,2.11-2.66,4.25-3.94,7-3.94,4.21,0,6.61,2.83,6.61,7.89v11.8h-2.18V178.07c0-4.63-1.5-7-4.69-7-2.52,0-4.64,1.37-6.13,4.07v13.65h-2.15V178.07c0-4.63-1.55-7-4.71-7-2.54,0-4.6,1.37-6.15,4.07v13.65h-2.14Z" transform="translate(-5.53 -18.06)"/><path class="cls-9" d="M249.86,169.49H252v3.1a7.87,7.87,0,0,1,6.44-3.44c2.88,0,4.68,1.15,6,3.94,2.11-2.66,4.25-3.94,7-3.94,4.21,0,6.61,2.83,6.61,7.89v11.8h-2.18V178.07c0-4.63-1.5-7-4.69-7-2.52,0-4.64,1.37-6.13,4.07v13.65h-2.15V178.07c0-4.63-1.55-7-4.71-7-2.54,0-4.6,1.37-6.15,4.07v13.65h-2.14Z" transform="translate(-5.53 -18.06)"/><path d="M285,169.49H287v1.37a8.64,8.64,0,0,1,5.44-1.75c5.62,0,9.48,4,9.48,10s-3.86,10-9.48,10a8.58,8.58,0,0,1-5.44-1.72v11.13H285ZM287,185.11a6.71,6.71,0,0,0,5.2,2.19c4.19,0,7.32-3.19,7.32-8.11s-3.13-8.11-7.32-8.11a6.65,6.65,0,0,0-5.2,2.2Z" transform="translate(-5.53 -18.06)"/><path class="cls-9" d="M285,169.49H287v1.37a8.64,8.64,0,0,1,5.44-1.75c5.62,0,9.48,4,9.48,10s-3.86,10-9.48,10a8.58,8.58,0,0,1-5.44-1.72v11.13H285ZM287,185.11a6.71,6.71,0,0,0,5.2,2.19c4.19,0,7.32-3.19,7.32-8.11s-3.13-8.11-7.32-8.11a6.65,6.65,0,0,0-5.2,2.2Z" transform="translate(-5.53 -18.06)"/><path d="M307.82,169.49H310v4.76c2.22-3.39,4.08-5.1,6.4-5.1a5.12,5.12,0,0,1,3.41,1.45l-1.14,2.07a4.92,4.92,0,0,0-3-1.38c-1.86,0-3.57,1.8-5.67,5.32v12.22h-2.15Z" transform="translate(-5.53 -18.06)"/><path class="cls-9" d="M307.82,169.49H310v4.76c2.22-3.39,4.08-5.1,6.4-5.1a5.12,5.12,0,0,1,3.41,1.45l-1.14,2.07a4.92,4.92,0,0,0-3-1.38c-1.86,0-3.57,1.8-5.67,5.32v12.22h-2.15Z" transform="translate(-5.53 -18.06)"/><polygon points="350.68 141.47 366.57 141.47 366.57 143.36 353.05 143.36 353.05 155 366.13 155 366.13 156.87 353.05 156.87 353.05 168.8 366.9 168.8 366.9 170.78 350.68 170.78 350.68 141.47"/><polygon class="cls-9" points="350.68 141.47 366.57 141.47 366.57 143.36 353.05 143.36 353.05 155 366.13 155 366.13 156.87 353.05 156.87 353.05 168.8 366.9 168.8 366.9 170.78 350.68 170.78 350.68 141.47"/><path d="M378.57,171.3h-3.35v-1.81h3.35v-2.14c0-5.5,2-8.16,6.61-8.16a9.8,9.8,0,0,1,2.09.26v1.85a7.52,7.52,0,0,0-1.83-.22c-3.49,0-4.69,1.76-4.69,5.67v2.75h3.57v1.81h-3.57v17.54h-2.19Z" transform="translate(-5.53 -18.06)"/><path class="cls-9" d="M378.57,171.3h-3.35v-1.81h3.35v-2.14c0-5.5,2-8.16,6.61-8.16a9.8,9.8,0,0,1,2.09.26v1.85a7.52,7.52,0,0,0-1.83-.22c-3.49,0-4.69,1.76-4.69,5.67v2.75h3.57v1.81h-3.57v17.54h-2.19Z" transform="translate(-5.53 -18.06)"/><path d="M388.91,159.54h2.18v3.55h-2.18Zm0,10h2.18v19.35h-2.18Z" transform="translate(-5.53 -18.06)"/><path class="cls-9" d="M388.91,159.53h2.18v3.55h-2.18Zm0,10h2.18v19.35h-2.18Z" transform="translate(-5.53 -18.06)"/><path d="M407.14,189.24a9.77,9.77,0,0,1-10.21-10.1,10,10,0,0,1,10.38-10.08,11.68,11.68,0,0,1,4.34.86v2.4a8.94,8.94,0,0,0-4.63-1.24,8.1,8.1,0,0,0,0,16.18,9.66,9.66,0,0,0,5-1.59v2.41a11,11,0,0,1-4.89,1.17" transform="translate(-5.53 -18.06)"/><path class="cls-9" d="M407.14,189.24a9.77,9.77,0,0,1-10.21-10.1,10,10,0,0,1,10.38-10.08,11.68,11.68,0,0,1,4.34.86v2.4a8.94,8.94,0,0,0-4.63-1.24,8.1,8.1,0,0,0,0,16.18,9.66,9.66,0,0,0,5-1.59v2.41A11,11,0,0,1,407.14,189.24Z" transform="translate(-5.53 -18.06)"/><path d="M417.27,159.54h2.19v3.55h-2.19Zm0,10h2.19v19.35h-2.19Z" transform="translate(-5.53 -18.06)"/><path class="cls-9" d="M417.27,159.53h2.19v3.55h-2.19Zm0,10h2.19v19.35h-2.19Z" transform="translate(-5.53 -18.06)"/><path d="M435,189.27c-5.79,0-9.62-4.11-9.62-10.42,0-5.88,3.66-9.73,9-9.73,4.94,0,8.36,3.6,8.36,9.26v.09H427.66v.21c0,5.2,3.08,8.51,7.28,8.51a11.89,11.89,0,0,0,7.43-2.84v2.36a12.57,12.57,0,0,1-7.38,2.57m5.23-12.65c-.48-3.47-2.91-5.67-6-5.67a6.37,6.37,0,0,0-6.3,5.67Z" transform="translate(-5.53 -18.06)"/><path class="cls-9" d="M435,189.27c-5.79,0-9.62-4.11-9.62-10.42,0-5.88,3.66-9.73,9-9.73,4.94,0,8.36,3.6,8.36,9.26v.09H427.66v.21c0,5.2,3.08,8.51,7.28,8.51a11.89,11.89,0,0,0,7.43-2.84v2.36A12.57,12.57,0,0,1,435,189.27Zm5.23-12.65c-.48-3.47-2.91-5.67-6-5.67a6.37,6.37,0,0,0-6.3,5.67Z" transform="translate(-5.53 -18.06)"/><path d="M448.68,169.49h2.15v3.1a8.3,8.3,0,0,1,6.7-3.44c4.38,0,6.85,2.83,6.85,7.89v11.8h-2.15V178.07c0-4.63-1.59-7-4.93-7-2.67,0-4.85,1.37-6.48,4.07v13.65h-2.15Z" transform="translate(-5.53 -18.06)"/><path class="cls-9" d="M448.68,169.49h2.15v3.1a8.3,8.3,0,0,1,6.7-3.44c4.38,0,6.85,2.83,6.85,7.89v11.8h-2.15V178.07c0-4.63-1.59-7-4.93-7-2.67,0-4.85,1.37-6.48,4.07v13.65h-2.15Z" transform="translate(-5.53 -18.06)"/><path d="M476.7,187.3a6.8,6.8,0,0,0,3.21-1v2.1a8.26,8.26,0,0,1-3.51.83c-3.35,0-4.38-1.55-4.38-5.2V171.3H467.9v-1.81h4.21v-4.42l1.63-1.89h.52v6.3h5.19v1.81h-5.19v12.78c0,2.27.34,3.22,2.45,3.22" transform="translate(-5.53 -18.06)"/><path class="cls-9" d="M476.7,187.3a6.8,6.8,0,0,0,3.21-1v2.1a8.26,8.26,0,0,1-3.51.83c-3.35,0-4.38-1.55-4.38-5.2V171.3H467.9v-1.81h4.21v-4.42l1.63-1.89h.52v6.3h5.19v1.81h-5.19v12.78C474.25,186.35,474.59,187.3,476.7,187.3Z" transform="translate(-5.53 -18.06)"/><path d="M492.74,189.27c-5.79,0-9.61-4.11-9.61-10.42,0-5.88,3.65-9.73,9-9.73,4.95,0,8.37,3.6,8.37,9.26v.09H485.4v.21c0,5.2,3.09,8.51,7.29,8.51a11.88,11.88,0,0,0,7.42-2.84v2.36a12.56,12.56,0,0,1-7.38,2.57M498,176.62c-.47-3.47-2.92-5.67-6-5.67a6.4,6.4,0,0,0-6.32,5.67Z" transform="translate(-5.53 -18.06)"/><path class="cls-9" d="M492.74,189.27c-5.79,0-9.61-4.11-9.61-10.42,0-5.88,3.65-9.73,9-9.73,4.95,0,8.37,3.6,8.37,9.26v.09H485.4v.21c0,5.2,3.09,8.51,7.29,8.51a11.88,11.88,0,0,0,7.42-2.84v2.36A12.56,12.56,0,0,1,492.74,189.27ZM498,176.62c-.47-3.47-2.92-5.67-6-5.67a6.4,6.4,0,0,0-6.32,5.67Z" transform="translate(-5.53 -18.06)"/></g></g></g></svg>