<svg xmlns="http://www.w3.org/2000/svg" viewBox="0 0 29.3 17.04"><defs><style>.cls-1,.cls-3{fill:#fff;}.cls-2{fill:none;stroke-width:1.29px;}.cls-2,.cls-3{stroke:#404042;stroke-miterlimit:10;}.cls-3{stroke-width:0.86px;}.cls-4{font-size:5.68px;font-family:MyriadPro-Bold, Myriad Pro;font-weight:700;}.cls-4,.cls-5{fill:#404042;}</style></defs><title>rendicion</title><g id="Capa_2" data-name="Capa 2"><g id="Capa_1-2" data-name="Capa 1"><polyline class="cls-1" points="3.21 11 3.21 2.68 5.26 2.68 5.26 1.22 9.58 1.22 9.58 2.87 21.77 2.81 21.77 6.6"/><polyline class="cls-2" points="3.21 11 3.21 2.68 5.26 2.68 5.26 1.22 9.58 1.22 9.58 2.87 21.77 2.81 21.77 6.6"/><polygon class="cls-1" points="4.58 16.39 19.31 16.39 23.48 6.1 0.91 6.1 4.58 16.39"/><polygon class="cls-2" points="4.58 16.39 19.31 16.39 23.48 6.1 0.91 6.1 4.58 16.39"/><path class="cls-3" d="M25.9,6.19A5.76,5.76,0,1,1,20.13.43,5.76,5.76,0,0,1,25.9,6.19Z"/><text class="cls-4" transform="translate(18.55 8.17)">$</text><rect class="cls-5" x="25.14" y="9.3" width="1.86" height="7.7" transform="translate(-2.22 20.39) rotate(-41.12)"/></g></g></svg>