<svg xmlns="http://www.w3.org/2000/svg" xmlns:xlink="http://www.w3.org/1999/xlink" viewBox="0 0 965.4 136.19"><defs><style>.cls-1,.cls-13,.cls-8{fill:none;}.cls-2{fill:#31a0c8;}.cls-3{fill:#8e3c85;}.cls-4{fill:#352771;}.cls-5{fill:#3fa2b1;}.cls-11,.cls-6{fill:#070308;}.cls-7{fill:#e0a423;}.cls-8{stroke:#fff;stroke-width:1.5px;}.cls-13,.cls-8{stroke-miterlimit:10;}.cls-9{fill:#294994;}.cls-10{fill:#c3393a;}.cls-11{isolation:isolate;font-size:25.7px;font-family:CenturyGothic, Century Gothic;}.cls-12{clip-path:url(#clip-path);}.cls-13{stroke:#070308;stroke-width:0.34px;}</style><clipPath id="clip-path" transform="translate(-4.05 -10)"><rect class="cls-1" width="371.68" height="150"/></clipPath></defs><title>Todos</title><g id="Capa_2" data-name="Capa 2"><g id="Capa_1-2" data-name="Capa 1"><g id="Capa_2-2" data-name="Capa 2"><g id="Capa_1-2-2" data-name="Capa 1-2"><g id="_Grupo_" data-name=" Grupo "><g id="_Grupo_2" data-name=" Grupo 2"><path id="_Trazado_" data-name=" Trazado " class="cls-2" d="M887.45,111.18a12,12,0,1,1-23.9-1.47,12.56,12.56,0,0,1,.9-3.85L846,86.05a12,12,0,0,1-15.47-1.31l-14.25,7V140h89.15V100.38Z" transform="translate(-4.05 -10)"/><path id="_Trazado_2" data-name=" Trazado 2" class="cls-3" d="M827.12,77.13v-.82a12,12,0,0,1,24,.08,13.67,13.67,0,0,1-.25,2.54l19.32,20.79A12,12,0,0,1,884.92,103l20.54-12.28V33.82H816.31V82.37Z" transform="translate(-4.05 -10)"/><path id="_Trazado_compuesto_" data-name=" Trazado compuesto " class="cls-4" d="M959.41,44.46a5.08,5.08,0,1,1,5.08-5.07,5.1,5.1,0,0,1-5.08,5.07M922.74,89.41a5.08,5.08,0,1,1,5.07-5.08,5,5,0,0,1-5.07,5.08h0m-47.24,26a5.08,5.08,0,1,1,5.08-5.07h0a5,5,0,0,1-5.08,5.07m-36.43-34a5.08,5.08,0,1,1,5.08-5.08h0a5.11,5.11,0,0,1-5.08,5.08m-49.61,24.23a5.08,5.08,0,1,1,5.08-5.08h0a5.06,5.06,0,0,1-5.08,5.08M959.41,29.4a10.1,10.1,0,0,0-10.07,10,10.3,10.3,0,0,0,2.7,6.88L929.2,76.8A10,10,0,0,0,915.12,78a10.09,10.09,0,0,0-1.63,10.23l-29.23,17.44a10.07,10.07,0,0,0-13.59-4c-.33.16-.65.41-1,.57L848.57,79.42a10,10,0,1,0-19.32-1.06L797.08,94.07a10,10,0,1,0,2.45,6.55A13,13,0,0,0,799.2,98l31.93-15.55a10,10,0,0,0,14,2,5.49,5.49,0,0,0,1.06-1l20.63,22.19a10,10,0,1,0,17.44,9.74,10.14,10.14,0,0,0,1.31-4.83v-.41l30.54-18.26a10.06,10.06,0,0,0,14.16-.65,9.94,9.94,0,0,0,1.8-10.64L955.81,48.8a10,10,0,0,0,7.29-18.58,8.41,8.41,0,0,0-3.69-.82" transform="translate(-4.05 -10)"/><path id="_Trazado_3" data-name=" Trazado 3" class="cls-4" d="M934.2,80.81a11.95,11.95,0,0,1-18.26,13.35l-5.15,3.11v20.22h27.58V75.33Z" transform="translate(-4.05 -10)"/><path id="_Trazado_4" data-name=" Trazado 4" class="cls-5" d="M910.7,87.53l.41-.25a12.34,12.34,0,0,1-.32-3,12,12,0,0,1,12-12,11.69,11.69,0,0,1,6,1.64l9.49-12.69V10H849.14V30.06h61.65Z" transform="translate(-4.05 -10)"/></g></g></g></g><path class="cls-2" d="M609.38,115.61c-.91-4.16-4-6.24-8.19-6.24-6.89,0-9.88,5.72-9.88,11.7,0,6.63,3,12.22,9.88,12.22,5.07,0,8.06-3.64,8.32-8.32h3.9c-.78,7.28-5.2,11.7-12.61,11.7-9,0-13.39-6.63-13.39-15.08s4.81-15.34,13.78-15.34c6.11,0,11,3.25,12,9.49h-3.77Z" transform="translate(-4.05 -10)"/><path class="cls-2" d="M633,106.12c9.23,0,13.91,7.28,13.91,15.21s-4.68,15.21-13.91,15.21-13.91-7.28-13.91-15.21S623.81,106.12,633,106.12Zm0,27.17c7,0,10-6.11,10-12s-3-12-10-12-10,6.11-10,12S626,133.29,633,133.29Z" transform="translate(-4.05 -10)"/><path class="cls-2" d="M654.23,106.9h5.33l9.1,24.44,9.23-24.44h5.33v29h-3.64V111.71h-.13l-9.1,24.18H667.1L658,111.71h-.13v24.18h-3.64Z" transform="translate(-4.05 -10)"/><path class="cls-2" d="M691.93,106.9h12.74c5.85,0,9,3.12,9,8.58s-3.12,8.58-9,8.58h-8.84v11.83h-3.9Zm3.9,13.91h7.54c4.42,0,6.37-1.82,6.37-5.33s-2-5.33-6.37-5.33h-7.54Z" transform="translate(-4.05 -10)"/><path class="cls-2" d="M720.79,106.9h13.65c5.46,0,8.84,3,8.84,7.67,0,3.51-1.56,6.37-5.07,7.41v.13c3.38.65,4,3.12,4.29,6s.13,6.11,1.69,8.06H739.9c-1-1.17-.52-4.29-1-7.15s-1-5.2-4.81-5.2h-9.49v12.35h-3.9V106.9Zm12,13.39c3.64,0,6.76-.91,6.76-5.2,0-2.86-1.56-4.94-5.2-4.94h-9.62v10.14Z" transform="translate(-4.05 -10)"/><path class="cls-2" d="M759,106.9h4.29l11.31,29h-4.29l-3.12-8.71H754.85l-3.25,8.71h-4Zm-2.86,17H766l-4.81-13.52h-.13Z" transform="translate(-4.05 -10)"/><path class="cls-4" d="M566.87,75.75c-.91-4.16-4-6.24-8.19-6.24-6.89,0-9.88,5.72-9.88,11.7,0,6.63,3,12.22,9.88,12.22,5.07,0,8.06-3.64,8.32-8.32h3.9c-.78,7.28-5.2,11.7-12.61,11.7-9,0-13.39-6.63-13.39-15.08s4.81-15.34,13.78-15.34c6.11,0,11.05,3.25,12,9.49h-3.77Z" transform="translate(-4.05 -10)"/><path class="cls-4" d="M590.53,66.26c9.23,0,13.91,7.28,13.91,15.21s-4.68,15.21-13.91,15.21-13.91-7.28-13.91-15.21S581.3,66.26,590.53,66.26Zm0,27.17c7,0,10-6.11,10-12s-3-12-10-12-10,6.11-10,12S583.51,93.43,590.53,93.43Z" transform="translate(-4.05 -10)"/><path class="cls-4" d="M611.59,67h3.9V92.78h15.34V96H611.59Z" transform="translate(-4.05 -10)"/><path class="cls-4" d="M648.9,66.26c9.23,0,13.91,7.28,13.91,15.21s-4.68,15.21-13.91,15.21S635,89.4,635,81.47,639.67,66.26,648.9,66.26Zm0,27.17c7,0,10-6.11,10-12s-3-12-10-12-10,6.11-10,12S641.88,93.43,648.9,93.43Z" transform="translate(-4.05 -10)"/><path class="cls-4" d="M670.09,67h5.33l9.1,24.44L693.75,67h5.33V96h-3.77V71.85h0L686.21,96H683l-9.1-24.18h-.13V96h-3.64Z" transform="translate(-4.05 -10)"/><path class="cls-4" d="M707.92,67h10.53c2.47,0,6,0,7.67,1a6.74,6.74,0,0,1,3.38,6.11,6.54,6.54,0,0,1-4.29,6.5v.13a6.67,6.67,0,0,1,5.59,7c0,4.29-3.12,8.32-8.84,8.32h-14Zm3.9,12.48h7.67c4.42,0,6.24-1.56,6.24-4.68,0-4-2.86-4.55-6.24-4.55h-7.67Zm0,13.26h9.62c3.38,0,5.46-2,5.46-5.2,0-3.77-3-4.81-6.37-4.81h-8.84v10Z" transform="translate(-4.05 -10)"/><path class="cls-4" d="M738.34,67h3.9V96h-3.9Z" transform="translate(-4.05 -10)"/><path class="cls-4" d="M759,67h4.29l11.31,29h-4.29l-3.12-8.71H754.85L751.6,96h-4Zm-2.86,17H766l-4.81-13.52h-.13Z" transform="translate(-4.05 -10)"/><g id="Capa_2-3" data-name="Capa 2"><g id="Capa_1-2-3" data-name="Capa 1-2"><rect class="cls-6" x="0.13" y="4.91" width="4.41" height="96.17"/><rect class="cls-6" x="13.99" y="4.91" width="1.96" height="82.41"/><rect class="cls-6" x="24.52" y="4.91" width="1.95" height="82.41"/><rect class="cls-6" x="33.14" y="4.91" width="2.19" height="82.41"/><rect class="cls-6" x="48.3" y="4.91" width="2.2" height="82.41"/><rect class="cls-6" x="56.79" y="4.91" width="2.2" height="82.41"/><rect class="cls-6" x="71.95" y="4.91" width="2.2" height="82.41"/><rect class="cls-6" x="87.37" y="4.91" width="2.2" height="82.41"/><rect class="cls-6" x="95.84" y="4.91" width="2.2" height="82.41"/><rect class="cls-6" x="167.29" y="4.91" width="2.2" height="82.41"/><rect class="cls-6" x="184.82" y="4.91" width="2.33" height="96.17"/><rect class="cls-6" x="297.73" y="4.91" width="1.89" height="82.41"/><rect class="cls-6" x="191.26" y="4.91" width="2.33" height="82.41"/><rect class="cls-6" x="214.89" y="4.91" width="2.33" height="82.41"/><rect class="cls-6" x="239.06" y="4.91" width="2.33" height="82.41"/><rect class="cls-6" x="271.44" y="4.91" width="2.33" height="82.41"/><rect class="cls-6" x="304.07" y="4.91" width="2.33" height="82.41"/><rect class="cls-6" x="354.6" y="4.91" width="2.33" height="96.17"/><rect class="cls-6" x="262.97" y="4.91" width="4.1" height="82.41"/><rect class="cls-6" x="359.23" y="4.91" width="4.1" height="96.17"/><rect class="cls-6" x="286.61" y="4.91" width="4.1" height="82.41"/><rect class="cls-6" x="326.39" y="4.91" width="2.18" height="82.41"/><rect class="cls-6" x="310.26" y="4.91" width="4.09" height="82.41"/><rect class="cls-6" x="335.07" y="4.91" width="4.61" height="82.41"/><rect class="cls-6" x="345.87" y="4.91" width="6.67" height="82.41"/><rect class="cls-6" x="221.86" y="4.91" width="4.1" height="82.41"/><rect class="cls-6" x="154.45" y="4.91" width="2.2" height="82.41"/><rect class="cls-6" x="119.75" y="4.91" width="2.2" height="82.41"/><rect class="cls-6" x="163.05" y="4.91" width="2.47" height="82.41"/><rect class="cls-6" x="143.76" y="4.91" width="4.02" height="82.41"/><rect class="cls-6" x="206.74" y="4.91" width="6.04" height="82.41"/><rect class="cls-6" x="243.49" y="4.91" width="6.04" height="82.41"/><rect class="cls-6" x="278.18" y="4.91" width="6.05" height="82.41"/><rect class="cls-6" x="317.25" y="4.91" width="6.05" height="82.41"/><rect class="cls-6" x="228.33" y="4.91" width="6.04" height="82.41"/><rect class="cls-6" x="172.03" y="4.91" width="4.03" height="96.17"/><rect class="cls-6" x="42.28" y="4.91" width="3.7" height="82.41"/><rect class="cls-6" x="65.93" y="4.91" width="3.71" height="82.41"/><rect class="cls-6" x="81.1" y="4.91" width="3.94" height="82.41"/><rect class="cls-6" x="102.68" y="4.91" width="3.94" height="82.41"/><rect class="cls-6" x="109.16" y="4.91" width="6.15" height="82.41"/><rect class="cls-6" x="133.06" y="4.91" width="8.46" height="82.41"/><rect class="cls-6" x="196.01" y="4.91" width="8.47" height="82.41"/><rect class="cls-6" x="252.04" y="4.91" width="8.46" height="82.41"/><rect class="cls-6" x="124.32" y="4.91" width="6.15" height="82.41"/><rect class="cls-6" x="6.78" y="4.91" width="2" height="96.17"/><rect class="cls-7" x="206.22" y="42.07" width="55.34" height="59.45"/><rect class="cls-8" x="206.22" y="42.07" width="55.34" height="59.45"/><rect class="cls-9" x="285.89" y="24.66" width="23.14" height="63.78"/><rect class="cls-8" x="285.89" y="24.66" width="23.14" height="63.78"/><rect class="cls-10" x="329.82" y="3.81" width="23.3" height="57.78"/><rect class="cls-8" x="329.82" y="3.81" width="23.3" height="57.78"/><text class="cls-11" transform="translate(112.41 128.31)">a</text><g class="cls-12"><path class="cls-13" d="M128.85,127.6a5.45,5.45,0,0,1,1.56,4,5.56,5.56,0,0,1-.7,2.79,5.07,5.07,0,0,1-2,2,5.56,5.56,0,0,1-2.73.74,5.21,5.21,0,0,1-2.67-.74,5.3,5.3,0,0,1-2-2,5.48,5.48,0,0,1,0-5.51A5.29,5.29,0,0,1,125,126,5.17,5.17,0,0,1,128.85,127.6Zm1.46-2.94v2.51a6.83,6.83,0,0,0-2.39-2.14,6.56,6.56,0,0,0-3-.74,6.79,6.79,0,0,0-5,2.1,6.93,6.93,0,0,0-2.07,5,7.09,7.09,0,0,0,2,5.14,6.92,6.92,0,0,0,8,1.42,7.34,7.34,0,0,0,2.48-2v2.35h1.73V124.66Z" transform="translate(-4.05 -10)"/></g><text class="cls-11" transform="translate(229.93 128.31)">a</text><g class="cls-12"><path class="cls-13" d="M246.36,127.6a5.42,5.42,0,0,1,1.57,4,5.67,5.67,0,0,1-.7,2.79,5.07,5.07,0,0,1-2,2,5.59,5.59,0,0,1-2.73.74,5.25,5.25,0,0,1-2.68-.74,5.34,5.34,0,0,1-2-2,5.53,5.53,0,0,1,0-5.51,5.31,5.31,0,0,1,4.68-2.75A5.13,5.13,0,0,1,246.36,127.6Zm1.47-2.94v2.51a7,7,0,0,0-2.39-2.14,6.56,6.56,0,0,0-3-.74,6.77,6.77,0,0,0-5,2.1,6.94,6.94,0,0,0-2.09,5,7,7,0,0,0,2,5.14,6.92,6.92,0,0,0,8,1.43,7.69,7.69,0,0,0,2.48-2v2.34h1.73V124.66Z" transform="translate(-4.05 -10)"/><path class="cls-6" d="M15.81,139a11.9,11.9,0,0,1-6.61-1.93A11,11,0,0,1,6,121.86,10.45,10.45,0,0,1,7.53,120a11.57,11.57,0,0,1,8.28-3.29,16.5,16.5,0,0,1,7.52,2v1.8a16.31,16.31,0,0,0-7.59-2.28,9.8,9.8,0,0,0-5.45,1.62,9.47,9.47,0,0,0-4.22,8,9.82,9.82,0,0,0,2.74,6.81,9.47,9.47,0,0,0,6.92,2.81,16.47,16.47,0,0,0,7.6-2.27V137a16.15,16.15,0,0,1-7.53,2" transform="translate(-4.05 -10)"/><path class="cls-13" d="M15.81,139a11.9,11.9,0,0,1-6.61-1.93A11,11,0,0,1,6,121.86,10.45,10.45,0,0,1,7.53,120a11.57,11.57,0,0,1,8.28-3.29,16.5,16.5,0,0,1,7.52,2v1.8a16.31,16.31,0,0,0-7.59-2.28,9.8,9.8,0,0,0-5.45,1.62,9.47,9.47,0,0,0-4.22,8,9.82,9.82,0,0,0,2.74,6.81,9.47,9.47,0,0,0,6.92,2.81,16.47,16.47,0,0,0,7.6-2.27V137A16.24,16.24,0,0,1,15.81,139Z" transform="translate(-4.05 -10)"/><path class="cls-6" d="M33.92,124.13a7.35,7.35,0,0,1,7.41,7.28v.12a7.5,7.5,0,0,1-2.2,5.27A7.19,7.19,0,0,1,33.94,139a7.41,7.41,0,1,1-.47-14.81,3.69,3.69,0,0,1,.47,0m0,13.36a6,6,0,1,0-5.66-6.22,2.71,2.71,0,0,0,0,.29,5.75,5.75,0,0,0,5.58,5.92h.09" transform="translate(-4.05 -10)"/><path class="cls-13" d="M33.92,124.13a7.35,7.35,0,0,1,7.41,7.28v.12a7.5,7.5,0,0,1-2.2,5.27A7.19,7.19,0,0,1,33.94,139a7.41,7.41,0,1,1-.47-14.81,3.69,3.69,0,0,1,.47,0Zm0,13.36a5.95,5.95,0,1,0-5.66-6.22c0,.1,0,.19,0,.29a5.77,5.77,0,0,0,5.59,5.93Z" transform="translate(-4.05 -10)"/><rect class="cls-6" x="41.45" y="107.13" width="1.62" height="21.51"/><rect class="cls-13" x="41.45" y="107.13" width="1.62" height="21.51"/><path class="cls-6" d="M58.74,124.13a7.39,7.39,0,0,1,7.41,7.35v.05A7.59,7.59,0,0,1,64,136.8,7.21,7.21,0,0,1,58.74,139a7.41,7.41,0,1,1-.47-14.81,3.69,3.69,0,0,1,.47,0m0,13.36a6,6,0,1,0-5.67-6.22c0,.1,0,.19,0,.29a5.78,5.78,0,0,0,5.61,5.92h.07" transform="translate(-4.05 -10)"/><path class="cls-13" d="M58.74,124.13a7.39,7.39,0,0,1,7.41,7.35v.05A7.59,7.59,0,0,1,64,136.8,7.21,7.21,0,0,1,58.74,139a7.41,7.41,0,1,1-.47-14.81,3.69,3.69,0,0,1,.47,0Zm0,13.36a5.95,5.95,0,1,0-5.67-6.21c0,.09,0,.19,0,.28a5.77,5.77,0,0,0,5.6,5.93Z" transform="translate(-4.05 -10)"/><path class="cls-6" d="M70.18,124.45h1.57v2.27a5.79,5.79,0,0,1,4.74-2.52,4.39,4.39,0,0,1,4.4,2.89c1.55-2,3.12-2.89,5.11-2.89,3.09,0,4.86,2.08,4.86,5.79v8.67H89.24v-7.91c0-3.4-1.1-5.14-3.44-5.14a5.07,5.07,0,0,0-4.5,3v10H79.72v-7.87c0-3.4-1.13-5.14-3.46-5.14-1.85,0-3.37,1-4.51,3v10H70.18Z" transform="translate(-4.05 -10)"/><path class="cls-13" d="M70.18,124.45h1.57v2.27a5.79,5.79,0,0,1,4.74-2.52,4.39,4.39,0,0,1,4.4,2.89c1.55-2,3.12-2.89,5.11-2.89,3.09,0,4.86,2.08,4.86,5.79v8.67H89.24v-7.91c0-3.4-1.1-5.14-3.44-5.14a5.07,5.07,0,0,0-4.5,3v10H79.72v-7.87c0-3.4-1.13-5.14-3.46-5.14-1.85,0-3.37,1-4.51,3v10H70.18Z" transform="translate(-4.05 -10)"/><path class="cls-6" d="M96,117.14h1.51v9.15a6.75,6.75,0,0,1,5-2.2c3.5,0,6,2.87,6,7a7.42,7.42,0,0,1-7.78,7.82A12,12,0,0,1,96,137.83Zm5,20.22c3.4,0,5.81-2.49,5.81-6.14,0-3.38-2.09-5.63-4.8-5.63a5.57,5.57,0,0,0-4.47,2.52v8.13a5.13,5.13,0,0,0,3.47,1.13" transform="translate(-4.05 -10)"/><path class="cls-13" d="M96,117.14h1.51v9.15a6.75,6.75,0,0,1,5-2.2c3.5,0,6,2.87,6,7a7.42,7.42,0,0,1-7.78,7.82A12,12,0,0,1,96,137.83Zm5,20.22c3.4,0,5.81-2.49,5.81-6.14,0-3.38-2.09-5.63-4.8-5.63a5.57,5.57,0,0,0-4.47,2.52v8.13a5.14,5.14,0,0,0,3.45,1.12Z" transform="translate(-4.05 -10)"/><path class="cls-6" d="M112.71,117.14h1.6v2.61h-1.6Zm0,7.34h1.6v14.21h-1.6Z" transform="translate(-4.05 -10)"/><path class="cls-13" d="M112.71,117.13h1.6v2.61h-1.6Zm0,7.35h1.6v14.21h-1.6Z" transform="translate(-4.05 -10)"/><path class="cls-6" d="M153.87,139a11.92,11.92,0,0,1-6.61-1.93,11,11,0,0,1-3.16-15.25,10.86,10.86,0,0,1,1.49-1.82,11.67,11.67,0,0,1,8.28-3.29,16.58,16.58,0,0,1,7.54,2v1.8a16.38,16.38,0,0,0-7.6-2.28,9.78,9.78,0,0,0-5.45,1.62,9.47,9.47,0,0,0-4.22,8,9.83,9.83,0,0,0,2.75,6.81,9.45,9.45,0,0,0,6.93,2.8,16.47,16.47,0,0,0,7.6-2.27V137a16.22,16.22,0,0,1-7.54,2" transform="translate(-4.05 -10)"/><path class="cls-13" d="M153.87,139a11.92,11.92,0,0,1-6.61-1.93,11,11,0,0,1-3.16-15.25,10.86,10.86,0,0,1,1.49-1.82,11.67,11.67,0,0,1,8.28-3.29,16.58,16.58,0,0,1,7.54,2v1.8a16.38,16.38,0,0,0-7.6-2.28,9.78,9.78,0,0,0-5.45,1.62,9.47,9.47,0,0,0-4.22,8,9.83,9.83,0,0,0,2.75,6.81,9.45,9.45,0,0,0,6.93,2.8,16.47,16.47,0,0,0,7.6-2.27V137A16.25,16.25,0,0,1,153.87,139Z" transform="translate(-4.05 -10)"/><path class="cls-6" d="M172,124.13a7.34,7.34,0,0,1,7.39,7.29v.11a7.5,7.5,0,0,1-2.2,5.27A7.16,7.16,0,0,1,172,139a7.41,7.41,0,0,1,0-14.81m0,13.36a6,6,0,1,0-5.68-6.21,2.62,2.62,0,0,0,0,.28,5.76,5.76,0,0,0,5.59,5.92h.1" transform="translate(-4.05 -10)"/><path class="cls-13" d="M172,124.13a7.34,7.34,0,0,1,7.39,7.29v.11a7.5,7.5,0,0,1-2.2,5.27A7.16,7.16,0,0,1,172,139a7.41,7.41,0,0,1,0-14.81Zm0,13.36a5.95,5.95,0,1,0-5.68-6.21,2.61,2.61,0,0,0,0,.28,5.76,5.76,0,0,0,5.58,5.93Z" transform="translate(-4.05 -10)"/><path class="cls-6" d="M183.46,124.45H185v2.27a5.78,5.78,0,0,1,4.73-2.52,4.4,4.4,0,0,1,4.41,2.89c1.54-2,3.12-2.89,5.13-2.89,3.1,0,4.86,2.08,4.86,5.79v8.67h-1.6v-7.91c0-3.4-1.1-5.14-3.45-5.14a5.07,5.07,0,0,0-4.5,3v10H193v-7.87c0-3.4-1.13-5.14-3.45-5.14q-2.81,0-4.52,3v10h-1.57Z" transform="translate(-4.05 -10)"/><path class="cls-13" d="M183.46,124.45H185v2.27a5.78,5.78,0,0,1,4.73-2.52,4.4,4.4,0,0,1,4.41,2.89c1.54-2,3.12-2.89,5.13-2.89,3.1,0,4.86,2.08,4.86,5.79v8.67h-1.6v-7.91c0-3.4-1.1-5.14-3.45-5.14a5.07,5.07,0,0,0-4.5,3v10H193v-7.87c0-3.4-1.13-5.14-3.45-5.14q-2.81,0-4.52,3v10h-1.57Z" transform="translate(-4.05 -10)"/><path class="cls-6" d="M209.26,124.45h1.47v1a6.39,6.39,0,0,1,4-1.28c4.13,0,7,2.94,7,7.34s-2.83,7.34-7,7.34a6.25,6.25,0,0,1-4-1.26v8.17h-1.47Zm1.47,11.47a4.93,4.93,0,0,0,3.82,1.61c3.07,0,5.37-2.35,5.37-6s-2.3-5.95-5.37-5.95a4.86,4.86,0,0,0-3.82,1.61Z" transform="translate(-4.05 -10)"/><path class="cls-13" d="M209.26,124.45h1.47v1a6.39,6.39,0,0,1,4-1.28c4.13,0,7,2.94,7,7.34s-2.83,7.34-7,7.34a6.25,6.25,0,0,1-4-1.26v8.17h-1.47Zm1.47,11.47a4.93,4.93,0,0,0,3.82,1.61c3.07,0,5.37-2.35,5.37-6s-2.3-5.95-5.37-5.95a4.86,4.86,0,0,0-3.82,1.61Z" transform="translate(-4.05 -10)"/><path class="cls-6" d="M226,124.45h1.6v3.49c1.63-2.49,3-3.74,4.7-3.74a3.76,3.76,0,0,1,2.5,1.06l-.84,1.52a3.57,3.57,0,0,0-2.2-1c-1.36,0-2.62,1.32-4.16,3.91v9H226Z" transform="translate(-4.05 -10)"/><path class="cls-13" d="M226,124.45h1.6v3.49c1.63-2.49,3-3.74,4.7-3.74a3.76,3.76,0,0,1,2.5,1.06l-.84,1.52a3.57,3.57,0,0,0-2.2-1c-1.36,0-2.62,1.32-4.16,3.91v9H226Z" transform="translate(-4.05 -10)"/><polygon class="cls-6" points="257.49 107.14 269.16 107.14 269.16 108.52 259.23 108.52 259.23 117.07 268.84 117.07 268.84 118.44 259.23 118.44 259.23 127.2 269.4 127.2 269.4 128.66 257.49 128.66 257.49 107.14"/><polygon class="cls-13" points="257.49 107.14 269.16 107.14 269.16 108.52 259.23 108.52 259.23 117.07 268.84 117.07 268.84 118.44 259.23 118.44 259.23 127.2 269.4 127.2 269.4 128.66 257.49 128.66 257.49 107.14"/><path class="cls-6" d="M278,125.78h-2.46v-1.33H278v-1.57c0-4,1.46-6,4.85-6a6.54,6.54,0,0,1,1.53.19v1.35a6.06,6.06,0,0,0-1.34-.16c-2.56,0-3.44,1.3-3.44,4.17v2h2.62v1.32h-2.62v12.88H278Z" transform="translate(-4.05 -10)"/><path class="cls-13" d="M278,125.78h-2.46v-1.33H278v-1.57c0-4,1.46-6,4.85-6a6.54,6.54,0,0,1,1.53.19v1.35a6.06,6.06,0,0,0-1.34-.16c-2.56,0-3.44,1.3-3.44,4.17v2h2.62v1.32h-2.62v12.88H278Z" transform="translate(-4.05 -10)"/><path class="cls-6" d="M285.56,117.14h1.6v2.61h-1.6Zm0,7.34h1.6v14.21h-1.6Z" transform="translate(-4.05 -10)"/><path class="cls-13" d="M285.56,117.13h1.6v2.61h-1.6Zm0,7.35h1.6v14.21h-1.6Z" transform="translate(-4.05 -10)"/><path class="cls-6" d="M298.94,139a7.17,7.17,0,0,1-7.49-6.84,5.61,5.61,0,0,1,0-.58,7.33,7.33,0,0,1,7.27-7.4h.35a8.66,8.66,0,0,1,3.18.63v1.77a6.45,6.45,0,0,0-3.4-.91,5.95,5.95,0,0,0,0,11.88,7.21,7.21,0,0,0,3.68-1.17v1.77a8.18,8.18,0,0,1-3.59.86" transform="translate(-4.05 -10)"/><path class="cls-13" d="M298.94,139a7.17,7.17,0,0,1-7.49-6.84,5.61,5.61,0,0,1,0-.58,7.33,7.33,0,0,1,7.27-7.4h.35a8.66,8.66,0,0,1,3.18.63v1.77a6.45,6.45,0,0,0-3.4-.91,5.95,5.95,0,0,0,0,11.88,7.21,7.21,0,0,0,3.68-1.17v1.77A8.13,8.13,0,0,1,298.94,139Z" transform="translate(-4.05 -10)"/><path class="cls-6" d="M306.38,117.14H308v2.61h-1.61Zm0,7.34H308v14.21h-1.61Z" transform="translate(-4.05 -10)"/><path class="cls-13" d="M306.38,117.13H308v2.61h-1.61Zm0,7.35H308v14.21h-1.61Z" transform="translate(-4.05 -10)"/><path class="cls-6" d="M319.4,139c-4.25,0-7.06-3-7.06-7.65,0-4.32,2.68-7.14,6.6-7.14,3.63,0,6.14,2.64,6.14,6.8V131H314v.16c0,3.81,2.26,6.24,5.34,6.24a8.67,8.67,0,0,0,5.46-2.08v1.73a9.25,9.25,0,0,1-5.42,1.89m3.84-9.29a4.44,4.44,0,0,0-4.4-4.16,4.67,4.67,0,0,0-4.63,4.16Z" transform="translate(-4.05 -10)"/><path class="cls-13" d="M319.4,139c-4.25,0-7.06-3-7.06-7.65,0-4.32,2.68-7.14,6.6-7.14,3.63,0,6.14,2.64,6.14,6.8V131H314v.16c0,3.81,2.26,6.24,5.34,6.24a8.67,8.67,0,0,0,5.46-2.08v1.73A9.21,9.21,0,0,1,319.4,139Zm3.84-9.29a4.46,4.46,0,0,0-4.41-4.16,4.67,4.67,0,0,0-4.62,4.16Z" transform="translate(-4.05 -10)"/><path class="cls-6" d="M329.44,124.45H331v2.27a6.1,6.1,0,0,1,4.92-2.52c3.22,0,5,2.08,5,5.79v8.67h-1.58v-7.91c0-3.4-1.16-5.14-3.62-5.14a5.42,5.42,0,0,0-4.76,3v10h-1.57Z" transform="translate(-4.05 -10)"/><path class="cls-13" d="M329.44,124.45H331v2.27a6.1,6.1,0,0,1,4.92-2.52c3.22,0,5,2.08,5,5.79v8.67h-1.58v-7.91c0-3.4-1.16-5.14-3.62-5.14a5.42,5.42,0,0,0-4.76,3v10h-1.57Z" transform="translate(-4.05 -10)"/><path class="cls-6" d="M350,137.53a5,5,0,0,0,2.35-.74v1.54a6,6,0,0,1-2.57.61c-2.46,0-3.22-1.14-3.22-3.82v-9.34h-3v-1.33h3.09V121.2l1.19-1.39h.39v4.63H352v1.33h-3.81v9.38c0,1.67.25,2.37,1.79,2.37" transform="translate(-4.05 -10)"/><path class="cls-13" d="M350,137.53a5,5,0,0,0,2.35-.74v1.54a6,6,0,0,1-2.57.61c-2.46,0-3.22-1.14-3.22-3.82v-9.34h-3v-1.33h3.09V121.2l1.19-1.39h.39v4.63H352v1.33h-3.81v9.38C348.22,136.83,348.47,137.53,350,137.53Z" transform="translate(-4.05 -10)"/><path class="cls-6" d="M361.79,139c-4.25,0-7.05-3-7.05-7.65,0-4.32,2.68-7.14,6.61-7.14,3.63,0,6.14,2.64,6.14,6.8V131H356.41v.16c0,3.81,2.26,6.24,5.35,6.24a8.69,8.69,0,0,0,5.45-2.08v1.73a9.25,9.25,0,0,1-5.42,1.89m3.87-9.3a4.47,4.47,0,0,0-4.41-4.16,4.69,4.69,0,0,0-4.64,4.16Z" transform="translate(-4.05 -10)"/><path class="cls-13" d="M361.79,139c-4.25,0-7.05-3-7.05-7.65,0-4.32,2.68-7.14,6.61-7.14,3.63,0,6.14,2.64,6.14,6.8V131H356.41v.16c0,3.81,2.26,6.24,5.35,6.24a8.69,8.69,0,0,0,5.45-2.08v1.73A9.17,9.17,0,0,1,361.79,139Zm3.87-9.29a4.47,4.47,0,0,0-4.41-4.16,4.69,4.69,0,0,0-4.64,4.16Z" transform="translate(-4.05 -10)"/></g></g></g></g></g></svg>