<svg xmlns="http://www.w3.org/2000/svg" xmlns:xlink="http://www.w3.org/1999/xlink" viewBox="0 0 840.35 136.19"><defs><style>.cls-1,.cls-13,.cls-8{fill:none;}.cls-2{fill:#31a0c8;}.cls-3{fill:#8e3c85;}.cls-4{fill:#352771;}.cls-5{fill:#3fa2b1;}.cls-11,.cls-6{fill:#070308;}.cls-7{fill:#e0a423;}.cls-8{stroke:#fff;stroke-width:1.5px;}.cls-13,.cls-8{stroke-miterlimit:10;}.cls-9{fill:#294994;}.cls-10{fill:#c3393a;}.cls-11{isolation:isolate;font-size:25.7px;font-family:CenturyGothic, Century Gothic;}.cls-12{clip-path:url(#clip-path);}.cls-13{stroke:#070308;stroke-width:0.34px;}</style><clipPath id="clip-path" transform="translate(0 -10)"><rect class="cls-1" x="472.69" width="371.68" height="150"/></clipPath></defs><title>Todos_1</title><g id="Capa_2" data-name="Capa 2"><g id="Capa_1-2" data-name="Capa 1"><g id="Capa_2-2" data-name="Capa 2"><g id="Capa_1-2-2" data-name="Capa 1-2"><g id="_Grupo_" data-name=" Grupo "><g id="_Grupo_2" data-name=" Grupo 2"><path id="_Trazado_" data-name=" Trazado " class="cls-2" d="M342.55,111.18a12,12,0,1,1-23.9-1.47,12.56,12.56,0,0,1,.9-3.85L301.13,86.05a12,12,0,0,1-15.47-1.31l-14.25,7V140h89.15V100.38Z" transform="translate(0 -10)"/><path id="_Trazado_2" data-name=" Trazado 2" class="cls-3" d="M282.22,77.13v-.82a12,12,0,1,1,24,.08,13.65,13.65,0,0,1-.24,2.54l19.32,20.79A12,12,0,0,1,340,103l20.55-12.28V33.82H271.41V82.37Z" transform="translate(0 -10)"/><path id="_Trazado_compuesto_" data-name=" Trazado compuesto " class="cls-4" d="M414.51,44.46a5.08,5.08,0,1,1,5.07-5.07,5.1,5.1,0,0,1-5.07,5.07M377.83,89.41a5.08,5.08,0,1,1,5.08-5.08,5.1,5.1,0,0,1-5.08,5.08h0m-47.23,26a5.08,5.08,0,1,1,5.07-5.07h0a5,5,0,0,1-5.07,5.07m-36.43-34a5.08,5.08,0,1,1,5.07-5.08h0a5.1,5.1,0,0,1-5.07,5.08m-49.61,24.23a5.08,5.08,0,1,1,5.07-5.08h0a5.05,5.05,0,0,1-5.07,5.08m170-76.22a10.09,10.09,0,0,0-10.07,10,10.25,10.25,0,0,0,2.7,6.88L384.3,76.8A10,10,0,0,0,370.22,78a10.12,10.12,0,0,0-1.64,10.23l-29.22,17.44a10.07,10.07,0,0,0-13.59-4c-.33.16-.66.41-1,.57L303.67,79.42a10,10,0,1,0-19.32-1.06L252.17,94.07a10,10,0,1,0,2.46,6.55A13.8,13.8,0,0,0,254.3,98l31.93-15.55a10,10,0,0,0,14,2,5.79,5.79,0,0,0,1.06-1l20.63,22.19a10,10,0,1,0,17.44,9.74,10.14,10.14,0,0,0,1.31-4.83v-.41L371.2,91.86a10,10,0,0,0,16-11.29L410.91,48.8a10,10,0,1,0,7.28-18.58,8.33,8.33,0,0,0-3.68-.82" transform="translate(0 -10)"/><path id="_Trazado_3" data-name=" Trazado 3" class="cls-4" d="M389.29,80.81A11.94,11.94,0,0,1,371,94.16l-5.16,3.11v20.22h27.59V75.33Z" transform="translate(0 -10)"/><path id="_Trazado_4" data-name=" Trazado 4" class="cls-5" d="M365.8,87.53l.41-.25a12.09,12.09,0,0,1,11.71-14.9,11.65,11.65,0,0,1,6,1.64l9.5-12.69V10H304.24V30.06h61.64Z" transform="translate(0 -10)"/></g></g></g></g><path class="cls-2" d="M64.48,115.61c-.91-4.16-4-6.24-8.19-6.24-6.89,0-9.88,5.72-9.88,11.7,0,6.63,3,12.22,9.88,12.22,5.07,0,8.06-3.64,8.32-8.32h3.9c-.78,7.28-5.2,11.7-12.61,11.7-9,0-13.39-6.63-13.39-15.08s4.81-15.34,13.78-15.34c6.11,0,11.05,3.25,12,9.49H64.48Z" transform="translate(0 -10)"/><path class="cls-2" d="M88.14,106.12c9.23,0,13.91,7.28,13.91,15.21s-4.68,15.21-13.91,15.21-13.91-7.28-13.91-15.21S78.91,106.12,88.14,106.12Zm0,27.17c7,0,10-6.11,10-12s-3-12-10-12-10,6.11-10,12S81.12,133.29,88.14,133.29Z" transform="translate(0 -10)"/><path class="cls-2" d="M109.33,106.9h5.33l9.1,24.44L133,106.9h5.33v29h-3.64V111.71h-.13l-9.1,24.18H122.2l-9.1-24.18H113v24.18h-3.64Z" transform="translate(0 -10)"/><path class="cls-2" d="M147,106.9h12.74c5.85,0,9,3.12,9,8.58s-3.12,8.58-9,8.58h-8.84v11.83H147Zm3.9,13.91h7.54c4.42,0,6.37-1.82,6.37-5.33s-2-5.33-6.37-5.33h-7.54Z" transform="translate(0 -10)"/><path class="cls-2" d="M175.89,106.9h13.65c5.46,0,8.84,3,8.84,7.67,0,3.51-1.56,6.37-5.07,7.41v.13c3.38.65,4,3.12,4.29,6s.13,6.11,1.69,8.06H195c-1-1.17-.52-4.29-1-7.15s-1-5.2-4.81-5.2h-9.49v12.35h-3.9V106.9Zm12,13.39c3.64,0,6.76-.91,6.76-5.2,0-2.86-1.56-4.94-5.2-4.94h-9.62v10.14Z" transform="translate(0 -10)"/><path class="cls-2" d="M214.11,106.9h4.29l11.31,29h-4.29l-3.12-8.71H210l-3.25,8.71h-4Zm-2.86,17h9.88l-4.81-13.52h-.13Z" transform="translate(0 -10)"/><path class="cls-4" d="M22,75.75c-.91-4.16-4-6.24-8.19-6.24-6.89,0-9.88,5.72-9.88,11.7,0,6.63,3,12.22,9.88,12.22,5.07,0,8.06-3.64,8.32-8.32H26c-.78,7.28-5.2,11.7-12.61,11.7C4.42,96.81,0,90.18,0,81.73S4.81,66.39,13.78,66.39c6.11,0,11,3.25,12,9.49H22Z" transform="translate(0 -10)"/><path class="cls-4" d="M45.63,66.26c9.23,0,13.91,7.28,13.91,15.21S54.86,96.68,45.63,96.68,31.72,89.4,31.72,81.47,36.4,66.26,45.63,66.26Zm0,27.17c7,0,10-6.11,10-12s-3-12-10-12-10,6.11-10,12S38.61,93.43,45.63,93.43Z" transform="translate(0 -10)"/><path class="cls-4" d="M66.69,67h3.9V92.78H85.93V96H66.69Z" transform="translate(0 -10)"/><path class="cls-4" d="M104,66.26c9.23,0,13.91,7.28,13.91,15.21S113.23,96.68,104,96.68,90.09,89.4,90.09,81.47,94.77,66.26,104,66.26Zm0,27.17c7,0,10-6.11,10-12s-3-12-10-12-10,6.11-10,12S97,93.43,104,93.43Z" transform="translate(0 -10)"/><path class="cls-4" d="M125.19,67h5.33l9.1,24.44L148.85,67h5.33V96h-3.77V71.85h0L141.31,96h-3.25L129,71.85h-.13V96h-3.64Z" transform="translate(0 -10)"/><path class="cls-4" d="M163,67h10.53c2.47,0,6,0,7.67,1a6.74,6.74,0,0,1,3.38,6.11,6.54,6.54,0,0,1-4.29,6.5v.13a6.67,6.67,0,0,1,5.59,7c0,4.29-3.12,8.32-8.84,8.32H163Zm3.9,12.48h7.67c4.42,0,6.24-1.56,6.24-4.68,0-4-2.86-4.55-6.24-4.55h-7.67Zm0,13.26h9.62c3.38,0,5.46-2,5.46-5.2,0-3.77-3-4.81-6.37-4.81h-8.84v10Z" transform="translate(0 -10)"/><path class="cls-4" d="M193.44,67h3.9V96h-3.9Z" transform="translate(0 -10)"/><path class="cls-4" d="M214.11,67h4.29l11.31,29h-4.29l-3.12-8.71H210L206.7,96h-4Zm-2.86,17h9.88l-4.81-13.52h-.13Z" transform="translate(0 -10)"/><g id="Capa_2-3" data-name="Capa 2"><g id="Capa_1-2-3" data-name="Capa 1-2"><rect class="cls-6" x="476.87" y="4.91" width="4.41" height="96.17"/><rect class="cls-6" x="490.73" y="4.91" width="1.96" height="82.41"/><rect class="cls-6" x="501.27" y="4.91" width="1.95" height="82.41"/><rect class="cls-6" x="509.89" y="4.91" width="2.19" height="82.41"/><rect class="cls-6" x="525.04" y="4.91" width="2.2" height="82.41"/><rect class="cls-6" x="533.53" y="4.91" width="2.2" height="82.41"/><rect class="cls-6" x="548.69" y="4.91" width="2.2" height="82.41"/><rect class="cls-6" x="564.11" y="4.91" width="2.2" height="82.41"/><rect class="cls-6" x="572.58" y="4.91" width="2.2" height="82.41"/><rect class="cls-6" x="644.03" y="4.91" width="2.2" height="82.41"/><rect class="cls-6" x="661.57" y="4.91" width="2.33" height="96.17"/><rect class="cls-6" x="774.47" y="4.91" width="1.89" height="82.41"/><rect class="cls-6" x="668" y="4.91" width="2.33" height="82.41"/><rect class="cls-6" x="691.64" y="4.91" width="2.33" height="82.41"/><rect class="cls-6" x="715.8" y="4.91" width="2.33" height="82.41"/><rect class="cls-6" x="748.18" y="4.91" width="2.33" height="82.41"/><rect class="cls-6" x="780.82" y="4.91" width="2.33" height="82.41"/><rect class="cls-6" x="831.34" y="4.91" width="2.33" height="96.17"/><rect class="cls-6" x="739.71" y="4.91" width="4.1" height="82.41"/><rect class="cls-6" x="835.97" y="4.91" width="4.1" height="96.17"/><rect class="cls-6" x="763.36" y="4.91" width="4.1" height="82.41"/><rect class="cls-6" x="803.14" y="4.91" width="2.18" height="82.41"/><rect class="cls-6" x="787" y="4.91" width="4.09" height="82.41"/><rect class="cls-6" x="811.82" y="4.91" width="4.61" height="82.41"/><rect class="cls-6" x="822.61" y="4.91" width="6.67" height="82.41"/><rect class="cls-6" x="698.6" y="4.91" width="4.1" height="82.41"/><rect class="cls-6" x="631.19" y="4.91" width="2.2" height="82.41"/><rect class="cls-6" x="596.49" y="4.91" width="2.2" height="82.41"/><rect class="cls-6" x="639.79" y="4.91" width="2.47" height="82.41"/><rect class="cls-6" x="620.51" y="4.91" width="4.02" height="82.41"/><rect class="cls-6" x="683.49" y="4.91" width="6.04" height="82.41"/><rect class="cls-6" x="720.23" y="4.91" width="6.04" height="82.41"/><rect class="cls-6" x="754.93" y="4.91" width="6.05" height="82.41"/><rect class="cls-6" x="793.99" y="4.91" width="6.05" height="82.41"/><rect class="cls-6" x="705.07" y="4.91" width="6.04" height="82.41"/><rect class="cls-6" x="648.77" y="4.91" width="4.03" height="96.17"/><rect class="cls-6" x="519.03" y="4.91" width="3.7" height="82.41"/><rect class="cls-6" x="542.67" y="4.91" width="3.71" height="82.41"/><rect class="cls-6" x="557.84" y="4.91" width="3.94" height="82.41"/><rect class="cls-6" x="579.43" y="4.91" width="3.94" height="82.41"/><rect class="cls-6" x="585.9" y="4.91" width="6.15" height="82.41"/><rect class="cls-6" x="609.8" y="4.91" width="8.46" height="82.41"/><rect class="cls-6" x="672.76" y="4.91" width="8.47" height="82.41"/><rect class="cls-6" x="728.79" y="4.91" width="8.46" height="82.41"/><rect class="cls-6" x="601.07" y="4.91" width="6.15" height="82.41"/><rect class="cls-6" x="483.52" y="4.91" width="2" height="96.17"/><rect class="cls-7" x="682.96" y="42.07" width="55.34" height="59.45"/><rect class="cls-8" x="682.96" y="42.07" width="55.34" height="59.45"/><rect class="cls-9" x="762.64" y="24.66" width="23.14" height="63.78"/><rect class="cls-8" x="762.64" y="24.66" width="23.14" height="63.78"/><rect class="cls-10" x="806.57" y="3.81" width="23.3" height="57.78"/><rect class="cls-8" x="806.57" y="3.81" width="23.3" height="57.78"/><text class="cls-11" transform="translate(589.16 128.31)">a</text><g class="cls-12"><path class="cls-13" d="M601.54,127.6a5.45,5.45,0,0,1,1.56,4,5.67,5.67,0,0,1-.7,2.79,5.07,5.07,0,0,1-2,2,5.56,5.56,0,0,1-2.73.74,5.21,5.21,0,0,1-2.67-.74,5.3,5.3,0,0,1-2-2,5.48,5.48,0,0,1,0-5.51,5.29,5.29,0,0,1,4.68-2.75A5.17,5.17,0,0,1,601.54,127.6Zm1.46-2.94v2.51a7,7,0,0,0-2.39-2.14,6.56,6.56,0,0,0-3-.74,6.79,6.79,0,0,0-5,2.1,6.93,6.93,0,0,0-2.07,5,7.09,7.09,0,0,0,2.05,5.14,6.92,6.92,0,0,0,8,1.42,7.34,7.34,0,0,0,2.48-2v2.35h1.73V124.66Z" transform="translate(0 -10)"/></g><text class="cls-11" transform="translate(706.67 128.31)">a</text><g class="cls-12"><path class="cls-13" d="M719.05,127.6a5.46,5.46,0,0,1,1.57,4,5.67,5.67,0,0,1-.7,2.79,5.13,5.13,0,0,1-2,2,5.6,5.6,0,0,1-2.74.74,5.24,5.24,0,0,1-2.67-.74,5.34,5.34,0,0,1-2-2,5.53,5.53,0,0,1,0-5.51,5.31,5.31,0,0,1,4.68-2.75A5.13,5.13,0,0,1,719.05,127.6Zm1.47-2.94v2.51a7,7,0,0,0-2.39-2.14,6.56,6.56,0,0,0-3-.74,6.77,6.77,0,0,0-5,2.1,6.9,6.9,0,0,0-2.09,5,7,7,0,0,0,2,5.14,6.93,6.93,0,0,0,8,1.43,7.62,7.62,0,0,0,2.49-2v2.34h1.73V124.66Z" transform="translate(0 -10)"/><path class="cls-6" d="M488.5,139a11.9,11.9,0,0,1-6.61-1.93,11,11,0,0,1-3.17-15.25,10.45,10.45,0,0,1,1.5-1.82,11.57,11.57,0,0,1,8.28-3.29,16.5,16.5,0,0,1,7.52,2v1.8a16.31,16.31,0,0,0-7.59-2.28A9.8,9.8,0,0,0,483,119.9a9.45,9.45,0,0,0-4.22,8,9.82,9.82,0,0,0,2.74,6.81,9.47,9.47,0,0,0,6.92,2.81,16.47,16.47,0,0,0,7.6-2.27V137a16.15,16.15,0,0,1-7.53,2" transform="translate(0 -10)"/><path class="cls-13" d="M488.5,139a11.9,11.9,0,0,1-6.61-1.93,11,11,0,0,1-3.17-15.25,10.45,10.45,0,0,1,1.5-1.82,11.57,11.57,0,0,1,8.28-3.29,16.5,16.5,0,0,1,7.52,2v1.8a16.31,16.31,0,0,0-7.59-2.28A9.8,9.8,0,0,0,483,119.9a9.45,9.45,0,0,0-4.22,8,9.82,9.82,0,0,0,2.74,6.81,9.47,9.47,0,0,0,6.92,2.81,16.47,16.47,0,0,0,7.6-2.27V137A16.24,16.24,0,0,1,488.5,139Z" transform="translate(0 -10)"/><path class="cls-6" d="M506.61,124.13a7.35,7.35,0,0,1,7.41,7.28v.12a7.5,7.5,0,0,1-2.2,5.27,7.19,7.19,0,0,1-5.19,2.15,7.41,7.41,0,1,1-.47-14.81,3.69,3.69,0,0,1,.47,0m0,13.36a6,6,0,1,0-5.67-6.22v.29a5.74,5.74,0,0,0,5.58,5.92h.09" transform="translate(0 -10)"/><path class="cls-13" d="M506.61,124.13a7.35,7.35,0,0,1,7.41,7.28v.12a7.5,7.5,0,0,1-2.2,5.27,7.19,7.19,0,0,1-5.19,2.15,7.41,7.41,0,1,1-.47-14.81,3.69,3.69,0,0,1,.47,0Zm0,13.36a5.95,5.95,0,1,0-5.66-6.22c0,.1,0,.19,0,.29a5.77,5.77,0,0,0,5.59,5.93Z" transform="translate(0 -10)"/><rect class="cls-6" x="518.2" y="107.13" width="1.62" height="21.51"/><rect class="cls-13" x="518.2" y="107.13" width="1.62" height="21.51"/><path class="cls-6" d="M531.43,124.13a7.39,7.39,0,0,1,7.41,7.35v.05a7.55,7.55,0,0,1-2.21,5.27,7.21,7.21,0,0,1-5.2,2.15,7.41,7.41,0,1,1-.47-14.81,3.69,3.69,0,0,1,.47,0m0,13.36a6,6,0,1,0-5.67-6.22c0,.1,0,.19,0,.29a5.78,5.78,0,0,0,5.61,5.92h.07" transform="translate(0 -10)"/><path class="cls-13" d="M531.43,124.13a7.39,7.39,0,0,1,7.41,7.35v.05a7.55,7.55,0,0,1-2.21,5.27,7.21,7.21,0,0,1-5.2,2.15,7.41,7.41,0,1,1-.47-14.81,3.69,3.69,0,0,1,.47,0Zm0,13.36a5.95,5.95,0,1,0-5.67-6.21c0,.09,0,.19,0,.28a5.77,5.77,0,0,0,5.6,5.93Z" transform="translate(0 -10)"/><path class="cls-6" d="M542.87,124.45h1.57v2.27a5.79,5.79,0,0,1,4.74-2.52,4.39,4.39,0,0,1,4.4,2.89c1.55-2,3.12-2.89,5.1-2.89,3.1,0,4.87,2.08,4.87,5.79v8.67h-1.62v-7.91c0-3.4-1.1-5.14-3.44-5.14a5.07,5.07,0,0,0-4.5,3v10h-1.58v-7.87c0-3.4-1.13-5.14-3.46-5.14-1.85,0-3.37,1-4.51,3v10h-1.57Z" transform="translate(0 -10)"/><path class="cls-13" d="M542.87,124.45h1.57v2.27a5.79,5.79,0,0,1,4.74-2.52,4.39,4.39,0,0,1,4.4,2.89c1.55-2,3.12-2.89,5.1-2.89,3.1,0,4.87,2.08,4.87,5.79v8.67h-1.62v-7.91c0-3.4-1.1-5.14-3.44-5.14a5.07,5.07,0,0,0-4.5,3v10h-1.58v-7.87c0-3.4-1.13-5.14-3.46-5.14-1.85,0-3.37,1-4.51,3v10h-1.57Z" transform="translate(0 -10)"/><path class="cls-6" d="M568.64,117.14h1.51v9.15a6.75,6.75,0,0,1,5-2.2c3.5,0,6.05,2.87,6.05,7a7.42,7.42,0,0,1-7.78,7.82,12,12,0,0,1-4.79-1.11Zm5,20.22c3.4,0,5.81-2.49,5.81-6.14,0-3.38-2.09-5.63-4.8-5.63a5.57,5.57,0,0,0-4.47,2.52v8.13a5.13,5.13,0,0,0,3.47,1.13" transform="translate(0 -10)"/><path class="cls-13" d="M568.64,117.14h1.51v9.15a6.75,6.75,0,0,1,5-2.2c3.5,0,6.05,2.87,6.05,7a7.42,7.42,0,0,1-7.78,7.82,12,12,0,0,1-4.79-1.11Zm5,20.22c3.4,0,5.81-2.49,5.81-6.14,0-3.38-2.09-5.63-4.8-5.63a5.57,5.57,0,0,0-4.47,2.52v8.13a5.14,5.14,0,0,0,3.45,1.12Z" transform="translate(0 -10)"/><path class="cls-6" d="M585.4,117.14H587v2.61h-1.6Zm0,7.34H587v14.21h-1.6Z" transform="translate(0 -10)"/><path class="cls-13" d="M585.4,117.13H587v2.61h-1.6Zm0,7.35H587v14.21h-1.6Z" transform="translate(0 -10)"/><path class="cls-6" d="M626.56,139a11.92,11.92,0,0,1-6.61-1.93,11,11,0,0,1-3.16-15.25,10.86,10.86,0,0,1,1.49-1.82,11.67,11.67,0,0,1,8.28-3.29,16.58,16.58,0,0,1,7.54,2v1.8a16.38,16.38,0,0,0-7.6-2.28,9.78,9.78,0,0,0-5.45,1.62,9.47,9.47,0,0,0-4.22,8,9.79,9.79,0,0,0,2.75,6.81,9.45,9.45,0,0,0,6.93,2.8,16.5,16.5,0,0,0,7.6-2.27V137a16.22,16.22,0,0,1-7.54,2" transform="translate(0 -10)"/><path class="cls-13" d="M626.56,139a11.92,11.92,0,0,1-6.61-1.93,11,11,0,0,1-3.16-15.25,10.86,10.86,0,0,1,1.49-1.82,11.67,11.67,0,0,1,8.28-3.29,16.58,16.58,0,0,1,7.54,2v1.8a16.38,16.38,0,0,0-7.6-2.28,9.78,9.78,0,0,0-5.45,1.62,9.47,9.47,0,0,0-4.22,8,9.79,9.79,0,0,0,2.75,6.81,9.45,9.45,0,0,0,6.93,2.8,16.5,16.5,0,0,0,7.6-2.27V137A16.25,16.25,0,0,1,626.56,139Z" transform="translate(0 -10)"/><path class="cls-6" d="M644.69,124.13a7.34,7.34,0,0,1,7.39,7.29v.11a7.5,7.5,0,0,1-2.2,5.27,7.17,7.17,0,0,1-5.19,2.15,7.41,7.41,0,0,1,0-14.81m0,13.36a6,6,0,1,0-5.67-6.21,2.62,2.62,0,0,0,0,.28,5.76,5.76,0,0,0,5.59,5.92h.09" transform="translate(0 -10)"/><path class="cls-13" d="M644.69,124.13a7.34,7.34,0,0,1,7.39,7.29v.11a7.5,7.5,0,0,1-2.2,5.27,7.17,7.17,0,0,1-5.19,2.15,7.41,7.41,0,0,1,0-14.81Zm0,13.36a5.95,5.95,0,1,0-5.68-6.21c0,.1,0,.19,0,.28a5.77,5.77,0,0,0,5.59,5.93Z" transform="translate(0 -10)"/><path class="cls-6" d="M656.15,124.45h1.57v2.27a5.78,5.78,0,0,1,4.73-2.52,4.38,4.38,0,0,1,4.4,2.89c1.55-2,3.12-2.89,5.14-2.89,3.1,0,4.86,2.08,4.86,5.79v8.67h-1.6v-7.91c0-3.4-1.1-5.14-3.45-5.14a5.07,5.07,0,0,0-4.5,3v10h-1.58v-7.87c0-3.4-1.13-5.14-3.45-5.14q-2.81,0-4.52,3v10h-1.57Z" transform="translate(0 -10)"/><path class="cls-13" d="M656.15,124.45h1.57v2.27a5.78,5.78,0,0,1,4.73-2.52,4.38,4.38,0,0,1,4.4,2.89c1.55-2,3.12-2.89,5.14-2.89,3.1,0,4.86,2.08,4.86,5.79v8.67h-1.6v-7.91c0-3.4-1.1-5.14-3.45-5.14a5.07,5.07,0,0,0-4.5,3v10h-1.58v-7.87c0-3.4-1.13-5.14-3.45-5.14q-2.81,0-4.52,3v10h-1.57Z" transform="translate(0 -10)"/><path class="cls-6" d="M682,124.45h1.47v1a6.37,6.37,0,0,1,4-1.28c4.13,0,7,2.94,7,7.34s-2.83,7.34-7,7.34a6.25,6.25,0,0,1-4-1.26v8.17H682Zm1.47,11.47a4.93,4.93,0,0,0,3.82,1.61c3.07,0,5.37-2.35,5.37-6s-2.3-5.95-5.37-5.95a4.86,4.86,0,0,0-3.82,1.61Z" transform="translate(0 -10)"/><path class="cls-13" d="M682,124.45h1.47v1a6.37,6.37,0,0,1,4-1.28c4.13,0,7,2.94,7,7.34s-2.83,7.34-7,7.34a6.25,6.25,0,0,1-4-1.26v8.17H682Zm1.47,11.47a4.93,4.93,0,0,0,3.82,1.61c3.07,0,5.37-2.35,5.37-6s-2.3-5.95-5.37-5.95a4.86,4.86,0,0,0-3.82,1.61Z" transform="translate(0 -10)"/><path class="cls-6" d="M698.71,124.45h1.6v3.49c1.63-2.49,3-3.74,4.7-3.74a3.78,3.78,0,0,1,2.5,1.06l-.84,1.52a3.57,3.57,0,0,0-2.2-1c-1.37,0-2.62,1.32-4.16,3.91v9h-1.58Z" transform="translate(0 -10)"/><path class="cls-13" d="M698.71,124.45h1.6v3.49c1.63-2.49,3-3.74,4.7-3.74a3.78,3.78,0,0,1,2.5,1.06l-.84,1.52a3.57,3.57,0,0,0-2.2-1c-1.37,0-2.62,1.32-4.16,3.91v9h-1.58Z" transform="translate(0 -10)"/><polygon class="cls-6" points="734.24 107.14 745.9 107.14 745.9 108.52 735.98 108.52 735.98 117.07 745.58 117.07 745.58 118.44 735.98 118.44 735.98 127.2 746.15 127.2 746.15 128.66 734.24 128.66 734.24 107.14"/><polygon class="cls-13" points="734.24 107.14 745.9 107.14 745.9 108.52 735.98 108.52 735.98 117.07 745.58 117.07 745.58 118.44 735.98 118.44 735.98 127.2 746.15 127.2 746.15 128.66 734.24 128.66 734.24 107.14"/><path class="cls-6" d="M750.65,125.78h-2.46v-1.33h2.46v-1.57c0-4,1.47-6,4.86-6a6.61,6.61,0,0,1,1.53.19v1.35a6.06,6.06,0,0,0-1.34-.16c-2.56,0-3.45,1.3-3.45,4.17v2h2.63v1.32h-2.63v12.88h-1.6Z" transform="translate(0 -10)"/><path class="cls-13" d="M750.65,125.78h-2.46v-1.33h2.46v-1.57c0-4,1.47-6,4.86-6a6.61,6.61,0,0,1,1.53.19v1.35a6.06,6.06,0,0,0-1.34-.16c-2.56,0-3.45,1.3-3.45,4.17v2h2.63v1.32h-2.63v12.88h-1.6Z" transform="translate(0 -10)"/><path class="cls-6" d="M758.25,117.14h1.6v2.61h-1.6Zm0,7.34h1.6v14.21h-1.6Z" transform="translate(0 -10)"/><path class="cls-13" d="M758.25,117.13h1.6v2.61h-1.6Zm0,7.35h1.6v14.21h-1.6Z" transform="translate(0 -10)"/><path class="cls-6" d="M771.63,139a7.17,7.17,0,0,1-7.49-6.84,5.61,5.61,0,0,1,0-.58,7.33,7.33,0,0,1,7.27-7.4h.35a8.66,8.66,0,0,1,3.18.63v1.77a6.45,6.45,0,0,0-3.4-.91,5.95,5.95,0,0,0,0,11.88,7.15,7.15,0,0,0,3.67-1.17v1.77a8.11,8.11,0,0,1-3.59.86" transform="translate(0 -10)"/><path class="cls-13" d="M771.63,139a7.17,7.17,0,0,1-7.49-6.84,5.61,5.61,0,0,1,0-.58,7.33,7.33,0,0,1,7.27-7.4h.35a8.66,8.66,0,0,1,3.18.63v1.77a6.45,6.45,0,0,0-3.4-.91,5.95,5.95,0,0,0,0,11.88,7.15,7.15,0,0,0,3.67-1.17v1.77A8.06,8.06,0,0,1,771.63,139Z" transform="translate(0 -10)"/><path class="cls-6" d="M779.07,117.14h1.61v2.61h-1.61Zm0,7.34h1.61v14.21h-1.61Z" transform="translate(0 -10)"/><path class="cls-13" d="M779.07,117.13h1.61v2.61h-1.61Zm0,7.35h1.61v14.21h-1.61Z" transform="translate(0 -10)"/><path class="cls-6" d="M792.09,139c-4.25,0-7.07-3-7.07-7.65,0-4.32,2.69-7.14,6.61-7.14,3.63,0,6.14,2.64,6.14,6.8V131H786.7v.16c0,3.81,2.26,6.24,5.34,6.24a8.69,8.69,0,0,0,5.46-2.08v1.73a9.25,9.25,0,0,1-5.42,1.89m3.84-9.29a4.45,4.45,0,0,0-4.4-4.16,4.67,4.67,0,0,0-4.63,4.16Z" transform="translate(0 -10)"/><path class="cls-13" d="M792.09,139c-4.25,0-7.07-3-7.07-7.65,0-4.32,2.69-7.14,6.61-7.14,3.63,0,6.14,2.64,6.14,6.8V131H786.7v.16c0,3.81,2.26,6.24,5.34,6.24a8.69,8.69,0,0,0,5.46-2.08v1.73A9.21,9.21,0,0,1,792.09,139Zm3.84-9.29a4.46,4.46,0,0,0-4.41-4.16,4.67,4.67,0,0,0-4.62,4.16Z" transform="translate(0 -10)"/><path class="cls-6" d="M802.13,124.45h1.58v2.27a6.1,6.1,0,0,1,4.92-2.52c3.22,0,5,2.08,5,5.79v8.67h-1.58v-7.91c0-3.4-1.17-5.14-3.62-5.14a5.42,5.42,0,0,0-4.76,3v10h-1.57Z" transform="translate(0 -10)"/><path class="cls-13" d="M802.13,124.45h1.58v2.27a6.1,6.1,0,0,1,4.92-2.52c3.22,0,5,2.08,5,5.79v8.67h-1.58v-7.91c0-3.4-1.17-5.14-3.62-5.14a5.42,5.42,0,0,0-4.76,3v10h-1.57Z" transform="translate(0 -10)"/><path class="cls-6" d="M822.71,137.53a5,5,0,0,0,2.35-.74v1.54a6,6,0,0,1-2.57.61c-2.46,0-3.22-1.14-3.22-3.82v-9.34h-3v-1.33h3.1V121.2l1.19-1.39h.38v4.63h3.82v1.33h-3.82v9.38c0,1.67.25,2.37,1.8,2.37" transform="translate(0 -10)"/><path class="cls-13" d="M822.71,137.53a5,5,0,0,0,2.35-.74v1.54a6,6,0,0,1-2.57.61c-2.46,0-3.22-1.14-3.22-3.82v-9.34h-3v-1.33h3.1V121.2l1.19-1.39h.38v4.63h3.82v1.33h-3.82v9.38C820.91,136.83,821.16,137.53,822.71,137.53Z" transform="translate(0 -10)"/><path class="cls-6" d="M834.48,139c-4.25,0-7.05-3-7.05-7.65,0-4.32,2.68-7.14,6.61-7.14,3.63,0,6.14,2.64,6.14,6.8V131H829.09v.16c0,3.81,2.27,6.24,5.36,6.24a8.69,8.69,0,0,0,5.45-2.08v1.73a9.25,9.25,0,0,1-5.42,1.89m3.87-9.3a4.47,4.47,0,0,0-4.41-4.16,4.69,4.69,0,0,0-4.64,4.16Z" transform="translate(0 -10)"/><path class="cls-13" d="M834.48,139c-4.25,0-7.05-3-7.05-7.65,0-4.32,2.68-7.14,6.61-7.14,3.63,0,6.14,2.64,6.14,6.8V131H829.09v.16c0,3.81,2.27,6.24,5.36,6.24a8.69,8.69,0,0,0,5.45-2.08v1.73A9.17,9.17,0,0,1,834.48,139Zm3.87-9.29a4.47,4.47,0,0,0-4.41-4.16,4.69,4.69,0,0,0-4.64,4.16Z" transform="translate(0 -10)"/></g></g></g></g></g></svg>