<svg xmlns="http://www.w3.org/2000/svg" viewBox="0 0 18.1 28.09"><defs><style>.cls-1{fill:#404042;}.cls-2{fill:#fff;}.cls-3{fill:none;stroke:#404042;stroke-miterlimit:10;stroke-width:0.43px;}</style></defs><title>transparencia</title><g id="Capa_2" data-name="Capa 2"><g id="Capa_1-2" data-name="Capa 1"><rect class="cls-1" y="3.4" width="18.1" height="24.69"/><polygon class="cls-2" points="8.21 8.78 8.21 4.43 12.52 0.3 17.12 4.54 17.12 8.95 13.96 5.93 13.97 12 11.19 12 11.18 5.94 8.21 8.78"/><polygon class="cls-3" points="8.21 8.78 8.21 4.43 12.52 0.3 17.12 4.54 17.12 8.95 13.96 5.93 13.97 12 11.19 12 11.18 5.94 8.21 8.78"/><rect class="cls-2" x="2.77" y="14.13" width="12.56" height="1.11"/><rect class="cls-2" x="2.77" y="16.67" width="12.56" height="1.11"/><rect class="cls-2" x="2.77" y="19.44" width="12.56" height="1.11"/><rect class="cls-2" x="2.77" y="22" width="12.56" height="1.11"/><rect class="cls-2" x="2.77" y="24.62" width="12.56" height="1.11"/></g></g></svg>