<svg xmlns="http://www.w3.org/2000/svg" viewBox="0 0 29.64 30.46"><defs><style>.cls-1,.cls-2{fill:#fff;}.cls-1,.cls-3,.cls-6{stroke:#404042;}.cls-1,.cls-3,.cls-5,.cls-6{stroke-miterlimit:10;}.cls-1{stroke-width:0.83px;}.cls-3,.cls-5,.cls-6{fill:none;}.cls-3{stroke-width:0.56px;}.cls-4,.cls-7{fill:#404042;}.cls-5{stroke:#fff;stroke-width:0.07px;}.cls-6{stroke-width:0.34px;}.cls-7{font-size:9px;font-family:MyriadPro-Bold, Myriad Pro;font-weight:700;}</style></defs><title>valor</title><g id="Capa_2" data-name="Capa 2"><g id="Capa_1-2" data-name="Capa 1"><ellipse class="cls-1" cx="14.74" cy="15.4" rx="11.68" ry="11.73"/><path class="cls-2" d="M29.36,16.21a3.43,3.43,0,1,1-3.43-3.43,3.43,3.43,0,0,1,3.43,3.43"/><circle class="cls-3" cx="25.92" cy="16.21" r="3.43"/><polygon class="cls-4" points="24.97 15.84 25.5 16.37 26.88 15 27.4 15.53 25.5 17.42 24.45 16.39 24.97 15.84"/><path class="cls-2" d="M17.77,26.63a3.56,3.56,0,1,1-3.56-3.56,3.56,3.56,0,0,1,3.56,3.56"/><circle class="cls-3" cx="14.22" cy="26.62" r="3.56"/><rect class="cls-4" x="13" y="26.37" width="2.46" height="2.2"/><path class="cls-4" d="M15.08,25.27a.85.85,0,1,1-.85-.85.85.85,0,0,1,.85.85"/><rect class="cls-2" x="13.28" y="27.37" width="0.11" height="1.46"/><rect class="cls-2" x="15.07" y="27.37" width="0.11" height="1.46"/><path class="cls-2" d="M7.07,15.6A3.39,3.39,0,1,1,3.67,12.2,3.4,3.4,0,0,1,7.07,15.6"/><circle class="cls-3" cx="3.67" cy="15.6" r="3.39"/><polyline class="cls-4" points="2.38 15.22 2.38 16.06 3.27 17.2 5.14 16.64 5.24 15.37"/><polygon class="cls-4" points="1.43 14.75 2.3 14.83 1.93 14.4 3.44 14.28 3.85 14.67 4.58 14.37 6.01 14.83 5.25 15.2 6.01 15.44 3.9 15.94 3.21 15.56 2.15 15.54 1.43 14.75"/><line class="cls-5" x1="3.27" y1="17.2" x2="3.27" y2="15.6"/><polygon class="cls-5" points="3.85 14.67 2.3 14.83 3.21 15.56 5.25 15.2 3.85 14.67"/><line class="cls-5" x1="3.85" y1="14.67" x2="3.85" y2="15.45"/><path class="cls-2" d="M17.87,3.67A3.39,3.39,0,1,1,14.48.28a3.39,3.39,0,0,1,3.39,3.39"/><circle class="cls-3" cx="14.48" cy="3.67" r="3.39"/><path class="cls-4" d="M14.18,4.3l.1-2.44s.09-.13.18,0l.08,2.29,1.08,1.07a.15.15,0,0,1-.2.16Z"/><path class="cls-6" d="M14.18,4.3l.1-2.44s.09-.13.18,0l.08,2.29,1.08,1.07a.15.15,0,0,1-.2.16Z"/><text class="cls-7" transform="translate(12.2 18.49)">$</text></g></g></svg>